<svg width="32" height="32" viewBox="0 0 32 32" fill="none" xmlns="http://www.w3.org/2000/svg">
<path fill-rule="evenodd" clip-rule="evenodd" d="M16 32C24.8366 32 32 24.8366 32 16C32 7.16344 24.8366 0 16 0C7.16344 0 0 7.16344 0 16C0 24.8366 7.16344 32 16 32ZM19.2352 10.1378C18.9912 10.2426 18.7705 10.395 18.586 10.586L17.086 12.086C16.9938 12.1815 16.8834 12.2577 16.7614 12.3101C16.6394 12.3625 16.5082 12.3901 16.3754 12.3913C16.2426 12.3924 16.1109 12.3671 15.988 12.3168C15.8651 12.2665 15.7535 12.1923 15.6596 12.0984C15.5657 12.0045 15.4915 11.8929 15.4412 11.77C15.3909 11.6471 15.3656 11.5154 15.3667 11.3826C15.3679 11.2498 15.3955 11.1186 15.4479 10.9966C15.5003 10.8746 15.5765 10.7642 15.672 10.672L17.172 9.172C17.9264 8.44337 18.9368 8.04019 19.9856 8.0493C21.0344 8.05842 22.0376 8.47909 22.7793 9.22073C23.5209 9.96236 23.9416 10.9656 23.9507 12.0144C23.9598 13.0632 23.5566 14.0736 22.828 14.828L19.828 17.828C19.0779 18.5779 18.0607 18.9991 17 18.9991C15.9393 18.9991 14.9221 18.5779 14.172 17.828C13.9898 17.6394 13.889 17.3868 13.8913 17.1246C13.8936 16.8624 13.9988 16.6116 14.1842 16.4262C14.3696 16.2408 14.6204 16.1356 14.8826 16.1333C15.1448 16.131 15.3974 16.2318 15.586 16.414C15.9611 16.7889 16.4697 16.9996 17 16.9996C17.5303 16.9996 18.0389 16.7889 18.414 16.414L21.414 13.414C21.605 13.2295 21.7574 13.0088 21.8622 12.7648C21.967 12.5208 22.0222 12.2584 22.0245 11.9928C22.0268 11.7272 21.9762 11.4639 21.8756 11.2181C21.7751 10.9723 21.6266 10.749 21.4388 10.5612C21.251 10.3734 21.0277 10.2249 20.7819 10.1244C20.5361 10.0238 20.2728 9.97319 20.0072 9.9755C19.7416 9.97781 19.4792 10.033 19.2352 10.1378ZM15 15.0004C14.4697 15.0004 13.9611 15.2111 13.586 15.586L10.586 18.586C10.395 18.7705 10.2426 18.9912 10.1378 19.2352C10.033 19.4792 9.97781 19.7416 9.9755 20.0072C9.97319 20.2728 10.0238 20.5361 10.1244 20.7819C10.2249 21.0277 10.3734 21.251 10.5612 21.4388C10.749 21.6266 10.9723 21.7751 11.2181 21.8756C11.4639 21.9762 11.7272 22.0268 11.9928 22.0245C12.2584 22.0222 12.5208 21.967 12.7648 21.8622C13.0088 21.7574 13.2295 21.605 13.414 21.414L14.914 19.914C15.0062 19.8185 15.1166 19.7423 15.2386 19.6899C15.3606 19.6375 15.4918 19.6099 15.6246 19.6087C15.7574 19.6076 15.8891 19.6329 16.012 19.6832C16.1348 19.7335 16.2465 19.8077 16.3404 19.9016C16.4343 19.9955 16.5085 20.1072 16.5588 20.23C16.6091 20.3529 16.6344 20.4846 16.6332 20.6174C16.6321 20.7502 16.6045 20.8814 16.5521 21.0034C16.4997 21.1254 16.4235 21.2358 16.328 21.328L14.828 22.828C14.459 23.21 14.0176 23.5148 13.5296 23.7244C13.0416 23.934 12.5167 24.0444 11.9856 24.049C11.4545 24.0536 10.9278 23.9524 10.4362 23.7513C9.9446 23.5502 9.49799 23.2532 9.12242 22.8776C8.74685 22.502 8.44984 22.0554 8.24871 21.5638C8.04759 21.0722 7.94638 20.5455 7.951 20.0144C7.95561 19.4833 8.06596 18.9584 8.27559 18.4704C8.48523 17.9824 8.78996 17.541 9.172 17.172L12.172 14.172C12.9221 13.4221 13.9393 13.0009 15 13.0009C16.0607 13.0009 17.0779 13.4221 17.828 14.172C17.9235 14.2642 17.9997 14.3746 18.0521 14.4966C18.1045 14.6186 18.1321 14.7498 18.1332 14.8826C18.1344 15.0154 18.1091 15.1471 18.0588 15.27C18.0085 15.3928 17.9343 15.5045 17.8404 15.5984C17.7465 15.6923 17.6348 15.7665 17.512 15.8168C17.3891 15.8671 17.2574 15.8924 17.1246 15.8913C16.9918 15.8901 16.8606 15.8625 16.7386 15.8101C16.6166 15.7577 16.5062 15.6815 16.414 15.586C16.0389 15.2111 15.5303 15.0004 15 15.0004Z" fill="#e9983e"/>
</svg>
