<svg width="289" height="36" viewBox="0 0 288.838 35.296" fill="none" xmlns="http://www.w3.org/2000/svg">
  <g transform="translate(0, 0)">
    <g id="Group">
<path id="Vector" d="M24.5339 32.5109L24.4886 31.8828L24.4032 31.2597L24.2625 30.6417L24.2324 30.0136L24.157 29.3905L24.0615 28.7675L24.1168 28.1293L24.0565 27.5013L23.9158 26.8832V26.2501L23.8254 25.6271L23.8405 24.9939L23.6646 24.3809L23.6797 23.7478L23.534 23.1298L23.4938 22.5017L23.4536 21.8736L23.4033 21.2455L23.3279 20.6225L23.2325 19.9994L23.1471 19.3764L23.1571 18.7432L23.0868 18.1202V17.9242L22.9461 18.3011L22.735 18.8387L22.5742 19.4417L22.323 20.1401L22.0567 20.7179L21.8808 21.2154L21.715 21.8485L21.4638 22.5067L21.1824 23.2152L20.9262 23.6373L20.8407 24.2804L20.4538 24.9186L19.7554 27.3153C19.7102 27.4661 19.5142 27.5063 19.4087 27.3857L17.6099 25.2703L17.3436 24.8181L16.9114 24.4764L16.3738 23.8282L16.012 23.2856L15.5899 22.768L15.2784 22.2505L14.8865 21.8334L14.4895 21.3209L14.1177 20.9189L13.5248 20.3662L13.1932 19.7381L12.8314 19.3361L12.4445 18.8236L12.0325 18.3664L11.5652 17.8036L11.2788 17.3715L11.0024 17.1504L11.0175 17.7685L11.1733 18.3965L11.1431 19.0447L11.2185 19.6829L11.2737 20.321L11.3541 20.9591L11.5501 21.5872L11.5149 22.2354L11.6406 22.8685L11.6305 23.5167L11.6657 24.1598L11.7561 24.798L11.8667 25.4311V26.0793L11.9621 26.7124L12.1129 27.3455L12.0576 27.9987L12.1179 28.6368L12.2837 29.2649L12.3289 29.9081L12.4545 30.5412L12.4998 31.1843L12.5802 31.8225L12.5601 32.4707L12.6857 33.1038L12.756 33.7419L12.7761 34.1037C12.7811 34.2444 12.9017 34.3599 13.0475 34.3599H13.3942L14.0222 34.3348L14.6503 34.3147L15.2784 34.3298L15.9065 34.3951H16.5346L17.1627 34.4202L17.7908 34.4403L18.4188 34.4554L19.0469 34.4202L19.675 34.3348L20.3031 34.4052L20.9312 34.3248L21.5593 34.4655L22.1873 34.4052L22.8154 34.3951L23.4435 34.3398L24.0716 34.4303L24.4484 34.4102C24.5942 34.4001 24.7097 34.2846 24.7097 34.1389V33.752L24.5741 33.1339L24.554 32.5058L24.5339 32.5109Z" fill="#222222"/>
<path id="Vector_2" d="M0.0687043 1.61914L0.621422 1.6543L1.25956 1.55381L1.89769 1.47845L2.54085 1.4483L3.18401 1.37795L3.83219 1.4081L4.47033 1.28248L5.11851 1.35283L5.75664 1.19707L6.3998 1.17696L7.04799 1.23223L7.69115 1.17193L8.32928 1.05135L8.97243 1.01114L9.61559 0.940804L10.2638 0.970951L10.912 1.01114L11.5551 0.965921L12.1933 0.850363L12.8414 0.764937L13.4997 0.850363L14.1479 0.724746H14.8011L15.4543 0.679511L16.1025 0.619217L16.7506 0.548879L17.4038 0.523747L18.0571 0.4936L18.7153 0.584056L19.3635 0.523747L20.0066 0.388086L20.6598 0.373013L21.313 0.342866L21.9713 0.388086L22.6195 0.272513L23.2727 0.222278L23.9309 0.262469L24.5791 0.151926L25.2273 0.0765584L25.8855 0.172029L26.5337 0.101676L27.1869 0.041382L27.8451 0.0916318L28.3777 0.0011913C28.433 -0.00885805 28.4833 0.0464042 28.4632 0.101676L28.3024 0.5941L28.0763 1.18701L27.7848 1.75983L27.609 2.37284L27.3427 2.9557L27.1869 3.57876L26.9407 4.16664L26.6493 4.73946L26.5136 5.36754L26.2674 5.95542L26.0312 6.54835L25.785 7.13622L25.5539 7.72915L25.3428 8.32707L25.0765 8.90994L24.9861 9.55309L24.6796 10.1209L24.4535 10.7188L24.1821 11.2967L24.0264 11.9197L23.755 12.4976L23.5742 13.1106L23.3732 13.7135L23.0466 14.2713L22.8858 14.8893L22.6044 15.4621L22.4989 16.1002L22.2175 16.6781L21.9864 17.271L21.7552 17.8639L21.5241 18.4568L21.3583 19.0749L21.1422 19.6728L20.8759 20.2557L20.6598 20.8586L20.499 21.4817L20.2729 22.0796L20.0368 22.6725L19.7001 23.2303L19.6147 23.8785L19.2781 24.4362L19.1223 24.9789C19.1122 25.0241 19.0519 25.0341 19.0268 24.999L18.66 24.5668L18.3334 24.0091L17.8159 23.6021L17.4038 23.1097L17.0471 22.572L16.6401 22.0746L16.3034 21.5219L15.8613 21.0546L15.4693 20.5471L15.0322 20.0748L14.5599 19.6326L14.2534 19.0548L13.8263 18.5774L13.4394 18.0649L13.0072 17.5876L12.5952 17.0951L12.2385 16.5575L11.726 16.1405L11.3692 15.6028L10.9522 15.1154L10.5552 14.6079L10.1784 14.0854L9.67086 13.6683L9.30406 13.1357L8.90209 12.6332L8.57047 12.0755L8.11322 11.6182L7.65095 11.166L7.2339 10.6786L6.8269 10.1812L6.4199 9.68374L6.12344 9.10088L5.70639 8.60847L5.22403 8.17131L4.90245 7.60855L4.4854 7.11614L4.0583 6.63376L3.62116 6.16144L3.24933 5.63385L2.76193 5.20172L2.48055 4.6038L2.00321 4.16162L1.66153 3.60891L1.17916 3.16673L0.731965 2.69944L0.430482 2.11155L0.0184622 1.73973C-0.0217353 1.70455 0.00841097 1.6342 0.0636824 1.63923L0.0687043 1.61914Z" fill="#EA5520"/>
<path id="Vector_3" d="M50.8632 31.6868L50.8933 31.0738C50.8933 31.0738 50.8933 31.0688 50.8933 31.0637L50.8682 30.4356V29.8025V29.1694V28.5363L50.8783 27.9133C50.8783 27.9032 50.8783 27.8982 50.8783 27.8932L50.7727 27.2902C50.7727 27.2902 50.7727 27.2701 50.7727 27.2601L50.828 26.647C50.828 26.647 50.828 26.642 50.828 26.637L50.8381 26.019C50.8381 26.019 50.8381 26.0089 50.8381 25.9989L50.7577 25.3858C50.7577 25.3858 50.7577 25.3708 50.7577 25.3657L50.7878 24.7527C50.7878 24.7527 50.7878 24.7427 50.7878 24.7326L50.7275 24.1196C50.7275 24.1196 50.7275 24.1046 50.7275 24.0945L50.7828 23.4765C50.7828 23.4765 50.7828 23.4664 50.7828 23.4614L50.7727 22.8333L50.7376 22.2052C50.7376 22.2052 50.7376 22.2002 50.7376 22.1952L50.6471 21.5822C50.6471 21.5822 50.6471 21.5621 50.6471 21.552L50.7175 20.944C50.7175 20.944 50.7175 20.929 50.7175 20.9239L50.6773 20.3009L50.632 19.6828C50.632 19.6828 50.632 19.6627 50.632 19.6527L50.7426 19.0497C50.7426 19.0497 50.7426 19.0296 50.7426 19.0146L50.6873 18.3965L50.6019 17.7785C50.6019 17.7785 50.6019 17.7584 50.6019 17.7483L50.6572 17.1353C50.6572 17.1353 50.6572 17.1253 50.6572 17.1202L50.627 16.5022V16.4922L50.5366 15.8792C50.5366 15.8792 50.5366 15.8591 50.5366 15.849L50.6019 15.236C50.6019 15.236 50.6019 15.2259 50.6019 15.2209L50.5918 14.7737C50.5918 14.7034 50.5315 14.6481 50.4612 14.6531L50.1748 14.6632C50.1748 14.6632 50.1647 14.6632 50.1597 14.6632L49.4914 14.7687C49.4914 14.7687 49.4764 14.7687 49.4663 14.7687L48.6875 14.7436L48.2805 14.7235C48.2805 14.7235 48.2503 14.7235 48.2403 14.7235L47.6323 14.8993C47.6323 14.8993 47.6022 14.9044 47.5871 14.8993L46.8032 14.8441H46.7932L46.135 14.8591C46.135 14.8591 46.1249 14.8591 46.1149 14.8591L45.5722 14.7938C45.5722 14.7938 45.5521 14.7938 45.537 14.7938L45.0094 14.8692C45.0094 14.8692 44.9994 14.8692 44.9944 14.8692L44.2557 14.8843L43.6628 14.8742C43.6628 14.8742 43.6528 14.8742 43.6477 14.8742L43.1151 14.9245L42.4368 15.0199C42.4368 15.0199 42.4267 15.0199 42.4217 15.0199L41.7333 15.035L41.0801 15.0752C41.0801 15.0752 41.0751 15.0752 41.0701 15.0752H40.4269C40.4269 15.0752 40.4269 15.0752 40.4219 15.0752L39.0652 15.1456C39.0652 15.1456 39.0502 15.1456 39.0401 15.1456L38.4422 15.0652C38.4422 15.0652 38.4221 15.0652 38.412 15.0652L37.9699 15.1054C37.9699 15.1054 37.9699 15.1054 37.9648 15.1054L37.6684 15.1506C37.6081 15.1606 37.5629 15.2109 37.5629 15.2712V15.5124L37.5779 16.1404C37.5779 16.1404 37.5779 16.1455 37.5779 16.1505L37.6483 16.7786L37.7086 17.3966C37.7086 17.3966 37.7086 17.4167 37.7086 17.4268L37.6181 18.0347C37.6181 18.0347 37.6181 18.0448 37.6181 18.0498V18.6679C37.6181 18.6679 37.6131 18.6729 37.6131 18.6779L37.5578 19.2859C37.5578 19.2859 37.5578 19.311 37.5578 19.3211L37.6784 19.919C37.6784 19.919 37.6784 19.9391 37.6784 19.9491L37.6382 20.5672L37.6231 21.2003L37.6332 21.8234C37.6332 21.8234 37.6332 21.8334 37.6332 21.8384L37.5679 22.4414C37.5679 22.4414 37.5679 22.4665 37.5679 22.4816L37.6935 23.0745C37.6935 23.0745 37.6935 23.0996 37.6935 23.1097L37.6332 23.7177C37.6332 23.7177 37.6332 23.7277 37.6332 23.7327V24.3558L37.6684 24.9839C37.6684 24.9839 37.6684 24.9889 37.6684 24.9939L37.6433 25.617C37.6433 25.617 37.6433 25.622 37.6433 25.627L37.6684 26.24C37.6684 26.24 37.6684 26.2601 37.6684 26.2702L37.5478 26.8681C37.5478 26.8681 37.5478 26.8933 37.5478 26.9083L37.6282 27.5163C37.6282 27.5163 37.6282 27.5213 37.6282 27.5264L37.6633 28.1494C37.6633 28.1494 37.6633 28.1544 37.6633 28.1595L37.6483 28.7775V28.7875L37.6885 29.4006C37.6885 29.4006 37.6885 29.4156 37.6885 29.4257L37.6031 30.0337C37.6031 30.0337 37.6031 30.0437 37.6031 30.0487V30.6668V30.6768L37.5377 31.2949C37.5377 31.2949 37.5377 31.3049 37.5377 31.3099V31.923C37.5377 31.923 37.5377 31.938 37.5428 31.9481L37.6734 32.546C37.6734 32.546 37.6734 32.5762 37.6734 32.5912L37.5779 33.1892C37.5779 33.1892 37.5779 33.1992 37.5779 33.2093V33.8223C37.5779 33.8223 37.5729 33.8323 37.5729 33.8374L37.6231 34.3499C37.6282 34.4051 37.6684 34.4504 37.7236 34.4604L38.2211 34.5609C38.2211 34.5609 38.2563 34.5609 38.2713 34.5609L38.8642 34.4453C38.8642 34.4453 38.8994 34.4453 38.9145 34.4453L39.5124 34.576C39.5124 34.576 39.5275 34.576 39.5325 34.576L40.1606 34.6061L40.7937 34.6262C40.7937 34.6262 40.8038 34.6262 40.8088 34.6262L41.4369 34.581C41.4369 34.581 41.4419 34.581 41.4469 34.581L42.075 34.5911C42.075 34.5911 42.08 34.5911 42.0851 34.5911L42.7132 34.6564C42.7132 34.6564 42.7182 34.6564 42.7232 34.6564L43.3513 34.6664C43.3513 34.6664 43.3563 34.6664 43.3613 34.6664L43.9894 34.6262C43.9894 34.6262 43.9995 34.6262 44.0045 34.6262L44.6376 34.6514L45.2757 34.6765L45.9088 34.7016C45.9088 34.7016 45.9139 34.7016 45.9189 34.7016L46.5319 34.777C46.5319 34.777 46.557 34.777 46.5671 34.777L47.17 34.6765C47.17 34.6765 47.1952 34.6765 47.2052 34.6765L47.8082 34.7519C47.8082 34.7519 47.8233 34.7519 47.8333 34.7519L48.4413 34.7066C48.4413 34.7066 48.4664 34.7066 48.4765 34.7066L49.0794 34.8272C49.0794 34.8272 49.0945 34.8272 49.1045 34.8272H49.7276L50.3557 34.7971C50.3607 34.7971 50.3657 34.7971 50.3758 34.7971L50.8481 34.8473C50.9285 34.8574 50.9988 34.787 50.9838 34.7066L50.9235 34.2343C50.9235 34.2343 50.9235 34.2192 50.9235 34.2092L50.9637 33.5911C50.9637 33.5911 50.9637 33.5861 50.9637 33.5811L50.9536 32.958C50.9536 32.958 50.9536 32.948 50.9536 32.943L51.024 32.335C51.024 32.335 51.024 32.3048 51.024 32.2898L50.8783 31.6968C50.8783 31.6968 50.8783 31.6717 50.8783 31.6617L50.8632 31.6868Z" fill="#EA5520"/>
<path id="Vector_4" d="M29.4681 1.50859L29.4329 1.98593L29.4681 2.62909L29.4229 3.27225L29.3978 3.91039V4.54852L29.5334 5.19168L29.4128 5.82981L29.4681 6.47298L29.4179 7.11614L29.5385 7.75929V8.40245L29.443 9.04561L29.4631 9.68877L29.5334 10.3319L29.4631 10.9751L29.3978 11.6182L29.5234 12.2614L29.4078 12.9046L29.3676 13.5477L29.4128 14.005C29.4229 14.1205 29.5184 14.211 29.6389 14.216L30.0962 14.2361L30.7394 14.1858L31.3775 14.0602L32.0206 14.1205L32.6638 14.0954L33.307 14.1155L33.9501 14.0703L34.5933 14.0904L35.2364 14.0703L35.8796 14.0401L36.5177 13.8944L37.1659 13.9698L37.804 13.8743L38.4472 13.8191L39.0954 13.9045L39.7386 13.8743L40.3817 13.8391H41.0249L41.668 13.804L42.3112 13.7939L42.9493 13.7035L43.5925 13.6432L44.2356 13.6532L44.8788 13.6382L45.522 13.5477L46.1701 13.6231L46.8133 13.608L47.4565 13.6532L48.0946 13.4724L48.7377 13.5075L49.3809 13.5276L50.019 13.4221L50.6622 13.397L51.3104 13.4573L51.9535 13.3618L52.5967 13.3467L53.2449 13.402L53.888 13.3216L54.5312 13.2663L55.1794 13.3668L55.8175 13.2462L56.4607 13.2111H57.1038L57.752 13.2864L58.2495 13.2161C58.3349 13.206 58.4002 13.1407 58.4102 13.0553L58.4705 12.578L58.5359 11.9549L58.6012 11.3369L58.5158 10.7037L58.5459 10.0807L58.6263 9.46265V8.83457L58.6665 8.21151L58.8675 7.5985L58.7419 6.96539L58.8524 6.34736L58.8373 5.71928L58.9378 5.10124V4.47818L59.1037 3.86517L59.0534 3.23709L59.1137 2.61401L59.1639 1.99096L59.1941 1.50859C59.1991 1.42318 59.1388 1.35282 59.0534 1.34277L58.5509 1.29755L57.9028 1.33273L57.2546 1.42317L56.6064 1.27745L55.9582 1.37292L55.31 1.3277L54.6618 1.4483L54.0137 1.42317L53.3655 1.37292L52.7173 1.44327L52.0691 1.39805L51.4209 1.41312L50.7727 1.42317L50.1246 1.31262H49.4764L48.8282 1.38298L48.18 1.44327L47.5318 1.45332L46.8836 1.3679L46.2355 1.28248L45.5873 1.4081L44.9391 1.43321L44.2909 1.35283L43.6427 1.29755L42.9945 1.38298L42.3464 1.3076L41.6982 1.38298L41.05 1.32268L40.4018 1.38298L39.7536 1.39302L39.1054 1.40307L38.4573 1.4483L37.8091 1.37795L37.1609 1.29755L36.5127 1.4483L35.8645 1.40307L35.2163 1.3076L34.5682 1.37795L33.92 1.31765L33.2718 1.29755L32.6236 1.39302L31.9754 1.42317L31.3272 1.29252L30.6791 1.37292L30.0309 1.3277L29.5485 1.37292C29.4631 1.38297 29.3978 1.44829 29.3877 1.53371L29.4681 1.50859Z" fill="#222222"/>
</g>
  </g>
  <g transform="translate(65.74, 9.97)">
    <g id="Group">
<path id="Vector" d="M11.3581 19.1293L10.7853 19.1042L10.4738 19.1544L9.84571 19.1042L9.34827 19.1544C9.21763 19.1544 9.06186 19.1544 8.93121 19.1293L8.80058 19.1042L8.19762 19.1544H7.88609L7.3384 19.1796C7.10224 19.1544 6.86607 19.0992 6.63493 18.9183L6.55455 18.8379V17.9234L6.57967 17.5566L6.60479 17.0591C6.60479 17.0089 6.62992 16.9285 6.62992 16.8783L6.65504 16.7225L6.68017 16.1195L6.65504 15.808L6.60479 15.2603L6.57967 14.9488V14.6121C6.57967 14.5317 6.55455 14.4011 6.57967 14.3257L6.62992 14.1147L6.68017 13.5419L6.70529 13.2303L6.59977 12.6023V12.3661L6.38873 11.8184L6.23296 11.5571L6.05208 11.0597L5.87119 10.7984L5.63503 10.2507L5.424 10.0145L5.13759 9.51709L4.95669 9.2307L4.69541 8.91915C4.61502 8.81364 4.53964 8.70813 4.48437 8.58251L4.43414 8.40161L4.19798 8.00969C4.17285 7.95944 4.11757 7.85392 4.09245 7.77353L4.04221 7.61776L3.78092 7.22584L3.54476 6.93945L3.28348 6.46712L3.12772 6.15558L2.86642 5.63303L2.73579 5.37173L2.39412 4.82404L2.05746 4.35675C2.00721 4.27636 1.95194 4.17587 1.92681 4.09548L1.84642 3.91458L1.50474 3.39201L1.34898 3.13073L1.11282 2.66344L0.98217 2.40216L0.590246 1.77408L0.434482 1.59318L0.092808 0.995242C-0.0127103 0.839477 -0.0378275 0.628443 0.0676907 0.447554H0.223454C0.303849 0.447554 0.434495 0.422428 0.509865 0.397305L0.720893 0.347055L1.29371 0.372187L1.55499 0.321937L2.25844 0.372187L2.56997 0.347055L3.2483 0.452584L3.50958 0.502818H4.18792L4.57984 0.452584L5.28331 0.372187C5.4642 0.347064 5.75059 0.452586 6.04202 0.658598L6.09227 0.683715L6.43395 1.57308L6.58971 1.78412L6.87612 2.28156L7.05702 2.51772L7.34341 2.90964C7.39366 2.99004 7.47405 3.09054 7.49918 3.19605L7.54943 3.35182L7.76047 4.00502L8.15239 4.60799C8.28304 4.73863 8.38855 4.91951 8.46392 5.10543L8.54432 5.31647C8.56944 5.36672 8.56944 5.42199 8.56944 5.47223L8.61969 5.65311L8.98649 6.22593L9.14226 6.53746L9.42867 6.61786L9.60955 6.35658L9.76531 6.09529L10.0768 5.44209L10.3381 4.91951L10.4688 4.57784L10.7552 4.0804L10.9109 3.86936L11.1973 3.34679L11.3531 3.06039L11.5089 2.69359C11.5591 2.53782 11.6395 2.4323 11.7199 2.32678L12.0314 1.75397L12.1118 1.51781L12.3982 0.995242L12.4485 0.914846C12.5289 0.809327 12.6043 0.703806 12.7098 0.628435C12.8907 0.497794 13.1268 0.392281 13.3881 0.367158H13.5187L14.0916 0.316908H14.378L14.9508 0.291791L15.1618 0.316908C15.2121 0.316908 15.2673 0.316917 15.3176 0.34204L15.4734 0.367158L16.1014 0.417408L16.4431 0.337011H16.8602C16.9908 0.337011 17.1214 0.337014 17.2521 0.387261L17.4078 0.412378L18.1666 0.387261C18.3776 0.412384 18.5585 0.517906 18.7143 0.673671L18.6339 0.884699L18.4228 1.14599L18.1364 1.64343L17.9807 1.95496L17.8249 2.24137C17.7747 2.37201 17.6943 2.4524 17.6139 2.5529L17.5335 2.63329L17.3224 3.07547C17.2973 3.15586 17.242 3.23123 17.1918 3.31163L17.1415 3.41714L16.9305 3.78395C16.9054 3.86434 16.8501 3.91458 16.825 3.96483L16.7195 4.12059L16.4582 4.61803L16.3275 4.85419L15.9356 5.40188L15.805 5.58278L15.4382 6.18574L15.3075 6.47214L14.9659 7.04496L14.6292 7.67304L14.4986 7.98457L14.2373 8.40161C14.187 8.50713 14.1066 8.61265 14.0262 8.68802L13.9458 8.76842L13.6846 9.26586L13.6594 9.37139C13.6343 9.50203 13.579 9.58242 13.5288 9.68292L13.2926 10.0246L13.0816 10.3361L12.7148 10.8838L12.5038 11.4064C12.4535 11.537 12.3982 11.6174 12.3229 11.6928L12.2174 11.8234L12.0063 12.3711L11.9259 12.6826V13.6223L12.0063 14.1951V14.4815L12.0566 15.2101V15.8884L12.0817 16.0442C12.1068 16.1748 12.1068 16.2803 12.1068 16.411L12.0566 16.828L12.0314 17.4812L12.0566 17.848L12.0063 18.4761C11.9812 18.6319 11.9008 18.8128 11.7953 18.9183C11.6898 19.0489 11.5089 19.0992 11.2978 19.1293H11.3581Z" fill="#222222"/>
<path id="Vector_2" d="M29.2912 18.7123L29.2108 18.5816L28.8742 18.0591L28.8239 17.9284C28.7988 17.848 28.7737 17.7978 28.7435 17.6923L28.638 17.1948L28.5074 16.9084L28.0903 16.6471L27.6733 16.6974L27.0201 16.7476L26.7588 16.7979L26.186 16.7727H25.8996C25.8493 16.7727 25.794 16.7727 25.7187 16.7476L25.2765 16.6672H23.9701L23.3722 16.6923H22.9802L22.4828 16.9034L22.4024 17.2149L22.1662 17.7877L22.0858 17.9435L21.9803 18.1797C21.8999 18.4158 21.7693 18.5967 21.6386 18.7022L21.5582 18.9384L21.297 19.0941C21.1412 19.1997 20.9553 19.2499 20.7744 19.275L20.1463 19.1946L19.8046 19.2198L19.2318 19.1946L18.8901 19.2198L18.7846 19.2449C18.6791 19.27 18.5484 19.27 18.4429 19.27L18.2872 19.2449L18.0259 19.2198L17.3476 19.2449H16.7446C16.6642 19.2449 16.614 19.2449 16.5336 19.2198L16.3225 19.1695C16.1416 19.1946 15.9557 19.0891 15.8804 18.9334L15.9859 18.647C16.011 18.5666 16.0663 18.5414 16.0914 18.4912L16.1969 18.3354L16.4331 17.838L16.5386 17.6018L16.6944 17.2099C16.7195 17.1044 16.7747 16.9737 16.8501 16.8682L16.9556 16.7376L17.1918 16.2401L17.2169 16.1346C17.242 16.004 17.3224 15.8482 17.3978 15.7176L17.634 15.3809L17.7646 15.0392L17.9756 14.6724C18.0259 14.5669 18.0812 14.4915 18.1565 14.386L18.2369 14.2805L18.448 13.8635C18.4982 13.7579 18.5535 13.6826 18.6037 13.6022L18.7092 13.4967L18.9454 12.9992L18.9705 12.8937C18.9957 12.7631 19.076 12.6073 19.1514 12.4767L19.3625 12.1902L19.4931 11.8486L19.7544 11.3813L19.885 11.12L20.0961 10.5723L20.1764 10.3613L20.4629 9.81358L20.488 9.78845C20.5131 9.60756 20.5935 9.4518 20.699 9.29101L20.91 9.0046L21.0658 8.71819L21.302 8.06498L21.4075 7.77857C21.4326 7.75345 21.4577 7.72833 21.4879 7.67306L21.7994 7.15049L21.9049 6.93946L22.2165 6.41689L22.3974 6.10536L22.5782 5.58279L22.6034 5.45215C22.6285 5.4019 22.6838 5.32151 22.7089 5.24112L22.8144 5.00496C22.8647 4.87432 22.9953 4.74367 23.1008 4.63815L23.1812 4.55775L23.3621 4.01007L23.543 3.67342L23.754 3.15085L23.9098 2.88956L24.2213 2.39212L24.2716 2.08059L24.4022 1.76906C24.4826 1.55803 24.5831 1.40227 24.7137 1.27163L24.975 0.749055L25.1057 0.568159C25.1308 0.543035 25.186 0.462651 25.2112 0.437527L25.4473 0.151117C25.4976 0.125994 25.578 0.201356 25.6282 0.331998L25.8393 0.698805L26.1005 1.14098C26.1257 1.19123 26.1809 1.24649 26.2061 1.32186L26.2563 1.42739L26.3618 1.66355L26.6734 2.21124L26.7789 2.42227L26.9095 2.70868C27.015 2.91971 27.0653 3.07548 27.0653 3.25636L27.3266 3.67342L27.5075 3.98495L27.7939 4.55775L27.8994 4.79391L28.2913 5.36673L28.4219 5.65313L28.6581 6.20083L28.7888 6.46211L29.05 6.87915C29.0752 6.9294 29.1304 6.95955 29.1555 7.03492L29.2359 7.1907L29.4721 7.79365L29.5525 8.10517L29.8891 8.678L29.9947 8.93927L30.3363 9.43673L30.4419 9.61761L30.7032 10.1904L30.7836 10.4015L31.0699 10.924C31.0951 11.0044 31.1202 11.0547 31.1503 11.1602L31.2006 11.2406L31.4619 11.8134L31.6176 12.1802L31.9292 12.8083L32.0598 13.0193L32.3211 13.4615C32.3713 13.567 32.4015 13.6424 32.4266 13.7228L32.4517 13.8283L32.6879 14.4011L32.8185 14.6373L33.0547 15.1096L33.2356 15.4462L33.4466 15.9939L33.6024 16.2301L33.9139 16.7527L34.0697 17.0893L34.4114 17.6621L34.4616 17.7124C34.542 17.7928 34.5671 17.8681 34.6174 17.9988L34.7731 18.3907L34.8787 18.6269C34.8787 18.6269 34.748 18.9133 34.6174 19.069C34.4867 19.1745 34.331 19.1745 34.1752 19.1745H33.6526L33.4969 19.1494L32.8688 19.1997L32.713 19.2248C32.6628 19.2248 32.6326 19.1997 32.5824 19.1997L32.0347 19.1745L31.693 19.0941L31.0649 19.069H30.7785L30.5172 19.0941L30.2057 19.1193C30.0248 19.1444 29.8138 19.0942 29.6027 18.9635C29.4972 18.8831 29.3666 18.7826 29.2912 18.6771V18.7123ZM25.2463 10.5673L25.0906 10.8537L24.8293 11.4014L24.7238 11.7682L24.5127 12.3159L24.4625 12.5269L24.3821 12.8686L24.563 13.155L24.8494 13.1047L25.5277 13.155L26.0754 13.1299H26.4422L26.5729 12.7128L26.5226 12.4767L26.2865 11.7983L26.1307 11.537L25.8443 10.9341L25.7388 10.5924L25.6333 10.2256L25.3468 10.2758L25.2413 10.5622L25.2463 10.5673Z" fill="#222222"/>
<path id="Vector_3" d="M45.7922 0.623426L46.3952 0.754057L46.762 0.804307L47.6212 1.04047L47.9076 1.17111C48.0383 1.22136 48.1689 1.30176 48.2744 1.40727L48.4051 1.48767L48.8724 1.77408L49.1839 2.03536L49.7065 2.42728L49.9175 2.66344L50.1788 2.92472C50.2592 3.00512 50.3345 3.08049 50.3898 3.16088L50.4401 3.24128L50.7013 3.68345C50.7265 3.7337 50.7516 3.83922 50.7817 3.91961L50.8621 4.07538L50.9928 4.33666C51.0983 4.57282 51.1234 4.7537 51.1234 4.93459L51.3043 5.45716C51.3294 5.50741 51.3847 5.5878 51.3847 5.63804L51.4098 5.76869L51.4349 6.00485C51.4601 6.21589 51.4852 6.3415 51.4349 6.55254V6.60279L51.4852 6.91432L51.4048 7.30624V7.33137L51.3545 7.56753L51.4048 8.11522C51.4048 8.19562 51.3797 8.27099 51.3797 8.35138V8.56241L51.1988 9.08498L51.043 9.45179L50.8069 10.0246L50.5707 10.522C50.5205 10.6276 50.4652 10.7029 50.3898 10.8084L50.2843 10.914L49.9979 11.2255C49.9476 11.3059 49.8924 11.3813 49.817 11.4365L49.7115 11.5169L49.214 11.934V11.9591C49.1085 12.1149 48.9528 12.2204 48.7719 12.3259L48.4855 12.4565H48.4603C48.3297 12.5621 48.1739 12.6374 48.0182 12.6927L47.6514 12.8233L47.3901 12.9289L46.762 13.1399L46.4756 13.2454L46.0033 13.3761C45.9229 13.4012 45.8224 13.4012 45.742 13.4012H45.4807L44.9079 13.4514L44.5662 13.5017L44.1743 13.6072C44.0437 13.6323 43.913 13.6323 43.7824 13.6323H43.702L43.4407 13.6574H43.2045L42.7372 13.6323L42.5563 13.8685L42.5312 14.18V15.1699L42.481 15.7979V16.1095L42.4558 16.7376L42.4307 17.1044V17.6018L42.4558 17.7073C42.481 17.8631 42.5061 17.9686 42.481 18.1244L42.4307 18.5414C42.4307 18.6218 42.0639 19.0891 41.8579 19.1946C41.8328 19.2198 41.7775 19.2197 41.7273 19.2197L41.2047 19.1946H40.8932L40.3957 19.1444L40.1344 19.0941L39.5064 19.1997L38.5165 19.2499H38.2803L37.8382 19.1997C37.7879 19.1997 37.7075 19.1745 37.6573 19.1494L37.4211 19.069L37.2101 18.8077C37.1598 18.7575 37.1046 18.6771 37.0795 18.5967L36.9991 18.4158L37.0493 17.7626L37.0995 17.4762L37.1799 16.5868L37.0995 15.9587L37.0493 15.5668L36.9991 15.1246C36.9991 15.0191 36.9739 14.9136 36.9991 14.8131L37.0493 14.6573L37.0744 14.1097L37.0995 13.7429L37.1498 13.17L37.0995 12.8836L37.1247 12.2807L37.0995 11.944L37.0493 11.3963L36.9689 11.0597V10.3009C36.9689 10.1954 36.9689 10.0397 36.994 9.93415L37.0995 9.5171L37.1498 9.17542L37.1247 8.62773L37.0191 8.26093L36.994 7.76349C36.994 7.63285 37.0192 7.5826 37.0443 7.45196L37.0694 7.37157L37.1498 6.74348L37.1247 6.37667L37.0744 5.95963C37.0493 5.82899 37.0493 5.67323 37.0744 5.54259L37.1247 5.41194L37.0995 4.99489C37.0995 4.86425 37.1247 4.70849 37.1498 4.57785L37.1749 4.47233L37.1498 3.94976L37.0995 3.63823L37.0191 3.11566C37.0191 3.03527 36.994 2.98503 36.994 2.90463L37.0191 2.74886V2.09565L36.994 1.78413V0.92491C36.994 0.92491 37.2302 0.613378 37.4362 0.452589C37.5166 0.402342 37.6724 0.372192 37.7779 0.372192H38.4311C38.5617 0.347069 38.7426 0.372186 38.8733 0.397309L39.2099 0.477706L39.5214 0.427456H40.1746L40.4862 0.402339H40.8279L41.1394 0.352089H41.5062L42.0036 0.402339H42.3453L43.2849 0.482736H43.9884L44.2748 0.507853L44.6667 0.457603H44.8225C44.928 0.457603 45.0586 0.482729 45.1642 0.507853L45.5309 0.613367L45.7922 0.638499V0.623426ZM42.5262 5.29637L42.476 5.58278V5.76366L42.3956 6.33648L42.5011 6.59776L42.476 7.20073L42.5563 7.6429L42.6367 8.21571V8.63276L42.9231 9.02469L43.496 8.99956L43.8879 8.97444L44.1743 8.92419L44.8275 8.81867L45.0637 8.66291L45.5862 8.14034L45.8726 7.6429V7.01482L45.8475 6.75352L45.8224 6.38673L45.536 5.78376L45.1189 5.31144L44.8074 5.13056L44.2597 4.99992H44.0235L43.712 4.91952L43.4005 4.8944L42.9031 4.9748L42.5362 5.28633L42.5262 5.29637Z" fill="#222222"/>
<path id="Vector_4" d="M52.9675 8.24585L53.1484 7.56753L53.2288 7.25598L53.2539 6.88919C53.279 6.73343 53.3041 6.62791 53.3594 6.49727L53.4097 6.39174L53.6207 5.91943L53.7011 5.63302L54.0428 5.03006L54.1483 4.76878L54.4598 4.22109C54.5402 4.09045 54.696 3.9598 54.8266 3.85428L54.8517 3.82917L55.0326 3.59301L55.6858 2.91467L55.8416 2.70363L56.2586 2.23131L56.4144 2.10068C56.4948 2.02028 56.5953 1.9449 56.7008 1.88963L57.3038 1.5781L57.6957 1.31683C57.746 1.26658 57.8263 1.23642 57.9067 1.2113L58.1178 1.1309L58.7207 0.869623L58.8765 0.71386L59.5046 0.477699L59.7659 0.321935L60.5748 0.110892C60.6804 0.0857687 60.7859 0.0606576 60.8864 0.0606576H61.3587L61.4642 0.035525C61.5949 0.0104016 61.7757 0.0104016 61.9064 0.035525H61.9868L62.0923 0.0104077C62.2481 -0.0147157 62.4038 0.0104016 62.5646 0.035525L62.9013 0.0104077H63.5042L64.1323 0.0908044L64.474 0.141054L65.1021 0.191289L65.2578 0.216421C65.3081 0.216421 65.3885 0.216415 65.4387 0.241539L65.9362 0.397302L66.1723 0.477699L66.7753 0.608346L67.0115 0.71386L67.4034 0.819374C67.5591 0.86962 67.6898 0.924892 67.8456 1.05553L67.8958 1.10578L68.0767 1.41731C68.1822 1.57308 68.2576 1.75899 68.2877 1.965V3.47743L68.2626 3.76384L68.1822 4.46729V4.80395L68.132 5.40691C68.132 5.40691 67.9209 5.64306 67.74 5.74858C67.6345 5.79883 67.4788 5.74859 67.3732 5.72346L66.9813 5.5677L66.6949 5.43705L65.7804 5.28129L65.077 5.17578L64.7906 5.12553L64.1625 4.96976L64.0569 4.99488C63.8761 5.02 63.7203 5.02001 63.5344 4.96976L63.1676 4.94465H62.9314L62.2782 5.05016L61.9114 5.15567L61.3085 5.31144L60.5246 5.65311L60.3136 5.80889L60.0272 6.12042C59.9468 6.20081 59.8965 6.25105 59.791 6.33145L59.6101 6.43698L59.2684 6.80377L59.0574 7.06506L58.8464 7.50722L58.6906 7.79363L58.4796 8.3162L58.374 8.57748L58.3238 9.17542L58.3489 9.46183L58.374 9.56734C58.3992 9.69798 58.4243 9.85376 58.3992 9.9844V10.0899L58.374 10.4014L58.5298 10.8989C58.5549 10.9793 58.5549 11.0295 58.5549 11.0798L58.58 11.3411L58.7911 11.8636L58.9217 12.2304L59.1579 12.7279L59.3689 13.0947L59.786 13.4363L60.0473 13.6172L60.5949 13.9036L61.5346 14.3458L61.8762 14.4513L62.4742 14.5568L62.7857 14.6071L62.8359 14.582C63.0168 14.5569 63.2027 14.5568 63.3836 14.6071L63.7253 14.5267L64.2228 14.5016L64.5343 14.5267L65.0317 14.4765L65.293 14.3961L65.9714 14.3157L66.2578 14.185L66.911 14.0041L67.1722 13.9237L67.6395 13.7127C67.6395 13.7127 67.7953 13.763 67.9511 13.8433C68.2124 13.974 68.2928 14.2604 68.2928 14.5468V14.8081L68.3732 15.1196L68.3983 15.5367C68.3983 15.6422 68.3732 15.7175 68.3732 15.7979L68.348 16.0592L68.3229 16.6873L68.3732 17.029L68.2928 17.7073C68.3179 17.838 68.2927 17.9937 68.1872 18.1746C68.0817 18.3857 67.926 18.4861 67.7451 18.5917L67.2225 18.853C67.117 18.9032 67.0115 18.9333 66.911 18.9585L66.6748 19.0087L66.102 19.1142C65.9462 19.2449 65.7653 19.2951 65.5292 19.3253L65.2177 19.3504L64.8508 19.481L64.2228 19.5313L63.8811 19.5564H63.7253C63.6449 19.5564 63.5696 19.5564 63.4892 19.5313L63.2028 19.481L62.9163 19.5313L62.5747 19.5062H62.2631L61.9767 19.481H61.429C61.3235 19.481 61.1929 19.4559 61.0874 19.4308L60.9065 19.3805L60.6452 19.3554H60.4894C60.3337 19.3805 60.1477 19.3554 59.992 19.3052L59.6503 19.1997L59.3639 19.0941L59.0775 18.9886L58.6856 18.8077L58.4243 18.7575L57.8766 18.4711L57.6656 18.3153L57.1179 17.9736L56.8315 17.7375L56.3893 17.4259L56.1029 17.2702L55.711 16.9586C55.6607 16.9084 55.5803 16.8782 55.5301 16.8029L55.3743 16.5918L55.0628 16.1999L54.9573 16.0693C54.907 15.9889 54.8266 15.9638 54.7764 15.8582L54.5402 15.4412L54.3593 15.1548L54.0729 14.7126C54.0227 14.6071 53.9423 14.5317 53.9171 14.4262L53.7363 13.9288L53.6056 13.6926L53.4247 13.0896L53.3443 12.8032L53.1634 12.1751L53.083 11.9641C53.0328 11.8586 52.9775 11.7531 52.9775 11.5973L52.9524 11.1803L52.9273 10.8939L52.877 10.6326C52.8519 10.4215 52.8519 10.2407 52.9022 10.0598V9.43168L52.877 9.30103C52.8519 9.14527 52.8519 8.93423 52.877 8.77846L52.9022 8.51718L52.9826 8.23077L52.9675 8.24585Z" fill="#222222"/>
<path id="Vector_5" d="M71.2674 5.19589C71.3176 5.04013 71.398 4.9346 71.4784 4.82908L71.5287 4.74869C71.6593 4.5678 71.8151 4.4874 72.0261 4.38188L72.0512 4.35676L72.5738 3.98996L72.6793 3.93972C72.7597 3.9146 72.8351 3.85932 72.9155 3.83419L72.9657 3.80908C73.1767 3.75883 73.3576 3.72868 73.5385 3.75883H73.644C73.7747 3.7337 73.9304 3.75883 74.0611 3.78396L74.1666 3.80908H74.453L74.7646 3.85933C74.9203 3.88445 75.0761 3.90957 75.2318 4.01509L75.7293 4.27637L75.9102 4.40701C75.9906 4.45726 76.0659 4.51252 76.1212 4.58789L76.1715 4.63814C76.3272 4.84918 76.4327 5.03008 76.4579 5.24111V5.26623L76.5634 5.8692V5.97471C76.5885 6.1556 76.5634 6.28624 76.5383 6.44703L76.5131 6.57768L76.488 6.86407L76.3574 7.43689C76.3322 7.61778 76.2267 7.82882 76.0961 7.98458L75.885 8.27099C75.8047 8.42676 75.6238 8.53227 75.3625 8.66292L75.3122 8.68803C75.2067 8.73828 75.0761 8.76842 74.9706 8.79355L74.5786 8.8438C74.4982 8.86892 74.4229 8.86893 74.3676 8.86893H74.2118L74.1867 8.89405C74.0058 8.94429 73.8199 8.94429 73.639 8.89405L73.3275 8.86893H73.0411C72.8853 8.86893 72.6994 8.81868 72.5436 8.73828L72.4381 8.68803L71.9407 8.37651L71.8904 8.32626C71.7598 8.22074 71.6291 8.11522 71.5538 7.98458L71.3427 7.64291V7.61777C71.2925 7.51226 71.2372 7.43689 71.2121 7.30625L71.1317 7.04497C71.1066 6.93945 71.0815 6.78368 71.0815 6.67816V5.99983C71.0815 5.91943 71.1066 5.7888 71.1317 5.71343L71.2121 5.34663L71.2624 5.19086L71.2674 5.19589ZM71.3176 13.572L71.4483 13.3359L71.5287 13.2555C71.6844 13.0193 71.8402 12.8887 72.0512 12.8133L72.2874 12.5771C72.3929 12.4967 72.4984 12.4214 72.5989 12.3661L72.7296 12.2857L72.9104 12.2355C73.0662 12.1852 73.2521 12.1551 73.433 12.1852H73.4833L73.7697 12.1601L74.1063 12.2103C74.2621 12.1852 74.4982 12.2103 74.7093 12.2907L74.8902 12.3711L75.1012 12.4515C75.1514 12.4767 75.2067 12.4766 75.2821 12.5319L75.4127 12.6123L75.6991 12.7932L75.7494 12.8183C75.88 12.8987 75.9604 12.949 76.0609 13.0545C76.2418 13.2354 76.3725 13.4464 76.3976 13.6273V13.6524L76.5031 14.2554L76.5282 14.386C76.5533 14.5167 76.5282 14.6724 76.5031 14.8031L76.478 14.8835L76.4277 15.2201L76.4026 15.7427C76.4026 15.8482 76.3775 15.9537 76.3523 16.0291L76.272 16.2401L75.9353 16.6572L75.8298 16.7878C75.7795 16.8381 75.674 16.9185 75.5936 16.9687L75.2821 17.1496L75.2017 17.1998C75.0711 17.2802 74.8902 17.3054 74.7294 17.3305L74.3375 17.3807L74.2068 17.4059C74.0762 17.431 73.9455 17.431 73.8149 17.4059L73.634 17.3807L73.3225 17.4059L73.0863 17.3807C72.825 17.3556 72.614 17.2752 72.4833 17.1697L72.0914 16.9084C72.011 16.8582 71.9357 16.8029 71.8804 16.7275L71.8301 16.6773L71.4131 16.1547C71.3327 16.0743 71.3076 15.9437 71.2573 15.7628L71.2071 15.5819C71.182 15.4512 71.1568 15.3457 71.1568 15.2452V15.1648L71.182 14.798L71.1317 14.5619L71.1066 14.4312C71.1066 14.2755 71.1066 14.1197 71.1568 13.9338L71.2071 13.8032C71.2322 13.6976 71.2875 13.6474 71.3126 13.567L71.3176 13.572Z" fill="#222222"/>
<path id="Vector_6" d="M78.6788 5.19589C78.729 5.04013 78.8094 4.9346 78.8898 4.82908L78.9401 4.74869C79.0707 4.5678 79.2265 4.4874 79.4375 4.38188L79.4626 4.35676L79.9852 3.98996L80.0907 3.93972C80.1711 3.9146 80.2465 3.85932 80.3269 3.83419L80.3771 3.80908C80.5881 3.75883 80.769 3.72868 80.9499 3.75883H81.0554C81.1861 3.7337 81.3418 3.75883 81.4725 3.78396L81.578 3.80908H81.8644L82.1759 3.85933C82.3317 3.88445 82.4875 3.90957 82.6432 4.01509L83.1407 4.27637L83.3216 4.40701C83.402 4.45726 83.4773 4.51252 83.5326 4.58789L83.5829 4.63814C83.7386 4.84918 83.8441 5.03008 83.8693 5.24111V5.26623L83.9748 5.8692V5.97471C83.9999 6.1556 83.9748 6.28624 83.9497 6.44703L83.9245 6.57768L83.8994 6.86407L83.7688 7.43689C83.7436 7.61778 83.6381 7.82882 83.5075 7.98458L83.2964 8.27099C83.216 8.42676 83.0352 8.53227 82.7739 8.66292L82.7236 8.68803C82.6181 8.73828 82.4875 8.76842 82.3819 8.79355L81.99 8.8438C81.9096 8.86892 81.8343 8.86893 81.779 8.86893H81.6232L81.5981 8.89405C81.4172 8.94429 81.2313 8.94429 81.0504 8.89405L80.7389 8.86893H80.4525C80.2967 8.86893 80.1108 8.81868 79.955 8.73828L79.8495 8.68803L79.3521 8.37651L79.3018 8.32626C79.1712 8.22074 79.0405 8.11522 78.9652 7.98458L78.7541 7.64291V7.61777C78.7039 7.51226 78.6486 7.43689 78.6235 7.30625L78.5431 7.04497C78.518 6.93945 78.4928 6.78368 78.4928 6.67816V5.99983C78.4928 5.91943 78.518 5.7888 78.5431 5.71343L78.6235 5.34663L78.6737 5.19086L78.6788 5.19589ZM78.729 13.572L78.8597 13.3359L78.9401 13.2555C79.0958 13.0193 79.2516 12.8887 79.4626 12.8133L79.6988 12.5771C79.8043 12.4967 79.9098 12.4214 80.0103 12.3661L80.1409 12.2857L80.3218 12.2355C80.4776 12.1852 80.6635 12.1551 80.8444 12.1852H80.8946L81.1811 12.1601L81.5177 12.2103C81.6735 12.1852 81.9096 12.2103 82.1207 12.2907L82.3016 12.3711L82.5126 12.4515C82.5628 12.4767 82.6181 12.4766 82.6935 12.5319L82.8241 12.6123L83.1105 12.7932L83.1608 12.8183C83.2914 12.8987 83.3718 12.949 83.4723 13.0545C83.6532 13.2354 83.7838 13.4464 83.809 13.6273V13.6524L83.9145 14.2554L83.9396 14.386C83.9647 14.5167 83.9396 14.6724 83.9145 14.8031L83.8893 14.8835L83.8391 15.2201L83.814 15.7427C83.814 15.8482 83.7889 15.9537 83.7637 16.0291L83.6834 16.2401L83.3467 16.6572L83.2412 16.7878C83.1909 16.8381 83.0854 16.9185 83.005 16.9687L82.6935 17.1496L82.6131 17.1998C82.4824 17.2802 82.3016 17.3054 82.1408 17.3305L81.7488 17.3807L81.6182 17.4059C81.4876 17.431 81.3569 17.431 81.2263 17.4059L81.0454 17.3807L80.7339 17.4059L80.4977 17.3807C80.2364 17.3556 80.0254 17.2752 79.8947 17.1697L79.5028 16.9084C79.4224 16.8582 79.347 16.8029 79.2918 16.7275L79.2415 16.6773L78.8245 16.1547C78.7441 16.0743 78.719 15.9437 78.6687 15.7628L78.6185 15.5819C78.5933 15.4512 78.5682 15.3457 78.5682 15.2452V15.1648L78.5933 14.798L78.5431 14.5619L78.518 14.4312C78.518 14.2755 78.518 14.1197 78.5682 13.9338L78.6185 13.8032C78.6436 13.6976 78.6989 13.6474 78.724 13.567L78.729 13.572Z" fill="#222222"/>
<path id="Vector_7" d="M86.5374 0.387265H86.668L87.1906 0.412382L87.5825 0.387265H88.1302L88.4417 0.362132L88.8336 0.337015C88.9392 0.337015 89.0447 0.337009 89.1452 0.362132L89.326 0.387265L89.8737 0.437514L90.1601 0.357118L90.8133 0.382235L91.0998 0.407368L91.7781 0.382235H92.0394L92.5619 0.357118C92.6423 0.357118 92.773 0.357112 92.8484 0.382235H92.9539L93.3458 0.407368L93.6322 0.357118L93.8131 0.331985C93.8633 0.331985 93.9689 0.306868 94.0241 0.306868L94.5969 0.331985L94.8582 0.382235L95.4562 0.331985L95.6119 0.306868C95.6622 0.306868 95.7426 0.331985 95.7928 0.331985L96.3958 0.382235L96.7626 0.407368L97.3655 0.326971H97.7072L98.074 0.301838C98.2298 0.276715 98.3604 0.301848 98.4911 0.326971H100.189C100.295 0.326971 100.4 0.377216 100.501 0.482735C100.682 0.6385 100.787 0.819377 100.843 1.00529C100.868 1.11081 100.868 1.18619 100.868 1.31683L100.843 1.86452L100.868 2.30669C100.868 2.43734 100.843 2.59309 100.817 2.72374L100.792 2.85438L100.817 3.48247L100.767 4.24118C100.742 4.47734 100.662 4.63311 100.531 4.84415L100.481 4.92455L100.169 4.8743H99.1493L98.7071 4.95469C98.6267 4.97982 98.5514 4.95469 98.471 4.95469H98.2348L97.6871 5.00494L97.4258 4.97981L96.7726 4.92958L96.4862 5.08534L96.1194 5.39687V5.76366L96.1697 6.18072C96.1948 6.33648 96.1697 6.41688 96.1445 6.57264L96.1194 6.67816V7.12033C96.1194 7.22585 96.1194 7.27609 96.0943 7.38161L96.044 7.61777L95.9636 8.11522L96.0692 8.42675L96.0943 8.94932C96.0943 9.07996 96.1194 9.1302 96.0943 9.26085L96.044 9.41661L96.1244 9.85878C96.1496 9.98943 96.1244 10.0698 96.1244 10.1703L96.0993 10.3261L96.1244 10.9793V11.2657L96.0742 11.9189C96.1244 12.1299 96.1546 12.3359 96.0993 12.547L96.1496 12.8585L96.1244 13.1198L96.0993 13.5921C96.0993 13.7228 96.0742 13.8534 96.0189 14.0092L95.9938 14.0343V14.6875L96.0189 14.999L96.0993 15.6522V15.9889L96.1496 16.4863V16.8783L96.0993 17.5817L96.0491 17.8681L95.9988 18.5464C95.9737 18.6771 95.8682 18.8881 95.7124 19.0941L95.6873 19.1193L95.3456 19.1695H94.7728L94.6422 19.1946C94.4864 19.2198 94.3558 19.2198 94.2 19.1946L93.9136 19.1444H93.6272L92.9991 19.1193L92.6876 19.1444L92.1148 19.1193L91.7731 19.1444L91.1751 19.1193C91.1751 19.1193 90.6777 18.7525 90.6526 18.5163V18.466L90.6274 17.9435V17.632L90.6526 16.9787L90.6023 16.6672L90.6274 16.0944V15.9135L90.6777 15.5718V14.9438L90.5973 14.6825L90.5722 14.1599C90.5722 14.0544 90.5973 14.0041 90.5973 13.9237L90.6224 13.7127L90.5722 13.2957V12.9841L90.5973 12.8535L90.5722 12.4867C90.5722 12.2505 90.5973 12.0948 90.6777 11.9139V11.2858L90.6274 10.9994L90.5772 10.5271V10.2406L90.6023 10.0296L90.5772 9.35129L90.527 9.09001V8.59256C90.527 8.48704 90.5269 8.38153 90.5521 8.30616L90.6023 8.15038V7.55246L90.5772 7.24092L90.6023 6.66811L90.5772 6.3817L90.5521 5.8089L90.527 5.47224L90.2405 5.10543L89.9039 5.08031L89.2004 4.99991L88.9392 4.9748L88.3663 5.05519H87.6629C87.5071 5.05519 87.3765 5.03007 87.2458 4.9748L87.0901 4.92455L86.462 4.89942C86.3565 4.92454 86.2509 4.89943 86.1504 4.84918C85.9696 4.76879 85.864 4.63814 85.8138 4.48237C85.7334 4.32661 85.7334 4.1407 85.7636 3.98494L85.8138 3.54276V2.86443L85.7636 2.4725V1.79417L85.7887 1.29673C85.7887 1.21634 85.8138 1.14096 85.8389 1.06057L85.8892 0.824409L86.1002 0.613366C86.2309 0.482724 86.3866 0.402329 86.5725 0.377205L86.5374 0.387265Z" fill="#222222"/>
<path id="Vector_8" d="M105.33 19.4459L105.068 19.3403L104.31 19.1846L103.837 19.0791C103.707 19.0539 103.551 18.9987 103.445 18.9233L103.365 18.8731L102.948 18.6922C102.842 18.6419 102.792 18.6419 102.712 18.5615L102.581 18.4811L101.953 18.0892L101.772 17.9334C101.722 17.8832 101.667 17.853 101.642 17.8279L101.275 17.4611L101.144 17.3556C101.064 17.2752 101.039 17.225 100.988 17.1747L100.677 16.7325L100.521 16.5215L100.184 15.9236L100.054 15.6874L99.8427 15.3206C99.7623 15.19 99.7121 15.0342 99.6869 14.8483V14.798L99.5814 14.1699L99.5312 13.9338L99.4809 13.4112V12.9942L99.5061 12.8384L99.4809 12.552V12.2103C99.4307 12.0294 99.4307 11.7933 99.4809 11.532L99.5061 11.3762L99.5563 11.1401L99.8176 10.4869C99.8176 10.2758 99.8427 10.0949 99.9482 9.8839L100.104 9.59749L100.235 9.31109L100.546 8.81364L100.757 8.57748L101.044 8.13531C101.124 8.02979 101.199 7.89915 101.305 7.82378L101.591 7.5625C101.672 7.48211 101.747 7.43185 101.853 7.3816L101.933 7.33137L102.456 6.98968L102.717 6.8088L103.214 6.49727C103.265 6.47215 103.345 6.41687 103.395 6.39174L103.606 6.31136L103.867 6.18071C104.048 6.0752 104.259 6.02494 104.496 6.05007L104.968 5.86919C105.018 5.84406 105.073 5.84406 105.149 5.81894L105.36 5.79382L105.933 5.71342L106.194 5.68829H107.184L107.626 5.71342C107.731 5.71342 107.837 5.76367 107.912 5.79382L108.068 5.84405L108.746 6.02495L109.113 6.13046L109.766 6.36662L109.977 6.47214L110.525 6.78367L110.631 6.83392C110.711 6.88416 110.786 6.93944 110.867 7.01481L111.204 7.32634L111.384 7.50722L111.801 7.9494L112.012 8.16044L112.379 8.50211C112.46 8.58251 112.56 8.683 112.615 8.78852L112.641 8.83877L113.032 9.43671L113.083 9.51709C113.188 9.67286 113.239 9.8035 113.294 9.95927L113.399 10.4014L113.58 10.9743C113.605 11.0245 113.605 11.13 113.605 11.1853L113.63 11.3963L113.711 11.6827C113.761 11.8938 113.761 12.0495 113.736 12.2555L113.711 12.3611L113.736 12.6726L113.656 12.959C113.681 13.1399 113.656 13.2957 113.605 13.5318L113.555 13.7931L113.475 14.1599L113.394 14.7076L113.314 15.0995L113.183 15.5166C113.158 15.6221 113.133 15.6975 113.103 15.7779L112.997 15.9587L112.736 16.4562C112.711 16.5366 112.656 16.5617 112.605 16.6371L112.525 16.7426L112.108 17.2903L111.636 17.7576C111.555 17.838 111.455 17.9133 111.374 17.9686L111.193 18.0741L110.621 18.3857L110.41 18.5967L109.967 18.8077C109.887 18.858 109.837 18.858 109.756 18.8881L109.576 18.9384L108.973 19.1997L108.661 19.2801L108.138 19.4107L107.249 19.4911H106.963L106.882 19.5162C106.727 19.5413 106.49 19.5413 106.335 19.5162V19.4911L105.968 19.5715L105.495 19.4911C105.415 19.466 105.365 19.466 105.315 19.4408L105.33 19.4459ZM105.279 10.6979L104.837 11.1953L104.707 11.537L104.47 12.1098L104.521 12.4214V12.5018C104.521 12.6073 104.521 12.7128 104.496 12.8133L104.47 13.0494L104.496 13.3107L104.601 13.8835L104.707 14.1951L105.204 14.7428L105.415 14.8985L106.093 15.1096L106.33 15.0844L106.435 15.0593C106.566 15.0091 106.721 15.0091 106.852 15.0091H106.958L107.35 14.9839L107.953 14.7729L108.37 14.2252L108.395 14.0142L108.576 13.778L108.731 13.2052L108.681 12.8937L108.762 12.6073L108.812 12.346L108.731 12.0043L108.626 11.4064L108.415 11.1702L108.103 10.6979L107.842 10.517L107.008 10.3361L106.641 10.4165L106.38 10.3361H106.093L105.465 10.4919L105.284 10.7029L105.279 10.6979Z" fill="#222222"/>
<path id="Vector_9" d="M120.082 19.1594L119.771 19.1343L118.962 19.265L118.489 19.2901C118.384 19.2901 118.278 19.265 118.203 19.2398L117.967 19.1896L117.288 19.1645L116.922 19.1896L116.319 19.1092L116.007 19.1594C116.007 19.1594 115.565 18.7675 115.485 18.5565C115.459 18.4761 115.485 18.451 115.485 18.3756L115.535 17.8782V17.5114L115.51 17.0943C115.51 16.9888 115.485 16.8582 115.51 16.7526L115.56 16.5416L115.535 15.8884V15.6522L115.485 15.0241V14.7629L115.434 14.1348V13.1449L115.409 12.8836L115.459 12.2304L115.485 11.9691V11.3963L115.434 11.0044L115.409 10.3261L115.434 9.98941L115.485 9.4166L115.535 9.13019L115.51 8.52722L115.485 8.16043L115.535 7.58761L115.485 7.35145L115.434 7.03992C115.409 6.90928 115.409 6.75352 115.434 6.62288L115.459 6.51735L115.54 6.25608L115.515 5.57774L115.595 4.89941L115.545 4.48237V3.69852L115.57 3.48747L115.595 2.96492V2.65339L115.57 2.05042L115.52 1.7389L115.495 1.24144V1.00528L115.545 0.744004L115.625 0.693754C115.887 0.482718 116.198 0.407353 116.515 0.432476H116.695L116.982 0.457594H118.469L118.756 0.377197L119.384 0.326962L120.087 0.35208C120.087 0.35208 120.715 0.769131 120.791 1.03041V1.11081L120.816 1.52785C120.816 1.65849 120.816 1.78913 120.791 1.91978L120.765 1.97003L120.791 2.67348L120.896 3.04029V3.58797C120.896 3.69349 120.896 3.74373 120.871 3.84925V3.9799L120.74 4.55272C120.791 4.73361 120.765 4.89438 120.715 5.02502L120.765 5.62799L120.74 5.93952L120.821 6.46209V6.8289L120.871 7.50722L120.896 7.66298C120.896 7.71323 120.871 7.76851 120.871 7.81876L120.821 8.44684L120.871 8.73324L120.765 9.43671L120.846 9.8035L121.027 9.93414L121.238 9.69798L121.449 9.51709L121.735 9.07493L121.891 8.76338L122.228 8.16043L122.409 7.94939L122.67 7.5826C122.72 7.5022 122.8 7.42683 122.881 7.34644L123.012 7.24091L123.353 6.77362V6.72337C123.434 6.5676 123.564 6.46209 123.695 6.35658C123.876 6.20081 124.087 6.14553 124.348 6.17568L125.026 6.15056L125.418 6.12543L125.991 6.15056L126.358 6.10031L126.669 6.05006H127.036L127.348 6.07519L127.895 5.9948L128.107 6.01992H128.262L128.735 6.10031L129.021 6.12543C129.257 6.20582 129.438 6.33647 129.493 6.51735L129.338 6.7284C129.312 6.75352 129.287 6.80879 129.257 6.83391L128.815 7.33136L128.604 7.61776L128.318 8.05993L128.162 8.37146L128.006 8.63275C127.926 8.78852 127.795 8.91916 127.695 9.02468L127.514 9.28596L127.177 9.72813L127.021 10.0145L126.76 10.4065C126.71 10.512 126.629 10.5874 126.549 10.6426L126.443 10.723L126.001 11.3762L125.896 11.6878L125.845 12.2606L126.056 12.547L126.368 13.0695L126.68 13.6675L126.916 13.9036L127.202 14.4513L127.358 14.7126L127.775 15.2603L127.906 15.4412C127.931 15.4914 127.956 15.5467 127.986 15.5969L128.197 16.0391L128.408 16.3758L128.694 17.029L129.086 17.6571L129.217 17.8932L129.503 18.5213C129.503 18.5213 129.348 18.7575 129.162 18.9132C129.006 19.069 128.77 19.069 128.564 19.069H128.514L128.202 19.1494L127.524 19.0992L127.288 19.2298H126.584L126.217 19.2047L125.644 19.1243H125.383L124.68 19.0439H124.655C124.444 19.0439 124.238 18.9936 124.052 18.8881L124.026 18.863C123.921 18.7826 123.79 18.7072 123.715 18.6017L123.635 18.4962L123.454 18.0239L123.298 17.7626L122.7 16.6119L122.569 16.3758L122.358 16.009C122.333 15.9286 122.278 15.8532 122.253 15.7477L122.203 15.5668L122.022 15.3306C121.891 15.1749 121.811 14.994 121.785 14.8081L121.474 14.7277L121.213 14.9387L120.846 15.3809L120.635 15.9035L120.715 16.1396L120.635 16.7677V17.0541L120.61 17.5767L120.635 17.838L120.685 18.255C120.71 18.4108 120.685 18.5163 120.66 18.672V18.7524L120.504 18.9333C120.424 19.064 120.293 19.1142 120.112 19.1444L120.082 19.1594Z" fill="#222222"/>
<path id="Vector_10" d="M130.574 24.4304L130.654 24.1439L130.679 23.6214V23.3852L130.629 22.8375L130.549 22.4707L130.498 22.0537V21.8175L130.523 21.506L130.604 20.908C130.604 20.908 130.996 20.4659 131.177 20.4106C131.202 20.3855 131.227 20.3855 131.257 20.3855L131.83 20.4357H132.141L132.453 20.3855H132.845L133.418 20.28L133.704 20.1996L134.227 19.888L134.438 19.6519L134.619 19.4961L134.644 18.9484L134.513 18.6369L134.332 18.1947C134.307 18.0892 134.282 18.0641 134.252 17.9586L134.227 17.7777L133.99 17.4109C133.94 17.3305 133.885 17.2551 133.86 17.1496L133.835 16.9938L133.624 16.3657L133.493 16.1045L133.362 15.4512L133.282 15.2151L132.996 14.6674L132.84 14.381L132.528 13.7529L132.478 13.6474C132.428 13.567 132.372 13.4665 132.347 13.361L132.242 12.8887L132.061 12.6525L131.85 12.0797L131.77 11.738L131.533 11.1903C131.508 11.1401 131.483 11.0597 131.453 10.9793L131.428 10.8486L131.192 10.2758L131.036 10.0949L130.88 9.70302C130.855 9.62263 130.83 9.54726 130.83 9.46686L130.78 9.25582L130.624 8.68301L130.443 8.34133L130.232 7.97453C130.182 7.86902 130.126 7.73836 130.101 7.63284L130.076 7.52733L129.895 7.00476L129.815 6.66308C129.815 6.66308 129.865 6.53245 129.946 6.40181C130.076 6.14052 130.388 6.06013 130.704 6.09028H130.86L131.202 6.1154L131.8 6.16565L132.192 6.14051L132.845 6.06013L133.212 6.035H133.865L134.518 6.08525L134.729 6.06013C134.965 6.11038 135.171 6.27116 135.382 6.47717L135.433 6.50229L135.458 6.76358L135.613 7.31127C135.639 7.36152 135.639 7.46703 135.639 7.5223L135.664 7.65295L135.819 8.07C135.845 8.1504 135.9 8.25088 135.925 8.3564V8.4368L136.106 8.93425C136.131 9.03977 136.186 9.14528 136.186 9.27089L136.211 9.37641L136.342 10.0547C136.447 10.2105 136.523 10.4216 136.523 10.6276V10.6778L136.603 10.9642L136.814 11.5923L137.076 12.351L137.231 12.9791L137.282 13.16C137.307 13.2655 137.307 13.371 137.307 13.4715V13.5218L137.387 13.7831L137.518 13.8333L137.623 13.5218L137.674 13.366C137.699 13.2856 137.724 13.2102 137.779 13.1047L137.829 12.9741L137.96 12.3711L138.04 11.6928L138.171 11.1702C138.196 11.0647 138.251 10.9893 138.276 10.9089L138.327 10.7783L138.352 10.4919L138.402 10.3361C138.402 10.2557 138.427 10.1804 138.452 10.1L138.533 9.8638L138.744 9.26085L138.769 9.02469L138.95 8.45187L139 8.08508L139.211 7.56251L139.291 7.2761L139.553 6.64801C139.553 6.51737 139.658 6.36161 139.814 6.23097C139.945 6.12545 140.075 6.0752 140.206 6.05007H140.729C140.909 6.05007 141.07 6.10032 141.226 6.18072H141.904L142.271 6.13047L142.844 6.10535L143.13 6.08022L143.392 6.0551C143.603 6.02998 143.809 6.05511 143.939 6.10535L144.593 6.18575C144.593 6.18575 144.984 6.8892 144.773 7.43689L144.643 7.77856L144.462 8.30113V8.61266L144.251 9.16035L144.145 9.50202L143.909 10.1804L143.804 10.3914L143.593 10.9944L143.462 11.2808L143.226 11.8285L143.095 12.1953L142.965 12.5872C142.939 12.6374 142.884 12.7178 142.859 12.7982L142.728 13.0344L142.492 13.6625L142.442 13.974L142.286 14.5217L142.236 14.7327C142.211 14.8131 142.156 14.8885 142.13 14.9689L141.919 15.3859L141.738 15.7527L141.583 16.3507L141.452 16.6371L141.191 17.24L141.141 17.5264L140.93 18.049L140.774 18.4158L140.487 18.9886L140.357 19.3253L140.201 19.6368V19.7423C140.176 19.9534 140.121 20.079 140.02 20.2649L139.809 20.6015L139.703 20.9131L139.467 21.4105L139.387 21.6216C139.362 21.702 139.307 21.7773 139.256 21.8828L139.101 22.0939C139.02 22.2245 138.945 22.3049 138.814 22.4054L138.709 22.4858L138.397 22.928L138.161 23.2144L137.849 23.5812C137.799 23.6616 137.744 23.6867 137.694 23.7369L137.483 23.8927L137.01 24.2595C136.93 24.3098 136.88 24.3399 136.774 24.3901L136.357 24.571L135.654 24.8574C135.548 24.9077 135.392 24.9378 135.287 24.9378H135.181L134.608 25.1489L134.503 25.1991C134.397 25.2494 134.292 25.2494 134.191 25.2795L134.011 25.3046C133.83 25.3298 133.644 25.3298 133.488 25.2795L133.121 25.3046L132.965 25.2795C132.915 25.2795 132.835 25.2544 132.785 25.2544L132.548 25.2293L132.051 25.2041H132.001C131.895 25.2041 131.739 25.2041 131.634 25.179L131.136 25.0986C130.981 25.0735 130.825 24.9931 130.745 24.8876C130.664 24.7821 130.589 24.6263 130.564 24.4153L130.574 24.4304Z" fill="#222222"/>
<path id="Vector_11" d="M150.984 19.4459L150.723 19.3403L149.964 19.1846L149.492 19.0791C149.361 19.0539 149.205 18.9987 149.1 18.9233L149.019 18.8731L148.602 18.6922C148.497 18.6419 148.446 18.6419 148.366 18.5615L148.235 18.4811L147.607 18.0892L147.426 17.9334C147.376 17.8832 147.321 17.853 147.296 17.8279L146.929 17.4611L146.798 17.3556C146.718 17.2752 146.693 17.225 146.643 17.1747L146.331 16.7325L146.175 16.5215L145.839 15.9236L145.708 15.6874L145.497 15.3206C145.417 15.19 145.366 15.0342 145.341 14.8483V14.798L145.236 14.1699L145.185 13.9338L145.135 13.4112V12.9942L145.16 12.8384L145.135 12.552V12.2103C145.085 12.0294 145.085 11.7933 145.135 11.532L145.16 11.3762L145.211 11.1401L145.472 10.4869C145.472 10.2758 145.497 10.0949 145.602 9.8839L145.758 9.59749L145.889 9.31109L146.2 8.81364L146.411 8.57748L146.698 8.13531C146.778 8.02979 146.854 7.89915 146.959 7.82378L147.246 7.5625C147.326 7.48211 147.401 7.43185 147.507 7.3816L147.587 7.33137L148.11 6.98968L148.371 6.8088L148.868 6.49727C148.919 6.47215 148.999 6.41687 149.049 6.39174L149.26 6.31136L149.522 6.18071C149.703 6.0752 149.914 6.02494 150.15 6.05007L150.622 5.86919C150.672 5.84406 150.728 5.84406 150.803 5.81894L151.014 5.79382L151.587 5.71342L151.848 5.68829H152.838L153.28 5.71342C153.386 5.71342 153.491 5.76367 153.567 5.79382L153.722 5.84405L154.401 6.02495L154.767 6.13046L155.421 6.36662L155.632 6.47214L156.179 6.78367L156.285 6.83392C156.365 6.88416 156.441 6.93944 156.521 7.01481L156.858 7.32634L157.039 7.50722L157.456 7.9494L157.667 8.16044L158.034 8.50211C158.114 8.58251 158.214 8.683 158.27 8.78852L158.295 8.83877L158.687 9.43671L158.737 9.51709C158.842 9.67286 158.893 9.8035 158.948 9.95927L159.053 10.4014L159.234 10.9743C159.26 11.0245 159.26 11.13 159.26 11.1853L159.285 11.3963L159.365 11.6827C159.415 11.8938 159.415 12.0495 159.39 12.2555L159.365 12.3611L159.39 12.6726L159.31 12.959C159.335 13.1399 159.31 13.2957 159.26 13.5318L159.209 13.7931L159.129 14.1599L159.048 14.7076L158.968 15.0995L158.837 15.5166C158.812 15.6221 158.787 15.6975 158.757 15.7779L158.652 15.9587L158.39 16.4562C158.365 16.5366 158.31 16.5617 158.26 16.6371L158.179 16.7426L157.762 17.2903L157.29 17.7576C157.209 17.838 157.109 17.9133 157.029 17.9686L156.848 18.0741L156.275 18.3857L156.064 18.5967L155.622 18.8077C155.541 18.858 155.491 18.858 155.411 18.8881L155.23 18.9384L154.627 19.1997L154.315 19.2801L153.793 19.4107L152.903 19.4911H152.617L152.537 19.5162C152.381 19.5413 152.145 19.5413 151.989 19.5162V19.4911L151.622 19.5715L151.15 19.4911C151.069 19.466 151.019 19.466 150.969 19.4408L150.984 19.4459ZM150.934 10.6979L150.491 11.1953L150.361 11.537L150.125 12.1098L150.175 12.4214V12.5018C150.175 12.6073 150.175 12.7128 150.15 12.8133L150.125 13.0494L150.15 13.3107L150.255 13.8835L150.361 14.1951L150.858 14.7428L151.069 14.8985L151.748 15.1096L151.984 15.0844L152.089 15.0593C152.22 15.0091 152.376 15.0091 152.506 15.0091H152.612L153.004 14.9839L153.607 14.7729L154.024 14.2252L154.049 14.0142L154.23 13.778L154.386 13.2052L154.335 12.8937L154.416 12.6073L154.466 12.346L154.386 12.0043L154.28 11.4064L154.069 11.1702L153.757 10.6979L153.496 10.517L152.662 10.3361L152.295 10.4165L152.034 10.3361H151.748L151.12 10.4919L150.939 10.7029L150.934 10.6979Z" fill="#222222"/>
<path id="Vector_12" d="M176.972 18.8128L176.379 18.7123L176.057 18.662H175.414L175.017 18.7123C174.846 18.7374 174.67 18.7374 174.52 18.6871L174.469 18.662L174.223 18.6871H173.901C173.851 18.6871 173.801 18.662 173.751 18.662L173.6 18.6369L173.032 18.662L172.932 18.6871C172.781 18.7374 172.66 18.7625 172.485 18.7374L172.163 18.7123L171.892 18.7876H171.791C171.691 18.8128 171.57 18.8128 171.47 18.7876L171.319 18.7625L171.098 18.8128L170.505 18.7374H170.158L169.661 18.7876C169.585 18.7876 169.485 18.7625 169.414 18.7625H169.314L168.942 18.7374H168.696L168.595 18.7625C168.495 18.7876 168.374 18.7625 168.274 18.7625L168.028 18.7374C167.902 18.7374 167.756 18.7123 167.656 18.662H167.631L167.259 18.7123C167.133 18.7374 166.962 18.7123 166.837 18.6871H166.812L165.942 18.662C165.942 18.662 165.867 18.6369 165.746 18.6118C165.224 18.461 165.028 18.2148 165.154 18.0892L165.375 17.7676C165.4 17.7174 165.45 17.6671 165.475 17.6169L165.626 17.4913L165.802 17.1194C165.827 17.0441 165.877 16.9436 165.927 16.8732L166.103 16.6521L166.475 16.2803L166.626 15.9839L166.947 15.5869L167.168 15.3407L167.244 15.2151C167.394 14.9689 167.565 14.7679 167.741 14.7176L168.138 14.2453L168.334 13.974L168.485 13.7278L168.661 13.5067L168.837 13.2354L169.208 12.8384L169.379 12.5922L169.751 12.1199L169.877 11.8737L170.198 11.3762L170.394 11.0044L170.666 10.5572L170.816 10.3613L171.088 9.78844L171.213 9.5171L171.459 8.89908L171.51 8.60262L171.61 8.1303L171.585 7.7836L171.635 7.53738V7.48714C171.61 7.31128 171.585 7.2158 171.61 7.03994V7.01482L171.414 6.51737L171.263 6.24605L170.892 5.87421L170.671 5.74859L170.173 5.50239L169.877 5.40189L169.309 5.3014H169.063L168.741 5.22604H168.394L167.751 5.32652L167.505 5.37677L166.837 5.64811C166.761 5.67323 166.686 5.69835 166.616 5.72348L166.244 5.79884C166.244 5.79884 166.118 5.72348 165.998 5.64811C165.777 5.52249 165.726 5.27628 165.701 5.00495L165.651 4.7085L165.601 4.55775C165.576 4.48238 165.55 4.38189 165.55 4.28642V4.01509C165.55 3.88947 165.55 3.81409 165.576 3.6935L165.601 3.59302L165.576 3.3468L165.55 3.05034C165.55 2.94985 165.55 2.80413 165.576 2.70364L165.601 2.57802V1.98511C165.626 1.7389 165.726 1.5128 165.872 1.31684C165.973 1.21634 166.093 1.11585 166.244 1.0455L166.666 0.849531L166.766 0.799297C166.842 0.774173 166.917 0.749047 166.988 0.749047L167.41 0.648547L167.656 0.62343C167.706 0.62343 167.807 0.598297 167.852 0.598297L168.098 0.57318C168.198 0.57318 168.294 0.573174 168.394 0.598297L168.52 0.62343H169.088L169.334 0.548063L169.53 0.52293C169.605 0.497807 169.681 0.497813 169.731 0.497813H169.902L170.198 0.52293L170.766 0.57318H170.942C171.068 0.57318 171.213 0.573183 171.339 0.62343L171.686 0.749047L171.932 0.723914L172.304 0.824414C172.429 0.849537 172.525 0.899778 172.625 0.975148L172.726 1.05053L173.022 1.10077L173.198 1.17615C173.198 1.17615 173.223 1.17614 173.248 1.20126L173.444 1.30176L174.062 1.64847L174.163 1.6987C174.263 1.74895 174.384 1.79919 174.459 1.86954L174.756 2.11576L174.856 2.19113C174.957 2.2665 175.077 2.34186 175.153 2.43733L175.374 2.68355L175.499 2.78404C175.575 2.85941 175.675 2.93479 175.72 3.03025L175.896 3.30158L176.047 3.59803L176.243 3.96987C176.293 4.07036 176.318 4.14573 176.343 4.26632L176.369 4.31657L176.544 4.9346L176.645 5.25618L176.745 5.75362L176.796 5.87924C176.846 6.0551 176.871 6.20082 176.871 6.35156L176.846 6.69826L176.871 6.99472C176.896 7.19571 176.871 7.3163 176.821 7.51729V7.54241L176.871 7.78861L176.796 8.38153L176.72 8.70311L176.67 9.20056L176.62 9.35129C176.595 9.40154 176.57 9.45178 176.544 9.52213L176.343 10.0196L176.218 10.316L175.972 10.8637L175.946 10.9893C175.921 11.0898 175.846 11.1401 175.796 11.2355L175.575 11.5823L175.424 11.8536L175.273 12.0747C175.198 12.2003 175.097 12.2706 174.977 12.3711L174.876 12.4465L174.53 12.9942L174.479 13.1901L174.107 13.7378L173.886 14.0594L173.987 14.3056L174.233 14.4312L174.555 14.381L175.122 14.4815L175.344 14.4564L175.841 14.4312H176.137L176.459 14.4061L177.027 14.4564H177.052C177.102 14.4564 177.524 14.8031 177.575 15.0242C177.6 15.0493 177.6 15.0744 177.6 15.0995L177.65 15.6472L177.75 15.9186L177.801 16.4914V16.6873L177.75 17.1094L177.7 17.4059V17.7777C177.7 17.9284 177.675 18.0741 177.625 18.25L177.6 18.5464L177.424 18.6721C177.298 18.7726 177.152 18.7977 176.977 18.8228L176.972 18.8128Z" fill="#222222"/>
<path id="Vector_13" d="M185.599 18.9082C185.398 18.9082 185.227 18.8831 185.051 18.8077H184.604C184.554 18.8077 184.453 18.8077 184.408 18.7826L184.137 18.7072C183.986 18.6821 183.865 18.6067 183.74 18.5314L183.69 18.5063L183.418 18.3555C183.293 18.2802 183.197 18.2048 183.122 18.1344L183.046 18.0591L182.453 17.6119L182.157 17.3908C182.057 17.2903 181.956 17.1948 181.886 17.0943L181.81 16.9436L181.413 16.5718L181.288 16.4713C181.187 16.3959 181.112 16.3457 181.042 16.2502L180.795 15.9537L180.599 15.6573L180.303 15.1598L180.228 15.0342L179.956 14.4413L179.881 14.2905C179.856 14.2152 179.831 14.1901 179.805 14.1147L179.655 13.572L179.459 12.9037L179.383 12.5068L179.283 11.8385L179.182 11.1954L179.157 10.9491V10.3813L179.132 10.306C179.107 10.1552 179.082 9.95928 179.107 9.80854L179.132 9.75829L179.082 9.46184L179.107 9.16539V8.8438C179.107 8.74331 179.107 8.64785 179.132 8.57248L179.157 8.42173L179.182 7.99966C179.182 7.89916 179.208 7.77858 179.233 7.67809L179.258 7.57759L179.358 6.98468L179.383 6.81384C179.408 6.73847 179.434 6.63797 179.459 6.56762L179.635 6.1958L179.735 5.92446L179.861 5.42702C179.886 5.37678 179.911 5.27628 179.936 5.23105L179.986 5.13057L180.062 4.80898C180.112 4.65824 180.212 4.51253 180.308 4.38691L180.333 4.33666L180.629 3.91459L180.655 3.83922C180.705 3.71361 180.78 3.59302 180.901 3.4674L181.122 3.27143L181.298 3.05035L181.67 2.62827L181.866 2.43232L182.162 2.1861C182.262 2.08561 182.358 2.03537 182.484 1.99015L182.634 1.91478L183.056 1.66856L183.303 1.44747L183.75 1.15102H183.775C183.875 1.07565 183.996 1.00027 184.122 0.975152L184.443 0.874667L184.715 0.7993C184.79 0.774177 184.815 0.774168 184.865 0.774168L185.112 0.74905H185.137C185.287 0.67368 185.458 0.623433 185.634 0.623433L186.579 0.548066H186.729C186.78 0.548066 186.88 0.54806 186.951 0.573183L187.126 0.598301L187.423 0.573183L187.92 0.598301L188.217 0.673683L188.488 0.723918C188.664 0.749041 188.81 0.824412 188.986 0.945005L189.332 1.02039C189.458 1.04551 189.604 1.09575 189.729 1.19624L189.805 1.24649L190.377 1.49269L190.774 1.71378C190.85 1.76403 190.95 1.81428 191.021 1.88965L191.171 2.0404L191.644 2.38708L191.669 2.41222C191.769 2.48759 191.865 2.56296 191.94 2.68355L192.186 3.00513L192.237 3.03026C192.387 3.15588 192.508 3.27647 192.608 3.45233L192.809 3.82415L193.081 4.39194L193.131 4.44219C193.256 4.56781 193.352 4.71352 193.402 4.86426L193.503 5.16072L193.628 5.43205L193.779 5.87924C193.804 5.97974 193.854 6.0551 193.854 6.1757L193.88 6.25106L194.03 6.77363L194.106 7.04497L194.231 7.63788L194.332 7.88408L194.407 8.25592C194.432 8.38154 194.432 8.477 194.432 8.62774V8.70311L194.483 9.29602V9.83869L194.508 10.1854L194.533 10.4065L194.508 10.929C194.508 11.0295 194.508 11.125 194.483 11.2004L194.332 11.7682V12.0144L194.111 12.758L193.915 13.3258L193.789 13.6223L193.663 14.1901L193.563 14.5116L193.437 14.8081C193.387 14.9588 193.262 15.0794 193.166 15.1799L193.116 15.2553L192.769 15.7527L192.498 16.1748C192.448 16.2502 192.397 16.3255 192.322 16.3959L192.146 16.5718L191.774 16.9938L191.623 17.1898C191.573 17.2652 191.523 17.2903 191.473 17.3405L191.297 17.4913C191.196 17.5918 191.101 17.6671 191 17.7124L190.875 17.7626L190.528 17.9837C190.453 18.0339 190.352 18.0842 190.232 18.1344L190.131 18.1847L189.784 18.3857C189.709 18.4359 189.634 18.461 189.588 18.4862L189.438 18.5364L188.915 18.7575L188.172 18.9786C188.121 19.0037 188.046 19.0037 188.001 19.0037L187.85 19.0288L187.307 19.0037L186.986 18.9786C186.835 19.0288 186.664 19.0288 186.513 19.0037H186.438L186.167 18.9786L185.644 18.9032H185.619L185.599 18.9082ZM185.549 5.74358L185.152 6.16565L184.83 6.75856L184.704 6.95955L184.458 7.55247L184.358 7.87404L184.308 8.42173L184.282 8.66793L184.308 9.28597L184.333 9.55731V9.85376L184.308 9.95426C184.308 10.0548 184.257 10.1753 184.232 10.2758L184.207 10.3763L184.232 10.7984C184.232 10.8989 184.257 10.9944 184.232 11.0949V11.12L184.308 11.4164C184.358 11.5672 184.383 11.6627 184.383 11.8385V11.9139L184.604 12.3611C184.629 12.4364 184.654 12.4867 184.679 12.5319L184.755 12.8032L185.026 13.3258L185.247 13.5017L185.594 13.8484L185.815 13.9991L186.659 14.1499H187.252L187.724 13.9539L187.9 13.8534L188.322 13.356L188.719 12.8334L188.744 12.6324L188.895 12.0646L188.996 11.7179L189.071 11.0999L189.121 10.8034L189.146 10.2105V9.73819C189.146 9.6377 189.171 9.51711 189.197 9.44174L189.247 9.291L189.121 8.57248L188.996 7.87907L188.97 7.60773L188.674 6.93946L188.428 6.49225C188.403 6.44201 188.378 6.36663 188.352 6.31639L188.302 6.19077L187.905 5.71845L187.729 5.47224L186.885 5.27627L186.589 5.30141L186.242 5.35166L185.745 5.50239L185.544 5.7486L185.549 5.74358Z" fill="#222222"/>
<path id="Vector_14" d="M206.873 18.8128L206.28 18.7123L205.959 18.662H205.316L204.919 18.7123C204.748 18.7374 204.572 18.7374 204.421 18.6871L204.371 18.662L204.125 18.6871H203.803C203.753 18.6871 203.703 18.662 203.653 18.662L203.502 18.6369L202.934 18.662L202.834 18.6871C202.683 18.7374 202.562 18.7625 202.386 18.7374L202.065 18.7123L201.793 18.7876H201.693C201.592 18.8128 201.472 18.8128 201.371 18.7876L201.221 18.7625L201 18.8128L200.407 18.7374H200.06L199.562 18.7876C199.487 18.7876 199.387 18.7625 199.316 18.7625H199.216L198.844 18.7374H198.598L198.497 18.7625C198.397 18.7876 198.276 18.7625 198.176 18.7625L197.929 18.7374C197.804 18.7374 197.658 18.7123 197.558 18.662H197.533L197.161 18.7123C197.035 18.7374 196.864 18.7123 196.739 18.6871H196.713L195.844 18.662C195.844 18.662 195.769 18.6369 195.648 18.6118C195.126 18.461 194.93 18.2148 195.055 18.0892L195.276 17.7676C195.302 17.7174 195.352 17.6671 195.377 17.6169L195.528 17.4913L195.704 17.1194C195.729 17.0441 195.779 16.9436 195.829 16.8732L196.005 16.6521L196.377 16.2803L196.528 15.9839L196.849 15.5869L197.07 15.3407L197.146 15.2151C197.296 14.9689 197.467 14.7679 197.643 14.7176L198.04 14.2453L198.236 13.974L198.387 13.7278L198.563 13.5067L198.738 13.2354L199.11 12.8384L199.286 12.5922L199.658 12.1199L199.784 11.8737L200.105 11.3762L200.301 11.0044L200.572 10.5572L200.723 10.3613L200.995 9.78844L201.12 9.5171L201.366 8.89908L201.417 8.60262L201.517 8.1303L201.492 7.7836L201.542 7.53738V7.48714C201.517 7.31128 201.492 7.2158 201.517 7.03994V7.01482L201.321 6.51737L201.17 6.24605L200.799 5.87421L200.577 5.74859L200.08 5.50239L199.784 5.40189L199.216 5.3014H198.97L198.648 5.22604H198.301L197.658 5.32652L197.412 5.37677L196.744 5.64811C196.668 5.67323 196.593 5.69835 196.523 5.72348L196.151 5.79884C196.151 5.79884 196.025 5.72348 195.905 5.64811C195.683 5.52249 195.633 5.27628 195.608 5.00495L195.558 4.7085L195.508 4.55775C195.482 4.48238 195.457 4.38189 195.457 4.28642V4.01509C195.457 3.88947 195.457 3.81409 195.482 3.6935L195.508 3.59302L195.482 3.3468L195.457 3.05034C195.457 2.94985 195.457 2.80413 195.482 2.70364L195.508 2.57802V1.98511C195.533 1.7389 195.633 1.5128 195.779 1.31684C195.879 1.21634 196 1.11585 196.151 1.0455L196.573 0.849531L196.673 0.799297C196.749 0.774173 196.824 0.749047 196.894 0.749047L197.316 0.648547L197.563 0.62343C197.613 0.62343 197.713 0.598297 197.759 0.598297L198.005 0.57318C198.105 0.57318 198.201 0.573174 198.301 0.598297L198.427 0.62343H198.995L199.241 0.548063L199.437 0.52293C199.512 0.497807 199.588 0.497813 199.638 0.497813H199.809L200.105 0.52293L200.673 0.57318H200.849C200.974 0.57318 201.12 0.573183 201.246 0.62343L201.592 0.749047L201.839 0.723914L202.21 0.824414C202.336 0.849537 202.432 0.899778 202.532 0.975148L202.633 1.05053L202.929 1.10077L203.105 1.17615C203.105 1.17615 203.13 1.17614 203.155 1.20126L203.351 1.30176L203.969 1.64847L204.07 1.6987C204.17 1.74895 204.291 1.79919 204.366 1.86954L204.663 2.11576L204.763 2.19113C204.864 2.2665 204.984 2.34186 205.059 2.43733L205.281 2.68355L205.406 2.78404C205.482 2.85941 205.582 2.93479 205.627 3.03025L205.803 3.30158L205.954 3.59803L206.15 3.96987C206.2 4.07036 206.225 4.14573 206.25 4.26632L206.275 4.31657L206.451 4.9346L206.552 5.25618L206.652 5.75362L206.703 5.87924C206.753 6.0551 206.778 6.20082 206.778 6.35156L206.753 6.69826L206.778 6.99472C206.803 7.19571 206.778 7.3163 206.728 7.51729V7.54241L206.778 7.78861L206.703 8.38153L206.627 8.70311L206.577 9.20056L206.527 9.35129C206.502 9.40154 206.476 9.45178 206.451 9.52213L206.255 10.0196L206.13 10.316L205.884 10.8637L205.858 10.9893C205.833 11.0898 205.758 11.1401 205.708 11.2355L205.487 11.5823L205.336 11.8536L205.185 12.0747C205.11 12.2003 205.009 12.2706 204.889 12.3711L204.788 12.4465L204.441 12.9942L204.391 13.1901L204.019 13.7378L203.798 14.0594L203.899 14.3056L204.145 14.4312L204.467 14.381L205.034 14.4815L205.255 14.4564L205.753 14.4312H206.049L206.371 14.4061L206.939 14.4564H206.964C207.014 14.4564 207.436 14.8031 207.486 15.0242C207.512 15.0493 207.512 15.0744 207.512 15.0995L207.562 15.6472L207.662 15.9186L207.713 16.4914V16.6873L207.662 17.1094L207.612 17.4059V17.7777C207.612 17.9284 207.587 18.0741 207.537 18.25L207.512 18.5464L207.336 18.6721C207.21 18.7726 207.064 18.7977 206.888 18.8228L206.873 18.8128Z" fill="#222222"/>
<path id="Vector_15" d="M214.214 18.8128L213.868 18.7374L213.395 18.6118C213.345 18.5867 213.27 18.5615 213.199 18.5113L213.003 18.4108L212.581 18.2601C212.506 18.2349 212.431 18.1847 212.335 18.1093L211.717 17.6621L211.496 17.441L211.099 17.0441L210.878 16.8682L210.456 16.3004L210.381 16.1748C210.355 16.1246 210.305 16.0241 210.28 15.9537L210.129 15.5316L209.954 15.3307L209.758 14.788L209.632 14.4162L209.481 13.9941C209.456 13.8936 209.431 13.773 209.431 13.6725V13.5469L209.406 13.0243L209.431 12.753L209.406 12.4817L209.431 12.135V11.8385L209.506 11.2958V11.2707C209.456 11.0949 209.456 10.8989 209.506 10.723L209.582 10.3512L209.682 10.105L209.833 9.58243L209.908 9.31111L210.129 8.81365L210.23 8.61267L210.451 8.04488L210.577 7.77354L210.823 7.23088L210.999 6.88418L211.295 6.43699L211.396 6.14052L211.717 5.71845L211.868 5.5225L212.089 5.05018L212.114 4.92456C212.139 4.82407 212.215 4.7286 212.29 4.6281L212.441 4.40702C212.491 4.30652 212.541 4.23115 212.617 4.18593L212.792 4.0352L213.189 3.56288L213.34 3.36691L213.611 3.04533L213.787 2.86947L213.963 2.74385L214.41 2.32178L214.983 1.84946L215.204 1.553L215.601 1.2063L215.626 1.18117C215.777 1.05555 215.973 0.98521 216.149 0.934963H216.174C216.3 0.90984 216.445 0.884713 216.596 0.884713L216.722 0.909846L217.34 0.834463L217.933 0.809346C218.008 0.809346 218.083 0.784223 218.179 0.809346L218.305 0.834463H219.149L219.993 0.809346L220.541 0.884713H220.862L221.555 0.909846C221.756 0.884722 221.902 0.934963 222.003 1.06058L221.756 1.1862L221.581 1.40728L221.108 1.77911L220.887 2.02533L220.465 2.37201L220.289 2.54788C220.239 2.59813 220.164 2.64837 220.118 2.6735L219.526 3.0202L219.129 3.41716L218.882 3.71361L218.46 4.18593L217.963 4.63312L217.812 4.92959L217.516 5.32653C217.465 5.4019 217.365 5.47727 217.295 5.54761L217.194 5.62298L216.822 5.99482L216.646 6.26614V6.56261L217.068 6.61284L217.365 6.56261L217.586 6.58773L218.204 6.66309H218.33C218.43 6.66309 218.551 6.68822 218.651 6.71334L219.048 6.83896C219.098 6.86408 219.174 6.8892 219.219 6.91433L219.395 7.01483L219.988 7.36153L220.556 7.75847L220.777 7.92932L221.224 8.27601C221.299 8.35138 221.4 8.42675 221.445 8.4971L221.741 8.86893L221.867 8.99455C221.968 9.09504 222.063 9.21563 222.138 9.36637L222.314 9.78844L222.661 10.3814L222.761 10.5773C222.787 10.6276 222.812 10.7281 222.837 10.7783L222.988 11.321L223.038 11.5923L223.088 12.14C223.113 12.336 223.088 12.5369 223.038 12.6827V13.0042L222.988 13.3007L223.013 13.6474C223.013 13.773 222.988 13.8936 222.937 14.0443L222.912 14.1448L222.711 14.8131L222.54 15.3106C222.515 15.4111 222.465 15.4814 222.415 15.5819L222.339 15.7075L222.043 16.3004V16.3256C221.968 16.4512 221.847 16.5718 221.746 16.6723L221.45 16.9436L221.179 17.1898L220.757 17.6119C220.706 17.7124 220.561 17.8078 220.36 17.9334L220.088 18.0842L219.817 18.2349L219.174 18.4811L218.556 18.7022L218.209 18.8278L217.616 18.9786L217.516 19.0037C217.415 19.0288 217.295 19.054 217.169 19.054H216.129L215.782 19.0791L215.536 19.0288L214.868 18.9535L214.25 18.8027L214.214 18.8128ZM214.737 10.8034L214.365 11.3009L214.144 11.5471L213.968 12.14V12.3862L214.018 12.7078V12.954L214.069 13.2505L214.219 13.8182L214.787 14.5116L215.033 14.6373L215.626 14.8131H216.099C216.174 14.8131 216.249 14.8131 216.32 14.8383L216.471 14.8634L216.767 14.7629L217.41 14.587L217.882 14.1649L218.033 13.9187L218.184 13.7429L218.335 13.2002L218.31 12.8786L218.36 12.6073L218.31 12.2857V12.0395L218.159 11.5421L218.008 11.2707L217.561 10.8487L217.315 10.6527L216.672 10.4768L216.425 10.502H215.928C215.852 10.502 215.777 10.4768 215.707 10.4768L215.536 10.4517L214.968 10.6225L214.747 10.7984L214.737 10.8034Z" fill="#222222"/>
</g>
  </g>
</svg>