<svg width="464" height="164" viewBox="0 0 464 164" fill="none" xmlns="http://www.w3.org/2000/svg">
<path d="M0 28C0 12.536 12.536 0 28 0H436C451.464 0 464 12.536 464 28V135.943C464 151.407 451.464 163.943 436 163.943H28C12.536 163.943 0 151.407 0 135.943V28Z" fill="white"/>
<path d="M42.9952 51H27.2159L31.899 45.0343C34.0466 42.2901 35.8662 39.6353 35.8662 37.5771C35.8662 35.8173 34.5537 34.7733 32.406 34.7733C30.7058 34.7733 29.0951 35.4295 28.4687 35.7874V30.0603C29.1547 29.6726 31.0041 29.076 33.3009 29.076C38.7894 29.076 42.1003 32.387 42.1003 37.1297C42.1003 40.6197 39.8632 43.3341 38.0436 45.78H42.9952V51ZM54.519 51.4474C48.792 51.4474 45.2424 46.4064 45.2424 40.2617C45.2424 34.117 48.792 29.076 54.519 29.076C60.2461 29.076 63.7957 34.117 63.7957 40.2617C63.7957 46.4064 60.2461 51.4474 54.519 51.4474ZM54.519 34.7733C52.5205 34.7733 51.5362 37.0104 51.5362 40.2617C51.5362 43.513 52.5205 45.7502 54.519 45.7502C56.5176 45.7502 57.5019 43.513 57.5019 40.2617C57.5019 37.0104 56.5176 34.7733 54.519 34.7733ZM80.7761 51H64.9968L69.6799 45.0343C71.8275 42.2901 73.6471 39.6353 73.6471 37.5771C73.6471 35.8173 72.3346 34.7733 70.187 34.7733C68.4867 34.7733 66.876 35.4295 66.2496 35.7874V30.0603C66.9356 29.6726 68.785 29.076 71.0818 29.076C76.5703 29.076 79.8812 32.387 79.8812 37.1297C79.8812 40.6197 77.6441 43.3341 75.8246 45.78H80.7761V51ZM91.6964 51.4474C86.9835 51.4474 83.5234 48.047 83.5234 43.4235C83.5234 37.607 88.2959 31.9694 91.5472 29.5234H99.1237C96.2303 31.6114 93.7247 34.0574 91.8754 36.4735C91.9947 36.4735 92.4421 36.384 92.8 36.384C97.1848 36.384 100.048 39.9933 100.048 43.7218C100.048 48.1663 96.4988 51.4474 91.6964 51.4474ZM91.6964 40.9776C90.1155 40.9776 88.9223 42.1409 88.9223 43.7218C88.9223 45.3027 90.1155 46.4959 91.6964 46.4959C93.2773 46.4959 94.4704 45.3027 94.4704 43.7218C94.4704 42.1409 93.2773 40.9776 91.6964 40.9776Z" fill="#222222"/>
<path d="M28.0886 60.5806H44.174V101.943H33.6611V69.4275H28.0886V60.5806ZM51.2584 60.5806H67.3438V101.943H56.8308V69.4275H51.2584V60.5806ZM75.9793 97.462C75.9793 94.1874 78.1049 92.1768 81.4943 92.1768C84.8837 92.1768 87.0092 94.1874 87.0092 97.462C87.0092 100.736 84.8837 102.747 81.4943 102.747C78.1049 102.747 75.9793 100.736 75.9793 97.462ZM93.3666 71.5531V61.8444C94.9177 60.8678 98.422 59.7763 102.673 59.7763C112.669 59.7763 118.816 65.9232 118.816 74.7127C118.816 81.8362 113.933 87.4661 109.509 93.0959H120.597V101.943H91.0113C98.1348 93.2683 105.373 85.3405 107.441 78.734C108.016 77.1829 108.188 75.7468 108.016 74.4255C107.729 71.2658 105.201 69.3701 101.237 69.3701C97.905 69.3701 94.8028 70.6339 93.3666 71.5531ZM138.132 101.943H127.275L140.89 69.4275H125.321V60.5806H154.849L138.132 101.943Z" fill="#222222"/>
<path d="M170.951 88.8117H164.803V92.0133H169.976V95.4933H164.803V101.943H160.557V85.2389H170.951V88.8117ZM174.06 85.2389H180.139C184.129 85.2389 186.89 87.1645 186.89 90.9229C186.89 93.3357 185.66 94.9365 183.827 95.7485L187.191 101.943H182.76L180.069 96.4445H178.213V101.943H174.06V85.2389ZM180.324 88.8117H178.213V93.0573H180.347C181.623 93.0573 182.598 92.4541 182.598 90.9229C182.598 89.4613 181.6 88.8117 180.324 88.8117ZM194.573 101.943H190.327V85.2389H194.573V101.943Z" fill="#222222"/>
<path d="M238.915 81.4423L224 93.4023V87.5185H209.086V75.3661H224V69.4833L238.915 81.4423Z" fill="#222222"/>
<path d="M251.641 60.5806H267.727V101.943H257.214V69.4275H251.641V60.5806ZM274.811 60.5806H290.896V101.943H280.384V69.4275H274.811V60.5806ZM299.532 97.462C299.532 94.1874 301.658 92.1768 305.047 92.1768C308.436 92.1768 310.562 94.1874 310.562 97.462C310.562 100.736 308.436 102.747 305.047 102.747C301.658 102.747 299.532 100.736 299.532 97.462ZM316.919 71.5531V61.8444C318.47 60.8678 321.975 59.7763 326.226 59.7763C336.222 59.7763 342.369 65.9232 342.369 74.7127C342.369 81.8362 337.486 87.4661 333.062 93.0959H344.15V101.943H314.564C321.688 93.2683 328.926 85.3405 330.994 78.734C331.569 77.1829 331.741 75.7468 331.569 74.4255C331.281 71.2658 328.754 69.3701 324.79 69.3701C321.458 69.3701 318.356 70.6339 316.919 71.5531ZM363.064 88.3852C354.734 88.3852 349.161 81.6064 349.161 74.368C349.161 65.9807 355.825 59.7189 364.845 59.7189C373.692 59.7189 380.183 66.153 380.183 74.885C380.183 85.8575 370.877 97.0598 364.442 101.943H351.517C357.491 97.5769 362.374 92.464 365.764 87.8108C365.362 88.0405 364.213 88.3852 363.064 88.3852ZM364.845 68.1637C361.283 68.1637 358.64 70.8063 358.64 74.368C358.64 77.9298 361.283 80.5724 364.845 80.5724C368.406 80.5724 371.049 77.9298 371.049 74.4255C371.049 70.8063 368.406 68.1637 364.845 68.1637Z" fill="#222222"/>
<path d="M392.587 102.268C390.685 102.268 388.783 101.896 387.53 101.363V97.2797C388.713 97.9061 390.128 98.3701 391.474 98.4861C391.938 98.5325 392.379 98.5325 392.796 98.5093C394.165 98.4165 394.931 98.0453 394.931 97.3493C394.931 96.4677 393.887 96.0269 391.845 95.2613C389.038 94.1941 387.228 93.0341 387.228 89.9717C387.228 86.9093 389.757 84.9141 393.562 84.9141C395.232 84.9141 396.903 85.2389 398.016 85.7029V89.6237C397.019 88.9973 395.441 88.5797 393.91 88.5797C392.379 88.5797 391.404 89.1133 391.404 89.9485C391.404 90.7373 392.379 91.2709 394.327 92.0597C397.135 93.1733 399.06 94.3565 399.06 97.3261C399.06 100.412 396.74 102.268 392.587 102.268ZM416.517 85.2389V95.7485C416.517 99.6693 413.849 102.268 409.255 102.268C404.685 102.268 401.994 99.6693 401.994 95.7485V85.2389H406.239V95.2845C406.239 97.2565 407.283 98.3933 409.255 98.3933C411.227 98.3933 412.248 97.2565 412.248 95.2845V85.2389H416.517ZM434.73 102.175H434.567L426.007 94.6349L424.661 93.5213V101.943H420.508V85.0069H420.694L429.185 92.5237C429.649 92.8949 430.09 93.3125 430.554 93.6605V85.2389H434.73V102.175Z" fill="#222222"/>
<path d="M236.081 134.307C234.801 134.307 233.602 134.121 232.484 133.748C231.366 133.36 230.377 132.801 229.518 132.071C228.676 131.326 228.02 130.427 227.55 129.374C227.08 128.304 226.845 127.097 226.845 125.752C226.845 124.488 227.072 123.297 227.525 122.179C227.995 121.061 228.643 120.081 229.47 119.238C230.312 118.396 231.301 117.74 232.435 117.27C233.569 116.784 234.817 116.541 236.178 116.541C237.296 116.541 238.357 116.743 239.362 117.148C240.383 117.553 241.274 118.12 242.035 118.85C242.813 119.579 243.421 120.429 243.858 121.402C244.312 122.358 244.539 123.395 244.539 124.513C244.539 125.388 244.344 126.23 243.955 127.04C243.583 127.834 242.983 128.482 242.157 128.985C241.347 129.487 240.277 129.738 238.949 129.738C237.895 129.738 237.191 129.463 236.834 128.912C236.154 129.463 235.368 129.738 234.477 129.738C233.893 129.738 233.342 129.633 232.824 129.422C232.305 129.212 231.884 128.863 231.56 128.377C231.252 127.891 231.098 127.243 231.098 126.433C231.098 125.298 231.317 124.334 231.754 123.54C232.192 122.746 232.775 122.139 233.504 121.718C234.25 121.28 235.06 121.061 235.935 121.061C236.713 121.061 237.361 121.345 237.879 121.912L238.001 121.596C238.066 121.434 238.203 121.312 238.414 121.231C238.625 121.134 238.876 121.086 239.167 121.086C239.508 121.086 239.743 121.24 239.872 121.547C240.018 121.839 240.026 122.268 239.896 122.836L238.997 127.089C238.9 127.526 239.159 127.745 239.775 127.745C240.342 127.745 240.804 127.591 241.16 127.283C241.517 126.959 241.784 126.554 241.962 126.068C242.141 125.566 242.23 125.047 242.23 124.513C242.23 123.411 241.979 122.422 241.476 121.547C240.974 120.672 240.269 119.984 239.362 119.482C238.454 118.963 237.393 118.704 236.178 118.704C234.768 118.704 233.545 119.004 232.508 119.603C231.471 120.186 230.669 121.013 230.102 122.082C229.551 123.135 229.275 124.359 229.275 125.752C229.275 127.162 229.559 128.345 230.126 129.301C230.693 130.257 231.487 130.986 232.508 131.488C233.545 131.974 234.736 132.217 236.081 132.217C237.069 132.217 237.92 132.112 238.633 131.901C239.362 131.674 240.01 131.334 240.577 130.88C240.982 130.556 241.33 130.354 241.622 130.273C241.914 130.176 242.181 130.24 242.424 130.467C242.651 130.678 242.756 130.929 242.74 131.221C242.74 131.496 242.578 131.78 242.254 132.071C241.509 132.752 240.609 133.295 239.556 133.7C238.519 134.105 237.361 134.307 236.081 134.307ZM234.841 127.575C235.457 127.575 235.935 127.413 236.275 127.089C236.632 126.765 236.907 126.182 237.101 125.339L237.344 123.686C237.15 123.395 236.939 123.208 236.713 123.127C236.486 123.03 236.259 122.981 236.032 122.981C235.659 122.981 235.287 123.111 234.914 123.37C234.541 123.613 234.233 123.97 233.99 124.44C233.747 124.91 233.626 125.485 233.626 126.165C233.626 126.716 233.739 127.089 233.966 127.283C234.193 127.478 234.485 127.575 234.841 127.575ZM256.52 136.155C256.05 136.155 255.645 135.993 255.304 135.669C254.964 135.361 254.794 134.947 254.794 134.429V130.346C254.227 130.961 253.554 131.585 252.777 132.217C252.015 132.833 251.221 133.408 250.395 133.943C249.585 134.461 248.815 134.891 248.086 135.231C247.584 135.458 247.106 135.506 246.652 135.377C246.198 135.247 245.85 134.947 245.607 134.478C245.38 134.008 245.356 133.562 245.534 133.141C245.712 132.72 246.012 132.42 246.433 132.242C247.049 131.982 247.697 131.658 248.378 131.269C249.058 130.88 249.722 130.451 250.371 129.981C251.035 129.495 251.626 129.009 252.145 128.523C251.059 128.474 250.217 128.32 249.617 128.061C249.034 127.786 248.629 127.324 248.402 126.676C248.191 126.011 248.086 125.096 248.086 123.929C248.086 122.973 248.151 122.196 248.28 121.596C248.426 120.997 248.677 120.535 249.034 120.211C249.39 119.87 249.893 119.635 250.541 119.506C251.189 119.376 252.015 119.311 253.02 119.311H254.794V118.315H246.846C246.425 118.315 246.093 118.177 245.85 117.902C245.607 117.626 245.485 117.302 245.485 116.93C245.485 116.557 245.607 116.241 245.85 115.982C246.093 115.706 246.425 115.568 246.846 115.568H254.794V114.888C254.794 114.369 254.964 113.956 255.304 113.648C255.645 113.324 256.05 113.162 256.52 113.162C256.99 113.162 257.395 113.324 257.735 113.648C258.075 113.956 258.245 114.369 258.245 114.888V115.568H266.144C266.566 115.568 266.898 115.706 267.141 115.982C267.384 116.241 267.505 116.557 267.505 116.93C267.505 117.302 267.384 117.626 267.141 117.902C266.898 118.177 266.566 118.315 266.144 118.315H258.245V119.311H260.092C261.097 119.311 261.915 119.376 262.547 119.506C263.195 119.635 263.698 119.87 264.054 120.211C264.411 120.535 264.654 120.997 264.783 121.596C264.929 122.196 265.002 122.973 265.002 123.929C265.002 125.096 264.889 126.011 264.662 126.676C264.451 127.324 264.054 127.786 263.471 128.061C262.904 128.32 262.069 128.474 260.967 128.523C261.745 129.268 262.644 129.981 263.665 130.662C264.702 131.326 265.683 131.853 266.606 132.242C267.027 132.404 267.335 132.695 267.53 133.117C267.74 133.538 267.732 133.975 267.505 134.429C267.262 134.899 266.914 135.207 266.46 135.353C266.007 135.498 265.52 135.458 265.002 135.231C264.273 134.891 263.487 134.453 262.644 133.919C261.818 133.368 261.016 132.776 260.238 132.144C259.477 131.512 258.812 130.88 258.245 130.249V134.429C258.245 134.947 258.075 135.361 257.735 135.669C257.395 135.993 256.99 136.155 256.52 136.155ZM258.245 122.811H261.526C261.494 122.374 261.372 122.098 261.162 121.985C260.967 121.855 260.587 121.79 260.02 121.79H258.245V122.811ZM251.586 122.811H254.794V121.79H253.093C252.542 121.79 252.161 121.855 251.95 121.985C251.74 122.098 251.618 122.374 251.586 122.811ZM258.245 126.044H260.02C260.57 126.044 260.943 125.987 261.138 125.874C261.348 125.744 261.478 125.477 261.526 125.072H258.245V126.044ZM253.093 126.044H254.794V125.072H251.586C251.634 125.477 251.756 125.744 251.95 125.874C252.161 125.987 252.542 126.044 253.093 126.044ZM277.373 136.276C276.806 136.276 276.336 136.122 275.963 135.814C275.607 135.506 275.413 135.077 275.38 134.526C275.364 134.04 275.518 133.619 275.842 133.262C276.182 132.906 276.652 132.703 277.252 132.655C277.576 132.622 277.786 132.541 277.883 132.412C277.997 132.282 278.054 132.071 278.054 131.78V127.745H276.45C275.299 127.745 274.392 127.616 273.727 127.356C273.063 127.097 272.593 126.684 272.318 126.117C272.042 125.533 271.905 124.764 271.905 123.808C271.905 122.852 272.042 122.09 272.318 121.523C272.593 120.94 273.063 120.519 273.727 120.259C274.392 120 275.299 119.87 276.45 119.87H283.182C284.349 119.87 285.256 120 285.904 120.259C286.568 120.519 287.038 120.94 287.314 121.523C287.589 122.09 287.727 122.852 287.727 123.808C287.727 124.764 287.589 125.533 287.314 126.117C287.038 126.684 286.568 127.097 285.904 127.356C285.256 127.616 284.349 127.745 283.182 127.745H281.651V132.12C281.651 133.643 281.286 134.713 280.557 135.328C279.828 135.96 278.767 136.276 277.373 136.276ZM270.276 118.85C269.855 118.85 269.49 118.696 269.182 118.388C268.875 118.08 268.721 117.707 268.721 117.27C268.721 116.832 268.875 116.468 269.182 116.176C269.49 115.868 269.855 115.714 270.276 115.714H277.908V115.009C277.908 114.41 278.094 113.94 278.467 113.6C278.856 113.243 279.317 113.065 279.852 113.065C280.387 113.065 280.841 113.243 281.213 113.6C281.586 113.94 281.772 114.41 281.772 115.009V115.714H289.355C289.777 115.714 290.141 115.868 290.449 116.176C290.757 116.468 290.911 116.832 290.911 117.27C290.911 117.707 290.757 118.08 290.449 118.388C290.141 118.696 289.777 118.85 289.355 118.85H270.276ZM272.148 134.721C271.71 134.996 271.232 135.101 270.714 135.037C270.195 134.988 269.774 134.745 269.45 134.307C269.174 133.919 269.069 133.489 269.134 133.019C269.199 132.533 269.458 132.144 269.912 131.853C270.284 131.61 270.738 131.294 271.273 130.905C271.807 130.516 272.334 130.119 272.852 129.714C273.371 129.309 273.784 128.952 274.092 128.644C274.432 128.32 274.837 128.166 275.307 128.183C275.777 128.199 276.182 128.369 276.522 128.693C276.846 129.033 277.009 129.438 277.009 129.908C277.025 130.362 276.863 130.759 276.522 131.099C276.15 131.456 275.712 131.861 275.21 132.314C274.708 132.752 274.189 133.181 273.654 133.603C273.136 134.024 272.634 134.397 272.148 134.721ZM287.362 134.623C286.892 134.283 286.39 133.902 285.855 133.481C285.337 133.044 284.835 132.606 284.349 132.169C283.862 131.715 283.433 131.302 283.06 130.929C282.736 130.589 282.574 130.192 282.574 129.738C282.591 129.268 282.769 128.871 283.109 128.547C283.449 128.223 283.854 128.061 284.324 128.061C284.794 128.045 285.199 128.207 285.539 128.547C285.847 128.855 286.252 129.212 286.755 129.617C287.257 130.022 287.767 130.419 288.286 130.808C288.804 131.196 289.25 131.52 289.623 131.78C290.06 132.088 290.311 132.485 290.376 132.971C290.457 133.441 290.36 133.878 290.084 134.283C289.777 134.721 289.355 134.964 288.821 135.012C288.286 135.061 287.8 134.931 287.362 134.623ZM276.595 124.829H283.036C283.457 124.829 283.749 124.748 283.911 124.586C284.089 124.424 284.178 124.164 284.178 123.808C284.178 123.435 284.089 123.176 283.911 123.03C283.749 122.868 283.457 122.787 283.036 122.787H276.595C276.19 122.787 275.899 122.868 275.72 123.03C275.542 123.176 275.453 123.435 275.453 123.808C275.453 124.164 275.542 124.424 275.72 124.586C275.899 124.748 276.19 124.829 276.595 124.829ZM309.966 133.53C307.13 134.081 304.675 134.299 302.601 134.186C300.544 134.089 299.029 133.643 298.056 132.849C297.554 132.444 297.157 131.99 296.866 131.488C296.59 130.986 296.396 130.378 296.282 129.665C296.169 128.952 296.112 128.094 296.112 127.089V117.221C296.112 116.703 296.29 116.265 296.647 115.909C297.019 115.536 297.465 115.35 297.984 115.35C298.502 115.35 298.94 115.536 299.296 115.909C299.669 116.265 299.855 116.703 299.855 117.221V122.131C301.119 121.807 302.423 121.442 303.768 121.037C305.113 120.632 306.312 120.227 307.365 119.822C307.9 119.611 308.402 119.619 308.872 119.846C309.342 120.057 309.658 120.405 309.82 120.891C309.998 121.377 309.982 121.863 309.771 122.349C309.577 122.819 309.237 123.143 308.751 123.322C307.859 123.646 306.895 123.962 305.858 124.27C304.837 124.577 303.809 124.861 302.772 125.12C301.751 125.379 300.779 125.606 299.855 125.801V127.089C299.855 127.721 299.879 128.215 299.928 128.572C299.993 128.928 300.09 129.203 300.22 129.398C300.349 129.592 300.519 129.762 300.73 129.908C301.07 130.135 301.564 130.297 302.213 130.394C302.861 130.492 303.76 130.5 304.91 130.419C306.077 130.338 307.576 130.143 309.407 129.835C309.925 129.738 310.387 129.843 310.792 130.151C311.213 130.459 311.456 130.872 311.521 131.391C311.602 131.909 311.489 132.371 311.181 132.776C310.873 133.181 310.468 133.432 309.966 133.53ZM311.06 120.794C310.897 120.616 310.638 120.357 310.282 120.016C309.941 119.676 309.658 119.384 309.431 119.141C309.269 118.963 309.188 118.728 309.188 118.436C309.188 118.129 309.293 117.853 309.504 117.61C309.682 117.416 309.909 117.302 310.185 117.27C310.476 117.237 310.744 117.302 310.987 117.464C311.262 117.642 311.586 117.886 311.959 118.193C312.331 118.485 312.623 118.769 312.834 119.044C313.061 119.303 313.174 119.595 313.174 119.919C313.174 120.227 313.052 120.519 312.809 120.794C312.599 121.037 312.315 121.167 311.959 121.183C311.602 121.183 311.303 121.053 311.06 120.794ZM313.32 118.412C313.142 118.25 312.866 118.015 312.493 117.707C312.121 117.399 311.797 117.132 311.521 116.905C311.359 116.759 311.254 116.541 311.205 116.249C311.173 115.941 311.262 115.658 311.473 115.398C311.635 115.188 311.853 115.058 312.129 115.009C312.404 114.945 312.672 114.977 312.931 115.107C313.223 115.253 313.563 115.463 313.952 115.739C314.341 115.998 314.665 116.257 314.924 116.516C315.167 116.743 315.305 117.019 315.337 117.343C315.37 117.667 315.272 117.967 315.045 118.242C314.851 118.501 314.584 118.655 314.243 118.704C313.903 118.736 313.595 118.639 313.32 118.412ZM324.16 135.353C323.755 135.531 323.333 135.531 322.896 135.353C322.475 135.191 322.175 134.899 321.997 134.478C321.835 134.056 321.835 133.635 321.997 133.214C322.159 132.792 322.45 132.493 322.872 132.314C324.492 131.634 325.821 130.832 326.858 129.908C327.911 128.985 328.721 127.915 329.288 126.7C329.871 125.469 330.252 124.067 330.43 122.495C330.495 122.042 330.706 121.677 331.062 121.402C331.419 121.126 331.824 121.021 332.278 121.086C332.747 121.15 333.12 121.361 333.396 121.718C333.671 122.074 333.768 122.479 333.687 122.933C333.298 125.801 332.318 128.288 330.746 130.394C329.191 132.485 326.995 134.137 324.16 135.353ZM327.295 127.381C326.858 127.526 326.444 127.51 326.056 127.332C325.683 127.138 325.415 126.83 325.253 126.408C325.075 125.939 324.848 125.412 324.573 124.829C324.314 124.229 324.095 123.751 323.917 123.395C323.722 122.973 323.674 122.552 323.771 122.131C323.868 121.693 324.111 121.361 324.5 121.134C324.889 120.907 325.31 120.843 325.764 120.94C326.218 121.037 326.55 121.288 326.76 121.693C327.003 122.163 327.271 122.706 327.562 123.322C327.854 123.937 328.113 124.594 328.34 125.29C328.486 125.728 328.454 126.149 328.243 126.554C328.049 126.959 327.733 127.235 327.295 127.381ZM323.115 128.28C322.71 128.458 322.296 128.466 321.875 128.304C321.454 128.126 321.146 127.834 320.952 127.429C320.692 126.878 320.417 126.352 320.125 125.849C319.834 125.347 319.59 124.942 319.396 124.634C319.169 124.245 319.08 123.832 319.129 123.395C319.193 122.941 319.404 122.584 319.761 122.325C320.133 122.05 320.546 121.953 321 122.034C321.454 122.098 321.81 122.317 322.07 122.69C322.394 123.143 322.734 123.702 323.09 124.367C323.447 125.015 323.738 125.598 323.965 126.117C324.144 126.538 324.152 126.959 323.99 127.381C323.828 127.802 323.536 128.102 323.115 128.28ZM343.871 135.158C343.401 135.353 342.923 135.353 342.437 135.158C341.967 134.98 341.627 134.656 341.416 134.186C341.205 133.716 341.197 133.246 341.392 132.776C341.586 132.29 341.918 131.942 342.388 131.731C347.654 129.43 351.43 126.109 353.714 121.766C354.152 120.924 353.86 120.502 352.839 120.502H349.923C349.161 121.523 348.311 122.512 347.371 123.468C346.431 124.407 345.435 125.258 344.381 126.02C343.96 126.327 343.49 126.433 342.972 126.335C342.469 126.238 342.064 125.979 341.756 125.558C341.465 125.136 341.359 124.675 341.44 124.172C341.538 123.654 341.797 123.249 342.218 122.957C343.077 122.374 343.928 121.669 344.77 120.843C345.629 120.016 346.407 119.133 347.103 118.193C347.8 117.237 348.351 116.306 348.756 115.398C348.967 114.928 349.315 114.604 349.801 114.426C350.287 114.232 350.765 114.24 351.235 114.45C351.705 114.661 352.037 115.009 352.232 115.496C352.442 115.965 352.434 116.435 352.207 116.905H353.423C354.816 116.905 355.894 117.164 356.655 117.683C357.417 118.185 357.846 118.89 357.943 119.797C358.057 120.689 357.83 121.726 357.263 122.909C356.42 124.675 355.302 126.352 353.909 127.94C352.532 129.511 350.984 130.921 349.267 132.169C347.549 133.4 345.75 134.397 343.871 135.158ZM358.843 118.752C358.681 118.574 358.421 118.315 358.065 117.975C357.725 117.634 357.441 117.343 357.214 117.1C357.052 116.921 356.971 116.686 356.971 116.395C356.971 116.087 357.077 115.82 357.287 115.593C357.465 115.398 357.7 115.285 357.992 115.253C358.284 115.204 358.551 115.261 358.794 115.423C359.069 115.601 359.385 115.844 359.742 116.152C360.115 116.46 360.414 116.751 360.641 117.027C360.868 117.286 360.973 117.578 360.957 117.902C360.957 118.21 360.836 118.493 360.593 118.752C360.382 118.995 360.098 119.125 359.742 119.141C359.385 119.141 359.086 119.012 358.843 118.752ZM361.103 116.395C360.925 116.217 360.649 115.974 360.277 115.666C359.904 115.358 359.588 115.099 359.329 114.888C359.151 114.726 359.037 114.499 358.988 114.207C358.956 113.916 359.045 113.64 359.256 113.381C359.418 113.154 359.637 113.016 359.912 112.968C360.188 112.903 360.455 112.935 360.714 113.065C361.006 113.227 361.346 113.446 361.735 113.721C362.124 113.981 362.448 114.232 362.707 114.475C362.95 114.702 363.088 114.977 363.12 115.301C363.153 115.625 363.055 115.925 362.829 116.2C362.634 116.46 362.367 116.614 362.027 116.662C361.686 116.711 361.378 116.622 361.103 116.395ZM371.019 135.255C370.549 135.466 370.071 135.482 369.585 135.304C369.099 135.142 368.743 134.826 368.516 134.356C368.305 133.886 368.289 133.408 368.467 132.922C368.646 132.42 368.97 132.063 369.44 131.853C371.125 131.075 372.405 130.014 373.28 128.669C374.155 127.308 374.633 125.574 374.714 123.468H371.651C371.667 124.035 371.667 124.586 371.651 125.12C371.651 125.639 371.635 126.117 371.603 126.554C371.586 127.057 371.384 127.486 370.995 127.842C370.622 128.183 370.177 128.337 369.658 128.304C369.14 128.272 368.718 128.061 368.394 127.672C368.07 127.267 367.916 126.813 367.933 126.311C367.965 125.922 367.981 125.485 367.981 124.999C367.997 124.513 367.997 124.002 367.981 123.468H363.363C362.861 123.468 362.432 123.289 362.075 122.933C361.719 122.576 361.54 122.147 361.54 121.645C361.54 121.142 361.719 120.713 362.075 120.357C362.432 120 362.861 119.822 363.363 119.822H367.86C367.827 119.336 367.787 118.874 367.738 118.436C367.706 117.999 367.665 117.618 367.617 117.294C367.552 116.776 367.657 116.314 367.933 115.909C368.224 115.487 368.621 115.236 369.124 115.155C369.642 115.074 370.104 115.18 370.509 115.471C370.93 115.763 371.173 116.168 371.238 116.686C371.303 117.124 371.36 117.61 371.408 118.145C371.457 118.679 371.497 119.238 371.53 119.822H374.689C374.673 119.206 374.641 118.607 374.592 118.023C374.56 117.44 374.527 116.93 374.495 116.492C374.463 115.974 374.608 115.52 374.932 115.131C375.256 114.726 375.67 114.499 376.172 114.45C376.69 114.418 377.144 114.572 377.533 114.912C377.938 115.236 378.157 115.658 378.189 116.176C378.238 116.646 378.27 117.205 378.286 117.853C378.319 118.485 378.343 119.141 378.359 119.822H382.588C383.091 119.822 383.512 120 383.852 120.357C384.209 120.713 384.387 121.142 384.387 121.645C384.387 122.147 384.209 122.576 383.852 122.933C383.512 123.289 383.091 123.468 382.588 123.468H378.359C378.165 129.155 375.718 133.084 371.019 135.255ZM397.73 135.377C397.228 135.377 396.791 135.191 396.418 134.818C396.045 134.461 395.859 134.024 395.859 133.505V124.537C394.919 125.363 393.947 126.157 392.942 126.919C391.938 127.664 390.933 128.369 389.928 129.033C389.491 129.309 389.021 129.382 388.519 129.252C388.016 129.122 387.628 128.839 387.352 128.401C387.093 127.948 387.02 127.478 387.133 126.992C387.263 126.489 387.547 126.101 387.984 125.825C388.681 125.388 389.45 124.845 390.293 124.197C391.152 123.549 392.027 122.852 392.918 122.106C393.809 121.345 394.676 120.567 395.519 119.773C396.377 118.963 397.147 118.185 397.828 117.44C398.524 116.695 399.083 116.014 399.505 115.398C399.812 114.977 400.217 114.718 400.72 114.621C401.238 114.523 401.708 114.621 402.129 114.912C402.551 115.204 402.81 115.609 402.907 116.127C403.021 116.63 402.923 117.092 402.616 117.513C402.178 118.08 401.708 118.655 401.206 119.238C400.72 119.822 400.193 120.405 399.626 120.988V133.505C399.626 134.024 399.44 134.461 399.067 134.818C398.694 135.191 398.249 135.377 397.73 135.377ZM418.462 135.523C417.96 135.523 417.522 135.336 417.15 134.964C416.777 134.607 416.591 134.17 416.591 133.651V116.881C416.591 116.362 416.777 115.917 417.15 115.544C417.522 115.171 417.96 114.985 418.462 114.985C418.981 114.985 419.418 115.171 419.775 115.544C420.147 115.917 420.334 116.362 420.334 116.881V122.422C420.625 122.147 420.974 121.985 421.379 121.936C421.784 121.872 422.165 121.936 422.521 122.131C423.477 122.633 424.409 123.184 425.316 123.783C426.224 124.383 427.05 124.991 427.795 125.606C428.2 125.93 428.419 126.36 428.452 126.894C428.5 127.413 428.362 127.875 428.038 128.28C427.714 128.685 427.285 128.912 426.75 128.96C426.232 129.009 425.77 128.871 425.365 128.547C424.911 128.191 424.401 127.818 423.834 127.429C423.283 127.04 422.74 126.676 422.205 126.335C421.67 125.979 421.192 125.687 420.771 125.461C420.706 125.412 420.633 125.363 420.552 125.315C420.488 125.25 420.415 125.185 420.334 125.12V133.651C420.334 134.17 420.147 134.607 419.775 134.964C419.418 135.336 418.981 135.523 418.462 135.523Z" fill="#222222"/>
</svg>
