<svg width="243" height="98" viewBox="0 0 243 98" fill="none" xmlns="http://www.w3.org/2000/svg">
<path d="M5.57404 80.9589C3.34905 50.9628 0.942942 34.291 0 27.2055C1.70524 26.6565 53.0354 16.138 54.2251 15.5129C62.677 13.2917 77.1681 9.2767 93.1993 7.03551C100.768 5.97732 114.356 4.26454 139.259 2.84265C164.162 1.42077 199.315 0.323052 218.354 0.0251018C237.394 -0.272848 241.295 2.17998 241.295 2.17998C241.295 2.17998 240.459 25.9252 242.889 57.9482C243.417 64.9033 241.891 82.9042 241.891 82.9042C241.891 82.9042 231.23 85.3625 207.256 85.5062C185.152 85.6386 144.053 85.8952 122.191 86.5261C97.759 87.2311 93.8497 87.3782 78.8731 89.2383C65.165 90.9408 39.8047 94.2457 25.9407 95.7989C18.3047 96.6543 4.57619 98 4.57619 98C4.57619 98 6.04677 87.3319 5.57404 80.9589Z" fill="#593B6E"/>
</svg>
