<svg width="283" height="386" viewBox="0 0 283 386" fill="none" xmlns="http://www.w3.org/2000/svg">
<path d="M53.3947 58.7334C58.7395 37.5351 79.9908 24.4688 101.442 30.1063C118.781 34.6637 126.862 48.4914 129.678 60.7512C132.253 71.9585 131.25 84.1454 129.703 94.0407C128.657 100.731 127.176 107.43 125.635 113.607C128.788 113.676 132.036 113.823 135.291 114.09C143.239 114.741 152.554 116.193 161.205 119.761L162.04 120.113C170.993 123.969 180.922 130.995 186.138 143.354L186.383 143.947L186.419 144.036L186.454 144.127L186.668 144.675L186.703 144.768L186.738 144.862C189.995 153.57 190.224 164.1 189.973 172.168C189.683 181.475 188.526 191.856 187.016 201.813C185.397 212.491 183.261 223.363 181.053 232.737C181.274 232.837 181.497 232.94 181.721 233.042C190.739 237.148 202.262 242.38 213.617 247.903C224.855 253.368 236.586 259.434 245.899 265.283C250.501 268.174 255.207 271.44 259.122 274.958C261.09 276.727 263.308 278.956 265.278 281.631L265.635 282.123C267.453 284.68 269.751 288.637 270.731 293.787C272.531 303.253 272.614 315.348 265.263 325.605L264.908 326.093C257.031 336.676 245.413 339.402 237.206 339.833C221.717 340.646 203.256 334.228 188.575 328.051C157.366 314.919 124.804 294.584 122.182 292.903C95.4602 275.765 94.8082 245.534 97.1491 225.518C98.3767 215.021 100.733 204.501 102.923 195.372C97.3367 195.287 91.8719 195.406 86.5979 195.785C77.0538 196.472 67.3624 195.041 58.6922 190.043C49.8645 184.955 44.1748 177.367 40.779 169.486C34.5517 155.032 35.294 137.935 37.0603 124.586L37.2422 123.25C39.1778 109.444 42.7998 95.4333 46.0294 84.13C49.774 71.0245 52.2235 63.8603 53.1545 59.7359L53.1759 59.6425L53.1977 59.5499L53.3509 58.9123L53.3716 58.8223L53.3947 58.7334Z" fill="#EA5520"/>
<path d="M67.9392 62.4003C71.2955 49.0884 84.4485 41.1495 97.6297 44.6136C107.856 47.3014 113.036 55.3034 115.059 64.109C116.984 72.4888 116.341 82.3947 114.883 91.7233C113.399 101.212 110.93 110.923 108.651 119.207C107.658 122.815 106.731 126.06 105.922 128.915C107.837 128.845 109.923 128.77 112.176 128.703C118.821 128.505 126.511 128.42 134.066 129.039C141.55 129.653 149.37 130.989 156.107 133.89C162.91 136.82 169.279 141.66 172.476 149.568L172.689 150.117C174.838 155.862 175.225 163.822 174.98 171.701C174.715 180.202 173.645 189.945 172.186 199.564C169.848 214.975 166.416 230.682 163.386 241.112C163.565 241.196 163.747 241.284 163.934 241.372C167.021 242.829 170.959 244.625 175.506 246.694C184.558 250.815 195.903 255.967 207.056 261.392C218.169 266.797 229.313 272.579 237.921 277.985C242.205 280.676 246.097 283.42 249.096 286.115C250.598 287.465 252.032 288.94 253.202 290.528C254.334 292.065 255.525 294.118 255.995 296.589C257.473 304.365 256.962 311.644 252.874 317.137C248.769 322.653 242.424 324.539 236.42 324.854C224.704 325.469 209.094 320.411 194.392 314.225C164.394 301.603 132.701 281.829 130.28 280.276C111.455 268.204 109.804 246.444 112.047 227.26C113.201 217.4 115.476 207.305 117.709 198.037C119.164 191.995 120.575 186.394 121.725 181.271C109.556 180.327 97.2411 179.98 85.5209 180.824C78.1545 181.354 71.6332 180.189 66.183 177.047C60.6649 173.866 56.9248 169.051 54.5549 163.551C50.0172 153.019 50.2343 139.373 51.9304 126.554C53.6677 113.423 57.1778 99.7102 60.452 88.2508C63.8606 76.3208 66.7484 67.6379 67.7867 63.0381L67.9392 62.4003Z" fill="#EA5520" stroke="white" stroke-linecap="round" stroke-dasharray="10 10"/>
</svg>
