<svg width="158" height="192" viewBox="0 0 158 192" fill="none" xmlns="http://www.w3.org/2000/svg">
<path d="M97.5751 10.9991C80.7311 7.10219 68.853 3.5511 56.9749 7.31331e-07C44.1846 36.5119 34.5623 73.6323 27.3408 93.1378C18.681 116.664 16.9058 121.924 16.1121 124.484C13.9683 130.8 6.27567 151.171 2.64696e-05 166.082C2.64696e-05 166.082 4.60164 167.062 6.58114 167.469C22.7421 170.791 47.7866 177.637 56.9992 179.89C68.9598 182.815 74.7662 183.709 83.551 185.718C89.802 187.147 98.0397 189.79 107.269 191.497C108.483 187.434 112.885 173.965 119.648 155.032C122.511 147.013 127.695 128.843 134.017 103.364C138.552 85.0925 141.592 69.6442 143.392 64.581C147.754 52.3079 156.719 29.5061 157.836 25.2501C152.432 23.6513 157.576 24.8375 146.723 21.9344C135.869 19.0313 114.419 14.8961 97.5751 10.9991Z" fill="#00992B"/>
</svg>
