<svg width="372" height="288" viewBox="0 0 372 288" fill="none" xmlns="http://www.w3.org/2000/svg">
<path d="M210.628 11.2275L200.354 22.1572C210.628 11.2273 210.628 11.2272 210.628 11.2275L210.63 11.2285C210.631 11.2291 210.631 11.2305 210.632 11.2314C210.634 11.2335 210.637 11.2367 210.641 11.2402C210.648 11.2472 210.659 11.2569 210.673 11.2695C210.7 11.2948 210.738 11.3311 210.788 11.3779C210.888 11.4719 211.032 11.6084 211.217 11.7832C211.587 12.133 212.118 12.6372 212.775 13.2637C214.088 14.5154 215.908 16.2631 217.942 18.2471C221.93 22.1369 227.027 27.2164 230.674 31.2686C235.254 36.3578 241.185 46.3209 245.257 53.4248C247.477 57.299 249.478 60.9234 250.92 63.5732C251.642 64.9009 252.229 65.9906 252.637 66.7529C252.841 67.1342 253 67.4344 253.11 67.6416C253.165 67.7448 253.208 67.825 253.237 67.8809C253.252 67.9087 253.264 67.9307 253.272 67.9463C253.277 67.9541 253.28 67.9612 253.282 67.9658C253.283 67.9678 253.284 67.9693 253.285 67.9707L253.286 67.9727C253.286 67.9733 253.286 67.9739 242.161 73.8457L253.287 67.9746L253.479 68.3389L253.648 68.709C253.654 68.7205 253.663 68.7383 253.675 68.7627C253.708 68.8323 253.764 68.9536 253.845 69.1211C254.006 69.4565 254.261 69.9772 254.602 70.6484C255.285 71.9955 256.301 73.9248 257.592 76.165C260.236 80.7532 263.761 86.1739 267.666 90.5693C280.091 104.555 290.817 117.641 299.251 130.565C301.804 134.477 310.49 149.88 321.512 172.091C324.487 178.087 326.817 182.387 328.8 186.048C330.736 189.622 332.586 193.024 334.205 196.662C336.005 200.706 342.09 211.477 348.316 222.153C351.31 227.286 354.17 232.117 356.284 235.668C357.34 237.442 358.209 238.895 358.812 239.901C359.113 240.404 359.348 240.796 359.507 241.061C359.586 241.193 359.647 241.294 359.688 241.361C359.708 241.395 359.722 241.42 359.732 241.437C359.737 241.445 359.742 241.451 359.744 241.455C359.745 241.457 359.746 241.458 359.746 241.459L359.747 241.46L371.754 261.403L254.122 275.102L253.965 275.119L253.808 275.135H253.805C253.803 275.135 253.801 275.136 253.799 275.136C253.794 275.136 253.786 275.137 253.776 275.138C253.757 275.14 253.729 275.142 253.692 275.146C253.62 275.152 253.513 275.162 253.374 275.175C253.096 275.201 252.687 275.239 252.156 275.288C251.095 275.386 249.548 275.526 247.59 275.698C243.674 276.043 238.111 276.518 231.5 277.037C218.299 278.074 200.827 279.299 183.927 280.024C149.689 281.494 108.518 282.195 83.1367 283.56C70.5105 284.238 57.565 284.884 47.7822 285.359C42.8895 285.597 38.7848 285.793 35.9023 285.929C34.4611 285.997 33.3248 286.05 32.5488 286.086C32.1612 286.104 31.8634 286.118 31.6621 286.127C31.5614 286.132 31.4841 286.135 31.4326 286.138C31.4073 286.139 31.388 286.14 31.375 286.141C31.3684 286.141 31.3627 286.14 31.3594 286.141C31.3579 286.141 31.3563 286.142 31.3555 286.142L0 287.588L114.436 131.643C114.642 131.267 114.912 130.776 115.239 130.18C116.06 128.687 117.242 126.537 118.692 123.909C121.592 118.655 125.565 111.479 129.855 103.801C138.339 88.619 148.365 70.9313 153.67 62.5469C162.212 49.0472 170.915 36.6629 177.461 27.6768C180.741 23.1748 183.495 19.5046 185.438 16.9492C186.409 15.6713 187.178 14.6709 187.71 13.9834C187.976 13.6396 188.182 13.3736 188.325 13.1904C188.397 13.0989 188.452 13.0283 188.491 12.9785C188.511 12.9536 188.526 12.9332 188.537 12.9189C188.543 12.912 188.547 12.9067 188.551 12.9023C188.552 12.9002 188.554 12.898 188.555 12.8965L188.557 12.8945C188.564 12.8992 188.839 13.1141 199.623 21.583L188.558 12.8926L198.683 0L210.628 11.2275Z" fill="#004ABA"/>
<path d="M166.346 70.5677C182.973 44.2911 200.355 22.1572 200.355 22.1572C200.355 22.1572 212.936 33.9826 219.524 41.3028C226.113 48.623 240.021 74.9757 240.021 74.9757C240.021 74.9757 246.741 89.6 256.453 100.531C268.7 114.316 278.856 126.759 286.689 138.762C288.728 141.886 297.087 156.617 308.075 178.758C314.278 191.259 317.823 196.745 320.501 202.762C324.93 212.711 346.896 249.197 346.896 249.197L252.387 260.202C252.387 260.202 216.589 263.608 183.284 265.038C149.978 266.468 107.513 267.227 82.3316 268.581C57.1502 269.935 30.6631 271.157 30.6631 271.157L127.113 139.722C127.113 139.722 156.267 86.4969 166.346 70.5677Z" fill="#004ABA" stroke="white" stroke-linecap="round" stroke-dasharray="10 10"/>
</svg>
