<svg width="293" height="232" viewBox="0 0 293 232" fill="none" xmlns="http://www.w3.org/2000/svg">
<path d="M187.913 6.59794C206.073 -1.37078 230.078 3.6367 248.925 14.8288C268.108 26.2199 285.094 45.8261 287.108 71.0439C288.085 83.2794 285.385 101.118 280.037 119.736C274.626 138.572 266.209 159.234 254.989 177.211C243.86 195.043 229.393 211.158 211.486 219.507C192.931 228.159 171.81 227.925 149.54 214.985L149.303 214.848L149.074 214.696C144.492 211.686 134.399 203.259 125.186 195.709C115.201 187.526 106.223 180.35 102.395 178.164C90.9946 171.652 83.0512 173.504 69.6253 173.609C63.0556 173.661 55.5977 173.125 47.4651 169.825C39.3554 166.534 31.3149 160.803 22.8869 151.57C7.26892 134.459 0.777925 106.92 3.59098 81.4737C6.42568 55.8326 19.0567 29.5771 45.0181 16.8993C53.1587 12.9239 66.3989 9.66996 79.9815 9.80021C93.5265 9.93014 109.391 13.4746 120.62 25.3833C128.61 33.8563 134.3 36.5592 138.119 37.2086C141.681 37.8143 145.289 36.9192 149.993 34.0295C155.033 30.9336 159.846 26.539 166.265 21.1178C172.27 16.046 179.453 10.3102 187.913 6.59794Z" fill="#00992B"/>
<path d="M107.355 169.481C78.6128 153.064 60.9702 178.458 30.2728 144.828C3.95576 115.997 5.56673 47.2933 49.4062 25.885C62.6374 19.4237 96.1398 13.9991 113.344 32.2441C148.359 69.3762 163.822 28.0902 191.931 15.7555C220.04 3.42091 273.787 29.852 277.139 71.8402C280.491 113.828 232.957 251.889 154.564 206.339C146.564 201.082 116.862 174.911 107.355 169.481Z" fill="#00992B" stroke="white" stroke-linecap="round" stroke-dasharray="10 10"/>
</svg>
