<svg width="317" height="249" viewBox="0 0 317 249" fill="none" xmlns="http://www.w3.org/2000/svg">
<path d="M135.683 48.4105C152.309 22.1339 169.692 0 169.692 0C169.692 0 182.273 11.8254 188.861 19.1456C195.449 26.4658 209.358 52.8185 209.358 52.8185C209.358 52.8185 216.078 67.4428 225.79 78.3742C238.036 92.1592 248.193 104.601 256.026 116.605C258.065 119.729 266.424 134.459 277.412 156.601C283.615 169.102 287.16 174.587 289.838 180.605C294.267 190.554 316.233 227.039 316.233 227.039L221.724 238.045C221.724 238.045 185.926 241.451 152.621 242.881C119.315 244.31 76.8498 245.07 51.6685 246.424C26.4871 247.778 0 249 0 249L96.4499 117.564C96.4499 117.564 125.603 64.3396 135.683 48.4105Z" fill="#004ABA"/>
</svg>
