<svg width="215" height="253" viewBox="0 0 215 253" fill="none" xmlns="http://www.w3.org/2000/svg">
<path d="M192.915 56.6425C192.185 59.4252 189.378 66.907 186.596 74.2909C183.644 82.1259 180.361 90.7648 178.221 96.7861C177.567 98.6242 176.506 103.024 174.884 110.107C173.343 116.839 171.424 125.382 169.129 134.629C162.804 160.116 157.52 178.717 154.472 187.251C147.73 206.126 143.396 219.402 142.257 223.215L139.687 231.82L130.857 230.186C125.876 229.264 121.227 228.103 117.151 227.028C112.915 225.912 109.641 224.988 106.729 224.322C98.9077 222.534 91.7435 221.324 80.0306 218.459C70.2796 216.074 45.9289 209.399 29.9747 206.12C28.9517 205.91 27.278 205.557 25.8837 205.262C25.1816 205.113 24.5415 204.978 24.0774 204.879C23.8455 204.83 23.6574 204.79 23.527 204.762C23.4618 204.748 23.4107 204.738 23.3761 204.73C23.3592 204.727 23.3464 204.723 23.3375 204.721C23.333 204.72 23.3291 204.719 23.3268 204.719L23.3237 204.719L11.5006 202.201L16.1895 191.06C22.3784 176.354 29.9561 156.277 32.0316 150.174C32.9458 147.251 34.9313 141.446 43.3631 118.539L43.3656 118.531L43.3693 118.522C46.8435 109.138 50.942 95.3712 55.901 78.9164C60.8075 62.6361 66.4671 44.037 72.9433 25.5498L76.0993 16.5402L85.2458 19.275C97.0966 22.8179 108.72 26.2911 125.236 30.1122C141.305 33.83 163.75 38.1979 174.713 41.1301C180 42.5442 181.875 43.0854 183.09 43.5186C183.43 43.6399 183.702 43.7468 183.838 43.7997C183.964 43.8488 184.019 43.8696 184.102 43.8993C184.301 43.9701 184.796 44.1375 186.079 44.5171L195.374 47.2676L192.915 56.6425Z" fill="#00992B"/>
<path d="M122.981 39.855C106.137 35.958 94.2593 32.4069 82.3811 28.8558C69.5909 65.3677 59.9685 102.488 52.7471 121.994C44.0872 145.52 42.3121 150.78 41.5183 153.34C39.3745 159.656 31.6819 180.026 25.4063 194.938C25.4063 194.938 30.0079 195.918 31.9874 196.325C48.1484 199.646 73.1929 206.493 82.4055 208.746C94.3661 211.671 100.172 212.565 108.957 214.573C115.208 216.003 123.446 218.646 132.675 220.353C133.889 216.29 138.291 202.821 145.054 183.888C147.918 175.869 153.101 157.699 159.424 132.22C163.958 113.948 166.998 98.5 168.798 93.4368C173.16 81.1637 182.126 58.362 183.242 54.1059C177.839 52.5071 182.983 53.6933 172.129 50.7902C161.275 47.8871 139.825 43.7519 122.981 39.855Z" fill="#00992B" stroke="white" stroke-linecap="round" stroke-dasharray="10 10"/>
</svg>
