<svg width="206" height="282" viewBox="0 0 206 282" fill="none" xmlns="http://www.w3.org/2000/svg">
<path d="M17.1245 18.5984C20.4808 5.28652 33.6338 -2.65239 46.815 0.81175C57.0408 3.49949 62.2217 11.5016 64.2443 20.3071C66.1691 28.6869 65.5265 38.5928 64.0681 47.9214C62.5847 57.4099 60.1152 67.1215 57.8363 75.4048C56.8436 79.0128 55.9159 82.2579 55.1075 85.1133C57.0226 85.0433 59.1079 84.9676 61.3615 84.9006C68.0065 84.7031 75.6963 84.6182 83.2509 85.2373C90.7357 85.8508 98.5556 87.1876 105.292 90.0886C112.095 93.018 118.464 97.858 121.661 105.766L121.875 106.315C124.024 112.06 124.411 120.02 124.165 127.899C123.901 136.4 122.83 146.143 121.371 155.762C119.034 171.174 115.602 186.88 112.572 197.31C112.75 197.395 112.932 197.482 113.119 197.57C116.206 199.027 120.145 200.823 124.691 202.893C133.744 207.013 145.088 212.165 156.241 217.59C167.355 222.995 178.498 228.777 187.106 234.184C191.391 236.875 195.282 239.618 198.281 242.313C199.783 243.663 201.217 245.138 202.387 246.726C203.519 248.263 204.71 250.316 205.18 252.787C206.659 260.563 206.147 267.842 202.059 273.335C197.954 278.851 191.609 280.737 185.605 281.052C173.89 281.667 158.279 276.609 143.577 270.423C113.58 257.801 81.8859 238.027 79.4653 236.475C60.6408 224.402 58.9892 202.642 61.2328 183.458C62.3859 173.598 64.6616 163.503 66.8939 154.235C68.3493 148.193 69.7606 142.592 70.9105 137.469C58.7414 136.525 46.4264 136.178 34.7062 137.022C27.3398 137.552 20.8185 136.387 15.3683 133.245C9.85018 130.065 6.11011 125.249 3.74017 119.749C-0.797515 109.217 -0.580362 95.5707 1.11571 82.7518C2.85299 69.6216 6.36311 55.9083 9.63729 44.4489C13.0459 32.5189 15.9337 23.836 16.972 19.2362L17.1245 18.5984Z" fill="#EA5520"/>
</svg>
