<svg width="377" height="207" viewBox="0 0 377 207" fill="none" xmlns="http://www.w3.org/2000/svg">
<path d="M283.173 0.805466C290.283 -0.858134 300.1 0.199959 309.975 2.65441C320.099 5.17066 331.256 9.40071 341.433 14.959C351.522 20.4695 361.161 27.5641 367.761 36.0758C374.463 44.7201 378.541 55.6188 375.427 67.605C371.972 80.9026 365.995 89.9174 356.388 91.9451C347.775 93.7629 339.054 89.101 332.259 84.5572C328.632 82.132 325.008 79.3469 321.583 76.6619C318.081 73.9169 314.844 71.323 311.681 68.9939C308.523 66.6678 305.744 64.838 303.309 63.6251C302.804 63.3736 302.336 63.1608 301.903 62.9807C291.338 83.9855 277.377 104.527 259.674 115.301C249.93 121.232 238.965 124.252 226.956 122.627C215.006 121.011 202.66 114.885 189.963 103.715C184.984 99.3353 181.282 96.4689 178.529 94.721C177.414 94.0127 176.566 93.5626 175.949 93.2765C175.772 93.8816 175.589 94.6253 175.392 95.542C173.401 104.802 171.889 126.948 153.457 141.064C142.822 149.208 132.767 152.068 123.081 151.611C113.676 151.167 105.182 147.599 97.81 144.156C82.8335 137.162 72.6678 131.37 60.5193 136.848C59.3402 139.198 58.7783 142.73 58.962 148.082C59.0681 151.173 59.403 154.501 59.8152 158.118C60.2148 161.624 60.7027 165.518 61.0173 169.245C61.6261 176.457 61.8308 185.123 58.531 192.405C54.9617 200.281 48.1411 204.935 38.3571 206.319L37.4008 206.443C26.4076 207.736 17.6946 203.409 11.592 195.589C5.84012 188.218 2.79881 178.286 1.29792 168.572C-0.224926 158.715 -0.295022 148.219 0.506114 138.906C1.29882 129.691 2.99688 121.039 5.34215 115.015C11.813 98.3927 25.6593 83.8935 41.5609 75.7011C57.4799 67.4998 76.7228 65.0255 93.6353 74.8065C96.4958 76.4609 99.2244 78.5508 101.627 80.446C104.166 82.4483 106.326 84.2182 108.579 85.8001C110.994 87.496 113.014 88.5996 114.8 89.1786C116.686 80.3718 118.702 70.2251 122.826 61.1235C132.382 40.0351 149.483 29.3813 167.716 27.8531C185.739 26.3426 204.761 33.7147 219.03 48.1523C228.684 57.9203 233.111 57.9792 234.814 57.471C235.867 57.1567 237.205 56.3053 238.904 54.2574C240.623 52.1845 242.36 49.316 244.301 45.6261C247.899 38.7857 252.394 28.4941 257.919 20.2374C263.685 11.6204 271.549 3.525 283.173 0.805466Z" fill="#EA5520"/>
</svg>
