<svg width="265" height="120" viewBox="0 0 265 120" fill="none" xmlns="http://www.w3.org/2000/svg">
<path d="M229.213 0.0263445C239.127 -0.128788 245.518 0.421886 249.671 1.13474C251.76 1.49341 253.366 1.90738 254.619 2.33299C255.249 2.54712 255.806 2.76966 256.3 2.99802C256.548 3.11252 256.782 3.22945 257.003 3.34861C257.114 3.40821 257.221 3.46831 257.326 3.52927C257.379 3.55974 257.43 3.59024 257.481 3.62107C257.507 3.63651 257.532 3.65242 257.558 3.66795C257.57 3.67564 257.582 3.68367 257.595 3.69138C257.601 3.69528 257.611 3.70114 257.614 3.7031C257.623 3.71012 257.568 3.81776 252.31 12.1797L257.633 3.71482L262.506 6.77927L262.303 12.5322C262.303 12.5334 262.303 12.535 262.303 12.5371C262.302 12.5447 262.302 12.5582 262.302 12.5771C262.301 12.6151 262.298 12.676 262.296 12.7588C262.291 12.9243 262.283 13.1788 262.274 13.5176C262.257 14.1955 262.235 15.213 262.216 16.539C262.177 19.192 262.148 23.0792 262.194 27.9599C262.288 37.7279 262.68 51.4443 263.875 67.1914C264.199 71.4566 263.894 78.3789 263.586 83.6211C263.424 86.3742 263.246 88.8981 263.108 90.7314C263.04 91.6493 262.98 92.3975 262.938 92.9189C262.918 93.1796 262.9 93.3838 262.889 93.5244C262.883 93.5945 262.878 93.6489 262.875 93.6865C262.873 93.7052 262.873 93.7201 262.872 93.7304C262.872 93.7356 262.871 93.7401 262.871 93.7431C262.871 93.7445 262.87 93.7461 262.87 93.747L252.906 92.9043L262.87 93.749L262.255 101.011L255.152 102.648L252.906 92.9043L255.148 102.649C255.148 102.65 255.145 102.65 255.144 102.65C255.14 102.651 255.136 102.652 255.133 102.653C255.125 102.655 255.117 102.656 255.108 102.658C255.091 102.662 255.071 102.667 255.049 102.672C255.004 102.682 254.948 102.695 254.882 102.709C254.75 102.737 254.575 102.773 254.357 102.816C253.923 102.903 253.317 103.018 252.535 103.15C250.971 103.415 248.703 103.753 245.688 104.09C239.66 104.763 230.65 105.432 218.33 105.506C196.174 105.639 155.214 105.895 133.494 106.521C109.133 107.224 105.609 107.363 91.1201 109.162C77.5421 110.848 52.0083 114.175 38.0684 115.736C34.1918 116.171 28.8037 116.726 24.415 117.17C22.2144 117.392 20.2536 117.588 18.8428 117.728C18.1374 117.797 17.569 117.854 17.1768 117.893C16.9806 117.912 16.8279 117.926 16.7246 117.937C16.6732 117.942 16.634 117.946 16.6074 117.948C16.5942 117.95 16.584 117.95 16.5771 117.951C16.5738 117.951 16.5711 117.952 16.5693 117.952H16.5664L3.9541 119.188L5.68457 106.635C5.68489 106.632 5.68483 106.628 5.68555 106.623C5.6874 106.609 5.69097 106.586 5.69531 106.554C5.70409 106.488 5.7177 106.385 5.73535 106.248C5.77067 105.975 5.82207 105.568 5.88281 105.056C6.00473 104.028 6.16298 102.595 6.30664 100.982C6.6095 97.5826 6.78802 94.0145 6.61621 91.6982C4.41355 62.0033 2.0387 45.5662 1.10156 38.5244L0 30.2461L7.9502 27.6865C8.76684 27.4236 10.4684 27.0589 11.6592 26.7998C13.2574 26.4521 15.4303 25.9884 17.9688 25.4511C23.0464 24.3766 29.678 22.9869 36.2617 21.6015C42.8599 20.2131 49.4161 18.8279 54.3916 17.7519C56.8845 17.2128 58.9453 16.7591 60.4043 16.4248C60.8657 16.3191 61.2452 16.2287 61.5469 16.1562L61.5967 16.1308L62.6982 15.8408C71.0141 13.6554 86.1022 9.4703 102.829 7.13181C110.659 6.03718 124.519 4.29734 149.704 2.85935C174.771 1.42811 210.064 0.325995 229.213 0.0263445Z" fill="#593B6E"/>
<path d="M16.5887 90.9588C14.3637 60.9628 11.9576 44.291 11.0146 37.2055C12.7199 36.6565 64.0501 26.138 65.2397 25.5129C73.6917 23.2917 88.1828 19.2767 104.214 17.0355C111.783 15.9773 125.371 14.2645 150.274 12.8426C175.177 11.4207 210.329 10.323 229.369 10.0251C248.409 9.72712 252.309 12.1799 252.309 12.1799C252.309 12.1799 251.473 35.9252 253.904 67.9482C254.431 74.9033 252.906 92.9041 252.906 92.9041C252.906 92.9041 242.244 95.3625 218.27 95.5061C196.166 95.6386 155.068 95.8952 133.206 96.5261C108.774 97.2311 104.864 97.3781 89.8877 99.2382C76.1797 100.941 50.8193 104.246 36.9554 105.799C29.3194 106.654 15.5908 108 15.5908 108C15.5908 108 17.0614 97.3319 16.5887 90.9588Z" fill="#593B6E" stroke="white" stroke-linecap="round" stroke-dasharray="10 10"/>
</svg>
