<svg width="237" height="206" viewBox="0 0 237 206" fill="none" xmlns="http://www.w3.org/2000/svg">
<path d="M118.781 1.72336C140.402 -0.972485 151.784 0.16825 154.338 0.692113C154.479 0.748704 155.117 1.0343 156.583 2.06125C158.635 3.49817 161.676 5.91737 166.576 10.0417C180.742 21.9646 198.123 38.0186 212.042 55.9431C226.093 74.0378 235.822 93.0323 236.308 110.947C236.319 111.376 236.26 112.33 235.4 114.566C234.515 116.867 232.976 120.044 230.392 124.84C227.008 131.118 220.598 139.884 213.898 150.004C206.877 160.607 200.1 171.356 191.984 180.676C183.951 189.901 175.075 197.142 164.323 200.885C162.448 201.538 158.601 202.355 145.36 203.434C132.434 204.488 111.288 205.463 99.8616 205.939C95.8486 206.106 92.1677 205.558 88.1301 204.67C84.7195 203.919 79.9145 202.619 75.384 201.749L74.4827 201.581L74.0471 201.513C73.1352 201.396 72.3101 201.435 71.6321 201.529L71.2004 201.284L69.8909 201.038C54.9644 198.229 39.7458 193.732 28.6008 185.547L28.1067 185.178C28.1323 185.193 27.777 184.881 26.9709 183.885C26.1475 182.867 25.1132 181.464 23.8508 179.645C21.3266 176.009 18.1597 171.104 14.3371 165.095C0.974478 144.092 0.656302 118.694 0.00999874 91.5447C-0.209566 82.3212 3.20343 70.15 8.62426 51.7917C10.8744 44.1714 16.4786 38.1614 24.3918 32.8572C32.4324 27.4676 41.6938 23.5259 50.6086 19.3122C71.2597 9.55154 95.3301 4.64728 118.781 1.72336Z" fill="white"/>
</svg>
