<svg width="28" height="28" fill="none" xmlns="http://www.w3.org/2000/svg"><path d="M24.093 23.442H0v3.907h24.093L28 23.442V2.605l-3.907 3.256v17.58ZM3.907 5.86H0v17.582l3.907-3.907V5.861ZM12.898 13.674V5.21h-2.48v3.255H7.813V5.242H5.21v5.176h5.21v1.302h-5.21v1.953h7.687l.002.001Z" fill="#fff"/><path d="M16.28 7.163h2.604v1.953H16.28V7.163Zm5.208 6.511V5.21h-7.813v8.465h2.604V11.07h2.605v2.605h2.605-.001ZM7.814 16.279h2.605v1.953H7.814v-1.953Zm5.21-1.953H5.211v8.465h2.605v-2.605h5.21v-5.86h-.002ZM13.675 14.326h7.813v1.953h-5.209v4.558h5.209v1.954h-7.813v-8.465ZM0 3.908 3.907.65H27.35l-3.256 3.257H0Z" fill="#fff"/></svg>