<svg width="32" height="32" viewBox="0 0 32 32" fill="none" xmlns="http://www.w3.org/2000/svg">
<g clip-path="url(#clip0_113_182)">
<path d="M16 0C7.1632 0 0 7.1632 0 16C0 23.0704 4.584 29.0656 10.9424 31.1824C11.7424 31.3264 12.0336 30.8336 12.0336 30.408C12.0336 30.0304 12.0192 29.0224 12.0112 27.6896C7.56 28.6528 6.6208 25.5456 6.6208 25.5456C5.8928 23.6944 4.8448 23.2016 4.8448 23.2016C3.3904 22.2096 4.9552 22.2288 4.9552 22.2288C6.5616 22.3424 7.4064 23.8768 7.4064 23.8768C8.832 26.3232 11.152 25.6192 12.0624 25.2096C12.208 24.1744 12.6208 23.472 13.0784 23.0704C9.5264 22.6688 5.7904 21.2928 5.7904 15.1616C5.7904 13.416 6.4144 11.9872 7.4384 10.8704C7.2736 10.464 6.7232 8.8384 7.5936 6.6368C7.5936 6.6368 8.9376 6.2064 11.9936 8.2768C13.2993 7.92039 14.6465 7.73907 16 7.7376C17.36 7.744 18.728 7.92 20.0064 8.2752C23.0608 6.2048 24.4032 6.6352 24.4032 6.6352C25.2768 8.8368 24.7264 10.4656 24.5632 10.8688C25.5872 11.9872 26.2048 13.4144 26.2048 15.16C26.2048 21.3056 22.4656 22.6592 18.9008 23.056C19.4752 23.5472 19.9872 24.5232 19.9872 26.0192C19.9872 28.1552 19.968 29.8832 19.968 30.4048C19.968 30.8352 20.256 31.3312 21.0688 31.1744C24.2525 30.1118 27.0213 28.0746 28.9832 25.3512C30.945 22.6279 32.0004 19.3564 32 16C32 7.1632 24.8368 0 16 0Z" fill="#5A3434"/>
</g>
<defs>
<clipPath id="clip0_113_182">
<rect width="32" height="32" fill="white"/>
</clipPath>
</defs>
</svg>
