<svg width="560" height="262" viewBox="0 0 560 262" fill="none" xmlns="http://www.w3.org/2000/svg">
<g clip-path="url(#clip0_38_580)">
<path d="M335.895 90.9262C332.843 98.3006 328.368 105.001 322.725 110.644C317.082 116.288 310.381 120.763 303.007 123.814C301.872 124.298 300.7 124.726 299.528 125.135V132.371C301.574 131.739 303.621 131.013 305.611 130.176C313.817 126.779 321.272 121.796 327.551 115.515C333.829 109.233 338.808 101.775 342.201 93.5677C342.945 91.8005 343.578 89.9961 344.154 88.1731L336.825 88.3777C336.62 89.2334 336.248 90.0891 335.895 90.9262Z" fill="#F05A59"/>
<path d="M223.595 44.4028C223.949 43.5471 224.321 42.6914 224.711 41.8544L219.596 36.7202C218.74 38.3758 217.94 40.0499 217.233 41.7613C216.252 44.1481 215.407 46.5889 214.703 49.0719L221.828 49.2765C222.349 47.6395 222.925 46.0026 223.595 44.4028Z" fill="#F05A59"/>
<path d="M256.483 123.814C249.109 120.763 242.408 116.288 236.765 110.644C231.122 105.001 226.647 98.3006 223.595 90.9262C223.242 90.0891 222.907 89.2334 222.609 88.3777L215.28 88.1731C215.857 90.0333 216.508 91.8005 217.233 93.5677C220.629 101.777 225.61 109.236 231.892 115.518C238.174 121.799 245.633 126.781 253.842 130.176C256.017 131.079 258.24 131.862 260.501 132.52V125.284C259.125 124.837 257.785 124.372 256.483 123.814Z" fill="#F05A59"/>
<path d="M334.76 41.8544C335.151 42.6914 335.523 43.5471 335.876 44.4028C336.546 46.0026 337.123 47.6395 337.643 49.2765L344.768 49.0719C344.064 46.5889 343.22 44.1481 342.238 41.7613C341.531 40.0499 340.731 38.3758 339.876 36.7202L334.76 41.8544Z" fill="#F05A59"/>
<path d="M256.483 11.5146C263.855 8.45964 271.756 6.88721 279.736 6.88721C287.715 6.88721 295.617 8.45964 302.988 11.5146C304.588 12.1657 306.132 12.9097 307.657 13.7096L312.736 8.63125C310.438 7.33084 308.066 6.16924 305.63 5.1527C289.044 -1.71679 270.409 -1.71679 253.823 5.1527C251.387 6.16924 249.014 7.33084 246.717 8.63125L251.796 13.7096C253.34 12.9097 254.884 12.1657 256.483 11.5146Z" fill="#F05A59"/>
<path d="M297.314 24.0709L302.542 18.8437C295.407 15.499 287.624 13.7652 279.745 13.7652C271.866 13.7652 264.083 15.499 256.948 18.8437L262.175 24.0709C273.444 19.507 286.046 19.507 297.314 24.0709Z" fill="#F05A59"/>
<path d="M329.403 88.5824L321.758 88.7312C317.004 98.2717 309.116 105.89 299.417 110.309V117.75C306.105 115.135 312.199 111.202 317.338 106.185C322.476 101.168 326.554 95.1689 329.328 88.5451L329.403 88.5824Z" fill="#F05A59"/>
<path d="M232.45 49.5741L229.938 47.0629C229.622 47.8627 229.306 48.6626 229.008 49.4625L232.45 49.5741Z" fill="#F05A59"/>
<path d="M230.087 88.5824C232.883 95.2707 237.007 101.322 242.209 106.371C247.411 111.42 253.583 115.36 260.352 117.955V110.514C250.508 106.101 242.501 98.4086 237.695 88.7498L230.087 88.5824Z" fill="#F05A59"/>
<path d="M327.059 49.5742L330.482 49.4811C330.184 48.6812 329.868 47.8814 329.552 47.0815L327.059 49.5742Z" fill="#F05A59"/>
<path d="M291.976 29.4655C284.051 26.8863 275.513 26.8863 267.589 29.4655L273.169 35.0461C277.508 34.1534 281.982 34.1534 286.321 35.0461L291.976 29.4655Z" fill="#F05A59"/>
<path d="M260.353 102.869V94.7024C258.891 93.676 257.516 92.5312 256.242 91.2796C255.553 90.5727 254.902 89.8473 254.27 89.1032L245.731 88.9544C249.302 94.7932 254.344 99.5915 260.353 102.869Z" fill="#F05A59"/>
<path d="M313.777 88.8614L305.239 89.0102C304.607 89.7543 303.955 90.4798 303.267 91.1866C302.06 92.3668 300.767 93.4549 299.398 94.442V102.608C302.582 100.829 305.505 98.6192 308.085 96.0417C310.258 93.8806 312.169 91.4705 313.777 88.8614Z" fill="#F05A59"/>
<path d="M332.137 55.0245L325.05 55.1733H321.33L318.595 57.9078L315.656 60.8469H319.209L326.203 60.7167C328.51 60.7167 330.817 60.6051 333.105 60.5493L340.006 60.3632L346.926 60.1586L353.827 59.954C393.511 58.5774 433.04 56.0972 472.414 52.5132H472.842H473.419C474.159 52.4466 474.842 52.0888 475.318 51.5184C475.795 50.948 476.025 50.2119 475.958 49.4718C475.891 48.7318 475.534 48.0486 474.963 47.5724C474.393 47.0962 473.657 46.866 472.917 46.9326C433.084 50.5414 393.121 53.0217 353.027 54.3734L346.07 54.5781L339.076 54.7641L332.137 55.0245Z" fill="#F05A59"/>
<path d="M86.0153 52.5132H86.592H87.0198C126.419 56.0848 165.948 58.565 205.607 59.954L212.508 60.1586L219.428 60.3632L226.33 60.5492C228.636 60.5492 230.924 60.6794 233.231 60.7167L240.225 60.8469H243.778L240.839 57.9077L238.03 55.2477H234.31L227.222 55.0989L220.228 54.8942L213.234 54.7082L206.407 54.5036C166.338 53.1271 126.375 50.6468 86.5176 47.0628C86.1511 47.0299 85.7818 47.0694 85.4306 47.1792C85.0795 47.2889 84.7534 47.4667 84.471 47.7025C84.1885 47.9383 83.9553 48.2274 83.7846 48.5533C83.6139 48.8792 83.5091 49.2356 83.4761 49.602C83.4431 49.9684 83.4827 50.3378 83.5924 50.6889C83.7022 51.0401 83.88 51.3662 84.1158 51.6486C84.3516 51.931 84.6407 52.1643 84.9666 52.3349C85.2925 52.5056 85.6489 52.6104 86.0153 52.6434V52.5132Z" fill="#F05A59"/>
<path d="M473.363 58.224H472.972C433.536 61.7956 393.958 64.2758 354.236 65.6648L347.372 65.888L340.49 66.074L333.607 66.2601L326.743 66.4461L319.823 66.5577C317.535 66.5577 315.228 66.5577 312.94 66.6693H310.038L308.959 67.7482L305.927 70.7803L304.365 72.3429H305.685L312.661 72.2313L319.637 72.101L326.575 71.9894L333.477 71.8034L340.397 71.6174L347.298 71.4314L354.199 71.2082C393.734 69.8316 433.158 67.3514 472.47 63.7674H472.898H473.475C474.215 63.7526 474.919 63.4444 475.431 62.9107C475.944 62.3769 476.224 61.6614 476.209 60.9213C476.194 60.1813 475.886 59.4774 475.352 58.9646C474.819 58.4518 474.103 58.172 473.363 58.1868V58.224Z" fill="#F05A59"/>
<path d="M86.0153 63.6744H86.5919H87.0198C126.307 67.2336 165.731 69.7138 205.291 71.1152L212.192 71.3384L219.093 71.5244L226.013 71.7104L232.915 71.8965L239.853 72.0081L246.829 72.1383L253.805 72.2499H255.125L253.563 70.6873L249.452 66.5763H246.55C244.262 66.5763 241.955 66.5763 239.667 66.4647C237.379 66.3531 235.054 66.4647 232.766 66.3531L225.883 66.167L219 65.9811L212.118 65.795L205.254 65.5718C165.57 64.1953 125.991 61.715 86.5175 58.1311H86.1269C85.7605 58.1237 85.3962 58.1886 85.0548 58.3221C84.7135 58.4555 84.4018 58.6549 84.1375 58.9088C83.8732 59.1628 83.6615 59.4662 83.5145 59.802C83.3675 60.1377 83.2881 60.4991 83.2808 60.8655C83.2735 61.232 83.3384 61.5962 83.4719 61.9376C83.6053 62.2789 83.8047 62.5906 84.0586 62.8549C84.3125 63.1192 84.616 63.3309 84.9517 63.4779C85.2875 63.6249 85.6489 63.7043 86.0153 63.7116V63.6744Z" fill="#F05A59"/>
<path d="M473.345 69.3852H472.972C433.35 72.9816 393.598 75.4618 353.716 76.826L346.758 77.0492L339.764 77.2352L332.77 77.4398L325.72 77.6073L318.577 77.7189L311.415 77.849L303.974 77.9793H299.082C299.195 78.5239 299.251 79.0787 299.249 79.6349V83.5598H300.737L308.959 83.4482L316.623 83.318L324.064 83.1878L331.337 83.039L338.536 82.8344L345.661 82.6298C348.023 82.6298 350.386 82.5182 352.748 82.4252C393.077 81.0734 433.295 78.5932 473.4 74.9844C474.14 74.9671 474.843 74.6565 475.354 74.1211C475.865 73.5856 476.143 72.869 476.126 72.129C476.108 71.389 475.798 70.6861 475.262 70.175C474.727 69.6639 474.01 69.3865 473.27 69.4038L473.345 69.3852Z" fill="#F05A59"/>
<path d="M228.078 82.946L235.352 83.0948L242.792 83.225L250.456 83.3552L258.678 83.4669H260.353V79.7465C260.351 79.1207 260.42 78.4968 260.557 77.8863H255.535L248.094 77.7561L240.932 77.6258L233.789 77.5142L226.739 77.3468L219.745 77.1422L212.75 76.9562L205.793 76.733C165.948 75.3688 126.195 72.8886 86.5361 69.2922H86.1641C85.4241 69.2749 84.7075 69.5523 84.172 70.0634C83.6365 70.5745 83.326 71.2773 83.3087 72.0174C83.2914 72.7574 83.5689 73.474 84.0799 74.0094C84.591 74.5449 85.2938 74.8555 86.0339 74.8728C126.102 78.5188 166.32 80.999 206.686 82.3135C209.048 82.4066 211.411 82.4437 213.773 82.5181L220.898 82.7228L228.078 82.946Z" fill="#F05A59"/>
<path d="M218.48 27.7354L222.46 31.6977L227.446 36.7016L232.505 41.7427L237.602 46.8583L240.448 49.7044L242.792 52.0482L246.141 55.3779L248.15 57.4055L251.87 61.1259L253.86 63.1349L256.558 65.8322C256.998 64.8326 257.63 63.929 258.418 63.1721L260.148 61.4422L259.925 61.2189L255.776 57.0893L254.288 55.5825L250.568 51.8621L248.54 49.8345L245.471 46.8396L240.448 41.8357L235.5 36.869L230.589 31.9395L225.66 27.0286L222.423 23.7918C222.116 23.484 221.739 23.2553 221.325 23.1257C220.91 22.9961 220.47 22.9693 220.042 23.0478C219.454 23.1201 218.906 23.3812 218.48 23.7918C218.169 24.1155 217.94 24.5094 217.814 24.9401C217.688 25.3708 217.667 25.8256 217.754 26.2659C217.853 26.8143 218.104 27.3237 218.48 27.7354Z" fill="#F05A59"/>
<path d="M229.213 22.6758L234.087 27.568L238.96 32.4232L243.853 37.3155L248.726 42.1892L253.637 47.1L256.502 49.9648L258.567 52.0296L262.12 55.5825L263.98 57.4427L265.84 55.5825L267.961 53.4619L264.482 49.9834L262.38 47.8813L257.525 43.0262L252.651 38.1525L247.759 33.2602L242.829 28.4609L238.03 23.55L233.156 18.6763L230.366 15.886C229.837 15.3931 229.138 15.1248 228.415 15.1376C227.692 15.1503 227.002 15.4432 226.491 15.9544C225.98 16.4657 225.687 17.1553 225.674 17.8782C225.661 18.6011 225.93 19.3007 226.423 19.8296L229.213 22.6758Z" fill="#F05A59"/>
<path d="M237.305 14.9932L242.216 19.8855L247.108 24.7777L252.019 29.7073L256.967 34.6553L261.934 39.6221L266.956 44.626L271.849 49.5369L273.988 47.3977L275.848 45.5375L272.593 42.2636L267.179 36.8504L262.008 31.6791L256.837 26.6007L251.796 21.5596L246.81 16.5743L241.844 11.7192L238.216 7.99881C237.951 7.73449 237.634 7.52723 237.285 7.38969C236.936 7.25215 236.563 7.18723 236.189 7.19895C235.487 7.20992 234.819 7.49739 234.328 7.99881C234.016 8.31682 233.786 8.70634 233.659 9.1335C233.502 9.61803 233.481 10.1366 233.599 10.6321C233.717 11.1276 233.97 11.581 234.328 11.9424L237.305 14.9932Z" fill="#F05A59"/>
<path d="M328.901 31.9395L323.971 36.869L319.023 41.8357L314 46.8397L311.006 49.8346L308.997 51.8622L305.276 55.5825L303.788 57.0893L299.658 61.2189L299.23 61.6468C300.984 62.4329 302.388 63.8365 303.174 65.5904L305.63 63.135L307.639 61.1259L311.359 57.4055L313.387 55.3779L316.716 52.0482L319.06 49.7044L321.906 46.8583L327.003 41.7428L332.063 36.7016L337.048 31.6977L341.029 27.7355C341.404 27.3237 341.656 26.8144 341.755 26.266C341.841 25.8256 341.821 25.3708 341.695 24.9401C341.568 24.5094 341.34 24.1155 341.029 23.7919C340.493 23.2951 339.788 23.0191 339.057 23.0191C338.326 23.0191 337.622 23.2951 337.085 23.7919L333.849 27.0286L328.901 31.9395Z" fill="#F05A59"/>
<path d="M316.661 28.4609L311.787 33.3346L306.857 38.1712L301.984 43.0448L297.129 47.9L295.027 50.0019L291.306 53.7223C292.166 54.1291 292.951 54.6761 293.631 55.3407C293.724 55.4338 293.799 55.5453 293.892 55.6569C294.439 56.2648 294.896 56.9475 295.25 57.6846L297.296 55.6383L300.849 52.0854L302.895 50.0206L305.76 47.1559L310.671 42.245L315.544 37.3713L320.437 32.479L325.31 27.6238L330.184 22.7316L333.03 19.8855C333.523 19.3565 333.791 18.6569 333.779 17.934C333.766 17.2111 333.473 16.5215 332.962 16.0102C332.451 15.499 331.761 15.2062 331.038 15.1934C330.315 15.1806 329.616 15.449 329.087 15.9418L326.296 18.7321L321.423 23.6059L316.661 28.4609Z" fill="#F05A59"/>
<path d="M307.694 21.5782L302.653 26.6007L297.556 31.7349L292.385 36.9062L286.972 42.3194L283.717 45.5933L283.512 45.7793C283.794 45.9033 284.068 46.0463 284.33 46.2072C284.887 46.5381 285.4 46.9381 285.856 47.3976C286.521 48.0733 287.062 48.8603 287.456 49.7229L292.552 44.626L297.556 39.6221L302.523 34.6553L307.471 29.6886L312.438 24.7405L317.33 19.8482L322.241 14.9373L325.273 11.9052C325.632 11.5438 325.885 11.0904 326.003 10.5949C326.121 10.0994 326.1 9.58082 325.943 9.0963C325.816 8.66913 325.586 8.27961 325.273 7.96161C324.783 7.46018 324.114 7.17266 323.413 7.16168C323.038 7.14997 322.665 7.21488 322.317 7.35243C321.968 7.48997 321.651 7.69729 321.385 7.96161L317.646 11.7192L312.68 16.6859L307.694 21.5782Z" fill="#F05A59"/>
<path d="M293.948 126.754V119.61V112.449V105.157V97.7159V82.8344L293.315 83.4669L288.255 88.4336V92.6004V99.7807V106.849V113.881V120.875V127.814V137.952C288.26 138.689 288.557 139.394 289.079 139.913C289.602 140.432 290.309 140.724 291.046 140.724C291.784 140.714 292.489 140.414 293.008 139.888C293.527 139.362 293.817 138.653 293.817 137.915V133.785L293.948 126.754Z" fill="#F05A59"/>
<path d="M282.805 128.372V121.489V114.588V107.668V100.785V93.8653V92.712C281.954 93.0046 281.063 93.1615 280.164 93.177C279.158 93.1682 278.163 92.9792 277.225 92.619V93.9025V100.785V107.668V114.606V121.508V128.39V138.008C277.225 138.373 277.297 138.735 277.437 139.073C277.578 139.41 277.784 139.717 278.043 139.974C278.302 140.232 278.61 140.436 278.948 140.574C279.287 140.712 279.649 140.782 280.015 140.779C280.752 140.774 281.457 140.478 281.976 139.956C282.495 139.433 282.786 138.726 282.786 137.989V128.372H282.805Z" fill="#F05A59"/>
<path d="M271.644 127.888V120.95V113.955V106.942V99.8365V92.6748V85.234C270.033 85.1048 268.495 84.5102 267.217 83.5227C266.938 83.2994 266.659 83.0948 266.398 82.853C266.138 82.6111 266.175 82.5739 266.063 82.4437V97.8834V105.324V112.635V119.796V126.884V133.934V138.082C266.068 138.819 266.364 139.524 266.887 140.043C267.41 140.562 268.117 140.854 268.854 140.854C269.22 140.851 269.582 140.777 269.92 140.634C270.258 140.492 270.564 140.284 270.821 140.023C271.079 139.763 271.282 139.454 271.42 139.114C271.558 138.775 271.628 138.411 271.625 138.045V127.907L271.644 127.888Z" fill="#F05A59"/>
<path d="M297.091 66.7437C296.669 66.4836 296.183 66.346 295.687 66.346C295.191 66.346 294.705 66.4836 294.282 66.7437C294.086 66.8437 293.899 66.962 293.724 67.0971L293.129 67.711L289.502 71.3383L288.479 72.3429L287.567 73.2543L286.358 74.4635L285.874 74.9471L282.879 77.9606L282.731 78.1095L282.34 78.4815L278.024 82.7971C277.82 83.0069 277.655 83.2529 277.541 83.5226C277.272 84.0415 277.174 84.6322 277.261 85.2101C277.347 85.7881 277.615 86.3238 278.024 86.7407C278.548 87.2624 279.257 87.5565 279.996 87.5592C280.363 87.5599 280.726 87.488 281.064 87.3475C281.402 87.207 281.71 87.0007 281.968 86.7407L282.675 86.1269L285.242 83.5412L288.255 80.5463L290.897 77.9234L291.604 77.2166L291.901 76.9189L295.994 72.8265L296.515 72.3057L297.166 71.6546L297.761 71.0408C298.022 70.783 298.229 70.4759 298.371 70.1374C298.512 69.7989 298.585 69.4357 298.585 69.0689C298.585 68.7021 298.512 68.3389 298.371 68.0005C298.229 67.662 298.022 67.3549 297.761 67.0971C297.558 66.9441 297.332 66.8247 297.091 66.7437Z" fill="#F05A59"/>
<path d="M281.521 71.4314L283.623 69.3294L286.153 66.7995L289.167 63.786L289.781 63.1721C290.302 62.6482 290.597 61.9397 290.599 61.2003C290.602 60.7794 290.508 60.3635 290.323 59.985C290.139 59.6065 289.87 59.2757 289.537 59.0183C289.204 58.7608 288.816 58.5838 288.403 58.5009C287.991 58.418 287.564 58.4314 287.158 58.5403C286.661 58.6402 286.203 58.8789 285.837 59.2285L283.828 61.2375L283.456 61.6096L279.977 65.0881L279.68 65.3858L278.248 66.8181L275.587 69.4968L272.704 72.38L272.109 72.9753L270.137 74.9657C269.766 75.3558 269.519 75.8482 269.43 76.3795C269.363 76.5834 269.331 76.7973 269.337 77.012C269.334 77.3436 269.397 77.6724 269.523 77.9792C269.661 78.3286 269.87 78.6454 270.137 78.9093C270.489 79.2587 270.935 79.4979 271.421 79.5976C271.638 79.6677 271.863 79.7114 272.09 79.7278C272.457 79.7306 272.821 79.6596 273.159 79.519C273.498 79.3784 273.805 79.171 274.062 78.9093L274.974 78.0165L276.369 76.6213L280.536 72.4731L281.521 71.4314Z" fill="#F05A59"/>
<path d="M267.124 70.0548L268.128 69.0317L270.398 66.7809L271.625 65.5532L272.648 64.5301L275.011 62.1676L275.736 61.4422L275.941 61.2375L276.034 61.1445L279.513 57.6474L280.536 56.6429L281.28 55.8988L281.503 55.657L281.875 55.285C282.221 54.9305 282.465 54.4899 282.583 54.009C282.701 53.5281 282.687 53.0245 282.545 52.5505C282.423 52.0991 282.193 51.6841 281.875 51.3413C281.597 51.0697 281.268 50.8549 280.908 50.7088C280.404 50.5149 279.854 50.4715 279.326 50.5837C278.797 50.696 278.313 50.9591 277.931 51.3413L275.774 53.4806L273.616 55.6383L271.756 57.4985L268.035 61.2189L267.849 61.4049L263.906 65.3485L262.492 66.7809L262.194 67.0786C261.804 67.4688 261.539 67.9658 261.432 68.5067C261.324 69.0476 261.379 69.6083 261.59 70.1178C261.801 70.6274 262.159 71.063 262.617 71.3696C263.075 71.6762 263.614 71.8402 264.166 71.8407C264.905 71.834 265.612 71.5405 266.138 71.0222L267.124 70.0548Z" fill="#F05A59"/>
<path d="M14.6398 187.712V199.84C14.6771 200.16 14.6454 200.484 14.5467 200.791C14.4481 201.098 14.2848 201.379 14.0679 201.617C13.851 201.855 13.5856 202.044 13.2895 202.171C12.9935 202.298 12.6736 202.359 12.3517 202.352C12.0306 202.356 11.7123 202.292 11.4177 202.165C11.123 202.037 10.8589 201.848 10.6426 201.611C10.4263 201.374 10.2629 201.093 10.1631 200.788C10.0633 200.483 10.0294 200.16 10.0637 199.84V187.712L0.372092 169.854C0.156317 169.432 0.0296599 168.97 3.05176e-05 168.496C0.00479862 168.214 0.0656565 167.937 0.17905 167.679C0.292444 167.421 0.456119 167.188 0.660476 166.994C0.864832 166.8 1.10577 166.649 1.36926 166.549C1.63275 166.449 1.91349 166.403 2.19507 166.413C2.63004 166.411 3.05569 166.539 3.4171 166.781C3.77851 167.023 4.0591 167.368 4.22267 167.771L12.3517 182.875H12.5005L20.5366 167.771C20.698 167.366 20.9781 167.02 21.34 166.778C21.7019 166.535 22.1286 166.408 22.5642 166.413C22.8431 166.403 23.1212 166.449 23.3816 166.55C23.642 166.65 23.8793 166.802 24.0793 166.997C24.2792 167.192 24.4376 167.425 24.5449 167.683C24.6522 167.94 24.7061 168.217 24.7034 168.496C24.6738 168.97 24.5471 169.432 24.3313 169.854L14.6398 187.712Z" fill="#F05A59"/>
<path d="M31.8093 199.171L42.71 169.017C43.2867 167.343 44.1796 166.413 45.7422 166.413C46.4823 166.424 47.1963 166.689 47.765 167.163C48.3337 167.637 48.7227 168.291 48.8673 169.017L59.6006 199.171C59.7182 199.506 59.7872 199.857 59.8052 200.212C59.8106 200.5 59.7571 200.785 59.6479 201.051C59.5388 201.316 59.3763 201.557 59.1707 201.757C58.965 201.958 58.7204 202.114 58.452 202.216C58.1836 202.318 57.8971 202.364 57.6102 202.352C57.104 202.364 56.6084 202.206 56.2034 201.902C55.7983 201.598 55.5075 201.167 55.378 200.678L52.9783 193.869H38.4316L36.032 200.678C35.8995 201.165 35.6079 201.595 35.2035 201.898C34.7992 202.201 34.3051 202.361 33.7997 202.352C33.5128 202.364 33.2263 202.318 32.9579 202.216C32.6895 202.114 32.4449 201.958 32.2393 201.757C32.0336 201.557 31.8711 201.316 31.762 201.051C31.6529 200.785 31.5993 200.5 31.6047 200.212C31.6228 199.857 31.6917 199.506 31.8093 199.171ZM51.4529 189.591L45.8724 173.5H45.7236L39.9942 189.591H51.4529Z" fill="#F05A59"/>
<path d="M73.3846 168.757C73.3481 168.474 73.3768 168.187 73.4686 167.918C73.5604 167.649 73.7128 167.404 73.9141 167.203C74.1153 167.001 74.3601 166.849 74.6295 166.757C74.8989 166.665 75.1858 166.637 75.468 166.673H86.406C93.4933 166.673 97.7531 170.933 97.7531 177.239C97.7531 183.545 93.4933 187.824 86.406 187.824H78.3327C78.2897 187.817 78.2459 187.821 78.2047 187.835C78.1635 187.849 78.126 187.872 78.0953 187.902C78.0646 187.933 78.0415 187.971 78.0278 188.012C78.0141 188.053 78.0102 188.097 78.0165 188.14V199.84C78.0453 200.162 78.0069 200.486 77.9036 200.792C77.8003 201.098 77.6345 201.379 77.4166 201.617C77.1988 201.856 76.9336 202.046 76.6382 202.176C76.3427 202.306 76.0234 202.373 75.7005 202.373C75.3777 202.373 75.0584 202.306 74.7629 202.176C74.4674 202.046 74.2023 201.856 73.9845 201.617C73.7666 201.379 73.6007 201.098 73.4975 200.792C73.3942 200.486 73.3558 200.162 73.3846 199.84V168.757ZM93.1771 177.276C93.1771 173.426 90.6286 171.026 86.2571 171.026H78.3327C78.2897 171.02 78.2459 171.024 78.2047 171.037C78.1635 171.051 78.126 171.074 78.0953 171.105C78.0646 171.136 78.0415 171.173 78.0278 171.214C78.0141 171.255 78.0102 171.299 78.0165 171.342V183.229C78.0165 183.434 78.1281 183.527 78.3327 183.527H86.2571C90.6286 183.489 93.1771 181.09 93.1771 177.276Z" fill="#F05A59"/>
<path d="M110.849 184.382C110.62 181.052 110.953 177.706 111.835 174.486C112.586 172.271 113.95 170.314 115.768 168.843C117.587 167.371 119.785 166.445 122.108 166.173C124.431 165.9 126.784 166.292 128.894 167.302C131.003 168.313 132.783 169.901 134.027 171.882C134.289 172.321 134.43 172.821 134.436 173.333C134.449 173.616 134.403 173.898 134.302 174.162C134.2 174.426 134.045 174.667 133.845 174.868C133.646 175.069 133.407 175.226 133.144 175.33C132.88 175.434 132.598 175.483 132.315 175.472C131.881 175.471 131.456 175.349 131.088 175.119C130.72 174.888 130.423 174.56 130.232 174.17C129.569 173.02 128.61 172.069 127.456 171.415C126.301 170.761 124.992 170.428 123.666 170.449C122.005 170.376 120.37 170.881 119.041 171.879C117.711 172.876 116.768 174.304 116.374 175.918C115.258 181.518 115.258 187.283 116.374 192.883C116.768 194.498 117.711 195.926 119.041 196.923C120.37 197.921 122.005 198.426 123.666 198.352C124.992 198.374 126.301 198.041 127.456 197.386C128.61 196.732 129.569 195.781 130.232 194.632C130.423 194.242 130.72 193.913 131.088 193.683C131.456 193.453 131.881 193.331 132.315 193.33C132.599 193.316 132.882 193.363 133.147 193.466C133.412 193.569 133.652 193.726 133.852 193.928C134.052 194.129 134.207 194.371 134.308 194.636C134.408 194.902 134.452 195.185 134.436 195.469C134.43 195.98 134.289 196.481 134.027 196.92C132.783 198.901 131.003 200.489 128.894 201.5C126.784 202.51 124.431 202.902 122.108 202.629C119.785 202.356 117.587 201.431 115.768 199.959C113.95 198.488 112.586 196.531 111.835 194.316C110.949 191.084 110.616 187.725 110.849 184.382Z" fill="#F05A59"/>
<path d="M150.601 192.697C151.348 192.756 152.044 193.095 152.552 193.645C153.06 194.194 153.342 194.916 153.342 195.664C153.342 196.413 153.06 197.134 152.552 197.684C152.044 198.234 151.348 198.572 150.601 198.631C150.192 198.664 149.78 198.611 149.392 198.477C149.004 198.342 148.648 198.129 148.346 197.85C148.045 197.572 147.804 197.234 147.639 196.857C147.475 196.481 147.39 196.075 147.39 195.664C147.39 195.254 147.475 194.847 147.639 194.471C147.804 194.095 148.045 193.757 148.346 193.478C148.648 193.199 149.004 192.986 149.392 192.852C149.78 192.718 150.192 192.665 150.601 192.697ZM147.681 176.123C147.688 175.534 147.87 174.96 148.204 174.474C148.538 173.988 149.009 173.613 149.557 173.395C150.105 173.177 150.705 173.127 151.281 173.251C151.857 173.374 152.384 173.666 152.794 174.089C153.204 174.513 153.48 175.048 153.585 175.628C153.691 176.208 153.621 176.806 153.387 177.347C153.152 177.887 152.762 178.346 152.266 178.665C151.77 178.983 151.191 179.147 150.601 179.136C149.802 179.136 149.035 178.819 148.47 178.254C147.905 177.689 147.588 176.922 147.588 176.123H147.681Z" fill="#F05A59"/>
<path d="M164.98 192.697C165.571 192.694 166.149 192.866 166.641 193.191C167.133 193.517 167.518 193.981 167.745 194.526C167.973 195.071 168.033 195.671 167.919 196.25C167.805 196.829 167.521 197.361 167.104 197.778C166.686 198.195 166.154 198.479 165.575 198.594C164.996 198.708 164.396 198.647 163.851 198.42C163.307 198.192 162.842 197.808 162.517 197.316C162.191 196.823 162.019 196.245 162.023 195.655C162.032 194.874 162.347 194.127 162.9 193.574C163.452 193.022 164.199 192.707 164.98 192.697ZM162.06 176.123C162.06 175.534 162.235 174.959 162.562 174.469C162.889 173.98 163.353 173.599 163.897 173.373C164.441 173.148 165.04 173.089 165.617 173.204C166.194 173.319 166.725 173.602 167.141 174.018C167.557 174.435 167.841 174.965 167.955 175.542C168.07 176.12 168.011 176.718 167.786 177.262C167.561 177.806 167.179 178.271 166.69 178.598C166.2 178.925 165.625 179.099 165.036 179.099C164.25 179.09 163.498 178.773 162.942 178.217C162.386 177.661 162.07 176.909 162.06 176.123Z" fill="#F05A59"/>
<path d="M181.09 198.334C181.087 198.059 181.139 197.787 181.243 197.533C181.347 197.28 181.5 197.049 181.694 196.855C181.888 196.661 182.119 196.508 182.373 196.404C182.627 196.3 182.899 196.248 183.173 196.25C183.781 196.294 184.362 196.514 184.847 196.883C186.225 197.791 187.83 198.294 189.479 198.334C193.386 198.334 195.878 196.157 195.878 190.744V168.905C195.849 168.584 195.888 168.26 195.991 167.954C196.094 167.648 196.26 167.367 196.478 167.129C196.696 166.89 196.961 166.7 197.257 166.57C197.552 166.44 197.871 166.372 198.194 166.372C198.517 166.372 198.836 166.44 199.132 166.57C199.427 166.7 199.692 166.89 199.91 167.129C200.128 167.367 200.294 167.648 200.397 167.954C200.501 168.26 200.539 168.584 200.51 168.905V190.744C200.51 198.65 196.25 202.668 189.349 202.668C186.647 202.657 184.027 201.74 181.908 200.064C181.656 199.851 181.452 199.586 181.311 199.288C181.17 198.989 181.094 198.664 181.09 198.334Z" fill="#F05A59"/>
<path d="M235.947 200.268C235.945 200.554 235.885 200.836 235.77 201.098C235.655 201.36 235.488 201.595 235.279 201.79C235.07 201.985 234.824 202.136 234.555 202.232C234.286 202.329 234 202.369 233.715 202.352C233.338 202.334 232.972 202.225 232.648 202.034C232.324 201.843 232.051 201.575 231.854 201.254L230.868 199.692C229.9 200.73 228.709 201.538 227.386 202.053C226.062 202.568 224.639 202.778 223.223 202.668C217.643 202.668 214.406 199.896 214.406 195.227C214.406 190.056 217.959 187.507 224.153 187.507H229.734C229.777 187.514 229.821 187.51 229.862 187.496C229.903 187.482 229.94 187.459 229.971 187.429C230.002 187.398 230.025 187.36 230.039 187.319C230.052 187.278 230.056 187.234 230.05 187.191V186.001C230.05 182.503 228.432 180.532 224.06 180.532C222.289 180.557 220.546 180.983 218.963 181.778C218.572 181.988 218.141 182.114 217.698 182.15C217.45 182.166 217.201 182.13 216.967 182.042C216.734 181.954 216.523 181.818 216.346 181.642C216.17 181.466 216.034 181.254 215.946 181.021C215.859 180.788 215.822 180.538 215.838 180.29C215.831 179.928 215.924 179.571 216.108 179.258C216.292 178.946 216.559 178.692 216.88 178.523C219.181 177.192 221.814 176.547 224.469 176.662C231.148 176.662 234.273 179.843 234.273 185.963V194.93C234.189 195.806 234.35 196.688 234.738 197.478L235.631 199.096C235.826 199.457 235.935 199.858 235.947 200.268ZM230.013 194.018V191.265C230.019 191.222 230.015 191.178 230.002 191.137C229.988 191.096 229.965 191.058 229.934 191.028C229.903 190.997 229.866 190.974 229.825 190.96C229.783 190.946 229.74 190.943 229.697 190.949H224.693C220.433 190.949 218.498 192.195 218.498 195.004C218.498 197.813 220.358 198.91 223.707 198.91C227.557 198.91 230.013 197.087 230.013 194.018Z" fill="#F05A59"/>
<path d="M249.638 209.383V179.23C249.61 178.926 249.645 178.619 249.742 178.33C249.84 178.04 249.996 177.774 250.202 177.549C250.407 177.323 250.658 177.143 250.937 177.02C251.216 176.896 251.518 176.833 251.824 176.833C252.129 176.833 252.431 176.896 252.71 177.02C252.989 177.143 253.24 177.323 253.445 177.549C253.651 177.774 253.808 178.04 253.905 178.33C254.002 178.619 254.037 178.926 254.009 179.23V179.899C254.776 178.752 255.842 177.836 257.09 177.25C258.339 176.663 259.724 176.428 261.097 176.569C263.021 176.503 264.912 177.083 266.47 178.215C268.027 179.348 269.161 180.969 269.691 182.82C270.856 187.277 270.856 191.96 269.691 196.418C269.161 198.269 268.027 199.89 266.47 201.022C264.912 202.155 263.021 202.734 261.097 202.668C259.724 202.81 258.339 202.574 257.09 201.988C255.842 201.401 254.776 200.485 254.009 199.338V209.383C254.037 209.687 254.002 209.994 253.905 210.283C253.808 210.573 253.651 210.839 253.445 211.064C253.24 211.29 252.989 211.47 252.71 211.593C252.431 211.716 252.129 211.78 251.824 211.78C251.518 211.78 251.216 211.716 250.937 211.593C250.658 211.47 250.407 211.29 250.202 211.064C249.996 210.839 249.84 210.573 249.742 210.283C249.645 209.994 249.61 209.687 249.638 209.383ZM265.58 194.688C266.047 193.05 266.242 191.347 266.156 189.647C266.245 187.921 266.05 186.193 265.58 184.531C265.181 183.391 264.438 182.402 263.454 181.703C262.469 181.004 261.291 180.628 260.083 180.628C258.875 180.628 257.697 181.004 256.712 181.703C255.727 182.402 254.984 183.391 254.586 184.531C254.115 186.193 253.92 187.921 254.009 189.647C253.924 191.347 254.118 193.05 254.586 194.688C254.984 195.828 255.727 196.816 256.712 197.516C257.697 198.215 258.875 198.591 260.083 198.591C261.291 198.591 262.469 198.215 263.454 197.516C264.438 196.816 265.181 195.828 265.58 194.688Z" fill="#F05A59"/>
<path d="M305.22 200.268C305.218 200.554 305.158 200.836 305.043 201.098C304.929 201.36 304.762 201.595 304.553 201.79C304.344 201.985 304.097 202.136 303.828 202.232C303.559 202.329 303.273 202.369 302.988 202.352C302.612 202.334 302.246 202.225 301.922 202.034C301.597 201.843 301.325 201.575 301.128 201.254L300.142 199.692C299.173 200.73 297.983 201.538 296.659 202.053C295.336 202.568 293.913 202.778 292.497 202.668C286.916 202.668 283.679 199.896 283.679 195.227C283.679 190.056 287.232 187.507 293.427 187.507H299.1C299.143 187.514 299.187 187.51 299.228 187.496C299.27 187.482 299.307 187.459 299.338 187.429C299.368 187.398 299.392 187.36 299.405 187.319C299.419 187.278 299.423 187.234 299.417 187.191V186.001C299.417 182.503 297.798 180.532 293.427 180.532C291.655 180.555 289.912 180.981 288.33 181.778C287.938 181.988 287.508 182.114 287.065 182.15C286.816 182.166 286.567 182.13 286.334 182.042C286.101 181.954 285.889 181.818 285.713 181.642C285.537 181.466 285.4 181.254 285.313 181.021C285.225 180.788 285.188 180.538 285.205 180.29C285.197 179.928 285.291 179.571 285.475 179.258C285.659 178.946 285.926 178.692 286.246 178.523C288.547 177.192 291.181 176.547 293.836 176.662C300.514 176.662 303.639 179.843 303.639 185.963V194.93C303.556 195.806 303.717 196.688 304.104 197.478L304.997 199.096C305.161 199.465 305.237 199.866 305.22 200.268ZM299.286 194.018V191.265C299.293 191.222 299.289 191.178 299.275 191.137C299.261 191.096 299.238 191.058 299.208 191.028C299.177 190.997 299.139 190.974 299.098 190.96C299.057 190.946 299.013 190.943 298.97 190.949H293.966C289.706 190.949 287.772 192.195 287.772 195.004C287.772 197.813 289.632 198.91 292.98 198.91C296.831 198.91 299.286 197.087 299.286 194.018Z" fill="#F05A59"/>
<path d="M318.911 179.23C318.883 178.926 318.919 178.619 319.016 178.33C319.113 178.04 319.269 177.774 319.475 177.549C319.681 177.323 319.931 177.143 320.211 177.02C320.49 176.896 320.792 176.833 321.097 176.833C321.402 176.833 321.704 176.896 321.984 177.02C322.263 177.143 322.513 177.323 322.719 177.549C322.925 177.774 323.081 178.04 323.178 178.33C323.275 178.619 323.311 178.926 323.283 179.23V179.955C324.053 178.835 325.101 177.934 326.324 177.341C327.546 176.747 328.902 176.482 330.259 176.569C335.672 176.569 338.908 180.29 338.908 185.87V199.933C338.937 200.237 338.901 200.544 338.804 200.833C338.707 201.123 338.55 201.389 338.345 201.614C338.139 201.84 337.888 202.02 337.609 202.143C337.33 202.267 337.028 202.33 336.723 202.33C336.417 202.33 336.116 202.267 335.836 202.143C335.557 202.02 335.307 201.84 335.101 201.614C334.895 201.389 334.739 201.123 334.642 200.833C334.545 200.544 334.509 200.237 334.537 199.933V186.912C334.537 182.894 332.677 180.55 328.956 180.55C328.165 180.526 327.378 180.67 326.646 180.973C325.915 181.276 325.257 181.731 324.715 182.308C324.173 182.885 323.76 183.571 323.504 184.32C323.247 185.069 323.153 185.864 323.227 186.652V199.933C323.255 200.237 323.219 200.544 323.122 200.833C323.025 201.123 322.869 201.389 322.663 201.614C322.458 201.84 322.207 202.02 321.928 202.143C321.648 202.267 321.347 202.33 321.041 202.33C320.736 202.33 320.434 202.267 320.155 202.143C319.876 202.02 319.625 201.84 319.419 201.614C319.214 201.389 319.057 201.123 318.96 200.833C318.863 200.544 318.828 200.237 318.856 199.933L318.911 179.23Z" fill="#F05A59"/>
<path d="M355.929 192.697C356.519 192.694 357.097 192.866 357.59 193.191C358.082 193.517 358.466 193.981 358.694 194.526C358.922 195.071 358.982 195.671 358.868 196.25C358.754 196.829 358.47 197.361 358.052 197.778C357.635 198.195 357.103 198.479 356.524 198.594C355.945 198.708 355.345 198.647 354.8 198.42C354.256 198.192 353.791 197.808 353.465 197.316C353.14 196.823 352.968 196.245 352.972 195.655C352.981 194.874 353.296 194.127 353.848 193.574C354.401 193.022 355.148 192.707 355.929 192.697ZM353.009 176.123C353.009 175.534 353.183 174.959 353.51 174.469C353.837 173.98 354.302 173.599 354.846 173.373C355.39 173.148 355.988 173.089 356.566 173.204C357.143 173.319 357.673 173.602 358.09 174.018C358.506 174.435 358.789 174.965 358.904 175.542C359.019 176.12 358.96 176.718 358.735 177.262C358.51 177.806 358.128 178.271 357.639 178.598C357.149 178.925 356.574 179.099 355.985 179.099C355.199 179.09 354.447 178.773 353.891 178.217C353.335 177.661 353.018 176.909 353.009 176.123Z" fill="#F05A59"/>
<path d="M370.42 192.697C371.01 192.697 371.586 192.872 372.075 193.2C372.565 193.528 372.947 193.994 373.172 194.539C373.396 195.084 373.454 195.683 373.338 196.261C373.221 196.839 372.936 197.369 372.518 197.785C372.1 198.2 371.568 198.482 370.989 198.595C370.411 198.708 369.812 198.646 369.268 198.418C368.725 198.19 368.261 197.805 367.936 197.314C367.611 196.822 367.44 196.244 367.444 195.655C367.453 194.87 367.771 194.121 368.327 193.568C368.884 193.015 369.635 192.702 370.42 192.697ZM367.5 176.123C367.5 175.534 367.675 174.957 368.002 174.467C368.33 173.978 368.796 173.596 369.341 173.371C369.886 173.147 370.486 173.089 371.063 173.205C371.641 173.322 372.171 173.607 372.587 174.025C373.002 174.443 373.285 174.975 373.397 175.554C373.51 176.132 373.448 176.731 373.22 177.275C372.992 177.818 372.608 178.282 372.116 178.607C371.624 178.932 371.047 179.103 370.457 179.099C369.673 179.09 368.923 178.772 368.37 178.216C367.817 177.659 367.504 176.908 367.5 176.123Z" fill="#F05A59"/>
<path d="M388.092 194.278C386.779 187.746 386.779 181.018 388.092 174.486C388.989 172.022 390.623 169.895 392.771 168.391C394.919 166.887 397.477 166.081 400.099 166.081C402.721 166.081 405.28 166.887 407.428 168.391C409.576 169.895 411.209 172.022 412.107 174.486C413.42 181.018 413.42 187.746 412.107 194.278C411.209 196.742 409.576 198.87 407.428 200.374C405.28 201.877 402.721 202.684 400.099 202.684C397.477 202.684 394.919 201.877 392.771 200.374C390.623 198.87 388.989 196.742 388.092 194.278ZM407.568 192.865C408.684 187.265 408.684 181.5 407.568 175.9C407.044 174.341 406.044 172.987 404.709 172.027C403.374 171.068 401.771 170.551 400.127 170.551C398.483 170.551 396.881 171.068 395.546 172.027C394.21 172.987 393.211 174.341 392.687 175.9C391.595 181.502 391.595 187.262 392.687 192.865C393.211 194.423 394.21 195.778 395.546 196.737C396.881 197.697 398.483 198.213 400.127 198.213C401.771 198.213 403.374 197.697 404.709 196.737C406.044 195.778 407.044 194.423 407.568 192.865Z" fill="#F05A59"/>
<path d="M427.77 179.23C427.742 178.926 427.777 178.619 427.874 178.33C427.971 178.04 428.128 177.774 428.334 177.549C428.539 177.323 428.79 177.143 429.069 177.02C429.348 176.896 429.65 176.833 429.955 176.833C430.261 176.833 430.563 176.896 430.842 177.02C431.121 177.143 431.372 177.323 431.577 177.549C431.783 177.774 431.939 178.04 432.037 178.33C432.134 178.619 432.169 178.926 432.141 179.23V179.955C432.911 178.835 433.959 177.934 435.182 177.341C436.405 176.747 437.761 176.482 439.117 176.569C444.53 176.569 447.767 180.29 447.767 185.87V199.933C447.767 200.516 447.536 201.074 447.124 201.486C446.712 201.897 446.154 202.128 445.572 202.128C444.99 202.128 444.431 201.897 444.02 201.486C443.608 201.074 443.377 200.516 443.377 199.933V186.912C443.377 182.894 441.517 180.55 437.796 180.55C437.005 180.526 436.218 180.67 435.486 180.973C434.755 181.276 434.097 181.731 433.555 182.308C433.013 182.885 432.6 183.571 432.343 184.32C432.087 185.069 431.993 185.864 432.067 186.652V199.933C432.095 200.237 432.059 200.544 431.962 200.833C431.865 201.123 431.709 201.389 431.503 201.614C431.297 201.84 431.047 202.02 430.768 202.143C430.488 202.267 430.186 202.33 429.881 202.33C429.576 202.33 429.274 202.267 428.995 202.143C428.715 202.02 428.465 201.84 428.259 201.614C428.053 201.389 427.897 201.123 427.8 200.833C427.703 200.544 427.667 200.237 427.695 199.933L427.77 179.23Z" fill="#F05A59"/>
<path d="M468.973 202.352C464.49 202.352 462.872 200.157 462.872 195.692V168.757C462.872 168.174 463.103 167.616 463.515 167.204C463.926 166.793 464.484 166.562 465.067 166.562C465.649 166.562 466.207 166.793 466.619 167.204C467.03 167.616 467.262 168.174 467.262 168.757V195.432C467.262 197.515 467.931 198.296 469.643 198.296C469.917 198.268 470.194 198.3 470.454 198.392C470.714 198.483 470.951 198.631 471.147 198.825C471.342 199.019 471.493 199.254 471.586 199.514C471.68 199.773 471.715 200.05 471.689 200.324C471.697 200.612 471.642 200.898 471.529 201.163C471.415 201.428 471.246 201.665 471.031 201.857C470.817 202.05 470.564 202.194 470.289 202.28C470.014 202.365 469.724 202.39 469.438 202.352H468.973Z" fill="#F05A59"/>
<path d="M484.041 169.278C484.041 168.518 484.342 167.789 484.88 167.252C485.417 166.715 486.145 166.413 486.905 166.413C487.665 166.413 488.394 166.715 488.931 167.252C489.468 167.789 489.77 168.518 489.77 169.278C489.77 170.037 489.468 170.766 488.931 171.303C488.394 171.84 487.665 172.142 486.905 172.142C486.145 172.142 485.417 171.84 484.88 171.303C484.342 170.766 484.041 170.037 484.041 169.278ZM484.71 179.23C484.71 178.647 484.941 178.089 485.353 177.677C485.765 177.266 486.323 177.034 486.905 177.034C487.487 177.034 488.046 177.266 488.457 177.677C488.869 178.089 489.1 178.647 489.1 179.23V200.008C489.1 200.59 488.869 201.148 488.457 201.56C488.046 201.972 487.487 202.203 486.905 202.203C486.323 202.203 485.765 201.972 485.353 201.56C484.941 201.148 484.71 200.59 484.71 200.008V179.23Z" fill="#F05A59"/>
<path d="M504.372 179.23C504.344 178.926 504.38 178.619 504.477 178.33C504.574 178.04 504.731 177.774 504.936 177.549C505.142 177.323 505.392 177.143 505.672 177.02C505.951 176.896 506.253 176.833 506.558 176.833C506.863 176.833 507.165 176.896 507.445 177.02C507.724 177.143 507.974 177.323 508.18 177.549C508.386 177.774 508.542 178.04 508.639 178.33C508.736 178.619 508.772 178.926 508.744 179.23V179.955C509.514 178.835 510.562 177.934 511.785 177.341C513.007 176.747 514.363 176.482 515.72 176.569C521.133 176.569 524.37 180.29 524.37 185.87V199.933C524.398 200.237 524.362 200.544 524.265 200.833C524.168 201.123 524.011 201.389 523.806 201.614C523.6 201.84 523.35 202.02 523.07 202.143C522.791 202.267 522.489 202.33 522.184 202.33C521.879 202.33 521.577 202.267 521.297 202.143C521.018 202.02 520.768 201.84 520.562 201.614C520.356 201.389 520.2 201.123 520.103 200.833C520.006 200.544 519.97 200.237 519.998 199.933V186.912C519.998 182.894 518.138 180.55 514.417 180.55C513.626 180.526 512.839 180.67 512.108 180.973C511.376 181.276 510.718 181.731 510.176 182.308C509.634 182.885 509.221 183.571 508.965 184.32C508.708 185.069 508.614 185.864 508.688 186.652V199.933C508.716 200.237 508.681 200.544 508.583 200.833C508.486 201.123 508.33 201.389 508.124 201.614C507.919 201.84 507.668 202.02 507.389 202.143C507.11 202.267 506.808 202.33 506.502 202.33C506.197 202.33 505.895 202.267 505.616 202.143C505.337 202.02 505.086 201.84 504.88 201.614C504.675 201.389 504.518 201.123 504.421 200.833C504.324 200.544 504.289 200.237 504.317 199.933L504.372 179.23Z" fill="#F05A59"/>
<path d="M539.177 195.878C538.543 193.839 538.26 191.706 538.34 189.572C538.247 187.441 538.511 185.31 539.121 183.266C539.884 181.296 541.225 179.603 542.968 178.409C544.711 177.215 546.774 176.576 548.887 176.576C551 176.576 553.063 177.215 554.806 178.409C556.549 179.603 557.89 181.296 558.653 183.266C559.268 185.22 559.551 187.264 559.49 189.312C559.498 189.539 559.459 189.765 559.374 189.975C559.289 190.186 559.161 190.377 558.998 190.534C558.835 190.692 558.64 190.814 558.427 190.892C558.214 190.97 557.986 191.002 557.76 190.986H543.102C542.878 190.986 542.785 190.986 542.785 191.302C542.752 192.323 542.89 193.341 543.195 194.316C543.603 195.642 544.449 196.791 545.594 197.574C546.74 198.358 548.117 198.731 549.501 198.631C551.684 198.65 553.805 197.899 555.491 196.511C555.9 196.125 556.435 195.9 556.997 195.878C557.491 195.878 557.964 196.074 558.313 196.423C558.661 196.772 558.857 197.245 558.857 197.738C558.857 198.031 558.798 198.32 558.683 198.588C558.568 198.857 558.399 199.099 558.188 199.301C555.747 201.549 552.54 202.78 549.222 202.742C544.069 202.668 540.572 200.268 539.177 195.878ZM554.691 187.433C554.734 187.439 554.777 187.435 554.819 187.422C554.86 187.408 554.897 187.385 554.928 187.354C554.959 187.323 554.982 187.286 554.996 187.245C555.009 187.204 555.013 187.16 555.007 187.117C555.036 186.166 554.91 185.218 554.635 184.308C554.182 183.157 553.393 182.17 552.371 181.474C551.35 180.778 550.142 180.406 548.905 180.406C547.669 180.406 546.461 180.778 545.439 181.474C544.418 182.17 543.629 183.157 543.176 184.308C542.908 185.219 542.788 186.168 542.823 187.117C542.823 187.34 542.823 187.433 543.139 187.433H554.691Z" fill="#F05A59"/>
<path d="M219.112 257.767L231.761 241.248C233.448 239.317 234.454 236.886 234.626 234.328C234.664 233.441 234.515 232.555 234.19 231.728C233.865 230.901 233.37 230.152 232.737 229.528C232.104 228.904 231.348 228.42 230.517 228.106C229.686 227.792 228.798 227.656 227.911 227.706C226.353 227.607 224.814 228.092 223.594 229.065C222.373 230.038 221.558 231.43 221.307 232.97C221.284 233.303 221.138 233.615 220.897 233.845C220.656 234.076 220.338 234.208 220.005 234.217C219.818 234.243 219.628 234.227 219.448 234.168C219.268 234.11 219.104 234.012 218.968 233.881C218.832 233.751 218.727 233.591 218.662 233.414C218.597 233.236 218.572 233.047 218.591 232.859C218.604 232.633 218.635 232.409 218.684 232.189C219.142 230.088 220.324 228.214 222.025 226.898C223.726 225.581 225.836 224.906 227.985 224.99C229.234 224.917 230.485 225.105 231.657 225.544C232.829 225.983 233.896 226.662 234.79 227.538C235.683 228.414 236.384 229.468 236.846 230.631C237.308 231.794 237.521 233.041 237.472 234.291C237.316 237.48 236.061 240.517 233.919 242.885L222.144 258.083V258.195H236.17C236.356 258.175 236.543 258.197 236.72 258.257C236.896 258.318 237.057 258.416 237.192 258.546C237.327 258.675 237.431 258.832 237.499 259.006C237.567 259.18 237.596 259.366 237.584 259.553C237.596 259.738 237.567 259.924 237.5 260.097C237.432 260.27 237.327 260.427 237.192 260.554C237.057 260.682 236.895 260.779 236.719 260.837C236.542 260.896 236.355 260.914 236.17 260.892H219.67C219.488 260.917 219.303 260.901 219.128 260.846C218.953 260.791 218.792 260.698 218.657 260.574C218.521 260.449 218.416 260.297 218.346 260.127C218.277 259.956 218.246 259.773 218.256 259.59C218.296 258.894 218.602 258.241 219.112 257.767Z" fill="#F05A59"/>
<path d="M253.116 243.22C253.116 234.738 253.488 232.598 253.898 231.352C254.583 229.486 255.825 227.875 257.455 226.737C259.085 225.6 261.025 224.989 263.013 224.989C265.001 224.989 266.941 225.6 268.571 226.737C270.201 227.875 271.442 229.486 272.128 231.352C272.555 232.598 272.909 234.738 272.909 243.22C272.909 251.703 272.555 253.86 272.128 255.107C271.434 256.965 270.19 258.567 268.561 259.697C266.932 260.828 264.996 261.434 263.013 261.434C261.029 261.434 259.094 260.828 257.465 259.697C255.836 258.567 254.591 256.965 253.898 255.107C253.488 253.86 253.116 251.684 253.116 243.22ZM263.013 258.809C264.41 258.93 265.807 258.566 266.966 257.776C268.126 256.986 268.977 255.82 269.374 254.474C269.728 253.34 270.1 251.405 270.1 243.22C270.1 235.035 269.728 233.119 269.374 232.059C268.872 230.783 267.998 229.688 266.865 228.917C265.732 228.145 264.393 227.732 263.022 227.732C261.651 227.732 260.312 228.145 259.179 228.917C258.046 229.688 257.171 230.783 256.669 232.059C256.297 233.194 255.925 235.128 255.925 243.22C255.925 251.312 256.297 253.34 256.669 254.474C257.064 255.818 257.911 256.984 259.067 257.774C260.223 258.564 261.617 258.93 263.013 258.809Z" fill="#F05A59"/>
<path d="M289.111 257.767L301.76 241.248C303.446 239.317 304.453 236.886 304.625 234.328C304.663 233.441 304.514 232.555 304.189 231.728C303.864 230.901 303.369 230.152 302.736 229.528C302.103 228.904 301.347 228.42 300.516 228.106C299.685 227.792 298.797 227.656 297.91 227.706C296.353 227.612 294.816 228.097 293.597 229.07C292.377 230.042 291.561 231.432 291.306 232.97C291.283 233.303 291.137 233.615 290.896 233.845C290.655 234.076 290.337 234.208 290.004 234.217C289.817 234.243 289.627 234.227 289.447 234.168C289.267 234.11 289.103 234.012 288.967 233.881C288.831 233.751 288.726 233.591 288.661 233.414C288.596 233.236 288.571 233.047 288.59 232.859C288.6 232.632 288.638 232.407 288.702 232.189C289.152 230.084 290.333 228.206 292.036 226.889C293.738 225.571 295.852 224.899 298.003 224.99C299.252 224.917 300.503 225.105 301.675 225.544C302.847 225.983 303.914 226.662 304.807 227.538C305.701 228.414 306.401 229.468 306.863 230.631C307.325 231.794 307.539 233.041 307.49 234.291C307.341 237.482 306.085 240.521 303.937 242.885L292.162 258.083V258.195H306.225C306.41 258.175 306.598 258.197 306.775 258.257C306.951 258.318 307.112 258.416 307.247 258.546C307.381 258.675 307.486 258.832 307.554 259.006C307.621 259.18 307.65 259.366 307.639 259.553C307.651 259.738 307.622 259.924 307.554 260.097C307.487 260.27 307.381 260.427 307.246 260.554C307.111 260.682 306.95 260.779 306.773 260.837C306.597 260.896 306.409 260.914 306.225 260.892H289.725C289.543 260.917 289.358 260.901 289.183 260.846C289.007 260.791 288.846 260.698 288.711 260.574C288.576 260.449 288.47 260.297 288.401 260.127C288.332 259.956 288.301 259.773 288.311 259.59C288.345 258.904 288.629 258.255 289.111 257.767Z" fill="#F05A59"/>
<path d="M324.12 257.767L336.769 241.248C338.448 239.313 339.454 236.884 339.634 234.328C339.669 233.441 339.518 232.557 339.192 231.731C338.865 230.906 338.37 230.158 337.738 229.534C337.106 228.911 336.351 228.427 335.521 228.112C334.691 227.797 333.805 227.659 332.919 227.706C331.359 227.607 329.817 228.09 328.594 229.063C327.37 230.036 326.551 231.428 326.296 232.97C326.277 233.305 326.133 233.619 325.891 233.85C325.649 234.082 325.329 234.213 324.994 234.217C324.809 234.24 324.62 234.221 324.443 234.162C324.266 234.102 324.104 234.004 323.97 233.873C323.836 233.743 323.733 233.584 323.669 233.408C323.605 233.233 323.581 233.045 323.599 232.859C323.603 232.633 323.634 232.408 323.692 232.189C324.146 230.086 325.328 228.21 327.03 226.893C328.731 225.576 330.843 224.902 332.993 224.99C334.242 224.917 335.493 225.105 336.665 225.544C337.837 225.983 338.904 226.662 339.798 227.538C340.691 228.414 341.392 229.468 341.854 230.631C342.315 231.794 342.529 233.041 342.48 234.291C342.331 237.478 341.082 240.515 338.946 242.885L327.171 258.083V258.195H341.234C341.419 258.175 341.607 258.197 341.783 258.257C341.96 258.318 342.121 258.416 342.256 258.546C342.39 258.675 342.495 258.832 342.563 259.006C342.63 259.18 342.659 259.366 342.647 259.553C342.66 259.738 342.631 259.924 342.563 260.097C342.495 260.27 342.39 260.427 342.255 260.554C342.12 260.682 341.959 260.779 341.782 260.837C341.606 260.896 341.418 260.914 341.234 260.892H324.715C324.535 260.914 324.351 260.896 324.179 260.84C324.006 260.783 323.847 260.69 323.714 260.566C323.581 260.442 323.477 260.29 323.409 260.122C323.341 259.953 323.311 259.771 323.32 259.59C323.344 258.902 323.631 258.25 324.12 257.767Z" fill="#F05A59"/>
</g>
<defs>
<clipPath id="clip0_38_580">
<rect width="559.471" height="261.45" fill="white"/>
</clipPath>
</defs>
</svg>
