<svg width="122" height="44" viewBox="0 0 122 44" fill="none" xmlns="http://www.w3.org/2000/svg">
<g clip-path="url(#clip0_107_85)">
<path d="M78.2214 28.4074C77.2738 30.7129 75.8842 32.8072 74.1323 34.5704C72.3804 36.3336 70.3006 37.7309 68.0121 38.6824C67.6547 38.8335 67.2973 38.9671 66.9341 39.0892V41.379C67.574 41.1814 68.2081 40.9547 68.8249 40.699C71.369 39.6382 73.6805 38.0819 75.6272 36.1193C77.5739 34.1568 79.1176 31.8264 80.1699 29.2617C80.3966 28.7115 80.5984 28.1478 80.7752 27.5705L78.5039 27.6402C78.4289 27.8785 78.331 28.1458 78.2214 28.4074Z" fill="#F05859"/>
<path d="M43.4198 13.8724C43.5294 13.605 43.6447 13.3377 43.7657 13.0762L42.1804 11.4722C41.9153 11.9894 41.6674 12.5125 41.4483 13.0471C41.1441 13.7928 40.8824 14.5554 40.6643 15.3311L42.8722 15.395C43.0336 14.8778 43.2238 14.3722 43.4198 13.8724Z" fill="#F05859"/>
<path d="M53.6003 38.6823C51.315 37.729 49.2386 36.3308 47.4897 34.5677C45.7409 32.8046 44.354 30.7112 43.4083 28.4073C43.2988 28.1458 43.195 27.8785 43.1028 27.6111L40.8315 27.5414C41.0102 28.1225 41.2062 28.7037 41.408 29.2326C42.4602 31.7973 44.0039 34.1277 45.9506 36.0902C47.8974 38.0528 50.2089 39.6091 52.7529 40.6699C53.427 40.952 54.116 41.1964 54.8167 41.4022V39.1414C54.4304 39.002 54.0154 38.8509 53.6003 38.6823Z" fill="#F05859"/>
<path d="M77.8698 13.0762C77.9966 13.3377 78.1119 13.605 78.2214 13.8724C78.429 14.3722 78.6077 14.8778 78.7691 15.395L80.977 15.3311C80.7589 14.5554 80.4972 13.7928 80.193 13.0471C79.9739 12.5125 79.726 11.9894 79.4608 11.4722L77.8698 13.0762Z" fill="#F05859"/>
<path d="M53.6003 3.6032C55.8848 2.64877 58.3334 2.15752 60.8062 2.15752C63.2791 2.15752 65.7277 2.64877 68.0121 3.6032C68.5079 3.80661 68.9864 4.03907 69.4591 4.28897L71.0328 2.70239C70.3216 2.29494 69.5862 1.932 68.8307 1.61562C63.6908 -0.530564 57.9158 -0.530564 52.776 1.61562C52.02 1.93083 51.2845 2.29381 50.5739 2.70239L52.1419 4.28897C52.6376 4.03326 53.1161 3.8008 53.6003 3.6032Z" fill="#F05859"/>
<path d="M66.2827 7.52028L67.9026 5.88719C65.6917 4.84223 63.2798 4.30054 60.8379 4.30054C58.3961 4.30054 55.9842 4.84223 53.7733 5.88719L55.3932 7.52028C58.8852 6.0944 62.7906 6.0944 66.2827 7.52028V7.52028Z" fill="#F05859"/>
<path d="M76.2095 27.6751L73.8402 27.7157C72.3706 30.6998 69.9283 33.084 66.9226 34.4689V36.7935C68.9939 35.9741 70.8814 34.7445 72.4735 33.1773C74.0656 31.6102 75.3301 29.7373 76.1922 27.6693L76.2095 27.6751Z" fill="#F05859"/>
<path d="M46.1581 15.4822L45.3856 14.7093C45.2876 14.9534 45.1896 15.2091 45.0974 15.459L46.1581 15.4822Z" fill="#F05859"/>
<path d="M45.4317 27.675C46.3008 29.7669 47.5823 31.6589 49.1985 33.2363C50.8148 34.8138 52.732 36.0437 54.834 36.8517V34.527C53.2303 33.801 51.7711 32.7868 50.5277 31.534C49.4221 30.4213 48.5049 29.1334 47.8126 27.7215L45.4317 27.675Z" fill="#F05859"/>
<path d="M75.5063 15.4823H76.5612C76.4747 15.2324 76.3767 14.9824 76.2787 14.7325L75.5063 15.4823Z" fill="#F05859"/>
<path d="M64.5994 9.19983C62.1425 8.40157 59.4988 8.40157 57.0419 9.19983L58.7713 10.9433C60.1165 10.6717 61.5017 10.6717 62.8469 10.9433L64.5994 9.19983Z" fill="#F05859"/>
<path d="M54.8109 32.1094V29.5581C54.3611 29.2356 53.9371 28.878 53.5427 28.4887C53.3294 28.2679 53.1276 28.0412 52.9316 27.8029C52.0496 27.8029 51.1676 27.8029 50.2856 27.7623C50.7732 28.5756 51.3536 29.3285 52.015 30.0056C52.8427 30.8377 53.7842 31.5461 54.8109 32.1094V32.1094Z" fill="#F05859"/>
<path d="M71.3672 27.7623C70.4852 27.7623 69.6032 27.7971 68.7212 27.8029C68.5252 28.0412 68.3234 28.2679 68.1044 28.4887C67.7329 28.8602 67.3319 29.2003 66.9053 29.5058V32.0571C67.8947 31.5027 68.8027 30.8123 69.6032 30.0056C70.2767 29.3304 70.8688 28.5774 71.3672 27.7623V27.7623Z" fill="#F05859"/>
<path d="M77.0512 17.1909L74.8606 17.2374H73.7077L72.8718 18.1324L71.9667 19.0506H73.0678L75.2353 19.0099C75.9501 19.0099 76.6592 18.975 77.374 18.9576L79.5127 18.8937L81.6514 18.8356C82.3663 18.8356 83.0811 18.7949 83.7959 18.7658C96.094 18.3435 108.344 17.5686 120.546 16.4412H120.679H120.857C120.971 16.4309 121.081 16.3981 121.182 16.3448C121.283 16.2915 121.373 16.2186 121.446 16.1304C121.519 16.0421 121.574 15.9403 121.608 15.8305C121.642 15.7208 121.654 15.6054 121.644 15.491C121.634 15.3765 121.601 15.2652 121.549 15.1633C121.496 15.0615 121.423 14.9712 121.336 14.8975C121.248 14.8239 121.147 14.7683 121.038 14.734C120.93 14.6997 120.815 14.6874 120.702 14.6977C108.361 15.8174 95.9768 16.5923 83.548 17.0223C82.8274 17.0223 82.1126 17.0688 81.392 17.0863L79.2245 17.1502L77.0512 17.1909Z" fill="#F05859"/>
<path d="M0.78399 16.3888H0.962699H1.09528C13.305 17.5047 25.555 18.2796 37.8454 18.7135L39.9841 18.7832L42.1285 18.8413L44.2615 18.9053C44.9763 18.9053 45.6911 18.946 46.406 18.9576L48.5735 18.9983H49.6746L48.7637 18.1323L47.9163 17.278H46.7634L44.567 17.2315L42.3995 17.1676L40.2319 17.1037C39.5114 17.1037 38.7965 17.0688 38.0759 17.0397C25.6587 16.6135 13.2742 15.8387 0.922346 14.7151C0.808791 14.7048 0.694333 14.7171 0.585511 14.7514C0.476689 14.7857 0.375631 14.8413 0.288109 14.9149C0.200587 14.9886 0.128313 15.0789 0.0754158 15.1807C0.0225182 15.2826 -0.00996639 15.3939 -0.0201863 15.5084C-0.0304063 15.6228 -0.0181617 15.7382 0.0158519 15.8479C0.0498656 15.9576 0.104982 16.0595 0.178051 16.1478C0.251119 16.236 0.340714 16.3089 0.441714 16.3622C0.542714 16.4155 0.653141 16.4483 0.766696 16.4586L0.78399 16.3888Z" fill="#F05859"/>
<path d="M120.823 18.1614C120.783 18.1556 120.742 18.1556 120.702 18.1614C108.48 19.2772 96.215 20.0521 83.9054 20.4861L81.7725 20.5558L79.6453 20.6139L77.5124 20.672L75.3794 20.7301C74.6704 20.7301 73.9555 20.7301 73.2407 20.765L71.1078 20.7999H70.2085L69.8741 21.137L68.9287 22.0843L68.4502 22.5724H68.8595L71.0213 22.5376L73.1773 22.4969L75.3333 22.462L77.472 22.4039L79.6107 22.3458L81.7552 22.2819L83.8939 22.2179C96.1458 21.7879 108.363 21.013 120.546 19.8933H120.679H120.857C121.087 19.8886 121.305 19.7924 121.464 19.6256C121.623 19.4589 121.709 19.2353 121.705 19.0041C121.7 18.7729 121.605 18.553 121.439 18.3928C121.274 18.2326 121.052 18.1451 120.823 18.1498V18.1614Z" fill="#F05859"/>
<path d="M0.784015 19.8759H0.962724H1.09531C13.2704 20.9878 25.4858 21.7627 37.7416 22.2005L39.8861 22.2645L42.0248 22.3284L44.1635 22.3865L46.308 22.4446L48.4582 22.4795L50.62 22.5202L52.7818 22.555H53.191L52.7068 22.0669L51.4328 20.7825H50.5335L48.4006 20.7476L46.2561 20.7127L44.1289 20.6546L41.996 20.5965L39.863 20.5384L37.7358 20.4687C25.4378 20.0386 13.1724 19.2637 0.939664 18.144C0.899517 18.1382 0.858754 18.1382 0.818606 18.144C0.589271 18.1394 0.367505 18.2268 0.202098 18.387C0.0366908 18.5472 -0.0588083 18.7671 -0.063395 18.9983C-0.0679817 19.2295 0.0187193 19.4531 0.17764 19.6198C0.336561 19.7866 0.55468 19.8829 0.784015 19.8875V19.8759Z" fill="#F05859"/>
<path d="M120.817 21.6484C120.779 21.6455 120.74 21.6455 120.702 21.6484C108.423 22.7642 96.1036 23.5391 83.744 23.9731L81.588 24.037L79.4205 24.1009L77.2472 24.1649L75.0681 24.2172L72.8545 24.252L70.6351 24.2927L68.3292 24.3276H66.8188C66.8538 24.4977 66.8712 24.6711 66.8707 24.8448V26.0711H67.3261H69.8799L72.2549 26.0304L74.5608 25.9897L76.8148 25.9432L79.0458 25.8793L81.2537 25.8154L83.45 25.7514C95.9479 25.3291 108.411 24.5542 120.84 23.4268C121.069 23.4214 121.287 23.3244 121.446 23.1571C121.604 22.9898 121.69 22.7659 121.685 22.5347C121.679 22.3035 121.583 22.0839 121.417 21.9242C121.251 21.7646 121.029 21.6779 120.8 21.6833L120.817 21.6484Z" fill="#F05859"/>
<path d="M44.8034 25.9141L47.0631 25.9606L49.369 26.0013L51.7441 26.042H54.2921H54.7936V24.8797C54.7933 24.6842 54.8145 24.4892 54.857 24.2985H53.3063L51.0293 24.2636L48.8098 24.2229L46.5962 24.1881L44.4114 24.1358L42.2438 24.0718L40.0763 24.0079L37.9203 23.944C25.5723 23.5139 13.2531 22.739 0.962695 21.6193C0.924318 21.6164 0.885775 21.6164 0.847398 21.6193C0.618063 21.6139 0.395998 21.7006 0.23005 21.8603C0.0641018 22.0199 -0.0321329 22.2395 -0.0374841 22.4707C-0.0428352 22.7019 0.0431344 22.9258 0.201515 23.0931C0.359895 23.2604 0.57771 23.3574 0.807045 23.3628C13.2242 24.4941 25.6876 25.269 38.197 25.6875L40.3934 25.7514L42.5955 25.8153L44.8034 25.9141Z" fill="#F05859"/>
<path d="M41.8346 8.66519L43.0682 9.90307L44.6132 11.4664L46.1812 13.0414L47.7607 14.6396L48.6427 15.5287L49.369 16.261L50.4009 17.3013L51.0293 17.929L52.1822 19.0913L52.7991 19.7131L53.6349 20.5616C53.7715 20.2493 53.9673 19.967 54.2114 19.7306L54.7475 19.1901L54.6726 19.1203L53.3928 17.8302L52.9316 17.3594L51.7787 16.1971L51.1561 15.5636L50.2049 14.6454L48.6485 13.0762L47.115 11.5303L45.5874 9.99606L44.0597 8.45597L43.0567 7.44474C42.9603 7.3508 42.8431 7.28126 42.7148 7.24186C42.5865 7.20246 42.4508 7.19431 42.3188 7.21809C42.1376 7.23986 41.968 7.31925 41.8346 7.44474C41.7386 7.54612 41.6681 7.6692 41.629 7.80368C41.5899 7.93815 41.5833 8.08012 41.6097 8.21769C41.642 8.385 41.7199 8.53995 41.8346 8.66519V8.66519Z" fill="#F05859"/>
<path d="M45.1608 7.09019L46.6711 8.61284L48.1815 10.1355L49.6976 11.664L51.208 13.1866L52.7299 14.7209L53.6176 15.6159L54.2518 16.261L55.3528 17.371L55.9293 17.9522L56.5058 17.371L57.1629 16.7085L56.0849 15.6217L55.4335 14.965L53.9289 13.4423L52.4186 11.9255L50.9025 10.397L49.3921 8.87437L47.8875 7.35171L46.3772 5.83487L45.5124 4.96312C45.4333 4.87747 45.3378 4.80877 45.2317 4.76113C45.1257 4.71348 45.0112 4.68787 44.8951 4.6858C44.779 4.68374 44.6636 4.70527 44.556 4.74911C44.4483 4.79296 44.3505 4.85822 44.2684 4.941C44.1863 5.02378 44.1215 5.12238 44.078 5.23093C44.0345 5.33948 44.0132 5.45574 44.0152 5.57279C44.0173 5.68984 44.0427 5.80528 44.09 5.91221C44.1372 6.01915 44.2054 6.11539 44.2903 6.1952L45.1608 7.09019Z" fill="#F05859"/>
<path d="M47.6684 4.67837L49.1846 6.21264L50.7007 7.7411L52.2283 9.27538L53.7617 10.8271L55.3297 12.3788L56.8862 13.9421L58.4023 15.4764L59.0653 14.8081L59.6417 14.2269L58.6329 13.2041L56.9554 11.5129L55.3297 9.91466L53.7444 8.31646L52.1822 6.74149L50.6373 5.18398L49.0981 3.63227L47.9451 2.46994C47.8623 2.38766 47.7641 2.3227 47.6563 2.27882C47.5485 2.23493 47.4331 2.21298 47.3168 2.21422C47.15 2.22347 46.9894 2.2809 46.8541 2.37965C46.7188 2.4784 46.6146 2.61431 46.5538 2.77115C46.493 2.928 46.4783 3.09916 46.5114 3.26421C46.5444 3.42927 46.6239 3.58124 46.7403 3.702L47.6684 4.67837Z" fill="#F05859"/>
<path d="M76.0827 9.99606L74.5551 11.5361L73.0217 13.082L71.4652 14.6512L70.5371 15.5869L69.9087 16.2203L68.7558 17.3827L68.2888 17.8534L67.0148 19.1436L66.8822 19.2715C67.1486 19.3986 67.3921 19.5694 67.6028 19.7771C67.812 19.989 67.9819 20.237 68.1044 20.5093L68.8653 19.7422L69.4821 19.1145L70.6351 17.9522L71.2577 17.3187L72.2953 16.2784L73.0217 15.5462L73.9037 14.657L75.4832 13.0588L77.0512 11.4838L78.5961 9.9205L79.8298 8.68263C79.9474 8.55257 80.0254 8.39119 80.0546 8.21769C80.0806 8.10445 80.0823 7.98693 80.0598 7.87295C80.0372 7.75897 79.9909 7.65114 79.9238 7.5566C79.8567 7.46206 79.7705 7.38298 79.6708 7.32462C79.5711 7.26625 79.4602 7.22994 79.3456 7.21809C79.2135 7.19431 79.0778 7.20246 78.9495 7.24186C78.8213 7.28126 78.7041 7.3508 78.6077 7.44474L77.6046 8.45597L76.0827 9.99606Z" fill="#F05859"/>
<path d="M72.2607 8.87442L70.7504 10.3971L69.2342 11.9255L67.7239 13.4482L66.2193 14.965L65.5679 15.6217L64.4149 16.7841C64.6825 16.9091 64.9263 17.0802 65.1355 17.2897C65.1644 17.2897 65.1874 17.3536 65.2162 17.3885C65.3843 17.5773 65.5259 17.7885 65.6371 18.0161L66.2712 17.3769L67.3665 16.2726L68.0064 15.6276L68.8941 14.7326L70.416 13.1983L71.9264 11.6756L73.4425 10.1472L74.9471 8.62451L76.4632 7.10186L77.3452 6.21268C77.4979 6.04743 77.5811 5.82885 77.5771 5.60301C77.5732 5.37717 77.4824 5.16169 77.324 5.00197C77.1656 4.84225 76.9518 4.75076 76.7278 4.74678C76.5038 4.74279 76.287 4.82662 76.1231 4.98061L75.2584 5.85235L73.7768 7.35176L72.2607 8.87442Z" fill="#F05859"/>
<path d="M69.4821 6.74151L67.9199 8.31648L66.3346 9.91468L64.732 11.5303L63.0545 13.2215L62.0399 14.2444L61.9822 14.3025C62.0697 14.3412 62.1544 14.3859 62.2359 14.4361C62.406 14.5408 62.5645 14.6636 62.7086 14.8023C62.9136 15.0165 63.0812 15.2641 63.2044 15.5345L64.7839 13.9421L66.3404 12.3788L67.8796 10.8271L69.413 9.27539L70.9349 7.74112L72.451 6.21266L73.9729 4.67839L74.9125 3.73108C75.0239 3.61828 75.1018 3.47635 75.1374 3.32129C75.1731 3.16624 75.1651 3.00423 75.1143 2.85353C75.0769 2.72046 75.0076 2.59871 74.9125 2.49902C74.7597 2.34278 74.5535 2.2513 74.336 2.2433C74.2197 2.24174 74.1042 2.26354 73.9964 2.30745C73.8885 2.35135 73.7903 2.41648 73.7077 2.49902L72.5836 3.66135L71.0444 5.21306L69.4821 6.74151Z" fill="#F05859"/>
<path d="M65.222 39.6006V37.3805V35.1431V32.8649V30.5402V28.111V25.8967L65.026 26.0943L63.4984 27.6344V28.9362V31.1737V33.3879V35.5847V37.7699V39.9377V42.1054V43.1225C63.4999 43.3527 63.5916 43.5729 63.7536 43.7351C63.9156 43.8974 64.1347 43.9884 64.3631 43.9884V43.9884C64.5929 43.9869 64.8129 43.8937 64.9749 43.7293C65.1369 43.5649 65.2278 43.3426 65.2278 43.1108V41.8148L65.222 39.6006Z" fill="#F05859"/>
<path d="M61.7689 40.1062V37.9559V35.7998V33.632V31.4817V29.3256V28.9653C61.505 29.0548 61.2288 29.1019 60.9503 29.1048C60.6392 29.104 60.3307 29.0469 60.0395 28.9362V29.3372V31.4875V33.6378V35.8056V37.9617V40.112V43.1225C60.041 43.3527 60.1328 43.5729 60.2948 43.7351C60.4568 43.8974 60.6759 43.9884 60.9042 43.9884V43.9884C61.1326 43.9869 61.351 43.8943 61.5119 43.731C61.6729 43.5677 61.7632 43.3468 61.7632 43.1166V40.1178L61.7689 40.1062Z" fill="#F05859"/>
<path d="M58.3043 39.9551V37.7873V35.6021V33.4112V31.1911V28.9536V26.629C57.805 26.5896 57.3281 26.4037 56.9323 26.0943C56.8427 26.029 56.7579 25.9571 56.6787 25.8793C56.6396 25.8405 56.6048 25.7977 56.5749 25.7514V28.1458V30.5809V32.9055V35.1895V37.427V39.6412V41.8439V43.1224C56.5764 43.3526 56.6682 43.5729 56.8302 43.7351C56.9922 43.8973 57.2113 43.9884 57.4396 43.9884V43.9884C57.5532 43.9876 57.6655 43.9643 57.7701 43.9198C57.8747 43.8753 57.9696 43.8104 58.0494 43.7289C58.1291 43.6474 58.1922 43.5509 58.235 43.4449C58.2777 43.3388 58.2993 43.2253 58.2986 43.1108V42.1112L58.3043 39.9551Z" fill="#F05859"/>
<path d="M66.1962 20.8522C66.0649 20.7722 65.9144 20.7299 65.761 20.7299C65.6076 20.7299 65.4571 20.7722 65.3258 20.8522V20.8522C65.2648 20.8856 65.2069 20.9245 65.1528 20.9684L64.9683 21.1602L63.8442 22.2935L63.5272 22.6073L63.2447 22.8921L62.87 23.2698L62.7201 23.4209L61.7862 24.3624L61.7459 24.4089L61.6248 24.5251L60.2874 25.8734C60.2239 25.939 60.1731 26.0158 60.1375 26.1001C60.0486 26.2835 60.0268 26.4926 60.076 26.6906C60.1251 26.8885 60.242 27.0627 60.4061 27.1822C60.5702 27.3017 60.7709 27.359 60.9727 27.3439C61.1746 27.3288 61.3647 27.2423 61.5095 27.0997L61.7055 26.9021L62.5068 26.0943L63.4292 25.1644L64.2478 24.3392L64.4668 24.1183L64.5591 24.0311L65.8215 22.7526L65.9887 22.5899L66.1905 22.3865L66.3749 22.1947C66.4558 22.1141 66.52 22.0182 66.5638 21.9125C66.6077 21.8067 66.6302 21.6932 66.6302 21.5786C66.6302 21.464 66.6077 21.3506 66.5638 21.2448C66.52 21.1391 66.4558 21.0431 66.3749 20.9626C66.3209 20.9173 66.2607 20.8801 66.1962 20.8522Z" fill="#F05859"/>
<path d="M61.3712 22.3167L62.0226 21.66L62.8066 20.8696L63.7405 19.9281L63.9307 19.7363C64.0924 19.5727 64.1835 19.3513 64.1843 19.1203C64.1823 18.8896 64.0913 18.6687 63.9307 18.5043C63.8248 18.4012 63.6945 18.3274 63.5521 18.2897C63.4098 18.2521 63.2603 18.2519 63.1179 18.2892C62.964 18.3205 62.8221 18.395 62.7086 18.5043V18.5043L62.086 19.1319L61.9707 19.2482L60.8927 20.3349L60.8005 20.4279L60.3508 20.8754L59.5265 21.7123L58.6329 22.6131L58.4485 22.7991L57.872 23.4093C57.7547 23.5296 57.678 23.6842 57.6529 23.851C57.6417 23.9164 57.6417 23.9832 57.6529 24.0486C57.652 24.1522 57.6716 24.2549 57.7106 24.3508V24.3508C57.7532 24.46 57.818 24.5589 57.9008 24.6414C58.0092 24.7483 58.1449 24.8227 58.2928 24.8564V24.8564C58.3619 24.8789 58.4336 24.8926 58.5061 24.8971C58.6198 24.898 58.7324 24.8758 58.8374 24.8318C58.9424 24.7879 59.0375 24.7231 59.1172 24.6414L59.3996 24.3566L59.832 23.9207L61.1175 22.6247L61.3712 22.3167Z" fill="#F05859"/>
<path d="M56.9093 21.8867L57.2206 21.567L57.9181 20.8638L58.3043 20.4744L58.6214 20.1606L59.3535 19.4225L59.5726 19.1959L59.6418 19.132V19.1029L60.7255 18.0103L61.0426 17.6965L61.2732 17.4582L61.3423 17.3885L61.4576 17.2722C61.5637 17.1608 61.6388 17.0232 61.6752 16.8732C61.7117 16.7232 61.7082 16.5661 61.6652 16.4179C61.6287 16.2763 61.5574 16.1464 61.4576 16.0401C61.3704 15.9566 61.2688 15.8896 61.1579 15.8426C61.0023 15.7805 60.8322 15.7656 60.6683 15.7997C60.5044 15.8337 60.354 15.9153 60.2355 16.0343L59.5726 16.7027L58.9039 17.3768L58.3274 17.958L57.1745 19.1203L57.1168 19.1784L55.9062 20.4047L55.4681 20.8522L55.3701 20.9452C55.2096 21.1094 55.1196 21.3307 55.1196 21.5612C55.1196 21.7918 55.2096 22.0131 55.3701 22.1773C55.5332 22.3409 55.7539 22.4327 55.984 22.4327C56.2141 22.4327 56.4349 22.3409 56.598 22.1773L56.9093 21.8867Z" fill="#F05859"/>
</g>
<defs>
<clipPath id="clip0_107_85">
<rect width="121.647" height="44" fill="white"/>
</clipPath>
</defs>
</svg>
