<svg width="48" height="48" viewBox="0 0 48 48" fill="none" xmlns="http://www.w3.org/2000/svg">
<rect width="48" height="48" fill="#004B6D"/>
<path d="M39.8601 38.9996H2V45H39.8601L46 38.9996V7.00113L39.8601 12.0005V38.9996Z" fill="white"/>
<path d="M8.13995 12.0005H2V38.9996L8.13995 33.001V12.0005Z" fill="white"/>
<path d="M22.2676 23.9995V10.9995H18.3713V15.999H14.278V11.0509H10.1847V18.9982C10.1847 18.9982 15.6024 18.9982 18.3713 18.9982V20.9984H10.1847V23.9977H22.2657L22.2676 23.9995Z" fill="white"/>
<path d="M27.5821 14.0007H31.6754V16.9999H27.5821V14.0007ZM35.7668 23.9995V10.9995H23.4888V23.9995H27.5821V19.9992H31.6754V23.9995H35.7687H35.7668Z" fill="white"/>
<path d="M14.2799 27.9998H18.3732V30.9991H14.2799V27.9998ZM22.4665 25.0005H10.1885V38.0004H14.2818V34.0002H22.4683V25.0005H22.4665Z" fill="white"/>
<path d="M23.4888 25.0005H35.7668V27.9998H27.5821V34.9993H35.7668V38.0004H23.4888V25.0005Z" fill="white"/>
<path d="M2 9.00125L8.13994 4H44.9776L39.8601 9.00125H2Z" fill="white"/>
</svg>
