<svg fill="none" height="33" width="210" xmlns="http://www.w3.org/2000/svg"><clipPath id="a"><path d="M0 0h209.71v33H0z"/></clipPath><g clip-path="url('#a')"><path d="M10.563 13.356c-.08 0-.166-.01-.251-.027L.778 11.202c-.355-.079-.62-.303-.728-.61-.108-.308-.032-.642.202-.92L8.212.379c.257-.299.603-.422.935-.33.333.093.567.374.625.756l1.749 11.422a.96.96 0 0 1-.962 1.13zm-8.877-3.3 8.423 1.871-1.523-9.936z" fill="#c32121"/><path d="M39.237.088c-.117-.062-.54-.229-.998.176L25.163 11.712 11.983.259c-.462-.404-.885-.233-1.002-.171-.116.061-.494.312-.4.914l3.183 20.69-11.256 9.853c-.458.405-.337.83-.287.95.05.118.251.505.845.505h.027l31.325-.563c.594-.008 1.12-.47 1.196-1.045L39.651.989c.08-.598-.297-.844-.414-.906zm-14.07 13.395 4.266 3.705L16.08 27.84l-.868-5.643 9.957-8.72zM12.124 2.149l12.024 10.45-9.183 8.039zm22.165 28.97-29.883.536 9.597-8.402.84 5.47a.94.94 0 0 0 .585.757c.099.04.207.057.315.057.22 0 .445-.08.638-.233l14.146-11.286c.251-.197.395-.487.404-.795a1.037 1.037 0 0 0-.368-.813l-4.387-3.81 11.96-10.473-3.852 28.997z" fill="#c32121"/><g fill="#000"><path d="M46.645 17.298 43.04 11.73h2.422l2.252 3.568 2.252-3.569h2.423l-3.7 5.569v4.693h-2.044zM59.401 19.838h-4.234l-.926 2.153h-2.22l4.517-10.261h1.605l4.391 10.261h-2.202zm-.597-1.63-1.497-3.692-1.497 3.691h2.99zM67.758 11.73c1.177 0 2 .123 2.769.786.85.738 1.07 1.74 1.07 2.479 0 .4-.064 1.507-.868 2.294-.58.567-1.448.91-2.661.91h-1.322V22h-2.045V11.738h3.052zm-1.007 4.737h.836c.395 0 .899 0 1.335-.325.377-.295.566-.752.566-1.2 0-.571-.283-.954-.584-1.169-.423-.294-.958-.32-1.448-.32h-.71v3.014zM81.665 21.622c-.63.32-1.465.602-2.598.602-1.838 0-2.958-.615-3.839-1.433-1.213-1.138-1.685-2.417-1.685-3.924 0-1.863.786-3.2 1.685-4.017 1.057-.971 2.36-1.353 3.857-1.353a5.38 5.38 0 0 1 2.58.628v2.338a3.414 3.414 0 0 0-2.535-1.151c-2.108 0-3.48 1.692-3.48 3.586 0 2.276 1.794 3.507 3.556 3.507.976 0 1.843-.418 2.455-1.125v2.338zM85.28 13.575c.691 0 1.226.523 1.226 1.2s-.535 1.2-1.227 1.2c-.692 0-1.227-.523-1.227-1.2s.535-1.2 1.227-1.2zm0 4.694c.691 0 1.226.523 1.226 1.2 0 .676-.535 1.2-1.227 1.2-.692 0-1.227-.524-1.227-1.2 0-.677.535-1.2 1.227-1.2zM90.188 13.575c.692 0 1.227.523 1.227 1.2s-.535 1.2-1.227 1.2-1.227-.523-1.227-1.2.535-1.2 1.227-1.2zm0 4.694c.692 0 1.227.523 1.227 1.2 0 .676-.535 1.2-1.227 1.2s-1.227-.524-1.227-1.2c0-.677.535-1.2 1.227-1.2zM96.355 15.698h4.436v-3.969h2.046v10.262h-2.046v-4.57h-4.436v4.57H94.31V11.73h2.045zM106.851 11.391c.629 0 1.15.51 1.15 1.125s-.521 1.125-1.15 1.125c-.63 0-1.147-.51-1.147-1.125s.522-1.125 1.147-1.125zm.962 3.938v6.662h-1.92V15.33zM110.577 15.329h1.919v.997c.301-.567.71-.843.85-.923.301-.184.679-.294 1.133-.294.332 0 .597.075.818.154l-.252 1.753c-.252-.167-.504-.246-.899-.246-.36 0-.899.075-1.272.536-.36.449-.378 1.016-.378 1.477v3.2h-1.919V15.32zM123.338 16.054c.679.602 1.151 1.525 1.151 2.615s-.472 2-1.151 2.601c-.58.523-1.461.94-2.751.94s-2.171-.417-2.755-.94c-.674-.602-1.151-1.52-1.151-2.601s.472-2.017 1.151-2.615c.58-.523 1.461-.936 2.755-.936 1.295 0 2.171.417 2.751.936zm-.831 2.615c0-1.046-.818-1.894-1.92-1.894-1.101 0-1.919.843-1.919 1.894s.805 1.876 1.919 1.876c1.115 0 1.92-.861 1.92-1.876zM130.292 16.915a1.606 1.606 0 0 0-1.119-.448c-.454 0-.742.215-.742.54 0 .168.081.431.616.603l.458.136c.535.167 1.34.43 1.731.954.207.276.346.676.346 1.107 0 .602-.207 1.2-.755 1.692-.553.492-1.214.708-2.045.708-1.416 0-2.221-.66-2.643-1.108l1.007-1.138c.377.43.944.769 1.51.769.535 0 .944-.264.944-.725 0-.418-.346-.585-.598-.677l-.441-.154c-.485-.171-1.051-.387-1.46-.8a1.772 1.772 0 0 1-.522-1.279c0-.646.315-1.186.71-1.507.535-.417 1.228-.475 1.78-.475.504 0 1.308.062 2.171.708l-.943 1.094zM133.879 10.776h1.919v5.414c.36-.492 1.007-1.077 2.109-1.077.597 0 1.478.168 2.013.818.472.567.535 1.23.535 1.876v4.184h-1.919v-3.63c0-.369-.018-.954-.364-1.31-.301-.307-.71-.338-.899-.338-.504 0-.899.167-1.178.585-.283.43-.301.905-.301 1.292v3.401h-1.919V10.776zM144.182 11.391c.629 0 1.15.51 1.15 1.125s-.521 1.125-1.15 1.125c-.63 0-1.147-.51-1.147-1.125s.522-1.125 1.147-1.125zm.962 3.938v6.662h-1.92V15.33zM147.912 15.329h1.92v.751a2.54 2.54 0 0 1 2.032-.97c1.433 0 1.982.878 2.153 1.212.332-.523 1.007-1.213 2.189-1.213 1.052 0 1.573.475 1.838.817.441.567.472 1.139.472 1.877v4.184h-1.919v-3.63c0-.787-.175-1.139-.315-1.31-.252-.308-.598-.338-.786-.338-.522 0-.85.228-1.057.584-.252.4-.265.936-.265 1.292v3.402h-1.919v-3.63c0-.787-.171-1.139-.315-1.31-.252-.308-.598-.338-.787-.338-.521 0-.849.228-1.056.584-.252.4-.265.936-.265 1.292v3.402h-1.92v-6.663zM166.508 15.329h1.92v6.662h-1.92v-.861c-.692.971-1.604 1.077-2.094 1.077-2.095 0-3.48-1.6-3.48-3.556 0-1.955 1.371-3.538 3.385-3.538.522 0 1.542.093 2.189 1.077zm-3.587 3.322c0 1.064.787 1.894 1.888 1.894s1.888-.83 1.888-1.894-.787-1.876-1.888-1.876-1.888.817-1.888 1.876zM175.175 18.559c.188-.215 1.416-1.587 1.793-2.14.283-.418.616-1.046.616-1.648 0-.923-.679-1.556-1.56-1.556-1.07 0-1.636.83-1.667 1.71h-2.109c.095-2.092 1.605-3.433 3.682-3.433 2.441 0 3.699 1.63 3.699 3.261s-1.088 2.725-1.906 3.586l-1.811 1.925h3.794v1.723h-7.615l3.084-3.432zM182.097 16.854c0-3.525 1.969-5.353 4.059-5.353s4.059 1.833 4.059 5.37c0 3.538-1.969 5.353-4.059 5.353s-4.059-1.833-4.059-5.37zm2.045 0c0 2.676 1.119 3.647 2.014 3.647.894 0 2.014-.97 2.014-3.647s-1.133-3.63-2.014-3.63-2.014.971-2.014 3.63zM194.935 18.559c.188-.215 1.416-1.587 1.793-2.14.283-.418.616-1.046.616-1.648 0-.923-.679-1.556-1.56-1.556-1.07 0-1.636.83-1.667 1.71h-2.109c.095-2.092 1.605-3.433 3.682-3.433 2.441 0 3.699 1.63 3.699 3.261s-1.088 2.725-1.906 3.586l-1.811 1.925h3.794v1.723h-7.615l3.084-3.432zM208.482 18.453h1.228v1.6h-1.228v1.938h-1.919v-1.938h-5.129v-.892l5.21-7.432h1.843v6.724zm-1.919 0v-3.907l-2.706 3.907z"/></g></g></svg>