<svg width="20" height="20" viewBox="0 0 20 20" fill="none" xmlns="http://www.w3.org/2000/svg">
    <path
      fill="#1C2A4C"
      d="M.095 6.25h.606V3.75h1.21v-2.5h1.213V0H.7v1.25H.095v5ZM10.39 8.75H9.18v2.501h1.21v-2.5ZM12.812 6.25v2.5h-1.21v2.501h1.21v2.501h1.21v2.5h1.21v-2.5h1.211v-2.5h1.21V8.75h-1.21V6.25h-1.21v-2.5h-1.21v2.5h-1.21Zm2.423 2.5v2.501h-1.21v-2.5h1.21ZM18.867 16.25h-1.212v2.5h-1.21V20h2.422v-1.25h.607v-5h-.607v2.5ZM.095 18.75h.606V20h2.423v-1.25H1.91v-2.5H.701v-2.5H.095v5ZM6.757 13.75v-2.5h1.21V8.748h-1.21V6.248h-1.21v-2.5H4.335v2.5h-1.21v2.5h-1.21v2.501h1.21v2.501h1.21v2.5h1.21v-2.5h1.21Zm-2.423-2.5V8.748h1.21v2.5h-1.21Z"
    />
    <path
      fill="#1C2A4C"
      d="M14.022 18.75v-2.5h-1.21v-2.5H11.6v-2.5h-1.21V20h2.422v-1.25h1.21ZM7.967 13.75h-1.21v2.5H5.544v2.5h1.213V20h2.422v-8.75H7.967v2.5ZM18.867 0h-2.422v1.25h1.21v2.501h1.212V6.25h.607v-5h-.607V0ZM11.6 6.25h1.212V3.75h1.21v-2.5h-1.21V0H10.39v8.75h1.21v-2.5ZM6.757 6.25h1.21v2.5h1.212V0H6.757v1.25H5.544v2.501h1.213V6.25Z"
    />
</svg>
