<svg fill="none" height="33" viewBox="0 0 210 33" width="210" xmlns="http://www.w3.org/2000/svg" xmlns:xlink="http://www.w3.org/1999/xlink"><clipPath id="a"><path d="m0 0h209.71v33h-209.71z"/></clipPath><g clip-path="url(#a)"><path d="m10.5633 13.3556c-.0809 0-.1663-.0088-.2517-.0264l-9.533885-2.127c-.355104-.0791-.620309-.3033-.7281893-.6109-.10788-.3076-.031465-.64164.2022753-.9185l7.960639-9.29485c.25622-.2988413.60233-.4218937.93496-.3296044.33263.0922894.56637.3735514.62481.7558934l1.74859 11.421861c.0539.3384-.054.6592-.2967.879-.1798.1626-.4135.2505-.6653.2505zm-8.87759-3.3005 8.42359 1.8722-1.52377-9.93649z" fill="#c32121"/><path d="m39.2369.0878946c-.1168-.0615262-.5394-.2285256-.9978.1757894l-13.076 11.448216-13.1793-11.452611c-.463-.404315-.8856-.2329206-1.0024-.1713944-.1169.0615264-.4945.3120254-.4001.9141054l3.1825 20.6904-11.25549 9.8529c-.45849.4044-.33713.8306-.28768.9493.04944.1187.25172.5054.84506.5054h.02697l31.32564-.5625c.5933-.0088 1.1193-.4703 1.1957-1.046l4.0365-30.402686c.0809-.597683-.2967-.843788-.4136-.9053141zm-14.0693 13.3951054 4.2657 3.7048-13.3546 10.6528-.8675-5.6428 9.9564-8.7192zm-13.0445-11.33398 12.0241 10.45068-9.1833 8.0379zm22.1648 28.97008-29.8827.5361 9.5968-8.4027.8406 5.4714c.0539.356.2742.6373.5843.7559.0989.0396.2068.0572.3147.0572.2202 0 .445-.0791.6383-.233l14.1457-11.2856c.2518-.1978.3956-.4878.4046-.7955.009-.3076-.1259-.602-.3686-.813l-4.3871-3.8102 11.9612-10.47265-3.8523 28.99645z" fill="#c32121"/><g fill="#000"><path d="m46.6445 17.2976-3.6049-5.5681h2.4228l2.2519 3.5685 2.252-3.5685h2.4228l-3.6993 5.5681v4.6936h-2.0453z"/><path d="m59.4014 19.8378h-4.2343l-.9259 2.1534h-2.2206l4.5175-10.2617h1.6047l4.3916 10.2617h-2.2025zm-.5978-1.6305-1.4969-3.6915-1.4968 3.6915h2.9892z"/><path d="m67.7577 11.7295c1.1776 0 2.0002.1231 2.7689.7867.8495.7383 1.0698 1.7403 1.0698 2.4786 0 .3999-.063 1.5074-.8676 2.2941-.5798.5669-1.4474.9097-2.661.9097h-1.3215v3.8014h-2.0453v-10.2617h3.0522zm-1.0069 4.7375h.836c.3956 0 .899 0 1.3351-.3252.3775-.2944.5663-.7515.5663-1.1997 0-.5713-.2832-.9537-.5843-1.169-.4226-.2945-.9575-.3208-1.4474-.3208h-.7102v3.0147z"/><path d="m81.6652 21.6221c-.6293.3208-1.4654.602-2.5981.602-1.8385 0-2.9577-.6152-3.8388-1.4326-1.2136-1.1383-1.6856-2.4171-1.6856-3.9245 0-1.8634.7866-3.1994 1.6856-4.0168 1.0564-.9712 2.3599-1.3536 3.8568-1.3536.7416 0 1.6226.1231 2.5801.6285v2.338c-.9619-1.0768-2.1576-1.1515-2.5352-1.1515-2.1081 0-3.4791 1.692-3.4791 3.5861 0 2.2765 1.7935 3.507 3.5555 3.507.9754 0 1.843-.4175 2.4543-1.125v2.338z"/><path d="m85.2791 13.5753c.6923 0 1.2272.523 1.2272 1.1998s-.5349 1.1997-1.2272 1.1997c-.6922 0-1.2271-.5229-1.2271-1.1997s.5349-1.1998 1.2271-1.1998zm0 4.6936c.6923 0 1.2272.523 1.2272 1.1997 0 .6768-.5349 1.1998-1.2272 1.1998-.6922 0-1.2271-.523-1.2271-1.1998 0-.6767.5349-1.1997 1.2271-1.1997z"/><path d="m90.1877 13.5753c.6922 0 1.2271.523 1.2271 1.1998s-.5349 1.1997-1.2271 1.1997-1.2271-.5229-1.2271-1.1997.5349-1.1998 1.2271-1.1998zm0 4.6936c.6922 0 1.2271.523 1.2271 1.1997 0 .6768-.5349 1.1998-1.2271 1.1998s-1.2271-.523-1.2271-1.1998c0-.6767.5349-1.1997 1.2271-1.1997z"/><path d="m96.3548 15.698h4.4362v-3.9685h2.046v10.2617h-2.046v-4.5705h-4.4362v4.5705h-2.0452v-10.2617h2.0452z"/><path d="m106.851 11.3911c.629 0 1.15.5098 1.15 1.1251 0 .6152-.521 1.125-1.15 1.125-.63 0-1.147-.5098-1.147-1.125 0-.6153.522-1.1251 1.147-1.1251zm.962 3.9377v6.6624h-1.92v-6.6624z"/><path d="m110.577 15.3288h1.919v.9976c.301-.5669.71-.8438.85-.9229.301-.1846.679-.2944 1.133-.2944.332 0 .597.0747.818.1538l-.252 1.7535c-.252-.167-.504-.2461-.899-.2461-.36 0-.899.0747-1.272.5361-.36.4483-.378 1.0152-.378 1.4767v3.1993h-1.919v-6.6624z"/><path d="m123.338 16.0539c.679.6021 1.151 1.525 1.151 2.6149s-.472 1.9996-1.151 2.6017c-.58.5229-1.461.9404-2.751.9404s-2.171-.4175-2.755-.9404c-.674-.6021-1.151-1.5206-1.151-2.6017s.472-2.0172 1.151-2.6149c.58-.5229 1.461-.936 2.755-.936 1.295 0 2.171.4175 2.751.936zm-.831 2.6149c0-1.0459-.818-1.8941-1.92-1.8941-1.101 0-1.919.8438-1.919 1.8941s.805 1.8765 1.919 1.8765c1.115 0 1.92-.8613 1.92-1.8765z"/><path d="m130.292 16.9153c-.454-.4175-.912-.4483-1.119-.4483-.454 0-.742.2154-.742.5406 0 .167.081.4307.616.6021l.458.1362c.535.167 1.34.4307 1.731.9537.207.2768.346.6767.346 1.1074 0 .6021-.207 1.1998-.755 1.692-.553.4922-1.214.7076-2.045.7076-1.416 0-2.221-.6593-2.643-1.1075l1.007-1.1383c.377.4307.944.7691 1.51.7691.535 0 .944-.2637.944-.7251 0-.4175-.346-.5845-.598-.6768l-.441-.1538c-.485-.1714-1.051-.3867-1.46-.7998-.315-.3253-.522-.7384-.522-1.2789 0-.646.315-1.1866.71-1.5074.535-.4175 1.228-.4746 1.78-.4746.504 0 1.308.0615 2.171.7075l-.943 1.0943z"/><path d="m133.879 10.7759h1.919v5.4143c.36-.4922 1.007-1.0767 2.109-1.0767.597 0 1.478.167 2.013.8174.472.5669.535 1.2305.535 1.8765v4.1838h-1.919v-3.63c0-.3692-.018-.9537-.364-1.3097-.301-.3076-.71-.3384-.899-.3384-.504 0-.899.167-1.178.5845-.283.4307-.301.9054-.301 1.2921v3.4015h-1.919v-11.2153z"/><path d="m144.182 11.3911c.629 0 1.15.5098 1.15 1.1251 0 .6152-.521 1.125-1.15 1.125-.63 0-1.147-.5098-1.147-1.125 0-.6153.522-1.1251 1.147-1.1251zm.962 3.9377v6.6624h-1.92v-6.6624z"/><path d="m147.912 15.3288h1.92v.7515c.724-.8921 1.623-.9712 2.032-.9712 1.433 0 1.982.8789 2.153 1.2129.332-.523 1.007-1.2129 2.189-1.2129 1.052 0 1.573.4746 1.838.8174.441.5669.472 1.1382.472 1.8765v4.1838h-1.919v-3.63c0-.7867-.175-1.1383-.315-1.3097-.252-.3076-.598-.3384-.786-.3384-.522 0-.85.2286-1.057.5845-.252.4-.265.9361-.265 1.2921v3.4015h-1.919v-3.63c0-.7867-.171-1.1383-.315-1.3097-.252-.3076-.598-.3384-.787-.3384-.521 0-.849.2286-1.056.5845-.252.4-.265.9361-.265 1.2921v3.4015h-1.92v-6.6624z"/><path d="m166.508 15.3288h1.92v6.6624h-1.92v-.8614c-.692.9713-1.604 1.0768-2.094 1.0768-2.095 0-3.48-1.5997-3.48-3.5554 0-1.9556 1.371-3.5377 3.385-3.5377.522 0 1.542.0923 2.189 1.0767zm-3.587 3.3224c0 1.0635.787 1.8941 1.888 1.8941s1.888-.8306 1.888-1.8941-.787-1.8765-1.888-1.8765-1.888.8174-1.888 1.8765z"/><path d="m175.175 18.5589c.188-.2153 1.416-1.5865 1.793-2.1402.283-.4175.616-1.0459.616-1.648 0-.9229-.679-1.5557-1.56-1.5557-1.07 0-1.636.8306-1.667 1.7095h-2.109c.095-2.0919 1.605-3.4323 3.682-3.4323 2.441 0 3.699 1.6305 3.699 3.2609s-1.088 2.7247-1.906 3.5861l-1.811 1.9249h3.794v1.7227h-7.615l3.084-3.4323z"/><path d="m182.097 16.8538c0-3.5246 1.969-5.3528 4.059-5.3528s4.059 1.8326 4.059 5.3704c0 3.5377-1.969 5.3527-4.059 5.3527s-4.059-1.8326-4.059-5.3703zm2.045 0c0 2.6764 1.119 3.6476 2.014 3.6476.894 0 2.014-.9712 2.014-3.6476s-1.133-3.6301-2.014-3.6301-2.014.9713-2.014 3.6301z"/><path d="m194.935 18.5589c.188-.2153 1.416-1.5865 1.793-2.1402.283-.4175.616-1.0459.616-1.648 0-.9229-.679-1.5557-1.56-1.5557-1.07 0-1.636.8306-1.667 1.7095h-2.109c.095-2.0919 1.605-3.4323 3.682-3.4323 2.441 0 3.699 1.6305 3.699 3.2609s-1.088 2.7247-1.906 3.5861l-1.811 1.9249h3.794v1.7227h-7.615l3.084-3.4323z"/><path d="m208.482 18.4535h1.228v1.5996h-1.228v1.9381h-1.919v-1.9381h-5.129v-.8921l5.21-7.4315h1.843v6.724zm-1.919 0v-3.907l-2.706 3.907z"/></g></g></svg>