<svg width="512" height="512" viewBox="0 0 512 512" fill="none" xmlns="http://www.w3.org/2000/svg">
<g clip-path="url(#clip0_281_69)">
<rect width="512" height="512" fill="white"/>
<g clip-path="url(#clip1_281_69)">
<path d="M213.617 381.5L213.256 376.308L212.549 371.149L211.383 366.039L211.136 360.83L210.512 355.671L209.74 350.528L210.2 345.271L209.69 340.095L208.507 334.985V329.76L207.735 324.617L207.85 319.376L206.421 314.299L206.536 309.074L205.336 303.964L204.991 298.772L204.663 293.58L204.236 288.405L203.628 283.245L202.822 278.103L202.116 272.944L202.182 267.719L201.59 262.559L201.639 260.949L200.44 264.087L198.715 268.524L197.368 273.502L195.297 279.269L193.096 284.051L191.633 288.158L190.27 293.383L188.216 298.838L185.899 304.687L183.78 308.187L183.057 313.527L179.869 318.818L174.102 338.616C173.74 339.865 172.097 340.21 171.259 339.208L156.406 321.726L154.221 317.996L150.639 315.153L146.203 309.814L143.229 305.344L139.746 301.073L137.15 296.801L133.913 293.35L130.627 289.128L127.571 285.825L122.674 281.241L119.914 276.065L116.924 272.73L113.72 268.507L110.302 264.712L106.425 260.046L104.042 256.464L101.775 254.624L101.89 259.75L103.172 264.958L102.941 270.315L103.582 275.589L104.042 280.879L104.716 286.154L106.326 291.329L106.03 296.702L107.066 301.943L107 307.283L107.279 312.59L108.035 317.848L108.939 323.089L108.873 328.429L109.727 333.687L110.96 338.896L110.483 344.285L110.992 349.575L112.34 354.784L112.701 360.091L113.736 365.316L114.131 370.623L114.788 375.897L114.624 381.253L115.659 386.478L116.25 391.752L116.398 394.759C116.464 395.926 117.433 396.862 118.616 396.879L121.475 396.928L126.684 396.649L131.876 396.468L137.068 396.583L142.26 397.109L147.452 397.142L152.644 397.339L157.836 397.52L163.028 397.635L168.22 397.355L173.412 396.649L178.604 397.207L183.796 396.55L188.972 397.717L194.164 397.207L199.339 397.109L204.515 396.649L209.69 397.421L212.796 397.257C213.995 397.191 214.932 396.222 214.948 395.022V391.835L213.831 386.708L213.667 381.5H213.617Z" fill="black"/>
<path d="M11.3411 126.153L15.8924 126.449L21.1666 125.611L26.4572 124.97L31.7807 124.708L37.0877 124.116L42.4441 124.379L47.7183 123.344L53.091 123.902L58.3488 122.637L63.6723 122.473L69.0451 122.917L74.3521 122.424L79.6263 121.405L84.9498 121.093L90.2568 120.501L95.6132 120.748L100.986 121.06L106.309 120.666L111.6 119.696L116.956 118.973L122.395 119.696L127.751 118.661H133.157L138.546 118.3L143.919 117.823L149.292 117.232L154.681 117.035L160.07 116.772L165.509 117.511L170.881 117.018L176.221 115.884L181.627 115.769L187.016 115.507L192.438 115.901L197.794 114.964L203.184 114.537L208.606 114.849L213.962 113.946L219.335 113.321L224.79 114.11L230.163 113.535L235.552 113.026L240.99 113.436L245.394 112.697C245.87 112.615 246.248 113.058 246.1 113.502L244.769 117.577L242.88 122.489L240.481 127.221L239.019 132.298L236.833 137.096L235.535 142.223L233.498 147.086L231.083 151.818L229.982 157.026L227.961 161.89L226.006 166.77L223.985 171.633L222.079 176.546L220.321 181.508L218.119 186.306L217.363 191.629L214.816 196.312L212.943 201.241L210.676 206.022L209.394 211.165L207.143 215.946L205.632 221.007L203.989 226.002L201.278 230.619L199.947 235.745L197.63 240.493L196.776 245.784L194.443 250.549L192.553 255.461L190.664 260.374L188.758 265.287L187.377 270.397L185.587 275.359L183.368 280.157L181.594 285.119L180.263 290.245L178.39 295.174L176.451 300.087L173.658 304.687L172.935 310.044L170.158 314.661L168.844 319.146C168.745 319.508 168.285 319.59 168.039 319.31L164.999 315.729L162.288 311.095L158.016 307.71L154.632 303.636L151.69 299.199L148.339 295.092L145.562 290.524L141.914 286.647L138.661 282.457L135.046 278.546L131.119 274.882L128.589 270.117L125.04 266.158L121.82 261.919L118.254 257.975L114.87 253.884L111.912 249.448L107.69 246.014L104.765 241.561L101.315 237.519L98.0449 233.33L94.9559 229.008L90.7826 225.542L87.7758 221.155L84.4404 217.014L81.6965 212.43L77.9175 208.667L74.0892 204.938L70.6224 200.912L67.2706 196.788L63.9023 192.681L61.4377 187.85L58.0038 183.792L54.0111 180.177L51.3494 175.511L47.9154 171.452L44.3664 167.476L40.7518 163.549L37.6957 159.179L33.6702 155.581L31.3371 150.651L27.3938 146.987L24.5841 142.42L20.6079 138.789L16.9111 134.927L14.4137 130.08L11.0125 127.008C10.6675 126.696 10.914 126.137 11.374 126.153H11.3411Z" fill="#EA5520"/>
<path d="M431.305 374.714L431.551 369.654C431.551 369.654 431.551 369.588 431.551 369.571L431.338 364.379L431.288 359.138L431.354 353.897V348.655L431.436 343.496C431.436 343.43 431.436 343.365 431.436 343.315L430.565 338.321C430.565 338.238 430.549 338.14 430.565 338.058L431.025 332.981C431.025 332.981 431.025 332.931 431.025 332.898L431.107 327.772C431.107 327.772 431.107 327.674 431.107 327.624L430.434 322.564C430.434 322.564 430.434 322.449 430.434 322.383L430.664 317.306C430.664 317.306 430.664 317.207 430.664 317.158L430.154 312.097C430.154 312.097 430.154 311.966 430.154 311.9L430.615 306.807C430.615 306.807 430.615 306.741 430.615 306.708L430.532 301.516L430.237 296.324C430.237 296.324 430.237 296.259 430.237 296.226L429.481 291.181C429.481 291.099 429.481 291.001 429.481 290.919L430.039 285.891C430.039 285.891 430.039 285.776 430.039 285.71L429.711 280.567L429.316 275.474C429.316 275.392 429.316 275.293 429.316 275.211L430.237 270.216C430.237 270.134 430.253 270.035 430.237 269.953L429.793 264.86L429.07 259.75C429.07 259.75 429.07 259.586 429.07 259.52L429.547 254.459C429.547 254.459 429.547 254.361 429.547 254.311L429.3 249.202C429.3 249.202 429.3 249.136 429.3 249.103L428.561 244.059C428.561 243.977 428.561 243.895 428.561 243.796L429.103 238.735C429.103 238.735 429.103 238.653 429.103 238.604L429.037 234.907C429.037 234.332 428.544 233.872 427.953 233.905L425.603 234.003C425.603 234.003 425.521 234.003 425.472 234.003L419.951 234.891C419.951 234.891 419.82 234.891 419.754 234.891L413.297 234.677L409.912 234.496C409.797 234.496 409.682 234.496 409.567 234.529L404.556 235.975C404.441 236.008 404.309 236.024 404.194 236.008L397.721 235.548C397.721 235.548 397.655 235.548 397.622 235.548L392.167 235.679C392.167 235.679 392.069 235.679 392.019 235.679L387.517 235.137C387.419 235.137 387.337 235.137 387.238 235.137L382.9 235.761C382.9 235.761 382.818 235.761 382.769 235.761L376.657 235.909L371.744 235.827C371.744 235.827 371.662 235.827 371.629 235.827L367.226 236.238L361.606 237.043C361.606 237.043 361.524 237.043 361.475 237.043L355.774 237.158L350.384 237.47C350.384 237.47 350.335 237.47 350.319 237.47H345.028C345.028 237.47 344.995 237.47 344.979 237.47L333.773 238.045C333.773 238.045 333.642 238.045 333.576 238.045L328.63 237.372C328.63 237.372 328.483 237.372 328.4 237.372L324.72 237.684C324.72 237.684 324.671 237.684 324.654 237.684L322.206 238.045C321.697 238.127 321.319 238.555 321.319 239.064V241.068L321.434 246.244C321.434 246.277 321.434 246.31 321.434 246.326L322.009 251.502L322.518 256.595C322.518 256.677 322.518 256.76 322.518 256.842L321.763 261.853C321.763 261.853 321.763 261.952 321.763 262.001L321.713 267.111C321.713 267.111 321.713 267.16 321.713 267.193L321.27 272.237C321.27 272.336 321.27 272.434 321.27 272.516L322.255 277.462C322.272 277.544 322.272 277.643 322.272 277.725L321.927 282.818L321.795 288.043L321.894 293.202C321.894 293.202 321.894 293.285 321.894 293.334L321.352 298.329C321.352 298.427 321.352 298.542 321.352 298.641L322.37 303.554C322.387 303.652 322.403 303.767 322.37 303.866L321.861 308.877C321.861 308.877 321.861 308.943 321.861 308.992L321.894 314.151L322.14 319.327C322.14 319.327 322.14 319.376 322.14 319.409L321.943 324.552C321.943 324.552 321.943 324.601 321.943 324.634L322.173 329.695C322.173 329.777 322.173 329.859 322.157 329.941L321.155 334.87C321.138 334.985 321.122 335.1 321.155 335.199L321.828 340.21C321.828 340.21 321.828 340.259 321.828 340.292L322.14 345.435C322.14 345.435 322.14 345.501 322.14 345.517L322.009 350.643C322.009 350.643 322.009 350.709 322.009 350.742L322.354 355.803C322.354 355.803 322.354 355.95 322.354 356.016L321.631 361.06C321.631 361.06 321.631 361.159 321.631 361.208V366.302C321.631 366.302 321.631 366.367 321.615 366.4L321.089 371.51C321.089 371.51 321.089 371.576 321.089 371.625L321.122 376.686C321.122 376.686 321.122 376.834 321.138 376.899L322.223 381.829C322.255 381.96 322.255 382.075 322.223 382.206L321.434 387.152C321.434 387.152 321.434 387.251 321.434 387.3L321.385 392.393C321.385 392.393 321.385 392.459 321.385 392.492L321.779 396.715C321.828 397.158 322.157 397.536 322.6 397.618L326.708 398.456C326.84 398.489 326.987 398.489 327.119 398.456L332.032 397.52C332.163 397.487 332.311 397.487 332.459 397.52L337.404 398.588C337.404 398.588 337.519 398.604 337.569 398.604L342.761 398.867L347.986 399.048C347.986 399.048 348.068 399.048 348.101 399.048L353.293 398.67C353.293 398.67 353.358 398.67 353.391 398.67L358.583 398.752C358.583 398.752 358.649 398.752 358.682 398.752L363.857 399.278C363.857 399.278 363.923 399.278 363.94 399.278L369.132 399.376C369.132 399.376 369.181 399.376 369.214 399.376L374.406 399.048C374.406 399.048 374.472 399.048 374.521 399.048L379.746 399.278L385.02 399.491L390.245 399.705C390.245 399.705 390.311 399.705 390.343 399.705L395.404 400.346C395.503 400.346 395.601 400.346 395.7 400.346L400.711 399.524C400.81 399.524 400.908 399.508 401.007 399.524L406.002 400.149C406.002 400.149 406.133 400.149 406.199 400.149L411.227 399.787C411.325 399.787 411.424 399.787 411.506 399.803L416.501 400.822C416.501 400.822 416.649 400.839 416.714 400.839L421.874 400.789L427.082 400.609C427.082 400.609 427.181 400.609 427.23 400.609L431.157 401.019C431.83 401.085 432.389 400.526 432.29 399.869L431.781 395.959C431.781 395.959 431.781 395.827 431.781 395.762L432.093 390.635C432.093 390.635 432.093 390.586 432.093 390.553L431.995 385.41C431.995 385.41 431.995 385.312 431.995 385.279L432.586 380.268C432.586 380.153 432.586 380.021 432.57 379.906L431.387 375.01C431.37 374.911 431.354 374.813 431.354 374.731L431.305 374.714Z" fill="#EA5520"/>
<path d="M254.414 125.233L254.135 129.177L254.414 134.467L254.036 139.758L253.806 145.049L253.74 150.339L254.94 155.646L253.954 160.937L254.414 166.244L253.987 171.551L255.006 176.858V182.165L254.233 187.472L254.414 192.779L254.989 198.086L254.414 203.393L253.888 208.7L254.923 214.007L253.97 219.315L253.658 224.638L254.036 228.433C254.135 229.386 254.923 230.126 255.893 230.159L259.672 230.307L264.979 229.912L270.253 228.877L275.593 229.386L280.916 229.206L286.24 229.386L291.547 229.025L296.87 229.206L302.177 229.041L307.485 228.778L312.775 227.579L318.115 228.187L323.406 227.415L328.713 226.955L334.053 227.678L339.376 227.415L344.683 227.135H350.007L355.314 226.84L360.637 226.741L365.928 225.985L371.235 225.492L376.558 225.591L381.882 225.46L387.189 224.687L392.529 225.328L397.852 225.197L403.192 225.575L408.45 224.063L413.773 224.342L419.113 224.523L424.404 223.669L429.727 223.455L435.067 223.964L440.374 223.159L445.698 223.028L451.038 223.471L456.345 222.798L461.652 222.321L467.008 223.159L472.299 222.173L477.622 221.861H482.962L488.319 222.502L492.443 221.927C493.133 221.828 493.675 221.286 493.774 220.596L494.266 216.653L494.792 211.51L495.351 206.384L494.628 201.175L494.891 196.016L495.532 190.89V185.714L495.86 180.571L497.503 175.511L496.468 170.269L497.405 165.16L497.29 159.968L498.144 154.841V149.666L499.524 144.572L499.113 139.364L499.606 134.221L500.001 129.062L500.264 125.053C500.313 124.363 499.787 123.755 499.081 123.689L494.924 123.311L489.584 123.607L484.244 124.363L478.904 123.18L473.564 123.952L468.224 123.59L462.884 124.576L457.544 124.363L452.204 123.952L446.864 124.511L441.525 124.116L436.185 124.215L430.845 124.313L425.505 123.41L420.165 123.36L414.825 124.001L409.469 124.511L404.129 124.609L398.789 123.903L393.449 123.213L388.093 124.248L382.753 124.445L377.413 123.788L372.056 123.344L366.716 124.067L361.36 123.459L356.02 124.083L350.68 123.574L345.34 124.1L340 124.166L334.661 124.248L329.304 124.626L323.964 124.018L318.608 123.377L313.268 124.609L307.912 124.231L302.555 123.443L297.199 124.001L291.843 123.508L286.486 123.344L281.146 124.116L275.79 124.346L270.434 123.262L265.077 123.935L259.705 123.574L255.712 123.935C255.006 124.001 254.447 124.56 254.398 125.25L254.414 125.233Z" fill="black"/>
</g>
</g>
<defs>
<clipPath id="clip0_281_69">
<rect width="512" height="512" fill="white"/>
</clipPath>
<clipPath id="clip1_281_69">
<rect width="512" height="512" fill="white"/>
</clipPath>
</defs>
</svg>
