  <svg xmlns="http://www.w3.org/2000/svg" width="232" height="323" viewBox="0 0 232 323" fill="none">
    <path
      fill="currentColor"
      d="M134.146 2.375c82.965 12.633 97.589 86.62 97.58 120.246-4.101 38.594-8.775 95.247-146.818 200.193 10.412-26.776 16.715-50.729 16.854-70.442.055-7.71-.833-14.781-2.795-21.112-63.492-9.348-106.752-70.091-96.83-131.889C11.54 35.824 72.422-7.519 134.146 2.375Zm-17.409 157.369c24.666-.111 44.49-20.057 44.407-44.565-2.536-58.975-86.648-58.336-88.759.371.056 24.452 19.918 44.194 44.352 44.194Z"
    />
  </svg>