<svg width="32" height="32" fill="none" xmlns="http://www.w3.org/2000/svg"><path fill-rule="evenodd" clip-rule="evenodd" d="M16 32c8.837 0 16-7.163 16-16S24.837 0 16 0 0 7.163 0 16s7.163 16 16 16Zm7.76-20.741a7.803 7.803 0 0 0 2.24-.614 7.882 7.882 0 0 1-1.945 2.017c.008.167.012.335.012.505 0 5.151-3.922 11.09-11.091 11.09A11.035 11.035 0 0 1 7 22.508c.309.036.62.054.93.054a7.823 7.823 0 0 0 4.841-1.668 3.904 3.904 0 0 1-3.641-2.708c.584.113 1.186.09 1.76-.066a3.899 3.899 0 0 1-3.127-3.822v-.05c.541.302 1.147.469 1.766.488a3.895 3.895 0 0 1-1.734-3.244c0-.689.182-1.365.528-1.96a11.064 11.064 0 0 0 8.035 4.073 3.898 3.898 0 0 1 6.64-3.555 7.809 7.809 0 0 0 2.477-.947 3.91 3.91 0 0 1-1.714 2.157Z" fill="#e9983e"/></svg>