<svg width="32" height="32" fill="none" xmlns="http://www.w3.org/2000/svg"><g clip-path="url('#clip0_113_182')"><path d="M16 0C7.163 0 0 7.163 0 16c0 7.07 4.584 13.066 10.942 15.182.8.144 1.092-.348 1.092-.774 0-.378-.015-1.386-.023-2.718-4.451.963-5.39-2.144-5.39-2.144-.728-1.852-1.776-2.344-1.776-2.344-1.455-.992.11-.973.11-.973 1.607.113 2.451 1.648 2.451 1.648 1.426 2.446 3.746 1.742 4.656 1.333.146-1.036.559-1.738 1.016-2.14-3.552-.401-7.288-1.777-7.288-7.908 0-1.746.624-3.175 1.648-4.292-.164-.406-.715-2.032.156-4.233 0 0 1.344-.43 4.4 1.64A15.277 15.277 0 0 1 16 7.737c1.36.007 2.728.183 4.006.538 3.055-2.07 4.397-1.64 4.397-1.64.874 2.202.323 3.83.16 4.234 1.024 1.118 1.642 2.545 1.642 4.291 0 6.146-3.74 7.5-7.304 7.896.574.491 1.086 1.467 1.086 2.963 0 2.136-.019 3.864-.019 4.386 0 .43.288.926 1.1.77A15.995 15.995 0 0 0 32 16c0-8.837-7.163-16-16-16Z" fill="#e9983e"/></g><defs><clipPath id="clip0_113_182"><path fill="#fff" d="M0 0h32v32H0z"/></clipPath></defs></svg>