<svg width="32" height="32" viewBox="0 0 32 32" fill="none" xmlns="http://www.w3.org/2000/svg">
<path fill-rule="evenodd" clip-rule="evenodd" d="M16 32C24.8366 32 32 24.8366 32 16C32 7.16344 24.8366 0 16 0C7.16344 0 0 7.16344 0 16C0 24.8366 7.16344 32 16 32ZM23.7608 11.259C24.5337 11.1672 25.2884 10.9604 26 10.6453C25.4774 11.4283 24.8188 12.1114 24.0554 12.6621C24.063 12.8293 24.0667 12.9975 24.0667 13.1666C24.0667 18.3184 20.1452 24.2578 12.9755 24.2578C10.8569 24.2599 8.78249 23.6521 7 22.507C7.30868 22.5433 7.61924 22.5614 7.93005 22.5611C9.68521 22.5638 11.3903 21.9763 12.7712 20.8929C11.9579 20.8772 11.1697 20.6079 10.5169 20.1224C9.86406 19.637 9.37915 18.9598 9.1299 18.1854C9.71406 18.298 10.3162 18.2753 10.8903 18.1189C10.0079 17.9408 9.21436 17.4629 8.64431 16.7663C8.07426 16.0696 7.76282 15.1972 7.76285 14.2971V14.2477C8.30427 14.5486 8.90979 14.7157 9.5289 14.735C8.99502 14.3789 8.55738 13.8965 8.25492 13.3305C7.95245 12.7645 7.79451 12.1325 7.79515 11.4908C7.79432 10.8022 7.97661 10.1258 8.32335 9.53093C9.30204 10.7352 10.5231 11.7202 11.9072 12.4218C13.2914 13.1234 14.8076 13.5261 16.3575 13.6036C16.1607 12.7674 16.2457 11.8896 16.5992 11.1067C16.9527 10.3238 17.5549 9.67958 18.3123 9.27419C19.0696 8.86881 19.9397 8.72497 20.7872 8.86503C21.6348 9.00508 22.4123 9.42119 22.9989 10.0487C23.8721 9.87663 24.7094 9.55662 25.4746 9.10248C25.1839 10.0054 24.5748 10.7719 23.7608 11.259Z" fill="#e9983e"></path>
</svg>
