<svg width="32" height="32" fill="none" xmlns="http://www.w3.org/2000/svg"><path fill-rule="evenodd" clip-rule="evenodd" d="M16 32c8.837 0 16-7.163 16-16S24.837 0 16 0 0 7.163 0 16s7.163 16 16 16Zm3.235-21.862a2 2 0 0 0-.649.448l-1.5 1.5a1 1 0 1 1-1.414-1.414l1.5-1.5a4 4 0 0 1 5.656 5.656l-3 3a4 4 0 0 1-5.656 0 1 1 0 0 1 1.414-1.414 2 2 0 0 0 2.828 0l3-3a2 2 0 0 0-2.179-3.276ZM15 15a2 2 0 0 0-1.414.586l-3 3a2 2 0 1 0 2.828 2.828l1.5-1.5a1 1 0 1 1 1.414 1.414l-1.5 1.5a4 4 0 1 1-5.656-5.656l3-3a4 4 0 0 1 5.656 0 1 1 0 1 1-1.414 1.414A2 2 0 0 0 15 15Z" fill="#e9983e"/></svg>