<svg viewBox="0 0 1400 120" preserveAspectRatio="none" xmlns="http://www.w3.org/2000/svg">
<path d="M0 120C0 120 54 21 165 7C276 -7 282 107 367 107C452 107 527 32 678 35C829 38 833 107 954 107C1075 107 1102 12 1215 35C1327 58 1400 35 1400 35V120H0Z" fill="#E3E3E3"/>
<path d="M0 120C0 120 54 28 165 14C276 0 282 114 367 114C452 114 527 39 678 42C829 45 833 114 954 114C1075 114 1102 19 1215 42C1327 65 1400 42 1400 42" fill="none" stroke="#FFFFFF" stroke-width="2" stroke-linecap="round" stroke-dasharray="10 10"/>
</svg>
