<svg width="468" height="483" viewBox="0 0 468 483" fill="none" xmlns="http://www.w3.org/2000/svg">
<path d="M455.749 327C462.249 280 472.772 217.309 464.749 174C449.372 91 435.249 83 363.249 33.5C299.176 9.31597 295.924 11.016 238.466 0C174.853 15.6144 109.249 20 82.2488 54.5C55.2488 89 24.7487 130 10.2487 167.5C-4.25135 205 -2.55477 255.193 10.2487 293C10.2487 293 45.8549 377.51 60.3912 391.732C74.9274 405.955 103.749 435.557 122.749 445.5C141.749 455.443 221.249 483 251.749 483C282.249 483 348.194 467.461 371.249 451.5C436.249 406.5 437.815 381.988 455.749 327Z" fill="white"/>
<g clip-path="url(#clip0_84_27)">
<path d="M111.464 341.498L110.422 341.445L109.853 341.54L108.717 341.445L107.822 341.54C107.591 341.54 107.306 341.54 107.064 341.498L106.822 341.445L105.738 341.54H105.17L104.181 341.582C103.76 341.54 103.328 341.445 102.907 341.109L102.77 340.961V339.309L102.813 338.646L102.865 337.751C102.865 337.657 102.907 337.52 102.907 337.425L102.96 337.141L103.002 336.057L102.96 335.489L102.865 334.499L102.813 333.931V333.321C102.813 333.184 102.77 332.942 102.813 332.805L102.907 332.426L103.002 331.384L103.055 330.816L102.865 329.679V329.258L102.486 328.269L102.202 327.795L101.876 326.901L101.55 326.427L101.129 325.438L100.75 325.017L100.234 324.122L99.9078 323.606L99.4342 323.038C99.2868 322.849 99.15 322.659 99.0553 322.428L98.9606 322.102L98.5396 321.396C98.487 321.302 98.3923 321.112 98.3502 320.975L98.2555 320.691L97.7818 319.986L97.3609 319.47L96.8873 318.618L96.6031 318.05L96.1295 317.102L95.8875 316.629L95.277 315.639L94.6666 314.787C94.5719 314.65 94.4772 314.461 94.4351 314.313L94.2982 313.987L93.6878 313.04L93.4037 312.566L92.9827 311.714L92.7512 311.24L92.046 310.104L91.7619 309.777L91.1514 308.693C90.962 308.409 90.9199 308.03 91.1093 307.704H91.3935C91.5409 307.704 91.7724 307.651 91.9092 307.609L92.2881 307.515L93.33 307.557L93.8036 307.462L95.0771 307.557L95.6454 307.515L96.8768 307.704L97.3503 307.799H98.5817L99.2869 307.704L100.56 307.557C100.887 307.515 101.413 307.704 101.928 308.072L102.023 308.114L102.634 309.725L102.918 310.104L103.434 310.998L103.76 311.419L104.275 312.124C104.37 312.261 104.517 312.451 104.56 312.64L104.654 312.924L105.033 314.103L105.738 315.187C105.97 315.429 106.159 315.755 106.307 316.082L106.443 316.46C106.486 316.555 106.486 316.65 106.486 316.745L106.58 317.071L107.243 318.113L107.528 318.681L108.043 318.828L108.369 318.355L108.654 317.881L109.222 316.702L109.696 315.755L109.938 315.145L110.453 314.25L110.737 313.871L111.253 312.924L111.537 312.408L111.821 311.745C111.916 311.461 112.064 311.272 112.2 311.082L112.769 310.04L112.906 309.619L113.421 308.672L113.516 308.525C113.663 308.335 113.8 308.146 113.99 308.009C114.316 307.778 114.747 307.588 115.221 307.536H115.463L116.505 307.441H117.021L118.062 307.388L118.441 307.441C118.536 307.441 118.631 307.441 118.726 307.483L119.01 307.525L120.146 307.62L120.757 307.483H121.515C121.746 307.483 121.988 307.483 122.22 307.578L122.504 307.62L123.872 307.578C124.251 307.62 124.577 307.809 124.861 308.093L124.714 308.472L124.335 308.946L123.819 309.84L123.535 310.409L123.251 310.925C123.156 311.167 123.019 311.303 122.872 311.493L122.735 311.63L122.356 312.43C122.304 312.577 122.22 312.714 122.125 312.851L122.03 313.04L121.651 313.703C121.599 313.84 121.514 313.935 121.462 314.029L121.272 314.313L120.799 315.208L120.567 315.629L119.862 316.618L119.631 316.944L118.968 318.029L118.736 318.544L118.126 319.586L117.515 320.723L117.273 321.291L116.8 322.049C116.705 322.238 116.557 322.428 116.421 322.565L116.273 322.701L115.8 323.596L115.747 323.785C115.705 324.027 115.61 324.164 115.516 324.354L115.095 324.964L114.716 325.532L114.053 326.522L113.674 327.469C113.579 327.7 113.484 327.848 113.348 327.985L113.158 328.216L112.779 329.206L112.632 329.774V331.479L112.779 332.521V333.036L112.874 334.362V335.594L112.916 335.878C112.969 336.12 112.969 336.299 112.969 336.541L112.874 337.299L112.821 338.478L112.874 339.141L112.779 340.277C112.727 340.561 112.59 340.888 112.4 341.077C112.211 341.309 111.885 341.403 111.506 341.456L111.464 341.498Z" fill="#222222"/>
<path d="M143.921 340.74L143.784 340.509L143.174 339.562L143.079 339.33C143.037 339.193 142.984 339.098 142.942 338.909L142.753 338.014L142.521 337.499L141.764 337.025L141.006 337.12L139.827 337.215L139.353 337.309L138.312 337.257H137.796C137.701 337.257 137.606 337.257 137.47 337.215L136.67 337.067H134.302L133.218 337.12H132.513L131.618 337.499L131.471 338.067L131.05 339.109L130.913 339.393L130.723 339.814C130.576 340.235 130.345 340.572 130.113 340.761L129.966 341.182L129.492 341.466C129.208 341.656 128.882 341.751 128.545 341.793L127.408 341.656L126.798 341.698L125.756 341.656L125.145 341.698L124.956 341.751C124.767 341.793 124.535 341.793 124.346 341.793L124.061 341.751L123.588 341.698L122.356 341.751H121.272C121.136 341.751 121.041 341.751 120.894 341.698L120.515 341.603C120.188 341.656 119.852 341.466 119.715 341.182L119.904 340.667C119.957 340.53 120.052 340.477 120.094 340.382L120.283 340.098L120.704 339.204L120.894 338.783L121.178 338.078C121.22 337.888 121.315 337.657 121.462 337.467L121.651 337.236L122.072 336.341L122.114 336.152C122.167 335.92 122.304 335.636 122.441 335.394L122.862 334.783L123.093 334.173L123.472 333.51C123.567 333.321 123.662 333.184 123.798 332.994L123.946 332.805L124.325 332.047C124.419 331.858 124.514 331.721 124.609 331.574L124.798 331.384L125.219 330.489L125.272 330.3C125.314 330.068 125.461 329.784 125.598 329.542L125.977 329.027L126.208 328.416L126.682 327.564L126.914 327.09L127.292 326.101L127.429 325.722L127.945 324.733L127.998 324.68C128.04 324.354 128.187 324.07 128.376 323.785L128.755 323.27L129.04 322.754L129.461 321.575L129.65 321.06C129.65 321.06 129.745 320.965 129.797 320.87L130.366 319.923L130.555 319.544L131.123 318.597L131.45 318.029L131.776 317.081L131.829 316.839C131.871 316.745 131.965 316.608 132.018 316.46L132.207 316.039C132.302 315.808 132.534 315.566 132.723 315.376L132.86 315.229L133.186 314.24L133.512 313.629L133.891 312.682L134.175 312.208L134.744 311.314L134.839 310.746L135.07 310.177C135.217 309.798 135.396 309.514 135.638 309.283L136.112 308.335L136.344 308.009C136.344 308.009 136.48 307.82 136.533 307.767L136.954 307.251C137.049 307.209 137.185 307.346 137.28 307.578L137.659 308.241L138.133 309.041C138.175 309.135 138.269 309.23 138.322 309.367L138.417 309.556L138.606 309.977L139.175 310.967L139.364 311.345L139.596 311.861C139.785 312.24 139.88 312.524 139.88 312.85L140.353 313.608L140.68 314.177L141.195 315.218L141.385 315.639L142.09 316.681L142.321 317.197L142.742 318.186L142.974 318.66L143.448 319.418C143.49 319.512 143.584 319.565 143.637 319.702L143.774 319.986L144.195 321.07L144.342 321.638L144.953 322.68L145.142 323.154L145.752 324.048L145.942 324.375L146.415 325.417L146.563 325.796L147.078 326.743C147.121 326.88 147.173 326.974 147.215 327.164L147.31 327.301L147.784 328.342L148.068 329.006L148.636 330.142L148.878 330.521L149.352 331.321C149.446 331.51 149.499 331.647 149.541 331.795L149.594 331.984L150.015 333.026L150.246 333.447L150.667 334.299L150.994 334.91L151.372 335.899L151.657 336.32L152.225 337.267L152.509 337.878L153.119 338.92L153.214 339.014C153.351 339.151 153.404 339.298 153.498 339.53L153.783 340.235L153.972 340.656C153.972 340.656 153.74 341.172 153.498 341.456C153.256 341.645 152.983 341.645 152.699 341.645H151.751L151.467 341.593L150.331 341.687L150.046 341.74C149.952 341.74 149.91 341.687 149.815 341.687L148.826 341.645L148.215 341.509L147.078 341.456H146.563L146.089 341.509L145.521 341.551C145.195 341.593 144.816 341.509 144.437 341.267C144.247 341.13 144.016 340.94 143.868 340.751L143.921 340.74ZM136.596 326.006L136.312 326.522L135.838 327.511L135.649 328.174L135.27 329.163L135.175 329.542L135.038 330.153L135.365 330.668L135.88 330.574L137.112 330.668L138.101 330.626H138.764L138.996 329.869L138.901 329.448L138.48 328.216L138.196 327.743L137.68 326.659L137.491 326.048L137.301 325.385L136.786 325.48L136.596 325.996V326.006Z" fill="#222222"/>
<path d="M173.779 307.999L174.863 308.241L175.526 308.335L177.084 308.756L177.599 308.988C177.841 309.083 178.073 309.22 178.262 309.409L178.494 309.556L179.346 310.072L179.915 310.546L180.862 311.251L181.241 311.672L181.714 312.145C181.862 312.293 181.999 312.43 182.093 312.566L182.188 312.703L182.662 313.503C182.714 313.598 182.756 313.787 182.809 313.924L182.946 314.208L183.188 314.682C183.377 315.103 183.419 315.439 183.419 315.766L183.746 316.713C183.798 316.808 183.893 316.945 183.893 317.039L183.935 317.281L183.988 317.702C184.03 318.081 184.082 318.313 183.988 318.692V318.786L184.082 319.355L183.935 320.06V320.112L183.84 320.533L183.935 321.523C183.935 321.659 183.893 321.807 183.893 321.944V322.323L183.567 323.27L183.283 323.933L182.862 324.975L182.441 325.869C182.346 326.059 182.251 326.195 182.114 326.385L181.925 326.574L181.409 327.143C181.314 327.28 181.22 327.427 181.083 327.522L180.893 327.669L179.999 328.427V328.479C179.809 328.763 179.525 328.953 179.199 329.142L178.683 329.384H178.631C178.399 329.574 178.115 329.711 177.831 329.805L177.168 330.037L176.694 330.226L175.558 330.605L175.042 330.795L174.189 331.026C174.053 331.068 173.863 331.068 173.716 331.068H173.242L172.2 331.163L171.59 331.258L170.885 331.447C170.653 331.5 170.411 331.5 170.18 331.5H170.043L169.569 331.542H169.148L168.296 331.5L167.969 331.921L167.927 332.489V334.289L167.833 335.425V335.994L167.78 337.13L167.738 337.793V338.688L167.78 338.877C167.833 339.162 167.875 339.351 167.833 339.635L167.738 340.393C167.738 340.53 167.075 341.382 166.696 341.572C166.643 341.624 166.549 341.624 166.454 341.624L165.507 341.572H164.938L164.044 341.477L163.57 341.382L162.434 341.572L160.634 341.666H160.213L159.413 341.572C159.318 341.572 159.182 341.53 159.087 341.477L158.666 341.33L158.287 340.856C158.192 340.761 158.098 340.625 158.055 340.477L157.908 340.151L158.003 338.972L158.098 338.456L158.245 336.846L158.098 335.71L158.003 335.004L157.908 334.205C157.908 334.015 157.866 333.826 157.908 333.636L158.003 333.352L158.055 332.363L158.098 331.7L158.192 330.658L158.098 330.142L158.15 329.058L158.098 328.448L158.003 327.458L157.866 326.848V325.48C157.866 325.29 157.866 325.006 157.908 324.817L158.098 324.059L158.192 323.449L158.15 322.459L157.961 321.796L157.908 320.902C157.908 320.67 157.961 320.575 158.003 320.333L158.055 320.186L158.192 319.049L158.15 318.386L158.055 317.629C158.003 317.387 158.003 317.113 158.055 316.871L158.15 316.639L158.098 315.882C158.098 315.65 158.15 315.366 158.192 315.124L158.245 314.934L158.192 313.987L158.098 313.419L157.961 312.472C157.961 312.324 157.908 312.23 157.908 312.093L157.961 311.809V310.63L157.908 310.062V308.504C157.908 308.504 158.329 307.936 158.708 307.651C158.855 307.557 159.129 307.504 159.318 307.504H160.497C160.739 307.462 161.065 307.504 161.297 307.557L161.907 307.694L162.476 307.599H163.654L164.223 307.557H164.833L165.401 307.462H166.065L166.959 307.557H167.57L169.275 307.694H170.548L171.064 307.746L171.769 307.651H172.053C172.242 307.651 172.474 307.694 172.663 307.746L173.326 307.936L173.8 307.978L173.779 307.999ZM167.875 316.46L167.78 316.976V317.302L167.633 318.344L167.822 318.818L167.78 319.902L167.917 320.702L168.064 321.744V322.501L168.58 323.207L169.622 323.164L170.327 323.112L170.843 323.017L172.021 322.828L172.442 322.544L173.39 321.596L173.905 320.702V319.565L173.853 319.091L173.811 318.428L173.295 317.344L172.537 316.492L171.969 316.166L170.979 315.934H170.558L169.99 315.797L169.422 315.745L168.527 315.882L167.864 316.45L167.875 316.46Z" fill="#222222"/>
<path d="M186.777 321.796L187.103 320.565L187.24 319.997L187.282 319.334C187.334 319.049 187.376 318.86 187.471 318.628L187.566 318.439L187.945 317.586L188.082 317.071L188.692 315.987L188.881 315.513L189.45 314.524C189.587 314.292 189.871 314.05 190.113 313.861L190.155 313.819L190.481 313.398L191.66 312.166L191.944 311.788L192.702 310.935L192.986 310.703C193.133 310.556 193.312 310.419 193.502 310.325L194.586 309.756L195.291 309.283C195.386 309.188 195.522 309.135 195.67 309.093L196.049 308.956L197.133 308.483L197.417 308.199L198.553 307.778L199.027 307.494L200.49 307.115C200.679 307.073 200.869 307.02 201.058 307.02H201.911L202.1 306.978C202.332 306.925 202.669 306.925 202.9 306.978H203.037L203.226 306.925C203.51 306.883 203.795 306.925 204.079 306.978L204.689 306.925H205.773L206.91 307.073L207.52 307.167L208.657 307.262L208.941 307.304C209.036 307.304 209.173 307.304 209.267 307.357L210.162 307.641L210.583 307.788L211.667 308.02L212.088 308.209L212.793 308.399C213.077 308.493 213.309 308.588 213.593 308.82L213.688 308.914L214.014 309.483C214.203 309.767 214.34 310.093 214.393 310.472V313.208L214.34 313.724L214.203 314.997V315.608L214.109 316.692C214.109 316.692 213.73 317.113 213.403 317.302C213.214 317.397 212.93 317.302 212.74 317.25L212.035 316.966L211.52 316.734L209.867 316.45L208.594 316.26L208.078 316.166L206.941 315.882L206.752 315.934C206.426 315.976 206.142 315.976 205.805 315.882L205.142 315.839H204.721L203.542 316.029L202.879 316.218L201.795 316.502L200.374 317.113L199.995 317.397L199.48 317.965C199.332 318.113 199.238 318.197 199.059 318.344L198.732 318.534L198.122 319.197L197.743 319.67L197.364 320.47L197.08 320.986L196.701 321.933L196.512 322.407L196.417 323.491L196.47 324.006L196.512 324.196C196.564 324.427 196.606 324.712 196.564 324.954V325.143L196.512 325.711L196.796 326.606C196.849 326.743 196.849 326.837 196.849 326.932L196.891 327.406L197.269 328.353L197.501 329.016L197.922 329.911L198.301 330.574L199.059 331.184L199.532 331.51L200.522 332.026L202.227 332.826L202.837 333.015L203.921 333.205L204.489 333.299L204.584 333.257C204.91 333.215 205.247 333.215 205.573 333.299L206.184 333.163L207.078 333.121L207.647 333.163L208.541 333.068L209.015 332.931L210.246 332.784L210.762 332.552L211.941 332.226L212.414 332.079L213.267 331.7C213.267 331.7 213.551 331.794 213.835 331.942C214.309 332.173 214.445 332.7 214.445 333.215V333.689L214.593 334.257L214.635 335.015C214.635 335.204 214.593 335.341 214.593 335.489L214.54 335.962L214.498 337.099L214.593 337.709L214.445 338.941C214.498 339.183 214.445 339.456 214.256 339.793C214.067 340.172 213.782 340.361 213.456 340.551L212.509 341.024C212.319 341.119 212.13 341.161 211.941 341.214L211.52 341.309L210.478 341.498C210.194 341.73 209.867 341.824 209.436 341.877L208.867 341.93L208.204 342.161L207.068 342.256L206.457 342.308H206.173C206.036 342.308 205.889 342.308 205.752 342.256L205.237 342.161L204.721 342.256L204.11 342.214H203.542L203.026 342.161H202.037C201.848 342.161 201.616 342.119 201.427 342.066L201.1 341.972L200.627 341.93H200.343C200.058 341.972 199.732 341.93 199.448 341.835L198.838 341.645L198.322 341.456L197.806 341.267L197.101 340.94L196.628 340.846L195.638 340.33L195.259 340.046L194.27 339.435L193.754 339.014L192.954 338.446L192.439 338.162L191.734 337.593C191.639 337.499 191.502 337.446 191.407 337.309L191.123 336.93L190.555 336.225L190.365 335.994C190.271 335.846 190.134 335.804 190.039 335.615L189.618 334.857L189.292 334.341L188.776 333.542C188.682 333.352 188.545 333.215 188.492 333.026L188.166 332.131L187.934 331.71L187.608 330.626L187.471 330.111L187.145 328.974L186.998 328.595C186.903 328.406 186.808 328.216 186.808 327.932L186.766 327.174L186.713 326.659L186.619 326.185C186.577 325.806 186.577 325.48 186.671 325.143V324.006L186.619 323.764C186.577 323.48 186.577 323.101 186.619 322.817L186.671 322.344L186.808 321.828L186.777 321.796Z" fill="#222222"/>
<path d="M219.897 316.271C219.992 315.987 220.139 315.797 220.276 315.608L220.371 315.461C220.602 315.134 220.886 314.987 221.265 314.798L221.318 314.745L222.265 314.082L222.454 313.987C222.591 313.935 222.739 313.84 222.875 313.798L222.97 313.745C223.349 313.65 223.675 313.608 224.012 313.65H224.202C224.433 313.608 224.717 313.65 224.959 313.703L225.149 313.745H225.664L226.233 313.84C226.517 313.892 226.801 313.935 227.085 314.124L227.98 314.598L228.306 314.829C228.443 314.924 228.59 315.019 228.685 315.155L228.78 315.25C229.064 315.629 229.253 315.955 229.295 316.334V316.387L229.485 317.471V317.66C229.527 317.986 229.485 318.228 229.432 318.513L229.39 318.744L229.337 319.26L229.106 320.302C229.053 320.628 228.874 321.007 228.632 321.291L228.253 321.807C228.117 322.091 227.78 322.28 227.306 322.512L227.212 322.554C227.022 322.649 226.791 322.691 226.601 322.743L225.896 322.838C225.759 322.88 225.612 322.88 225.517 322.88H225.233L225.191 322.933C224.865 323.028 224.528 323.028 224.202 322.933L223.633 322.88H223.118C222.833 322.88 222.507 322.786 222.223 322.649L222.033 322.554L221.139 321.986L221.044 321.891C220.802 321.702 220.571 321.512 220.434 321.281L220.055 320.67V320.628C219.96 320.439 219.865 320.302 219.823 320.06L219.676 319.586C219.634 319.397 219.581 319.113 219.581 318.923V317.692C219.581 317.544 219.634 317.313 219.676 317.176L219.823 316.513L219.918 316.229L219.897 316.271ZM219.992 331.437L220.234 331.016L220.371 330.868C220.655 330.447 220.939 330.205 221.318 330.068L221.739 329.648C221.928 329.5 222.118 329.363 222.307 329.269L222.549 329.132L222.875 329.037C223.16 328.942 223.486 328.89 223.823 328.942H223.917L224.433 328.89L225.043 328.984C225.328 328.942 225.749 328.984 226.128 329.132L226.454 329.269L226.833 329.416C226.927 329.458 227.022 329.458 227.159 329.553L227.39 329.69L227.906 330.016L228.001 330.058C228.232 330.205 228.38 330.29 228.569 330.479C228.895 330.805 229.138 331.184 229.18 331.521V331.563L229.369 332.647L229.411 332.879C229.464 333.121 229.411 333.394 229.369 333.636L229.316 333.773L229.222 334.384L229.18 335.331C229.18 335.52 229.127 335.71 229.085 335.846L228.938 336.225L228.327 336.983L228.138 337.215C228.043 337.309 227.854 337.457 227.717 337.541L227.148 337.867L227.001 337.962C226.769 338.099 226.433 338.151 226.149 338.193L225.443 338.288L225.201 338.341C224.97 338.383 224.728 338.383 224.496 338.341L224.17 338.288L223.602 338.341L223.181 338.288C222.707 338.246 222.328 338.099 222.097 337.909L221.392 337.436C221.255 337.341 221.107 337.246 221.013 337.109L220.918 337.015L220.16 336.067C220.023 335.931 219.971 335.689 219.876 335.362L219.781 335.036C219.729 334.794 219.687 334.615 219.687 334.426V334.278L219.729 333.615L219.634 333.194L219.592 332.952C219.592 332.668 219.592 332.384 219.687 332.058L219.781 331.826C219.823 331.637 219.918 331.542 219.971 331.405L219.992 331.437Z" fill="#222222"/>
<path d="M233.316 316.271C233.411 315.987 233.558 315.797 233.695 315.608L233.79 315.461C234.021 315.134 234.305 314.987 234.684 314.798L234.737 314.745L235.684 314.082L235.873 313.987C236.01 313.935 236.158 313.84 236.294 313.798L236.389 313.745C236.768 313.65 237.094 313.608 237.431 313.65H237.62C237.852 313.608 238.136 313.65 238.378 313.703L238.568 313.745H239.083L239.652 313.84C239.936 313.892 240.22 313.935 240.504 314.124L241.399 314.598L241.725 314.829C241.862 314.924 242.009 315.019 242.104 315.155L242.199 315.25C242.483 315.629 242.672 315.955 242.714 316.334V316.387L242.904 317.471V317.66C242.956 317.986 242.904 318.228 242.862 318.513L242.809 318.744L242.767 319.26L242.535 320.302C242.483 320.628 242.293 321.007 242.062 321.291L241.683 321.807C241.546 322.091 241.209 322.28 240.736 322.512L240.641 322.554C240.452 322.649 240.22 322.691 240.031 322.743L239.325 322.838C239.178 322.88 239.041 322.88 238.947 322.88H238.662L238.62 322.933C238.294 323.028 237.957 323.028 237.631 322.933L237.063 322.88H236.547C236.263 322.88 235.937 322.786 235.652 322.649L235.463 322.554L234.568 321.986L234.474 321.891C234.232 321.702 234 321.512 233.863 321.281L233.484 320.67V320.628C233.39 320.439 233.295 320.302 233.253 320.06L233.105 319.586C233.063 319.397 233.011 319.113 233.011 318.923V317.692C233.011 317.544 233.063 317.313 233.105 317.176L233.253 316.513L233.348 316.229L233.316 316.271ZM233.411 331.437L233.653 331.016L233.79 330.868C234.074 330.447 234.358 330.205 234.737 330.068L235.158 329.648C235.347 329.5 235.537 329.363 235.726 329.269L235.968 329.132L236.294 329.037C236.579 328.942 236.905 328.89 237.242 328.942H237.336L237.852 328.89L238.462 328.984C238.747 328.942 239.168 328.984 239.546 329.132L239.873 329.269L240.252 329.416C240.346 329.458 240.441 329.458 240.578 329.553L240.82 329.69L241.336 330.016L241.43 330.058C241.662 330.205 241.809 330.29 241.999 330.479C242.325 330.805 242.567 331.184 242.609 331.521V331.563L242.798 332.647L242.851 332.879C242.893 333.121 242.851 333.394 242.798 333.636L242.756 333.773L242.662 334.384L242.62 335.331C242.62 335.52 242.567 335.71 242.525 335.846L242.378 336.225L241.767 336.983L241.578 337.215C241.483 337.309 241.293 337.457 241.157 337.541L240.588 337.867L240.452 337.962C240.22 338.099 239.883 338.151 239.599 338.193L238.894 338.288L238.652 338.341C238.42 338.383 238.178 338.383 237.947 338.341L237.62 338.288L237.052 338.341L236.631 338.288C236.158 338.246 235.779 338.099 235.547 337.909L234.842 337.436C234.705 337.341 234.558 337.246 234.463 337.109L234.368 337.015L233.611 336.067C233.474 335.931 233.421 335.689 233.326 335.362L233.232 335.036C233.179 334.794 233.137 334.615 233.137 334.426V334.278L233.179 333.615L233.084 333.194L233.042 332.952C233.042 332.668 233.042 332.384 233.137 332.058L233.232 331.826C233.274 331.637 233.369 331.542 233.421 331.405L233.411 331.437Z" fill="#222222"/>
<path d="M247.545 307.578H247.776L248.724 307.62L249.429 307.578H250.418L250.986 307.525L251.692 307.483C251.881 307.483 252.07 307.483 252.26 307.525L252.586 307.578L253.575 307.672L254.091 307.525L255.27 307.578L255.786 307.62L257.017 307.578H257.491L258.438 307.525C258.575 307.525 258.817 307.525 258.953 307.578H259.143L259.848 307.62L260.364 307.525L260.69 307.483C260.785 307.483 260.974 307.441 261.069 307.441L262.111 307.483L262.584 307.578L263.668 307.483L263.953 307.441C264.047 307.441 264.184 307.483 264.279 307.483L265.363 307.578L266.026 307.62L267.11 307.483H267.72L268.383 307.441C268.668 307.388 268.899 307.441 269.141 307.483H272.214C272.404 307.483 272.593 307.578 272.783 307.767C273.109 308.051 273.298 308.378 273.393 308.714C273.435 308.904 273.435 309.041 273.435 309.283L273.393 310.272L273.435 311.072C273.435 311.303 273.393 311.588 273.34 311.83L273.298 312.072L273.34 313.208L273.246 314.576C273.204 314.997 273.056 315.282 272.825 315.66L272.73 315.808L272.162 315.713H270.32L269.52 315.85C269.383 315.892 269.236 315.85 269.099 315.85H268.678L267.689 315.945L267.215 315.892L266.036 315.797L265.521 316.081L264.858 316.65V317.313L264.952 318.071C264.994 318.355 264.952 318.492 264.9 318.776L264.858 318.965V319.765C264.858 319.954 264.858 320.049 264.805 320.239L264.71 320.66L264.573 321.554L264.763 322.123L264.805 323.07C264.805 323.301 264.858 323.396 264.805 323.638L264.71 323.922L264.858 324.722C264.9 324.954 264.858 325.101 264.858 325.29L264.805 325.575L264.858 326.753V327.269L264.763 328.448C264.858 328.827 264.9 329.205 264.805 329.584L264.9 330.153L264.858 330.626L264.805 331.479C264.805 331.71 264.763 331.952 264.668 332.237L264.616 332.279V333.457L264.668 334.026L264.805 335.204V335.815L264.9 336.709V337.415L264.805 338.688L264.71 339.204L264.616 340.435C264.574 340.677 264.384 341.045 264.1 341.424L264.058 341.477L263.447 341.572H262.405L262.174 341.624C261.89 341.666 261.658 341.666 261.374 341.624L260.858 341.53H260.343L259.206 341.488L258.638 341.53L257.596 341.488L256.985 341.53L255.901 341.488C255.901 341.488 255.007 340.824 254.954 340.403V340.309L254.912 339.362V338.793L254.954 337.615L254.859 337.046L254.912 336.004V335.678L255.007 335.068V333.931L254.859 333.457L254.817 332.51C254.817 332.321 254.859 332.226 254.859 332.089L254.912 331.71L254.817 330.953V330.384L254.859 330.153L254.817 329.49C254.817 329.069 254.859 328.785 255.007 328.448V327.311L254.912 326.795L254.817 325.943V325.427L254.859 325.048L254.817 323.817L254.723 323.343V322.449C254.723 322.259 254.723 322.07 254.775 321.933L254.87 321.649V320.565L254.828 319.997L254.87 318.955L254.828 318.439L254.786 317.397L254.733 316.787L254.217 316.124L253.607 316.071L252.334 315.934L251.86 315.882L250.818 316.029H249.545C249.26 316.029 249.029 315.976 248.787 315.882L248.503 315.787L247.366 315.734C247.177 315.787 246.987 315.734 246.798 315.639C246.471 315.503 246.282 315.261 246.187 314.976C246.05 314.692 246.05 314.366 246.093 314.082L246.187 313.282V312.051L246.093 311.345V310.114L246.145 309.22C246.145 309.083 246.187 308.935 246.24 308.799L246.335 308.378L246.713 307.999C246.956 307.767 247.229 307.62 247.566 307.578H247.545Z" fill="#222222"/>
<path d="M281.56 342.066L281.086 341.877L279.718 341.593L278.866 341.403C278.623 341.351 278.35 341.256 278.16 341.119L278.013 341.024L277.255 340.698C277.066 340.603 276.971 340.603 276.834 340.456L276.592 340.319L275.456 339.614L275.129 339.33C275.035 339.235 274.94 339.193 274.887 339.141L274.224 338.478L273.993 338.288C273.845 338.141 273.803 338.046 273.709 337.962L273.14 337.162L272.856 336.783L272.246 335.699L272.014 335.278L271.635 334.615C271.498 334.383 271.404 334.099 271.351 333.763V333.668L271.162 332.531L271.067 332.11L270.972 331.163V330.405L271.014 330.121L270.972 329.605V328.995C270.877 328.669 270.877 328.237 270.972 327.764L271.014 327.479L271.109 327.058L271.583 325.88C271.583 325.501 271.625 325.175 271.814 324.796L272.098 324.28L272.33 323.764L272.898 322.87L273.277 322.449L273.793 321.649C273.93 321.459 274.077 321.228 274.266 321.081L274.782 320.607C274.929 320.46 275.066 320.375 275.256 320.281L275.403 320.186L276.35 319.576L276.824 319.249L277.718 318.681C277.813 318.628 277.95 318.534 278.045 318.492L278.423 318.344L278.897 318.113C279.223 317.923 279.602 317.829 280.034 317.881L280.886 317.555C280.981 317.513 281.076 317.513 281.212 317.46L281.591 317.418L282.633 317.281L283.107 317.229H284.907L285.706 317.281C285.896 317.281 286.085 317.376 286.222 317.418L286.506 317.513L287.738 317.839L288.401 318.028L289.579 318.449L289.958 318.639L290.948 319.207L291.137 319.302C291.274 319.397 291.421 319.491 291.558 319.628L292.168 320.197L292.495 320.523L293.252 321.323L293.631 321.702L294.294 322.312C294.431 322.449 294.621 322.638 294.715 322.828L294.768 322.922L295.473 324.006L295.568 324.143C295.757 324.427 295.852 324.659 295.947 324.943L296.136 325.743L296.462 326.785C296.504 326.88 296.505 327.069 296.505 327.164L296.557 327.543L296.694 328.058C296.789 328.437 296.789 328.721 296.736 329.1L296.694 329.29L296.736 329.858L296.599 330.374C296.641 330.7 296.599 330.984 296.505 331.416L296.41 331.889L296.273 332.552L296.126 333.542L295.989 334.247L295.757 335.004C295.705 335.194 295.663 335.331 295.61 335.478L295.42 335.804L294.947 336.699C294.894 336.836 294.8 336.888 294.705 337.025L294.568 337.215L293.81 338.204L292.958 339.056C292.821 339.204 292.631 339.341 292.484 339.435L292.158 339.625L291.116 340.193L290.737 340.572L289.937 340.951C289.8 341.045 289.706 341.045 289.558 341.088L289.232 341.182L288.148 341.656L287.58 341.793L286.633 342.035L285.022 342.172H284.507L284.37 342.224C284.086 342.266 283.665 342.266 283.381 342.224V342.172L282.717 342.319L281.865 342.172C281.718 342.129 281.623 342.129 281.539 342.077L281.56 342.066ZM281.465 326.238L280.665 327.132L280.423 327.743L280.002 328.784L280.097 329.353V329.49C280.097 329.679 280.097 329.869 280.055 330.058L280.002 330.479L280.055 330.953L280.244 331.994L280.434 332.563L281.328 333.552L281.707 333.836L282.938 334.215L283.359 334.173L283.549 334.12C283.791 334.026 284.065 334.026 284.307 334.026H284.496L285.201 333.984L286.285 333.605L287.043 332.615L287.085 332.236L287.411 331.816L287.696 330.774L287.601 330.205L287.748 329.69L287.843 329.216L287.696 328.606L287.506 327.522L287.127 327.101L286.559 326.248L286.085 325.922L284.57 325.596L283.907 325.732L283.433 325.596H282.917L281.781 325.88L281.455 326.259L281.465 326.238Z" fill="#222222"/>
<path d="M308.25 341.54L307.682 341.498L306.219 341.73L305.366 341.772C305.177 341.772 304.987 341.73 304.851 341.677L304.43 341.582L303.198 341.54L302.535 341.582L301.451 341.445L300.883 341.54C300.883 341.54 300.083 340.835 299.936 340.456C299.894 340.319 299.936 340.267 299.936 340.13L300.03 339.235V338.572L299.978 337.815C299.978 337.625 299.936 337.394 299.978 337.204L300.072 336.825L300.03 335.646V335.225L299.936 334.089V333.615L299.841 332.479V330.679L299.799 330.205L299.894 329.027L299.936 328.553V327.511L299.841 326.806L299.799 325.575L299.841 324.964L299.936 323.922L300.03 323.407L299.978 322.323L299.936 321.659L300.03 320.618L299.936 320.197L299.841 319.628C299.799 319.397 299.799 319.113 299.841 318.87L299.894 318.681L300.03 318.207L299.978 316.976L300.125 315.745L300.03 314.987V313.566L300.072 313.187L300.125 312.24V311.672L300.072 310.588L299.978 310.019L299.936 309.125V308.704L300.03 308.23L300.167 308.136C300.641 307.757 301.209 307.62 301.777 307.662H302.104L302.619 307.704H305.314L305.829 307.567L306.966 307.472L308.239 307.515C308.239 307.515 309.376 308.272 309.513 308.746V308.883L309.566 309.641C309.566 309.872 309.566 310.114 309.513 310.346L309.471 310.44L309.513 311.714L309.702 312.377V313.366C309.702 313.556 309.702 313.65 309.66 313.84V314.082L309.418 315.124C309.513 315.45 309.471 315.734 309.376 315.976L309.471 317.06L309.418 317.629L309.566 318.576V319.239L309.66 320.47L309.702 320.754C309.702 320.849 309.66 320.944 309.66 321.039L309.566 322.175L309.66 322.691L309.471 323.964L309.608 324.627L309.934 324.869L310.313 324.448L310.692 324.122L311.207 323.322L311.491 322.754L312.102 321.67L312.428 321.291L312.902 320.628C312.997 320.491 313.133 320.344 313.281 320.207L313.512 320.018L314.123 319.165V319.07C314.259 318.786 314.501 318.597 314.733 318.407C315.059 318.123 315.438 318.029 315.912 318.081L317.143 318.039L317.848 317.986L318.89 318.039L319.553 317.944L320.122 317.85H320.785L321.353 317.892L322.342 317.755L322.721 317.797H323.005L323.858 317.944L324.373 317.986C324.794 318.134 325.131 318.365 325.226 318.692L324.942 319.07C324.942 319.07 324.847 319.207 324.805 319.26L324.005 320.154L323.626 320.67L323.11 321.47L322.826 322.038L322.542 322.512C322.405 322.796 322.163 323.028 321.974 323.217L321.648 323.691L321.037 324.491L320.753 325.006L320.279 325.711C320.185 325.901 320.048 326.038 319.901 326.132L319.711 326.28L318.911 327.458L318.722 328.027L318.627 329.069L319.006 329.584L319.574 330.532L320.143 331.616L320.564 332.037L321.079 333.026L321.363 333.499L322.121 334.489L322.363 334.815C322.405 334.91 322.458 335.004 322.5 335.099L322.879 335.899L323.258 336.509L323.774 337.688L324.479 338.825L324.71 339.246L325.226 340.382C325.226 340.382 324.942 340.803 324.615 341.088C324.331 341.372 323.91 341.372 323.531 341.372H323.437L322.868 341.509L321.637 341.414L321.216 341.645H319.943L319.28 341.603L318.238 341.466H317.764L316.491 341.319H316.449C316.07 341.319 315.691 341.224 315.365 341.035L315.322 340.993C315.133 340.846 314.901 340.709 314.754 340.519L314.617 340.33L314.291 339.477L314.007 339.004L312.923 336.93L312.691 336.509L312.312 335.846C312.26 335.699 312.165 335.562 312.123 335.373L312.028 335.047L311.702 334.626C311.46 334.341 311.323 334.015 311.281 333.678L310.713 333.542L310.239 333.92L309.576 334.72L309.197 335.668L309.334 336.088L309.197 337.225V337.741L309.145 338.688L309.197 339.162L309.292 339.919C309.334 340.204 309.292 340.393 309.239 340.677V340.814L308.955 341.14C308.808 341.382 308.576 341.466 308.25 341.519V341.54Z" fill="#222222"/>
<path d="M327.247 351.086L327.394 350.57L327.436 349.623V349.202L327.341 348.213L327.205 347.55L327.11 346.792V346.371L327.152 345.803L327.299 344.719C327.299 344.719 328.004 343.919 328.341 343.824C328.383 343.782 328.436 343.782 328.478 343.782L329.52 343.877H330.088L330.657 343.782H331.362L332.404 343.592L332.919 343.456L333.867 342.887L334.246 342.466L334.572 342.182L334.614 341.193L334.382 340.625L334.056 339.825C334.003 339.635 333.961 339.583 333.909 339.404L333.867 339.077L333.446 338.414C333.351 338.267 333.256 338.13 333.204 337.941L333.161 337.657L332.783 336.52L332.551 336.046L332.309 334.868L332.172 334.447L331.656 333.457L331.372 332.942L330.804 331.805L330.709 331.616C330.615 331.479 330.52 331.289 330.478 331.1L330.288 330.247L329.962 329.826L329.583 328.785L329.446 328.174L329.025 327.185C328.973 327.09 328.931 326.953 328.878 326.806L328.836 326.574L328.415 325.532L328.131 325.206L327.847 324.501C327.794 324.364 327.752 324.217 327.752 324.08L327.657 323.701L327.373 322.659L327.047 322.049L326.668 321.386C326.573 321.196 326.478 320.965 326.436 320.775L326.384 320.586L326.057 319.639L325.921 319.028C325.921 319.028 326.015 318.797 326.152 318.555C326.384 318.081 326.952 317.944 327.52 317.986H327.805L328.415 318.029L329.499 318.123L330.204 318.081L331.383 317.934L332.046 317.892H333.225L334.403 317.986L334.782 317.934C335.203 318.029 335.582 318.313 335.961 318.692L336.056 318.734L336.108 319.207L336.392 320.197C336.435 320.291 336.435 320.481 336.435 320.575L336.487 320.818L336.771 321.575C336.824 321.723 336.919 321.902 336.961 322.091V322.238L337.287 323.133C337.329 323.322 337.424 323.512 337.424 323.743L337.466 323.933L337.708 325.164C337.897 325.448 338.034 325.827 338.034 326.206V326.301L338.182 326.816L338.561 327.953L339.034 329.321L339.318 330.458L339.413 330.784C339.455 330.974 339.455 331.163 339.455 331.352V331.447L339.602 331.921L339.834 332.016L340.023 331.447L340.118 331.163C340.16 331.026 340.213 330.879 340.308 330.689L340.402 330.447L340.634 329.363L340.771 328.132L341.013 327.185C341.055 326.995 341.15 326.859 341.202 326.711L341.297 326.48L341.35 325.964L341.444 325.68C341.444 325.543 341.486 325.396 341.539 325.259L341.676 324.838L342.055 323.754L342.097 323.333L342.423 322.291L342.518 321.628L342.897 320.681L343.044 320.165L343.518 319.028C343.518 318.797 343.707 318.513 343.991 318.271C344.233 318.081 344.465 317.986 344.696 317.944H345.644C345.97 317.944 346.254 318.039 346.538 318.186H347.769L348.432 318.092L349.474 318.039L349.99 317.997L350.464 317.944C350.843 317.902 351.221 317.944 351.453 318.039L352.632 318.186C352.632 318.186 353.337 319.46 352.958 320.449L352.726 321.06L352.4 322.007V322.575L352.021 323.564L351.832 324.175L351.411 325.406L351.221 325.785L350.843 326.869L350.611 327.385L350.19 328.374L349.948 329.037L349.716 329.742C349.664 329.837 349.569 329.984 349.527 330.121L349.295 330.542L348.874 331.679L348.78 332.247L348.496 333.236L348.401 333.615C348.348 333.752 348.254 333.899 348.211 334.036L347.833 334.794L347.506 335.457L347.222 336.541L346.991 337.057L346.517 338.141L346.422 338.656L346.043 339.604L345.759 340.267L345.244 341.309L345.012 341.919L344.728 342.487V342.677C344.686 343.056 344.591 343.287 344.402 343.624L344.023 344.234L343.833 344.803L343.412 345.697L343.276 346.076C343.223 346.213 343.128 346.36 343.033 346.55L342.749 346.929C342.602 347.16 342.465 347.308 342.234 347.497L342.044 347.634L341.476 348.434L341.055 348.949L340.486 349.612C340.392 349.749 340.297 349.802 340.202 349.897L339.823 350.181L338.971 350.844C338.834 350.939 338.739 350.981 338.55 351.075L337.792 351.402L336.519 351.917C336.329 352.012 336.045 352.054 335.856 352.054H335.666L334.624 352.433L334.435 352.528C334.245 352.622 334.056 352.622 333.867 352.665L333.54 352.717C333.214 352.759 332.877 352.759 332.593 352.665L331.93 352.717L331.646 352.665C331.551 352.665 331.414 352.622 331.32 352.622L330.899 352.57L330.004 352.528H329.909C329.72 352.528 329.436 352.528 329.246 352.475L328.352 352.338C328.068 352.286 327.783 352.149 327.647 351.959C327.499 351.77 327.362 351.486 327.32 351.107L327.247 351.086Z" fill="#222222"/>
<path d="M364.198 342.066L363.724 341.877L362.356 341.593L361.504 341.403C361.262 341.351 360.988 341.256 360.799 341.119L360.651 341.024L359.893 340.698C359.704 340.603 359.609 340.603 359.472 340.456L359.23 340.319L358.094 339.614L357.767 339.33C357.673 339.235 357.578 339.193 357.525 339.141L356.862 338.478L356.62 338.288C356.484 338.141 356.431 338.046 356.336 337.962L355.768 337.162L355.484 336.783L354.873 335.699L354.642 335.278L354.263 334.615C354.126 334.383 354.031 334.099 353.979 333.763V333.668L353.789 332.531L353.695 332.11L353.6 331.163V330.405L353.652 330.121L353.6 329.605V328.995C353.505 328.669 353.505 328.237 353.6 327.764L353.652 327.479L353.747 327.058L354.221 325.88C354.221 325.501 354.263 325.175 354.452 324.796L354.736 324.28L354.968 323.764L355.536 322.87L355.915 322.449L356.431 321.649C356.568 321.459 356.715 321.228 356.904 321.081L357.42 320.607C357.568 320.46 357.704 320.375 357.894 320.281L358.041 320.186L358.988 319.576L359.462 319.249L360.357 318.681C360.451 318.628 360.588 318.534 360.683 318.492L361.062 318.344L361.535 318.113C361.862 317.923 362.24 317.829 362.672 317.881L363.524 317.555C363.619 317.513 363.714 317.513 363.851 317.46L364.23 317.418L365.271 317.281L365.745 317.229H367.545L368.345 317.281C368.534 317.281 368.723 317.376 368.86 317.418L369.144 317.513L370.376 317.839L371.039 318.028L372.218 318.449L372.596 318.639L373.586 319.207L373.775 319.302C373.912 319.397 374.059 319.491 374.196 319.628L374.807 320.197L375.133 320.523L375.891 321.323L376.27 321.702L376.933 322.312C377.069 322.449 377.259 322.638 377.353 322.828L377.406 322.922L378.111 324.006L378.206 324.143C378.395 324.427 378.49 324.659 378.585 324.943L378.774 325.743L379.101 326.785C379.143 326.88 379.143 327.069 379.143 327.164L379.195 327.543L379.332 328.058C379.427 328.437 379.427 328.721 379.374 329.1L379.332 329.29L379.374 329.858L379.237 330.374C379.29 330.7 379.237 330.984 379.143 331.416L379.048 331.889L378.911 332.552L378.764 333.542L378.627 334.247L378.395 335.004C378.343 335.194 378.301 335.331 378.248 335.478L378.059 335.804L377.585 336.699C377.532 336.836 377.438 336.888 377.343 337.025L377.206 337.215L376.448 338.204L375.596 339.056C375.459 339.204 375.27 339.341 375.122 339.435L374.796 339.625L373.754 340.193L373.375 340.572L372.575 340.951C372.439 341.045 372.344 341.045 372.197 341.088L371.87 341.182L370.786 341.656L370.218 341.793L369.271 342.035L367.661 342.172H367.145L367.008 342.224C366.724 342.266 366.303 342.266 366.019 342.224V342.172L365.356 342.319L364.503 342.172C364.356 342.129 364.261 342.129 364.177 342.077L364.198 342.066ZM364.103 326.238L363.303 327.132L363.061 327.743L362.64 328.784L362.735 329.353V329.49C362.735 329.679 362.735 329.869 362.682 330.058L362.64 330.479L362.682 330.953L362.872 331.994L363.061 332.563L363.956 333.552L364.335 333.836L365.566 334.215L365.987 334.173L366.177 334.12C366.419 334.026 366.692 334.026 366.934 334.026H367.124L367.829 333.984L368.913 333.605L369.671 332.615L369.713 332.236L370.039 331.816L370.323 330.774L370.228 330.205L370.365 329.69L370.46 329.216L370.313 328.606L370.123 327.522L369.744 327.101L369.176 326.248L368.702 325.922L367.187 325.596L366.524 325.732L366.05 325.596H365.535L364.398 325.88L364.072 326.259L364.103 326.238Z" fill="#222222"/>
<path d="M205.215 385.164L204.195 384.996L203.647 384.911H202.542L201.858 384.996C201.563 385.038 201.258 385.038 201.006 384.954L200.921 384.911L200.501 384.954H199.943C199.859 384.954 199.774 384.911 199.69 384.911L199.438 384.869L198.459 384.911L198.29 384.954C198.038 385.038 197.827 385.08 197.522 385.038L196.975 384.996L196.512 385.122H196.343C196.175 385.164 195.964 385.164 195.786 385.122L195.533 385.08L195.154 385.164L194.133 385.038H193.533L192.681 385.122C192.555 385.122 192.386 385.08 192.26 385.08H192.091L191.449 385.038H191.029L190.86 385.08C190.692 385.122 190.481 385.08 190.313 385.08L189.892 385.038C189.681 385.038 189.418 384.996 189.25 384.911H189.208L188.566 384.996C188.355 385.038 188.05 384.996 187.84 384.954H187.797L186.314 384.911C186.314 384.911 186.187 384.869 185.977 384.827C185.082 384.575 184.745 384.143 184.956 383.933L185.335 383.385C185.377 383.301 185.461 383.217 185.503 383.133L185.756 382.922L186.05 382.28C186.093 382.154 186.177 381.986 186.261 381.859L186.556 381.48L187.198 380.839L187.45 380.333L187.997 379.649L188.376 379.228L188.503 379.018C188.755 378.597 189.05 378.249 189.355 378.165L190.039 377.355L190.376 376.892L190.629 376.471L190.923 376.092L191.218 375.629L191.86 374.945L192.155 374.524L192.797 373.713L193.007 373.292L193.554 372.44L193.891 371.798L194.354 371.03L194.607 370.693L195.08 369.714L195.291 369.241L195.712 368.178L195.796 367.662L195.964 366.851L195.922 366.252L196.007 365.831V365.746C195.964 365.452 195.922 365.283 195.964 364.978V364.936L195.628 364.084L195.375 363.61L194.733 362.968L194.354 362.757L193.502 362.336L192.997 362.168L192.018 362H191.597L191.05 361.873H190.45L189.345 362.042L188.924 362.126L187.776 362.6L187.398 362.726L186.756 362.852L186.335 362.6C185.956 362.389 185.872 361.958 185.829 361.495L185.745 360.979L185.661 360.726C185.619 360.6 185.577 360.432 185.577 360.263V359.8C185.577 359.59 185.577 359.463 185.619 359.242L185.661 359.074L185.619 358.653L185.577 358.137C185.577 357.969 185.577 357.716 185.619 357.537L185.661 357.327V356.306C185.703 355.885 185.872 355.496 186.124 355.159C186.292 354.99 186.503 354.822 186.766 354.696L187.492 354.359L187.661 354.275C187.787 354.233 187.913 354.191 188.04 354.191L188.766 354.022L189.187 353.98C189.271 353.98 189.439 353.938 189.524 353.938L189.944 353.896C190.113 353.896 190.281 353.896 190.45 353.938L190.66 353.98H191.639L192.06 353.854L192.397 353.812C192.523 353.77 192.649 353.77 192.733 353.77H193.028L193.533 353.812L194.512 353.896H194.807C195.017 353.896 195.28 353.896 195.491 353.98L196.091 354.191L196.512 354.148L197.154 354.317C197.364 354.359 197.533 354.443 197.712 354.569L197.88 354.696L198.385 354.78L198.68 354.906C198.68 354.906 198.722 354.906 198.764 354.948L199.101 355.117L200.164 355.717L200.332 355.801C200.501 355.885 200.711 355.969 200.848 356.095L201.353 356.516L201.521 356.643C201.69 356.769 201.9 356.895 202.037 357.064L202.416 357.485L202.626 357.653C202.753 357.779 202.921 357.906 203.005 358.074L203.3 358.548L203.553 359.053L203.889 359.695C203.974 359.863 204.016 359.99 204.058 360.211L204.1 360.295L204.395 361.358L204.563 361.905L204.731 362.757L204.816 362.968C204.9 363.263 204.942 363.515 204.942 363.778L204.9 364.378L204.942 364.883C204.984 365.22 204.942 365.441 204.858 365.778V365.82L204.942 366.241L204.816 367.262L204.689 367.809L204.605 368.662L204.521 368.914C204.479 368.998 204.437 369.083 204.395 369.209L204.058 370.061L203.847 370.567L203.426 371.503L203.384 371.714C203.342 371.882 203.216 371.966 203.132 372.135L202.753 372.735L202.5 373.198L202.248 373.577C202.121 373.787 201.953 373.913 201.742 374.082L201.574 374.208L200.974 375.145L200.89 375.482L200.248 376.418L199.869 376.965L200.037 377.386L200.458 377.597L201.006 377.513L201.984 377.681L202.363 377.639L203.216 377.597H203.721L204.268 377.555L205.247 377.639H205.289C205.373 377.639 206.1 378.239 206.184 378.618C206.226 378.66 206.226 378.702 206.226 378.744L206.31 379.681L206.478 380.144L206.563 381.123V381.459L206.478 382.186L206.394 382.691V383.333C206.394 383.585 206.352 383.838 206.268 384.143L206.226 384.659L205.931 384.869C205.721 385.038 205.458 385.08 205.163 385.122L205.215 385.164Z" fill="#222222"/>
<path d="M220.865 385.332C220.529 385.332 220.223 385.29 219.929 385.164H219.16C219.076 385.164 218.908 385.164 218.824 385.122L218.35 384.996C218.097 384.954 217.887 384.827 217.666 384.701L217.582 384.659L217.119 384.406C216.908 384.28 216.74 384.154 216.603 384.027L216.477 383.901L215.456 383.133L214.951 382.754C214.782 382.586 214.614 382.417 214.488 382.249L214.361 381.996L213.677 381.354L213.467 381.186C213.298 381.06 213.172 380.975 213.046 380.807L212.625 380.302L212.288 379.786L211.783 378.934L211.656 378.723L211.193 377.702L211.067 377.45C211.025 377.323 210.983 377.281 210.941 377.155L210.688 376.218L210.351 375.071L210.225 374.387L210.057 373.24L209.888 372.135L209.846 371.714V370.735L209.804 370.609C209.762 370.356 209.72 370.009 209.762 369.756L209.804 369.672L209.72 369.156L209.762 368.651V368.104C209.762 367.936 209.762 367.767 209.804 367.63L209.846 367.378L209.888 366.652C209.888 366.483 209.93 366.273 209.973 366.094L210.015 365.925L210.183 364.904L210.225 364.61C210.267 364.484 210.309 364.315 210.351 364.189L210.646 363.547L210.815 363.084L211.025 362.231C211.067 362.147 211.109 361.979 211.151 361.895L211.235 361.726L211.362 361.168C211.446 360.916 211.614 360.663 211.783 360.442L211.825 360.358L212.33 359.632L212.372 359.505C212.456 359.295 212.583 359.084 212.793 358.863L213.172 358.527L213.467 358.148L214.109 357.422L214.445 357.085L214.951 356.664C215.119 356.495 215.287 356.411 215.498 356.327L215.75 356.201L216.477 355.78L216.898 355.401L217.666 354.896H217.708C217.876 354.769 218.087 354.643 218.308 354.601L218.866 354.433L219.329 354.306C219.455 354.264 219.497 354.264 219.581 354.264L220.002 354.222H220.044C220.297 354.096 220.592 354.012 220.897 354.012L222.518 353.885H222.77C222.854 353.885 223.023 353.885 223.149 353.927L223.444 353.97L223.96 353.927L224.812 353.97L225.328 354.096L225.791 354.18C226.085 354.222 226.338 354.348 226.643 354.559L227.243 354.685C227.454 354.727 227.706 354.812 227.927 354.98L228.054 355.064L229.032 355.485L229.716 355.864C229.843 355.948 230.011 356.032 230.137 356.159L230.39 356.411L231.2 357.011L231.242 357.053C231.411 357.18 231.579 357.306 231.706 357.527L232.127 358.074L232.211 358.116C232.463 358.327 232.674 358.537 232.853 358.842L233.189 359.484L233.663 360.463L233.747 360.547C233.958 360.758 234.126 361.01 234.21 361.274L234.379 361.779L234.589 362.242L234.842 363.01C234.884 363.178 234.968 363.305 234.968 363.515L235.01 363.642L235.263 364.536L235.389 364.999L235.6 366.02L235.768 366.441L235.894 367.083C235.936 367.294 235.936 367.462 235.936 367.725V367.851L236.021 368.872V369.809L236.063 370.409L236.105 370.788L236.063 371.682C236.063 371.851 236.063 372.019 236.021 372.156L235.768 373.135V373.556L235.389 374.829L235.052 375.808L234.842 376.324L234.631 377.302L234.463 377.86L234.252 378.365C234.168 378.618 233.958 378.828 233.789 379.007L233.705 379.134L233.105 379.986L232.642 380.712C232.558 380.839 232.474 380.965 232.348 381.091L232.053 381.386L231.411 382.112L231.158 382.449C231.074 382.575 230.99 382.617 230.906 382.701L230.611 382.954C230.443 383.122 230.274 383.249 230.106 383.333L229.895 383.417L229.295 383.796C229.169 383.88 229.001 383.964 228.79 384.048L228.622 384.133L228.022 384.469C227.896 384.554 227.769 384.596 227.685 384.638L227.433 384.722L226.538 385.101L225.265 385.48C225.18 385.522 225.054 385.522 224.97 385.522L224.717 385.564L223.781 385.522L223.233 385.48C222.981 385.564 222.686 385.564 222.423 385.522H222.297L221.834 385.48L220.939 385.354H220.897L220.865 385.332ZM220.781 362.747L220.097 363.473L219.539 364.494L219.329 364.831L218.908 365.852L218.739 366.399L218.655 367.336L218.613 367.757L218.655 368.82L218.697 369.283V369.798L218.655 369.967C218.655 370.135 218.571 370.346 218.529 370.514L218.487 370.682L218.529 371.409C218.529 371.577 218.571 371.745 218.529 371.914V371.956L218.655 372.472C218.739 372.724 218.782 372.893 218.782 373.198V373.324L219.16 374.092C219.203 374.219 219.245 374.303 219.287 374.387L219.413 374.861L219.887 375.755L220.265 376.05L220.865 376.65L221.244 376.902L222.686 377.155H223.707L224.517 376.818L224.812 376.65L225.538 375.797L226.222 374.903L226.264 374.566L226.517 373.587L226.685 372.987L226.812 371.924L226.896 371.419L226.938 370.398V369.588C226.938 369.419 226.98 369.209 227.022 369.072L227.106 368.82L226.896 367.588L226.685 366.399L226.643 365.936L226.128 364.789L225.707 364.02C225.665 363.936 225.622 363.81 225.58 363.726L225.496 363.515L224.812 362.705L224.517 362.284L223.076 361.947L222.57 361.989L221.97 362.073L221.118 362.326L220.781 362.747Z" fill="#222222"/>
<path d="M259.059 385.164L258.038 384.996L257.48 384.911H256.375L255.691 384.996C255.396 385.038 255.091 385.038 254.838 384.954L254.754 384.911L254.333 384.954H253.775C253.691 384.954 253.607 384.911 253.523 384.911L253.27 384.869L252.291 384.911L252.123 384.954C251.87 385.038 251.66 385.08 251.355 385.038L250.797 384.996L250.334 385.122H250.165C249.997 385.164 249.787 385.164 249.608 385.122L249.355 385.08L248.976 385.164L247.955 385.038H247.355L246.503 385.122C246.377 385.122 246.208 385.08 246.082 385.08H245.914L245.272 385.038H244.851L244.682 385.08C244.514 385.122 244.303 385.08 244.124 385.08L243.703 385.038C243.493 385.038 243.24 384.996 243.061 384.911H243.019L242.377 384.996C242.167 385.038 241.872 384.996 241.651 384.954H241.609L240.115 384.911C240.115 384.911 239.988 384.869 239.778 384.827C238.883 384.575 238.546 384.143 238.757 383.933L239.136 383.385C239.178 383.301 239.262 383.217 239.304 383.133L239.557 382.922L239.851 382.28C239.894 382.154 239.978 381.986 240.062 381.859L240.357 381.48L240.999 380.839L241.251 380.333L241.809 379.649L242.188 379.228L242.314 379.018C242.567 378.597 242.861 378.249 243.167 378.165L243.851 377.355L244.188 376.892L244.44 376.471L244.735 376.092L245.03 375.629L245.672 374.945L245.966 374.524L246.608 373.713L246.819 373.292L247.376 372.44L247.713 371.798L248.176 371.03L248.429 370.693L248.892 369.714L249.102 369.241L249.523 368.178L249.608 367.662L249.776 366.851L249.734 366.252L249.818 365.831V365.746C249.776 365.452 249.734 365.283 249.776 364.978V364.936L249.439 364.084L249.187 363.61L248.545 362.968L248.166 362.757L247.313 362.336L246.798 362.168L245.819 362H245.398L244.851 361.873H244.251L243.146 362.042L242.725 362.126L241.577 362.6C241.451 362.642 241.325 362.684 241.199 362.726L240.557 362.852C240.557 362.852 240.346 362.726 240.136 362.6C239.757 362.389 239.673 361.958 239.63 361.495L239.546 360.979L239.462 360.726C239.42 360.6 239.378 360.432 239.378 360.263V359.8C239.378 359.59 239.378 359.463 239.42 359.242L239.462 359.074L239.42 358.653L239.378 358.137C239.378 357.969 239.378 357.716 239.42 357.537L239.462 357.327V356.306C239.504 355.885 239.673 355.496 239.925 355.159C240.094 354.99 240.304 354.822 240.567 354.696L241.293 354.359L241.462 354.275C241.588 354.233 241.714 354.191 241.841 354.191L242.567 354.022L242.988 353.98C243.072 353.98 243.24 353.938 243.325 353.938L243.746 353.896C243.914 353.896 244.082 353.896 244.251 353.938L244.461 353.98H245.44L245.861 353.854L246.198 353.812C246.324 353.77 246.45 353.77 246.534 353.77H246.829L247.345 353.812L248.324 353.896H248.618C248.829 353.896 249.081 353.896 249.302 353.98L249.902 354.191L250.323 354.148L250.965 354.317C251.176 354.359 251.344 354.443 251.523 354.569L251.691 354.696L252.197 354.78L252.491 354.906C252.491 354.906 252.533 354.906 252.576 354.948L252.912 355.117L253.975 355.717L254.144 355.801C254.312 355.885 254.523 355.969 254.649 356.095L255.165 356.516L255.333 356.643C255.501 356.769 255.712 356.895 255.838 357.064L256.217 357.485L256.428 357.653C256.554 357.779 256.722 357.906 256.806 358.074L257.101 358.548L257.354 359.053L257.69 359.695C257.775 359.863 257.817 359.99 257.859 360.211L257.901 360.295L258.196 361.358L258.364 361.905L258.532 362.757L258.617 362.968C258.701 363.263 258.743 363.515 258.743 363.778L258.701 364.378L258.743 364.883C258.785 365.22 258.743 365.441 258.659 365.778V365.82L258.743 366.241L258.617 367.262L258.49 367.809L258.406 368.662L258.322 368.914C258.28 368.998 258.238 369.083 258.196 369.209L257.859 370.061L257.648 370.567L257.227 371.503L257.185 371.714C257.143 371.882 257.017 371.966 256.933 372.135L256.554 372.735L256.301 373.198L256.049 373.577C255.922 373.787 255.754 373.913 255.543 374.082L255.375 374.208L254.775 375.145L254.691 375.482L254.049 376.418L253.67 376.965L253.838 377.386L254.259 377.597L254.807 377.513L255.785 377.681L256.164 377.639L257.017 377.597H257.522L258.08 377.555L259.059 377.639H259.101C259.185 377.639 259.911 378.239 259.995 378.618C260.037 378.66 260.037 378.702 260.037 378.744L260.122 379.681L260.29 380.144L260.374 381.123V381.459L260.29 382.186L260.206 382.691V383.333C260.206 383.585 260.164 383.838 260.079 384.143L260.037 384.659L259.743 384.869C259.532 385.038 259.28 385.08 258.974 385.122L259.059 385.164Z" fill="#222222"/>
<path d="M272.488 385.164L271.888 385.038L271.078 384.827C270.993 384.785 270.867 384.743 270.741 384.659L270.404 384.491L269.678 384.238C269.552 384.196 269.425 384.112 269.257 383.985L268.194 383.217L267.815 382.838L267.131 382.154L266.752 381.859L266.026 380.881L265.9 380.67C265.858 380.586 265.773 380.418 265.731 380.291L265.479 379.565L265.184 379.228L264.847 378.292L264.637 377.65L264.384 376.923C264.342 376.755 264.3 376.545 264.3 376.376V376.166L264.258 375.271L264.3 374.808L264.258 374.334L264.3 373.735V373.219L264.426 372.282V372.24C264.342 371.945 264.342 371.598 264.426 371.303L264.552 370.661L264.721 370.24L264.973 369.346L265.1 368.872L265.479 368.02L265.647 367.683L266.026 366.704L266.236 366.231L266.657 365.294L266.952 364.694L267.457 363.926L267.626 363.41L268.173 362.684L268.425 362.347L268.804 361.537L268.846 361.326C268.889 361.158 269.015 360.989 269.141 360.81L269.394 360.432C269.478 360.263 269.562 360.137 269.688 360.053L269.983 359.8L270.667 358.99L270.92 358.653L271.383 358.095C271.467 358.011 271.593 357.885 271.678 357.8L271.972 357.59L272.741 356.864L273.719 356.053L274.098 355.538L274.782 354.938L274.824 354.896C275.077 354.685 275.424 354.559 275.719 354.475H275.761C275.972 354.433 276.224 354.391 276.487 354.391L276.698 354.433L277.761 354.306L278.782 354.264C278.908 354.264 279.034 354.222 279.203 354.264L279.413 354.306H280.855L282.297 354.264L283.233 354.391H283.781L284.97 354.433C285.307 354.391 285.57 354.475 285.738 354.685L285.317 354.896L285.023 355.275L284.212 355.917L283.833 356.338L283.107 356.937L282.812 357.232C282.728 357.316 282.602 357.401 282.518 357.443L281.497 358.043L280.813 358.727L280.392 359.232L279.666 360.042L278.813 360.81L278.561 361.326L278.045 362.01C277.961 362.137 277.792 362.263 277.666 362.389L277.498 362.515L276.856 363.157L276.561 363.62V364.136L277.287 364.22L277.792 364.136L278.171 364.178L279.234 364.305H279.445C279.613 364.305 279.823 364.347 280.002 364.389L280.686 364.599C280.771 364.641 280.897 364.683 280.981 364.726L281.276 364.894L282.297 365.494L283.275 366.178L283.654 366.473L284.423 367.073C284.549 367.199 284.717 367.325 284.802 367.451L285.317 368.093L285.528 368.304C285.696 368.472 285.865 368.683 285.991 368.946L286.285 369.672L286.885 370.693L287.054 371.03C287.096 371.114 287.138 371.282 287.18 371.367L287.433 372.303L287.517 372.766L287.601 373.703C287.643 374.04 287.601 374.387 287.517 374.64V375.197L287.433 375.703L287.475 376.302C287.475 376.513 287.433 376.723 287.348 376.987L287.306 377.155L286.97 378.302L286.675 379.155C286.633 379.323 286.549 379.449 286.464 379.618L286.338 379.828L285.833 380.849V380.891C285.707 381.102 285.496 381.312 285.328 381.491L284.812 381.965L284.349 382.386L283.623 383.112C283.539 383.28 283.286 383.449 282.939 383.659L282.465 383.912L282.002 384.164L280.897 384.585L279.834 384.964L279.234 385.175L278.213 385.427L278.045 385.469C277.876 385.511 277.666 385.553 277.445 385.553H275.656L275.056 385.596L274.635 385.511L273.488 385.385L272.425 385.132L272.488 385.164ZM273.382 371.43L272.741 372.282L272.362 372.703L272.067 373.724V374.145L272.151 374.692V375.113L272.235 375.618L272.488 376.597L273.467 377.786L273.888 377.997L274.909 378.292H275.719C275.845 378.292 275.972 378.292 276.098 378.334L276.35 378.376L276.856 378.207L277.961 377.913L278.771 377.187L279.024 376.766L279.276 376.471L279.529 375.534L279.487 374.987L279.571 374.513L279.487 373.966V373.545L279.234 372.693L278.982 372.229L278.213 371.503L277.792 371.167L276.687 370.872L276.266 370.914H275.414C275.287 370.914 275.161 370.872 275.035 370.872L274.74 370.83L273.761 371.124L273.382 371.419V371.43Z" fill="#222222"/>
<path d="M208.699 278.067L208.489 275.11L208.089 272.173L207.426 269.258L207.289 266.29L206.931 263.343L206.489 260.407L206.752 257.408L206.457 254.461L205.784 251.556V248.578L205.342 245.652L205.405 242.673L204.584 239.779L204.647 236.801L203.963 233.896L203.763 230.939L203.584 227.981L203.342 225.034L202.995 222.098L202.532 219.172L202.132 216.236L202.174 213.258L201.837 210.321L201.869 209.406L201.185 211.195L200.195 213.721L199.427 216.562L198.248 219.846L196.996 222.572L196.165 224.908L195.396 227.887L194.218 230.991L192.891 234.327L191.681 236.327L191.271 239.369L189.46 242.379L186.177 253.65C185.966 254.366 185.04 254.556 184.556 253.987L176.094 244.031L174.853 241.905L172.811 240.284L170.285 237.243L168.59 234.696L166.601 232.265L165.128 229.834L163.276 227.865L161.402 225.455L159.666 223.571L156.877 220.961L155.309 218.015L153.604 216.11L151.783 213.71L149.836 211.553L147.636 208.89L146.279 206.859L144.984 205.817L145.047 208.732L145.773 211.7L145.637 214.752L145.994 217.751L146.258 220.761L146.636 223.761L147.552 226.708L147.384 229.76L147.973 232.738L147.942 235.78L148.099 238.8L148.531 241.8L149.047 244.789L149.015 247.83L149.51 250.819L150.215 253.787L149.941 256.85L150.236 259.86L151.004 262.828L151.204 265.848L151.793 268.827L152.014 271.847L152.383 274.847L152.288 277.888L152.877 280.867L153.214 283.866L153.298 285.582C153.33 286.245 153.888 286.781 154.561 286.792L156.193 286.813L159.15 286.655L162.107 286.55L165.065 286.613L168.022 286.918L170.98 286.939L173.937 287.045L176.894 287.139L179.852 287.202L182.809 287.045L185.766 286.645L188.724 286.971L191.681 286.592L194.628 287.255L197.585 286.96L200.532 286.908L203.479 286.645L206.426 287.087L208.194 286.992C208.878 286.95 209.415 286.403 209.415 285.718V283.908L208.773 280.982L208.678 278.015L208.699 278.067Z" fill="#222222"/>
<path d="M93.5089 132.651L96.1084 132.819L99.1184 132.345L102.128 131.977L105.159 131.83L108.18 131.493L111.232 131.64L114.232 131.051L117.294 131.377L120.283 130.651L123.314 130.556L126.377 130.809L129.397 130.525L132.407 129.946L135.438 129.767L138.459 129.43L141.511 129.567L144.563 129.746L147.594 129.525L150.604 128.967L153.656 128.557L156.75 128.967L159.792 128.378H162.865L165.928 128.167L168.99 127.894L172.053 127.557L175.126 127.441L178.189 127.294L181.283 127.715L184.345 127.441L187.387 126.789L190.46 126.725L193.533 126.578L196.628 126.799L199.68 126.262L202.742 126.02L205.836 126.199L208.889 125.684L211.951 125.326L215.056 125.778L218.118 125.452L221.181 125.168L224.275 125.399L226.78 124.978C227.054 124.936 227.275 125.189 227.191 125.441L226.433 127.767L225.359 130.567L223.991 133.261L223.16 136.145L221.918 138.881L221.181 141.807L220.023 144.575L218.655 147.269L218.024 150.237L216.866 153.005L215.75 155.783L214.603 158.551L213.509 161.351L212.509 164.182L211.257 166.918L210.825 169.949L209.373 172.612L208.31 175.422L207.026 178.148L206.3 181.074L205.016 183.8L204.153 186.683L203.216 189.525L201.669 192.156L200.911 195.071L199.585 197.776L199.101 200.786L197.775 203.501L196.701 206.301L195.617 209.1L194.533 211.9L193.744 214.805L192.723 217.625L191.46 220.362L190.45 223.193L189.692 226.118L188.629 228.928L187.524 231.717L185.935 234.338L185.524 237.39L183.946 240.021L183.198 242.579C183.135 242.779 182.872 242.831 182.735 242.673L181.009 240.642L179.462 238.011L177.031 236.085L175.095 233.759L173.421 231.233L171.506 228.897L169.916 226.297L167.833 224.087L165.98 221.698L163.928 219.467L161.697 217.383L160.255 214.668L158.234 212.405L156.403 209.995L154.372 207.743L152.446 205.417L150.762 202.891L148.352 200.933L146.678 198.397L144.721 196.092L142.858 193.703L141.09 191.24L138.711 189.272L136.996 186.767L135.102 184.41L133.533 181.8L131.386 179.653L129.208 177.527L127.24 175.233L125.324 172.886L123.409 170.549L122.009 167.802L120.052 165.487L117.778 163.424L116.263 160.762L114.305 158.457L112.285 156.194L110.232 153.963L108.496 151.479L106.201 149.437L104.875 146.627L102.634 144.543L101.034 141.944L98.7711 139.87L96.6662 137.671L95.2454 134.913L93.3089 133.166C93.109 132.987 93.2563 132.672 93.5194 132.682L93.5089 132.651Z" fill="#EA5520"/>
<path d="M332.667 274.205L332.804 271.321C332.804 271.321 332.804 271.289 332.804 271.268L332.688 268.311L332.656 265.322L332.698 262.333V259.344L332.74 256.408C332.74 256.376 332.74 256.334 332.74 256.303L332.246 253.461C332.246 253.461 332.235 253.366 332.246 253.314L332.509 250.419C332.509 250.419 332.509 250.388 332.509 250.377L332.551 247.462C332.551 247.462 332.551 247.409 332.551 247.378L332.162 244.494C332.162 244.494 332.162 244.42 332.162 244.389L332.298 241.495C332.298 241.495 332.298 241.442 332.298 241.41L332.014 238.527C332.014 238.527 332.014 238.453 332.014 238.421L332.277 235.517C332.277 235.517 332.277 235.475 332.277 235.454L332.235 232.496L332.067 229.539C332.067 229.539 332.067 229.507 332.067 229.486L331.635 226.613C331.635 226.613 331.635 226.518 331.635 226.466L331.962 223.603C331.962 223.603 331.962 223.54 331.962 223.498L331.772 220.561L331.551 217.657C331.551 217.657 331.551 217.562 331.551 217.509L332.077 214.668C332.077 214.668 332.088 214.563 332.077 214.51L331.825 211.605L331.414 208.7C331.414 208.7 331.414 208.616 331.414 208.564L331.688 205.68C331.688 205.68 331.688 205.627 331.688 205.596L331.551 202.68C331.551 202.68 331.551 202.638 331.551 202.628L331.13 199.755C331.13 199.755 331.13 199.66 331.13 199.607L331.446 196.724C331.446 196.724 331.446 196.671 331.446 196.65L331.404 194.545C331.404 194.219 331.12 193.956 330.783 193.977L329.446 194.029C329.446 194.029 329.394 194.029 329.373 194.029L326.236 194.535C326.236 194.535 326.163 194.535 326.121 194.535L322.447 194.419L320.521 194.324C320.458 194.324 320.385 194.324 320.322 194.345L317.469 195.166C317.406 195.187 317.333 195.198 317.259 195.187L313.575 194.934C313.575 194.934 313.533 194.934 313.523 194.934L310.418 195.008C310.418 195.008 310.365 195.008 310.334 195.008L307.776 194.703C307.776 194.703 307.671 194.703 307.618 194.703L305.145 195.061C305.145 195.061 305.093 195.061 305.072 195.061L301.588 195.145L298.788 195.092C298.788 195.092 298.746 195.092 298.725 195.092L296.221 195.324L293.021 195.776C293.021 195.776 292.968 195.776 292.947 195.776L289.695 195.84L286.622 196.018C286.622 196.018 286.601 196.018 286.58 196.018H283.56C283.56 196.018 283.539 196.018 283.528 196.018L277.14 196.345C277.14 196.345 277.066 196.345 277.024 196.345L274.203 195.966C274.203 195.966 274.119 195.966 274.067 195.966L271.972 196.145C271.972 196.145 271.951 196.145 271.941 196.145L270.551 196.345C270.257 196.387 270.046 196.629 270.046 196.924V198.06L270.109 201.007C270.109 201.028 270.109 201.039 270.109 201.06L270.436 204.006L270.73 206.911C270.73 206.911 270.73 207.006 270.73 207.059L270.299 209.911C270.299 209.911 270.299 209.963 270.299 209.995L270.267 212.9C270.267 212.9 270.267 212.931 270.267 212.942L270.015 215.815C270.015 215.868 270.015 215.92 270.015 215.973L270.572 218.793C270.572 218.793 270.583 218.888 270.572 218.941L270.383 221.835L270.309 224.803L270.362 227.739C270.362 227.739 270.362 227.792 270.362 227.813L270.057 230.654C270.057 230.718 270.057 230.77 270.057 230.833L270.646 233.633C270.657 233.685 270.657 233.749 270.646 233.812L270.351 236.664C270.351 236.664 270.351 236.706 270.351 236.727V239.674L270.509 242.621C270.509 242.642 270.509 242.652 270.509 242.673L270.393 245.599C270.393 245.599 270.393 245.631 270.393 245.641L270.52 248.525C270.52 248.525 270.52 248.62 270.509 248.662L269.941 251.472C269.93 251.535 269.93 251.598 269.941 251.661L270.33 254.513C270.33 254.513 270.33 254.545 270.33 254.555L270.509 257.481C270.509 257.481 270.509 257.513 270.509 257.534L270.436 260.449C270.436 260.449 270.436 260.481 270.436 260.502L270.636 263.386C270.636 263.386 270.636 263.47 270.636 263.512L270.225 266.385C270.225 266.385 270.225 266.438 270.225 266.469V269.374C270.225 269.374 270.225 269.416 270.225 269.427L269.93 272.342C269.93 272.342 269.93 272.384 269.93 272.405L269.951 275.289C269.951 275.289 269.951 275.373 269.962 275.404L270.583 278.214C270.593 278.288 270.604 278.362 270.583 278.425L270.13 281.246C270.13 281.246 270.13 281.298 270.13 281.33L270.099 284.224C270.099 284.224 270.099 284.266 270.099 284.287L270.33 286.687C270.351 286.939 270.541 287.15 270.804 287.202L273.14 287.686C273.214 287.697 273.298 287.708 273.372 287.686L276.171 287.15C276.256 287.139 276.329 287.139 276.413 287.15L279.234 287.76C279.234 287.76 279.297 287.771 279.329 287.771L282.286 287.918L285.254 288.023C285.254 288.023 285.296 288.023 285.317 288.023L288.275 287.813C288.275 287.813 288.306 287.813 288.327 287.813L291.285 287.855C291.285 287.855 291.316 287.855 291.337 287.855L294.284 288.16C294.284 288.16 294.316 288.16 294.337 288.16L297.294 288.213C297.294 288.213 297.326 288.213 297.347 288.213L300.304 288.034C300.304 288.034 300.346 288.034 300.367 288.034L303.335 288.16L306.335 288.276L309.313 288.392C309.313 288.392 309.345 288.392 309.366 288.392L312.239 288.76C312.291 288.76 312.355 288.76 312.407 288.76L315.259 288.297C315.312 288.297 315.375 288.297 315.428 288.297L318.269 288.655C318.269 288.655 318.343 288.655 318.385 288.655L321.248 288.455C321.3 288.455 321.353 288.455 321.406 288.455L324.247 289.034C324.247 289.034 324.331 289.044 324.373 289.044L327.31 289.013L330.278 288.907C330.278 288.907 330.33 288.907 330.362 288.907L332.593 289.139C332.972 289.181 333.288 288.855 333.246 288.486L332.951 286.266C332.951 286.266 332.951 286.192 332.951 286.15L333.13 283.235C333.13 283.235 333.13 283.203 333.13 283.193L333.077 280.267C333.077 280.267 333.077 280.214 333.077 280.193L333.414 277.341C333.414 277.278 333.414 277.204 333.403 277.141L332.73 274.352C332.719 274.299 332.709 274.247 332.719 274.184L332.667 274.205Z" fill="#EA5520"/>
<path d="M231.927 132.135L231.769 134.377L231.927 137.397L231.716 140.418L231.59 143.428L231.558 146.448L232.242 149.469L231.685 152.489L231.948 155.51L231.706 158.53L232.284 161.551V164.571L231.842 167.592L231.948 170.612L232.274 173.633L231.948 176.653L231.642 179.674L232.232 182.694L231.685 185.715L231.506 188.746L231.727 190.914C231.779 191.461 232.232 191.872 232.79 191.903L234.947 191.988L237.968 191.756L240.978 191.167L244.019 191.461L247.05 191.356L250.081 191.461L253.102 191.251L256.133 191.356L259.153 191.261L262.174 191.114L265.184 190.43L268.225 190.777L271.235 190.335L274.256 190.072L277.298 190.483L280.329 190.335L283.349 190.177H286.38L289.401 190.009L292.432 189.956L295.452 189.525L298.473 189.251L301.504 189.304L304.535 189.23L307.555 188.799L310.597 189.167L313.628 189.093L316.67 189.304L319.669 188.441L322.7 188.599L325.742 188.693L328.752 188.209L331.783 188.083L334.824 188.367L337.845 187.915L340.876 187.841L343.917 188.094L346.938 187.715L349.969 187.452L353.021 187.925L356.042 187.357L359.073 187.178H362.114L365.166 187.536L367.513 187.209C367.913 187.157 368.218 186.841 368.271 186.452L368.555 184.21L368.85 181.284L369.166 178.358L368.755 175.391L368.902 172.454L369.271 169.539V166.592L369.46 163.656L370.397 160.772L369.808 157.783L370.334 154.868L370.271 151.91L370.755 148.995V146.048L371.544 143.154L371.313 140.186L371.597 137.25L371.818 134.314L371.965 132.03C371.986 131.64 371.691 131.293 371.292 131.261L368.923 131.04L365.882 131.209L362.84 131.64L359.799 130.967L356.757 131.409L353.716 131.198L350.674 131.756L347.632 131.64L344.591 131.409L341.549 131.735L338.508 131.514L335.466 131.577L332.425 131.63L329.383 131.114L326.342 131.083L323.3 131.451L320.258 131.735L317.217 131.788L314.175 131.388L311.134 130.998L308.092 131.588L305.051 131.693L302.009 131.314L298.967 131.061L295.926 131.472L292.884 131.125L289.843 131.482L286.801 131.188L283.76 131.482L280.718 131.525L277.676 131.567L274.635 131.777L271.593 131.43L268.552 131.061L265.51 131.767L262.458 131.546L259.416 131.093L256.364 131.409L253.312 131.135L250.26 131.04L247.219 131.482L244.167 131.619L241.114 130.998L238.062 131.388L235 131.188L232.726 131.388C232.327 131.419 232.011 131.746 231.979 132.135H231.927Z" fill="#222222"/>
</g>
<defs>
<clipPath id="clip0_84_27">
<rect width="358" height="358" fill="white" transform="translate(55 62)"/>
</clipPath>
</defs>
</svg>
