<svg width="464" height="150" viewBox="0 0 464 150" fill="none" xmlns="http://www.w3.org/2000/svg">
<path d="M0 28C0 12.536 12.536 0 28 0H436C451.464 0 464 12.536 464 28V121.143C464 136.607 451.464 149.143 436 149.143H28C12.536 149.143 0 136.607 0 121.143V28Z" fill="white"/>
<path d="M42.9952 37.681H27.2159L31.899 31.7153C34.0466 28.971 35.8662 26.3163 35.8662 24.2581C35.8662 22.4982 34.5537 21.4542 32.406 21.4542C30.7058 21.4542 29.0951 22.1105 28.4687 22.4684V16.7413C29.1547 16.3535 31.0041 15.757 33.3009 15.757C38.7894 15.757 42.1003 19.0679 42.1003 23.8107C42.1003 27.3006 39.8632 30.015 38.0436 32.461H42.9952V37.681ZM54.519 38.1284C48.792 38.1284 45.2424 33.0874 45.2424 26.9427C45.2424 20.798 48.792 15.757 54.519 15.757C60.2461 15.757 63.7957 20.798 63.7957 26.9427C63.7957 33.0874 60.2461 38.1284 54.519 38.1284ZM54.519 21.4542C52.5205 21.4542 51.5362 23.6914 51.5362 26.9427C51.5362 30.194 52.5205 32.4311 54.519 32.4311C56.5176 32.4311 57.5019 30.194 57.5019 26.9427C57.5019 23.6914 56.5176 21.4542 54.519 21.4542ZM80.7761 37.681H64.9968L69.6799 31.7153C71.8275 28.971 73.6471 26.3163 73.6471 24.2581C73.6471 22.4982 72.3346 21.4542 70.187 21.4542C68.4867 21.4542 66.876 22.1105 66.2496 22.4684V16.7413C66.9356 16.3535 68.785 15.757 71.0818 15.757C76.5703 15.757 79.8812 19.0679 79.8812 23.8107C79.8812 27.3006 77.6441 30.015 75.8246 32.461H80.7761V37.681ZM91.6964 38.1284C86.9835 38.1284 83.5234 34.7279 83.5234 30.1045C83.5234 24.2879 88.2959 18.6503 91.5472 16.2044H99.1237C96.2303 18.2924 93.7247 20.7383 91.8754 23.1545C91.9947 23.1545 92.4421 23.065 92.8 23.065C97.1848 23.065 100.048 26.6742 100.048 30.4028C100.048 34.8473 96.4988 38.1284 91.6964 38.1284ZM91.6964 27.6586C90.1155 27.6586 88.9223 28.8219 88.9223 30.4028C88.9223 31.9837 90.1155 33.1769 91.6964 33.1769C93.2773 33.1769 94.4704 31.9837 94.4704 30.4028C94.4704 28.8219 93.2773 27.6586 91.6964 27.6586Z" fill="#222222"/>
<path d="M28.0886 47.2616H44.174V88.6238H33.6611V56.1085H28.0886V47.2616ZM51.2584 47.2616H67.3438V88.6238H56.8308V56.1085H51.2584V47.2616ZM75.9793 84.1429C75.9793 80.8684 78.1049 78.8577 81.4943 78.8577C84.8837 78.8577 87.0092 80.8684 87.0092 84.1429C87.0092 87.4174 84.8837 89.4281 81.4943 89.4281C78.1049 89.4281 75.9793 87.4174 75.9793 84.1429ZM93.3666 58.234V48.5254C94.9177 47.5488 98.422 46.4573 102.673 46.4573C112.669 46.4573 118.816 52.6042 118.816 61.3937C118.816 68.5172 113.933 74.147 109.509 79.7769H120.597V88.6238H91.0113C98.1348 79.9492 105.373 72.0215 107.441 65.415C108.016 63.8639 108.188 62.4277 108.016 61.1064C107.729 57.9468 105.201 56.051 101.237 56.051C97.905 56.051 94.8028 57.3149 93.3666 58.234ZM138.132 88.6238H127.275L140.89 56.1085H125.321V47.2616H154.849L138.132 88.6238Z" fill="#222222"/>
<path d="M170.951 75.4926H164.803V78.6942H169.976V82.1742H164.803V88.6238H160.557V71.9198H170.951V75.4926ZM174.06 71.9198H180.139C184.129 71.9198 186.89 73.8454 186.89 77.6038C186.89 80.0166 185.66 81.6174 183.827 82.4294L187.191 88.6238H182.76L180.069 83.1254H178.213V88.6238H174.06V71.9198ZM180.324 75.4926H178.213V79.7382H180.347C181.623 79.7382 182.598 79.135 182.598 77.6038C182.598 76.1422 181.6 75.4926 180.324 75.4926ZM194.573 88.6238H190.327V71.9198H194.573V88.6238Z" fill="#222222"/>
<path d="M238.915 68.1233L224 80.0833V74.1995H209.086V62.0471H224V56.1643L238.915 68.1233Z" fill="#222222"/>
<path d="M251.641 47.2616H267.727V88.6238H257.214V56.1085H251.641V47.2616ZM274.811 47.2616H290.896V88.6238H280.384V56.1085H274.811V47.2616ZM299.532 84.1429C299.532 80.8684 301.658 78.8577 305.047 78.8577C308.436 78.8577 310.562 80.8684 310.562 84.1429C310.562 87.4174 308.436 89.4281 305.047 89.4281C301.658 89.4281 299.532 87.4174 299.532 84.1429ZM316.919 58.234V48.5254C318.47 47.5488 321.975 46.4573 326.226 46.4573C336.222 46.4573 342.369 52.6042 342.369 61.3937C342.369 68.5172 337.486 74.147 333.062 79.7769H344.15V88.6238H314.564C321.688 79.9492 328.926 72.0215 330.994 65.415C331.569 63.8639 331.741 62.4277 331.569 61.1064C331.281 57.9468 328.754 56.051 324.79 56.051C321.458 56.051 318.356 57.3149 316.919 58.234ZM363.064 75.0662C354.734 75.0662 349.161 68.2874 349.161 61.049C349.161 52.6616 355.825 46.3998 364.845 46.3998C373.692 46.3998 380.183 52.834 380.183 61.566C380.183 72.5385 370.877 83.7408 364.442 88.6238H351.517C357.491 84.2578 362.374 79.145 365.764 74.4917C365.362 74.7215 364.213 75.0662 363.064 75.0662ZM364.845 54.8446C361.283 54.8446 358.64 57.4872 358.64 61.049C358.64 64.6107 361.283 67.2533 364.845 67.2533C368.406 67.2533 371.049 64.6107 371.049 61.1064C371.049 57.4872 368.406 54.8446 364.845 54.8446Z" fill="#222222"/>
<path d="M392.587 88.9486C390.685 88.9486 388.783 88.5774 387.53 88.0438V83.9606C388.713 84.587 390.128 85.051 391.474 85.167C391.938 85.2134 392.379 85.2134 392.796 85.1902C394.165 85.0974 394.931 84.7262 394.931 84.0302C394.931 83.1486 393.887 82.7078 391.845 81.9422C389.038 80.875 387.228 79.715 387.228 76.6526C387.228 73.5902 389.757 71.595 393.562 71.595C395.232 71.595 396.903 71.9198 398.016 72.3838V76.3046C397.019 75.6782 395.441 75.2606 393.91 75.2606C392.379 75.2606 391.404 75.7942 391.404 76.6294C391.404 77.4182 392.379 77.9518 394.327 78.7406C397.135 79.8542 399.06 81.0374 399.06 84.007C399.06 87.0926 396.74 88.9486 392.587 88.9486ZM416.517 71.9198V82.4294C416.517 86.3502 413.849 88.9486 409.255 88.9486C404.685 88.9486 401.994 86.3502 401.994 82.4294V71.9198H406.239V81.9654C406.239 83.9374 407.283 85.0742 409.255 85.0742C411.227 85.0742 412.248 83.9374 412.248 81.9654V71.9198H416.517ZM434.73 88.8558H434.567L426.007 81.3158L424.661 80.2022V88.6238H420.508V71.6878H420.694L429.185 79.2046C429.649 79.5758 430.09 79.9934 430.554 80.3414V71.9198H434.73V88.8558Z" fill="#222222"/>
<path d="M236.043 132.455C234.762 132.455 233.563 132.269 232.445 131.896C231.327 131.507 230.339 130.948 229.48 130.219C228.638 129.474 227.981 128.574 227.512 127.521C227.042 126.452 226.807 125.245 226.807 123.9C226.807 122.636 227.034 121.445 227.487 120.327C227.957 119.209 228.605 118.229 229.432 117.386C230.274 116.544 231.263 115.887 232.397 115.417C233.531 114.931 234.779 114.688 236.14 114.688C237.258 114.688 238.319 114.891 239.324 115.296C240.344 115.701 241.236 116.268 241.997 116.997C242.775 117.726 243.383 118.577 243.82 119.549C244.274 120.505 244.501 121.542 244.501 122.66C244.501 123.535 244.306 124.378 243.917 125.188C243.545 125.982 242.945 126.63 242.119 127.132C241.309 127.635 240.239 127.886 238.91 127.886C237.857 127.886 237.152 127.61 236.796 127.059C236.115 127.61 235.33 127.886 234.438 127.886C233.855 127.886 233.304 127.78 232.786 127.57C232.267 127.359 231.846 127.011 231.522 126.525C231.214 126.039 231.06 125.39 231.06 124.58C231.06 123.446 231.279 122.482 231.716 121.688C232.154 120.894 232.737 120.286 233.466 119.865C234.212 119.428 235.022 119.209 235.897 119.209C236.674 119.209 237.323 119.492 237.841 120.06L237.963 119.744C238.027 119.582 238.165 119.46 238.376 119.379C238.586 119.282 238.838 119.233 239.129 119.233C239.469 119.233 239.704 119.387 239.834 119.695C239.98 119.987 239.988 120.416 239.858 120.983L238.959 125.237C238.862 125.674 239.121 125.893 239.737 125.893C240.304 125.893 240.766 125.739 241.122 125.431C241.479 125.107 241.746 124.702 241.924 124.216C242.103 123.713 242.192 123.195 242.192 122.66C242.192 121.558 241.94 120.57 241.438 119.695C240.936 118.82 240.231 118.131 239.324 117.629C238.416 117.111 237.355 116.851 236.14 116.851C234.73 116.851 233.507 117.151 232.47 117.751C231.433 118.334 230.631 119.16 230.064 120.23C229.513 121.283 229.237 122.506 229.237 123.9C229.237 125.309 229.521 126.492 230.088 127.448C230.655 128.404 231.449 129.133 232.47 129.636C233.507 130.122 234.698 130.365 236.043 130.365C237.031 130.365 237.882 130.259 238.595 130.049C239.324 129.822 239.972 129.482 240.539 129.028C240.944 128.704 241.292 128.501 241.584 128.42C241.876 128.323 242.143 128.388 242.386 128.615C242.613 128.826 242.718 129.077 242.702 129.368C242.702 129.644 242.54 129.927 242.216 130.219C241.471 130.9 240.571 131.442 239.518 131.847C238.481 132.252 237.323 132.455 236.043 132.455ZM234.803 125.723C235.419 125.723 235.897 125.561 236.237 125.237C236.593 124.912 236.869 124.329 237.063 123.487L237.306 121.834C237.112 121.542 236.901 121.356 236.674 121.275C236.448 121.178 236.221 121.129 235.994 121.129C235.621 121.129 235.249 121.259 234.876 121.518C234.503 121.761 234.195 122.117 233.952 122.587C233.709 123.057 233.588 123.632 233.588 124.313C233.588 124.864 233.701 125.237 233.928 125.431C234.155 125.625 234.447 125.723 234.803 125.723ZM256.481 134.302C256.012 134.302 255.607 134.14 255.266 133.816C254.926 133.508 254.756 133.095 254.756 132.577V128.493C254.189 129.109 253.516 129.733 252.739 130.365C251.977 130.981 251.183 131.556 250.357 132.09C249.547 132.609 248.777 133.038 248.048 133.379C247.545 133.605 247.067 133.654 246.614 133.524C246.16 133.395 245.812 133.095 245.569 132.625C245.342 132.155 245.318 131.71 245.496 131.288C245.674 130.867 245.974 130.567 246.395 130.389C247.011 130.13 247.659 129.806 248.339 129.417C249.02 129.028 249.684 128.599 250.332 128.129C250.997 127.643 251.588 127.157 252.107 126.67C251.021 126.622 250.178 126.468 249.579 126.209C248.996 125.933 248.591 125.471 248.364 124.823C248.153 124.159 248.048 123.244 248.048 122.077C248.048 121.121 248.113 120.343 248.242 119.744C248.388 119.144 248.639 118.682 248.996 118.358C249.352 118.018 249.854 117.783 250.503 117.653C251.151 117.524 251.977 117.459 252.982 117.459H254.756V116.462H246.808C246.387 116.462 246.055 116.325 245.812 116.049C245.569 115.774 245.447 115.45 245.447 115.077C245.447 114.704 245.569 114.388 245.812 114.129C246.055 113.854 246.387 113.716 246.808 113.716H254.756V113.036C254.756 112.517 254.926 112.104 255.266 111.796C255.607 111.472 256.012 111.31 256.481 111.31C256.951 111.31 257.356 111.472 257.697 111.796C258.037 112.104 258.207 112.517 258.207 113.036V113.716H266.106C266.527 113.716 266.86 113.854 267.103 114.129C267.346 114.388 267.467 114.704 267.467 115.077C267.467 115.45 267.346 115.774 267.103 116.049C266.86 116.325 266.527 116.462 266.106 116.462H258.207V117.459H260.054C261.059 117.459 261.877 117.524 262.509 117.653C263.157 117.783 263.66 118.018 264.016 118.358C264.372 118.682 264.615 119.144 264.745 119.744C264.891 120.343 264.964 121.121 264.964 122.077C264.964 123.244 264.85 124.159 264.624 124.823C264.413 125.471 264.016 125.933 263.433 126.209C262.866 126.468 262.031 126.622 260.929 126.67C261.707 127.416 262.606 128.129 263.627 128.809C264.664 129.474 265.644 130 266.568 130.389C266.989 130.551 267.297 130.843 267.492 131.264C267.702 131.685 267.694 132.123 267.467 132.577C267.224 133.046 266.876 133.354 266.422 133.5C265.968 133.646 265.482 133.605 264.964 133.379C264.235 133.038 263.449 132.601 262.606 132.066C261.78 131.515 260.978 130.924 260.2 130.292C259.439 129.66 258.774 129.028 258.207 128.396V132.577C258.207 133.095 258.037 133.508 257.697 133.816C257.356 134.14 256.951 134.302 256.481 134.302ZM258.207 120.959H261.488C261.456 120.521 261.334 120.246 261.124 120.133C260.929 120.003 260.548 119.938 259.981 119.938H258.207V120.959ZM251.548 120.959H254.756V119.938H253.055C252.504 119.938 252.123 120.003 251.912 120.133C251.702 120.246 251.58 120.521 251.548 120.959ZM258.207 124.191H259.981C260.532 124.191 260.905 124.135 261.099 124.021C261.31 123.892 261.44 123.624 261.488 123.219H258.207V124.191ZM253.055 124.191H254.756V123.219H251.548C251.596 123.624 251.718 123.892 251.912 124.021C252.123 124.135 252.504 124.191 253.055 124.191ZM277.335 134.424C276.768 134.424 276.298 134.27 275.925 133.962C275.569 133.654 275.374 133.225 275.342 132.674C275.326 132.188 275.48 131.766 275.804 131.41C276.144 131.053 276.614 130.851 277.213 130.802C277.538 130.77 277.748 130.689 277.845 130.559C277.959 130.43 278.016 130.219 278.016 129.927V125.893H276.411C275.261 125.893 274.354 125.763 273.689 125.504C273.025 125.245 272.555 124.831 272.28 124.264C272.004 123.681 271.866 122.911 271.866 121.955C271.866 120.999 272.004 120.238 272.28 119.671C272.555 119.087 273.025 118.666 273.689 118.407C274.354 118.148 275.261 118.018 276.411 118.018H283.144C284.31 118.018 285.218 118.148 285.866 118.407C286.53 118.666 287 119.087 287.276 119.671C287.551 120.238 287.689 120.999 287.689 121.955C287.689 122.911 287.551 123.681 287.276 124.264C287 124.831 286.53 125.245 285.866 125.504C285.218 125.763 284.31 125.893 283.144 125.893H281.613V130.268C281.613 131.791 281.248 132.86 280.519 133.476C279.79 134.108 278.728 134.424 277.335 134.424ZM270.238 116.997C269.817 116.997 269.452 116.843 269.144 116.535C268.836 116.228 268.682 115.855 268.682 115.417C268.682 114.98 268.836 114.615 269.144 114.324C269.452 114.016 269.817 113.862 270.238 113.862H277.87V113.157C277.87 112.558 278.056 112.088 278.429 111.747C278.818 111.391 279.279 111.213 279.814 111.213C280.349 111.213 280.802 111.391 281.175 111.747C281.548 112.088 281.734 112.558 281.734 113.157V113.862H289.317C289.739 113.862 290.103 114.016 290.411 114.324C290.719 114.615 290.873 114.98 290.873 115.417C290.873 115.855 290.719 116.228 290.411 116.535C290.103 116.843 289.739 116.997 289.317 116.997H270.238ZM272.109 132.868C271.672 133.144 271.194 133.249 270.675 133.184C270.157 133.136 269.736 132.893 269.412 132.455C269.136 132.066 269.031 131.637 269.096 131.167C269.16 130.681 269.42 130.292 269.873 130C270.246 129.757 270.7 129.441 271.234 129.052C271.769 128.663 272.296 128.267 272.814 127.861C273.333 127.456 273.746 127.1 274.054 126.792C274.394 126.468 274.799 126.314 275.269 126.33C275.739 126.346 276.144 126.517 276.484 126.841C276.808 127.181 276.97 127.586 276.97 128.056C276.987 128.51 276.825 128.907 276.484 129.247C276.112 129.603 275.674 130.008 275.172 130.462C274.67 130.9 274.151 131.329 273.616 131.75C273.098 132.171 272.596 132.544 272.109 132.868ZM287.324 132.771C286.854 132.431 286.352 132.05 285.817 131.629C285.299 131.191 284.797 130.754 284.31 130.316C283.824 129.863 283.395 129.449 283.022 129.077C282.698 128.736 282.536 128.339 282.536 127.886C282.552 127.416 282.731 127.019 283.071 126.695C283.411 126.371 283.816 126.209 284.286 126.209C284.756 126.192 285.161 126.355 285.501 126.695C285.809 127.003 286.214 127.359 286.717 127.764C287.219 128.169 287.729 128.566 288.248 128.955C288.766 129.344 289.212 129.668 289.585 129.927C290.022 130.235 290.273 130.632 290.338 131.118C290.419 131.588 290.322 132.026 290.046 132.431C289.739 132.868 289.317 133.111 288.783 133.16C288.248 133.208 287.762 133.079 287.324 132.771ZM276.557 122.976H282.998C283.419 122.976 283.711 122.895 283.873 122.733C284.051 122.571 284.14 122.312 284.14 121.955C284.14 121.583 284.051 121.323 283.873 121.178C283.711 121.016 283.419 120.935 282.998 120.935H276.557C276.152 120.935 275.86 121.016 275.682 121.178C275.504 121.323 275.415 121.583 275.415 121.955C275.415 122.312 275.504 122.571 275.682 122.733C275.86 122.895 276.152 122.976 276.557 122.976ZM309.928 131.677C307.092 132.228 304.637 132.447 302.563 132.334C300.506 132.236 298.991 131.791 298.018 130.997C297.516 130.592 297.119 130.138 296.827 129.636C296.552 129.133 296.358 128.526 296.244 127.813C296.131 127.1 296.074 126.241 296.074 125.237V115.369C296.074 114.85 296.252 114.413 296.609 114.056C296.981 113.684 297.427 113.497 297.945 113.497C298.464 113.497 298.901 113.684 299.258 114.056C299.631 114.413 299.817 114.85 299.817 115.369V120.278C301.081 119.954 302.385 119.59 303.73 119.185C305.075 118.78 306.274 118.374 307.327 117.969C307.862 117.759 308.364 117.767 308.834 117.994C309.304 118.204 309.62 118.553 309.782 119.039C309.96 119.525 309.944 120.011 309.733 120.497C309.539 120.967 309.199 121.291 308.712 121.469C307.821 121.793 306.857 122.109 305.82 122.417C304.799 122.725 303.77 123.009 302.733 123.268C301.713 123.527 300.74 123.754 299.817 123.948V125.237C299.817 125.868 299.841 126.363 299.89 126.719C299.955 127.076 300.052 127.351 300.181 127.545C300.311 127.74 300.481 127.91 300.692 128.056C301.032 128.283 301.526 128.445 302.174 128.542C302.823 128.639 303.722 128.647 304.872 128.566C306.039 128.485 307.538 128.291 309.369 127.983C309.887 127.886 310.349 127.991 310.754 128.299C311.175 128.607 311.418 129.02 311.483 129.538C311.564 130.057 311.451 130.519 311.143 130.924C310.835 131.329 310.43 131.58 309.928 131.677ZM311.021 118.942C310.859 118.763 310.6 118.504 310.244 118.164C309.903 117.824 309.62 117.532 309.393 117.289C309.231 117.111 309.15 116.876 309.15 116.584C309.15 116.276 309.255 116.001 309.466 115.758C309.644 115.563 309.871 115.45 310.146 115.417C310.438 115.385 310.705 115.45 310.948 115.612C311.224 115.79 311.548 116.033 311.921 116.341C312.293 116.633 312.585 116.916 312.796 117.192C313.022 117.451 313.136 117.743 313.136 118.067C313.136 118.374 313.014 118.666 312.771 118.942C312.561 119.185 312.277 119.314 311.921 119.33C311.564 119.33 311.264 119.201 311.021 118.942ZM313.282 116.56C313.103 116.398 312.828 116.163 312.455 115.855C312.083 115.547 311.759 115.28 311.483 115.053C311.321 114.907 311.216 114.688 311.167 114.397C311.135 114.089 311.224 113.805 311.435 113.546C311.597 113.335 311.815 113.206 312.091 113.157C312.366 113.092 312.634 113.125 312.893 113.254C313.185 113.4 313.525 113.611 313.914 113.886C314.303 114.145 314.627 114.405 314.886 114.664C315.129 114.891 315.267 115.166 315.299 115.49C315.331 115.814 315.234 116.114 315.007 116.39C314.813 116.649 314.546 116.803 314.205 116.851C313.865 116.884 313.557 116.787 313.282 116.56ZM324.122 133.5C323.717 133.678 323.295 133.678 322.858 133.5C322.437 133.338 322.137 133.046 321.959 132.625C321.797 132.204 321.797 131.783 321.959 131.361C322.121 130.94 322.412 130.64 322.834 130.462C324.454 129.782 325.782 128.979 326.819 128.056C327.873 127.132 328.683 126.063 329.25 124.848C329.833 123.616 330.214 122.215 330.392 120.643C330.457 120.189 330.668 119.825 331.024 119.549C331.381 119.274 331.786 119.168 332.239 119.233C332.709 119.298 333.082 119.509 333.357 119.865C333.633 120.222 333.73 120.627 333.649 121.08C333.26 123.948 332.28 126.436 330.708 128.542C329.153 130.632 326.957 132.285 324.122 133.5ZM327.257 125.528C326.819 125.674 326.406 125.658 326.017 125.48C325.645 125.285 325.377 124.977 325.215 124.556C325.037 124.086 324.81 123.559 324.535 122.976C324.276 122.377 324.057 121.899 323.879 121.542C323.684 121.121 323.636 120.7 323.733 120.278C323.83 119.841 324.073 119.509 324.462 119.282C324.851 119.055 325.272 118.99 325.726 119.087C326.179 119.185 326.512 119.436 326.722 119.841C326.965 120.311 327.233 120.854 327.524 121.469C327.816 122.085 328.075 122.741 328.302 123.438C328.448 123.875 328.416 124.297 328.205 124.702C328.01 125.107 327.694 125.382 327.257 125.528ZM323.077 126.427C322.671 126.606 322.258 126.614 321.837 126.452C321.416 126.274 321.108 125.982 320.913 125.577C320.654 125.026 320.379 124.499 320.087 123.997C319.795 123.495 319.552 123.09 319.358 122.782C319.131 122.393 319.042 121.98 319.091 121.542C319.155 121.088 319.366 120.732 319.723 120.473C320.095 120.197 320.508 120.1 320.962 120.181C321.416 120.246 321.772 120.465 322.031 120.837C322.356 121.291 322.696 121.85 323.052 122.514C323.409 123.163 323.7 123.746 323.927 124.264C324.105 124.686 324.114 125.107 323.952 125.528C323.789 125.949 323.498 126.249 323.077 126.427ZM343.833 133.306C343.363 133.5 342.885 133.5 342.399 133.306C341.929 133.127 341.589 132.803 341.378 132.334C341.167 131.864 341.159 131.394 341.354 130.924C341.548 130.438 341.88 130.089 342.35 129.879C347.616 127.578 351.392 124.256 353.676 119.914C354.114 119.071 353.822 118.65 352.801 118.65H349.885C349.123 119.671 348.272 120.659 347.333 121.615C346.393 122.555 345.396 123.406 344.343 124.167C343.922 124.475 343.452 124.58 342.934 124.483C342.431 124.386 342.026 124.127 341.718 123.705C341.427 123.284 341.321 122.822 341.402 122.32C341.5 121.801 341.759 121.396 342.18 121.105C343.039 120.521 343.89 119.817 344.732 118.99C345.591 118.164 346.369 117.281 347.065 116.341C347.762 115.385 348.313 114.453 348.718 113.546C348.929 113.076 349.277 112.752 349.763 112.574C350.249 112.379 350.727 112.387 351.197 112.598C351.667 112.809 351.999 113.157 352.194 113.643C352.404 114.113 352.396 114.583 352.169 115.053H353.385C354.778 115.053 355.856 115.312 356.617 115.831C357.379 116.333 357.808 117.038 357.905 117.945C358.019 118.836 357.792 119.873 357.225 121.056C356.382 122.822 355.264 124.499 353.871 126.087C352.493 127.659 350.946 129.069 349.228 130.316C347.511 131.548 345.712 132.544 343.833 133.306ZM358.805 116.9C358.643 116.722 358.383 116.462 358.027 116.122C357.687 115.782 357.403 115.49 357.176 115.247C357.014 115.069 356.933 114.834 356.933 114.542C356.933 114.235 357.038 113.967 357.249 113.74C357.427 113.546 357.662 113.432 357.954 113.4C358.246 113.351 358.513 113.408 358.756 113.57C359.031 113.748 359.347 113.992 359.704 114.299C360.076 114.607 360.376 114.899 360.603 115.174C360.83 115.434 360.935 115.725 360.919 116.049C360.919 116.357 360.798 116.641 360.554 116.9C360.344 117.143 360.06 117.273 359.704 117.289C359.347 117.289 359.048 117.159 358.805 116.9ZM361.065 114.542C360.887 114.364 360.611 114.121 360.239 113.813C359.866 113.505 359.55 113.246 359.291 113.036C359.112 112.873 358.999 112.647 358.95 112.355C358.918 112.063 359.007 111.788 359.218 111.529C359.38 111.302 359.598 111.164 359.874 111.115C360.149 111.051 360.417 111.083 360.676 111.213C360.968 111.375 361.308 111.593 361.697 111.869C362.086 112.128 362.41 112.379 362.669 112.622C362.912 112.849 363.05 113.125 363.082 113.449C363.115 113.773 363.017 114.073 362.791 114.348C362.596 114.607 362.329 114.761 361.988 114.81C361.648 114.858 361.34 114.769 361.065 114.542ZM370.981 133.403C370.511 133.614 370.033 133.63 369.547 133.452C369.061 133.289 368.705 132.974 368.478 132.504C368.267 132.034 368.251 131.556 368.429 131.07C368.607 130.567 368.932 130.211 369.401 130C371.087 129.222 372.367 128.161 373.242 126.816C374.117 125.455 374.595 123.722 374.676 121.615H371.613C371.629 122.182 371.629 122.733 371.613 123.268C371.613 123.786 371.597 124.264 371.565 124.702C371.548 125.204 371.346 125.633 370.957 125.99C370.584 126.33 370.139 126.484 369.62 126.452C369.102 126.419 368.68 126.209 368.356 125.82C368.032 125.415 367.878 124.961 367.895 124.459C367.927 124.07 367.943 123.632 367.943 123.146C367.959 122.66 367.959 122.15 367.943 121.615H363.325C362.823 121.615 362.394 121.437 362.037 121.08C361.681 120.724 361.502 120.295 361.502 119.792C361.502 119.29 361.681 118.861 362.037 118.504C362.394 118.148 362.823 117.969 363.325 117.969H367.822C367.789 117.483 367.749 117.022 367.7 116.584C367.668 116.147 367.627 115.766 367.579 115.442C367.514 114.923 367.619 114.461 367.895 114.056C368.186 113.635 368.583 113.384 369.085 113.303C369.604 113.222 370.066 113.327 370.471 113.619C370.892 113.91 371.135 114.316 371.2 114.834C371.265 115.272 371.321 115.758 371.37 116.292C371.419 116.827 371.459 117.386 371.492 117.969H374.651C374.635 117.354 374.603 116.754 374.554 116.171C374.522 115.588 374.489 115.077 374.457 114.64C374.424 114.121 374.57 113.667 374.894 113.279C375.218 112.873 375.632 112.647 376.134 112.598C376.652 112.566 377.106 112.72 377.495 113.06C377.9 113.384 378.119 113.805 378.151 114.324C378.2 114.794 378.232 115.353 378.248 116.001C378.281 116.633 378.305 117.289 378.321 117.969H382.55C383.053 117.969 383.474 118.148 383.814 118.504C384.171 118.861 384.349 119.29 384.349 119.792C384.349 120.295 384.171 120.724 383.814 121.08C383.474 121.437 383.053 121.615 382.55 121.615H378.321C378.127 127.302 375.68 131.232 370.981 133.403ZM397.692 133.524C397.19 133.524 396.752 133.338 396.38 132.965C396.007 132.609 395.821 132.171 395.821 131.653V122.685C394.881 123.511 393.909 124.305 392.904 125.066C391.9 125.812 390.895 126.517 389.89 127.181C389.453 127.456 388.983 127.529 388.481 127.4C387.978 127.27 387.589 126.986 387.314 126.549C387.055 126.095 386.982 125.625 387.095 125.139C387.225 124.637 387.508 124.248 387.946 123.973C388.643 123.535 389.412 122.992 390.255 122.344C391.114 121.696 391.989 120.999 392.88 120.254C393.771 119.492 394.638 118.715 395.48 117.921C396.339 117.111 397.109 116.333 397.789 115.588C398.486 114.842 399.045 114.162 399.466 113.546C399.774 113.125 400.179 112.865 400.682 112.768C401.2 112.671 401.67 112.768 402.091 113.06C402.513 113.351 402.772 113.757 402.869 114.275C402.982 114.777 402.885 115.239 402.577 115.66C402.14 116.228 401.67 116.803 401.168 117.386C400.682 117.969 400.155 118.553 399.588 119.136V131.653C399.588 132.171 399.402 132.609 399.029 132.965C398.656 133.338 398.211 133.524 397.692 133.524ZM418.424 133.67C417.922 133.67 417.484 133.484 417.112 133.111C416.739 132.755 416.553 132.317 416.553 131.799V115.029C416.553 114.51 416.739 114.064 417.112 113.692C417.484 113.319 417.922 113.133 418.424 113.133C418.943 113.133 419.38 113.319 419.737 113.692C420.109 114.064 420.296 114.51 420.296 115.029V120.57C420.587 120.295 420.936 120.133 421.341 120.084C421.746 120.019 422.127 120.084 422.483 120.278C423.439 120.781 424.371 121.332 425.278 121.931C426.185 122.531 427.012 123.138 427.757 123.754C428.162 124.078 428.381 124.507 428.413 125.042C428.462 125.561 428.324 126.022 428 126.427C427.676 126.833 427.247 127.059 426.712 127.108C426.194 127.157 425.732 127.019 425.327 126.695C424.873 126.338 424.363 125.966 423.795 125.577C423.245 125.188 422.702 124.823 422.167 124.483C421.632 124.127 421.154 123.835 420.733 123.608C420.668 123.559 420.595 123.511 420.514 123.462C420.45 123.397 420.377 123.333 420.296 123.268V131.799C420.296 132.317 420.109 132.755 419.737 133.111C419.38 133.484 418.943 133.67 418.424 133.67Z" fill="#222222"/>
</svg>
