<svg width="426" height="242" viewBox="0 0 426 242" fill="none" xmlns="http://www.w3.org/2000/svg">
<path d="M306.399 11.5852C315.878 9.36758 327.592 10.9065 337.891 13.4662C348.824 16.1835 360.784 20.7207 371.731 26.6995C382.496 32.5794 393.419 40.4732 401.167 50.4656C409.006 60.5771 414.556 74.332 410.795 89.894L410.609 90.6366C406.91 104.873 399.404 118.986 383.957 122.247C370.861 125.011 358.917 117.875 352.204 113.386C348.239 110.735 344.359 107.747 340.917 105.049C340.694 104.874 340.493 104.716 340.258 104.531L331.547 97.6901L325.629 107.051C316.116 122.097 304.456 135.792 290.377 144.361C279.178 151.176 266.166 154.915 251.804 153.143L251.119 153.054C240.217 151.579 229.517 147.063 219.012 139.739L208.837 132.646L204.064 144.093C200.358 152.978 194.505 162.273 185.041 169.521C173.111 178.656 161.16 182.457 149.264 182.158L148.113 182.117C136.586 181.573 126.545 177.22 119.082 173.735C115.43 172.029 112.395 170.557 109.523 169.266L93.4458 162.038L95.4904 179.547C95.8332 182.482 96.223 185.807 96.4859 188.922C97.0994 196.19 97.609 207.195 93.1433 217.05C87.9279 228.558 77.8319 234.96 65.2621 236.738L65.1712 236.751L65.1401 236.755L64.1831 236.878L64.0735 236.891C49.5727 238.596 37.6704 232.8 29.5937 222.741L29.2125 222.258C21.9498 212.952 18.5359 201.078 16.9194 190.617C15.2509 179.817 15.1919 168.502 16.0465 158.566C16.882 148.854 18.7031 139.158 21.527 131.904L21.5259 131.903L21.8798 131.016C29.4531 112.291 44.9074 96.3848 62.4852 87.3288C80.2352 78.1843 102.934 74.7643 123.462 86.2807L133.477 91.8993L137.666 81.2079C138.157 79.9545 138.674 78.7208 139.221 77.5135C150.261 53.1509 170.511 40.2391 192.384 38.4057C212.209 36.7442 232.541 44.1771 248.296 58.4353L258.116 67.3227L263.974 55.4438C267.017 49.2743 271.032 41.291 275.111 35.1936C281.515 25.6246 291.226 15.1352 306.399 11.5852Z" fill="#EA5520"/>
<path d="M308.676 21.3227C315.787 19.6591 325.603 20.7172 335.479 23.1716C345.603 25.6879 356.76 29.9179 366.937 35.4762C377.026 40.9867 386.665 48.0813 393.264 56.593C399.966 65.2373 404.045 76.136 400.931 88.1221C397.475 101.42 391.499 110.435 381.892 112.462C373.279 114.28 364.557 109.618 357.763 105.074C354.136 102.649 350.512 99.8641 347.087 97.1791C343.585 94.4341 340.347 91.8402 337.185 89.5111C334.026 87.185 331.247 85.3552 328.812 84.1423C328.307 83.8908 327.839 83.678 327.407 83.4979C316.842 104.503 302.881 125.045 285.178 135.819C275.434 141.749 264.469 144.769 252.459 143.144C240.51 141.528 228.164 135.402 215.467 124.232C210.488 119.852 206.785 116.986 204.033 115.238C202.917 114.53 202.07 114.08 201.452 113.794C201.276 114.399 201.093 115.143 200.896 116.059C198.905 125.319 197.393 147.465 178.96 161.581C168.326 169.725 158.271 172.586 148.585 172.128C139.179 171.684 130.685 168.116 123.314 164.673C108.337 157.679 98.1715 151.887 86.023 157.365C84.8439 159.716 84.282 163.247 84.4656 168.599C84.5717 171.69 84.9066 175.018 85.3189 178.635C85.7184 182.141 86.2064 186.035 86.521 189.762C87.1297 196.974 87.3344 205.64 84.0347 212.922C80.4653 220.798 73.6447 225.452 63.8608 226.837L62.9044 226.96C51.9113 228.253 43.1982 223.926 37.0956 216.106C31.3438 208.735 28.3025 198.803 26.8016 189.089C25.2787 179.232 25.2086 168.736 26.0098 159.423C26.8025 150.208 28.5005 141.556 30.8458 135.532C37.3166 118.91 51.163 104.411 67.0645 96.2183C82.9835 88.017 102.226 85.5427 119.139 95.3237C121.999 96.9781 124.728 99.068 127.131 100.963C129.67 102.965 131.83 104.735 134.083 106.317C136.498 108.013 138.517 109.117 140.304 109.696C142.19 100.889 144.206 90.7423 148.33 81.6407C157.886 60.5523 174.987 49.8985 193.219 48.3703C211.242 46.8598 230.265 54.2319 244.534 68.6695C254.188 78.4375 258.615 78.4963 260.318 77.9882C261.371 77.6739 262.709 76.8225 264.407 74.7746C266.126 72.7017 267.864 69.8332 269.805 66.1433C273.403 59.3029 277.898 49.0113 283.423 40.7546C289.189 32.1376 297.053 24.0422 308.676 21.3227Z" fill="#EA5520" stroke="white" stroke-linecap="round" stroke-dasharray="10 10"/>
</svg>
