<svg width="220" height="166" viewBox="0 0 220 166" fill="none" xmlns="http://www.w3.org/2000/svg">
<path d="M70.2314 29.39C74.0356 24.2268 80.9261 15.5454 82.3843 13.7902C85.0428 10.5902 89.6001 3.79026 92.9127 0C94.1575 1.39028 96.9039 3.8325 98.3351 5.79024C100.368 8.57125 101.968 9.6051 108.355 16.2385C112.548 20.594 116.653 25.6643 124.64 38.0009C130.454 46.981 141.161 63.7446 149.768 74.8396C158.374 85.9347 164.69 91.2015 175.68 104.921C186.669 118.64 201.809 140.207 209.759 151.248C218.206 162.979 218.345 163.389 220 166C212.269 164.989 207.477 164.289 191.381 161.789C161.28 157.114 156.463 156.522 122.603 152.9C88.7424 149.277 52.6066 146.752 34.0508 145.425C15.495 144.098 14.548 143.973 11.2497 143.884C7.9514 143.794 3.76998 143.884 0 143.494C0.731743 140.589 3.74837 135.241 11.1522 123.447C15.0903 117.174 18.6394 109.461 23.1706 100.705C25.3222 96.5475 26.1014 94.3534 28.152 91.3072C31.6093 86.1714 38.9146 78.4871 47.1095 66.3106C51.5704 59.6824 55.8252 51.5976 60.5111 44.1395C69.6031 29.6686 68.2714 32.0502 70.2314 29.39Z" fill="white"/>
</svg>
