<svg width="303" height="167" viewBox="0 0 303 167" fill="none" xmlns="http://www.w3.org/2000/svg">
<path d="M227.635 0.647499C233.351 -0.689825 241.242 0.160748 249.181 2.13382C257.32 4.15657 266.288 7.55699 274.469 12.0252C282.579 16.4549 290.328 22.1581 295.633 29.0004C301.021 35.9493 304.299 44.7105 301.796 54.3458C299.018 65.0355 294.214 72.2823 286.491 73.9122C279.567 75.3735 272.556 71.6259 267.094 67.9733C264.179 66.0238 261.266 63.7849 258.512 61.6265C255.697 59.4199 253.095 57.3347 250.552 55.4624C248.013 53.5925 245.779 52.1216 243.822 51.1466C243.416 50.9444 243.04 50.7733 242.692 50.6286C234.199 67.5137 222.976 84.0268 208.745 92.6878C200.912 97.455 192.098 99.8826 182.444 98.5768C172.838 97.2776 162.913 92.353 152.706 83.3739C148.704 79.853 145.727 77.5488 143.515 76.1437C142.618 75.5743 141.937 75.2125 141.44 74.9825C141.299 75.469 141.151 76.0668 140.993 76.8037C139.393 84.2478 138.177 102.05 123.36 113.398C114.811 119.944 106.728 122.244 98.9415 121.876C91.3808 121.519 84.5528 118.651 78.6269 115.883C66.5876 110.261 58.4157 105.605 48.6498 110.009C47.702 111.898 47.2503 114.737 47.3979 119.039C47.4832 121.524 47.7524 124.199 48.0838 127.107C48.405 129.925 48.7973 133.056 49.0502 136.052C49.5395 141.849 49.7041 148.816 47.0515 154.669C44.1822 161.001 38.6993 164.742 30.8343 165.855L30.0655 165.954C21.2284 166.993 14.2241 163.515 9.31845 157.229C4.69468 151.304 2.24985 143.319 1.04333 135.51C-0.18085 127.587 -0.237197 119.149 0.406815 111.663C1.04405 104.255 2.40908 97.3002 4.29437 92.4572C9.49609 79.0953 20.6268 67.4397 33.4096 60.8541C46.2065 54.2613 61.6754 52.2723 75.2709 60.135C77.5704 61.4649 79.7638 63.1449 81.6955 64.6684C83.7362 66.278 85.4727 67.7008 87.2838 68.9724C89.2255 70.3358 90.8486 71.2229 92.2846 71.6884C93.8008 64.6088 95.4215 56.4521 98.7368 49.1356C106.419 32.1832 120.165 23.6189 134.822 22.3904C149.31 21.1761 164.602 27.1024 176.073 38.7084C183.833 46.5606 187.392 46.6079 188.761 46.1994C189.607 45.9468 190.683 45.2624 192.048 43.6161C193.43 41.9498 194.827 39.6439 196.387 36.6776C199.279 31.1788 202.893 22.9056 207.335 16.2683C211.97 9.34138 218.291 2.83366 227.635 0.647499Z" fill="#004ABA"/>
</svg>
