<svg width="234" height="207" viewBox="0 0 234 207" fill="none" xmlns="http://www.w3.org/2000/svg">
<path d="M212.315 8.55859C212.577 10.1169 212.85 12.0717 213.107 14.5215C214.111 24.0565 215.591 41.949 216.486 52.291C217.574 64.8632 218.934 71.8228 220.828 79.9941C222.25 86.1269 223.704 91.2537 225.366 104.764C226.04 110.236 226.76 117.792 227.49 125.536C228.224 133.313 228.971 141.301 229.7 147.735C230.787 157.32 231.711 164.845 232.363 169.971C232.457 170.707 232.546 171.395 232.629 172.037L233.84 181.419L224.539 183.148C223.286 183.381 222.005 183.621 220.983 183.811C220.409 183.917 219.912 184.008 219.546 184.075C219.404 184.101 219.223 184.134 219.094 184.157L219.064 184.165L218.77 184.216C216.961 184.526 215.746 184.909 191.02 187.12C183.566 187.787 174.98 188.23 166.49 188.647C157.968 189.067 149.545 189.461 142.307 190.025C127.718 191.163 118.698 192.628 101.888 194.321C85.3467 195.988 61.5373 197.813 47.1025 199.173C37.4815 200.079 27.0136 201.795 18.918 203.295C16.6839 203.709 14.6329 204.106 12.834 204.464L0.902344 206.836L0.883789 194.671C0.881879 193.373 0.878243 191.89 0.87793 190.299C0.876473 182.901 0.896417 172.804 0.987305 162.011C1.16829 140.519 1.62632 115.987 2.76074 104.685C3.83773 93.9541 3.2389 75.2803 2.33496 59.0322C1.88604 50.9632 1.3672 43.5802 0.960938 38.2139C0.883321 37.1886 0.809483 36.2363 0.741211 35.3662L0 25.9102L9.40332 24.6699C13.8525 24.0829 21.5848 23.0556 35.0195 21.2549C66.3352 17.0574 128.823 8.65898 162.921 4.30957C196.733 -0.00337648 191.16 0.542009 193.718 0.450195C194.918 0.407118 198.33 0.316802 201.416 0.238281C201.548 0.234916 202.111 0.221025 202.201 0.21875L210.877 0L212.315 8.55859Z" fill="#E29D25"/>
<path d="M202.454 10.2158C202.677 11.5446 202.923 13.2931 203.162 15.5679C204.153 24.9802 205.62 42.7079 206.524 53.1533C207.659 66.2711 209.104 73.7017 211.086 82.2526C212.512 88.4035 213.851 93.0603 215.441 105.985C216.094 111.287 216.8 118.685 217.535 126.475C218.265 134.213 219.021 142.312 219.764 148.862C220.856 158.495 221.786 166.066 222.443 171.233C222.538 171.978 222.628 172.673 222.711 173.317C221.443 173.553 220.181 173.789 219.164 173.977C218.599 174.082 218.112 174.171 217.742 174.239C217.557 174.273 217.404 174.301 217.286 174.323C217.227 174.333 217.179 174.341 217.142 174.348C217.124 174.351 217.109 174.354 217.098 174.356C217.093 174.357 217.089 174.358 217.086 174.358C217.083 174.359 217.081 174.359 217.081 174.359C215.709 174.594 214.85 174.95 190.129 177.16C182.907 177.806 174.517 178.241 165.999 178.66C157.543 179.076 148.946 179.477 141.529 180.056C126.925 181.195 117.008 182.748 100.885 184.372C84.2123 186.052 61.0634 187.814 46.1649 189.217C36.1152 190.163 25.3158 191.94 17.0965 193.462C14.8131 193.885 12.7193 194.291 10.8842 194.656C10.8823 193.34 10.8782 191.88 10.8779 190.297C10.8765 182.917 10.8969 172.85 10.9874 162.095C11.1698 140.441 11.6326 116.428 12.7111 105.683C13.8783 94.054 13.2173 74.6115 12.3197 58.4766C11.8661 50.3232 11.3424 42.8712 10.9327 37.459C10.8543 36.4232 10.7798 35.4615 10.7109 34.5838C15.1693 33.9956 22.9092 32.9676 36.3482 31.1663C67.6837 26.9662 130.128 18.5739 164.186 14.2296C198.747 9.82131 192.121 10.5135 194.076 10.4434C195.21 10.4027 198.556 10.3143 201.67 10.235C201.934 10.2283 202.196 10.2223 202.454 10.2158Z" fill="#E29D25" stroke="#FEFEFE" stroke-linecap="round" stroke-dasharray="10 10"/>
</svg>
