<svg width="212" height="185" viewBox="0 0 212 185" fill="none" xmlns="http://www.w3.org/2000/svg">
<path d="M191.743 0C191.966 1.32881 192.212 3.07724 192.451 5.35204C193.442 14.7644 194.909 32.4921 195.813 42.9375C196.948 56.0552 198.393 63.4859 200.375 72.0367C201.801 78.1877 203.14 82.8444 204.73 95.7691C205.383 101.071 206.089 108.469 206.824 116.259C207.554 123.997 208.31 132.096 209.053 138.646C210.145 148.28 211.075 155.85 211.732 161.017C211.827 161.762 211.917 162.457 212 163.102C210.732 163.337 209.47 163.573 208.453 163.762C207.888 163.866 207.401 163.955 207.031 164.023C206.846 164.057 206.693 164.085 206.575 164.107C206.516 164.117 206.468 164.125 206.431 164.132C206.413 164.135 206.398 164.138 206.387 164.14C206.382 164.141 206.378 164.142 206.375 164.143C206.372 164.143 206.37 164.143 206.37 164.143C204.998 164.379 204.139 164.734 179.418 166.945C172.196 167.59 163.806 168.025 155.288 168.444C146.832 168.86 138.235 169.261 130.818 169.84C116.214 170.979 106.297 172.532 90.174 174.156C73.5014 175.836 50.3524 177.598 35.4539 179.001C25.4043 179.947 14.6049 181.724 6.38553 183.246C4.10216 183.669 2.00836 184.075 0.173261 184.44C0.171325 183.124 0.167289 181.665 0.166977 180.081C0.165525 172.702 0.185926 162.634 0.2765 151.879C0.458853 130.225 0.921635 106.213 2.00014 95.4675C3.16734 83.8382 2.50638 64.3957 1.60873 48.2607C1.15512 40.1074 0.631472 32.6554 0.221739 27.2432C0.14332 26.2073 0.0688739 25.2457 0 24.3679C4.4584 23.7798 12.1982 22.7518 25.6373 20.9505C56.9728 16.7503 119.417 8.35806 153.475 4.01381C188.036 -0.394513 181.41 0.297729 183.365 0.227542C184.499 0.186838 187.845 0.0984318 190.959 0.0191798C191.223 0.012465 191.485 0.00652565 191.743 0Z" fill="#E29D25"/>
</svg>
