<svg width="356" height="381" viewBox="0 0 356 381" fill="none" xmlns="http://www.w3.org/2000/svg">
<path d="M245.863 2.32632L285.787 102.108L213.957 127.158L282.922 313.77L182.599 344.634L142.704 225.699L118.082 161.113C115.423 162.077 112.321 163.207 108.962 164.45C98.5262 168.311 85.7686 173.178 76.0584 177.337C70.6655 179.648 63.7626 182.789 58.1531 185.38C55.3606 186.67 52.9102 187.812 51.1587 188.633C50.2832 189.043 49.5826 189.372 49.1022 189.599C48.862 189.712 48.6765 189.799 48.5519 189.857C48.4896 189.887 48.4426 189.91 48.4113 189.925C48.3959 189.932 48.3844 189.937 48.3768 189.941C48.3729 189.943 48.3694 189.944 48.3676 189.944L48.3662 189.946L38.3417 194.684L34.6589 184.226L44.0917 180.905C34.6592 184.226 34.6591 184.227 34.6589 184.226L34.6579 184.223C34.6572 184.222 34.6569 184.218 34.6557 184.215C34.6532 184.208 34.6498 184.198 34.6451 184.184C34.6354 184.157 34.6206 184.116 34.6016 184.062C34.5635 183.954 34.5065 183.793 34.4325 183.583C34.2846 183.162 34.0671 182.542 33.7869 181.744C33.2264 180.149 32.4169 177.841 31.4192 174.993C29.4237 169.297 26.6755 161.433 23.665 152.767C17.654 135.464 10.5638 114.865 6.34314 101.949L3.36257 92.8282L245.863 2.32632Z" fill="#E29D25"/>
<path d="M44.0916 180.905C44.0916 180.905 24.224 124.474 15.8481 98.8424L240.207 15.1105L272.616 96.1102L201.046 121.07L269.877 307.321L188.978 332.209L152.123 222.336L123.934 148.393C123.934 148.393 92.0259 159.619 72.1205 168.145C61.0652 172.881 44.0916 180.905 44.0916 180.905Z" fill="#E29D25" stroke="white" stroke-linecap="round" stroke-dasharray="10 10"/>
</svg>
