<svg width="250" height="157" viewBox="0 0 250 157" fill="none" xmlns="http://www.w3.org/2000/svg">
<path d="M65.4669 6.82887C90.5828 -1.25325 113.731 -2.02192 135.776 3.78395L136.824 4.0652L137.916 4.36891L138.941 4.66383C160.94 11.116 180.867 23.8494 199.999 40.4109C212.696 51.4022 220.81 66.0939 226.807 79.9929C232.472 93.1226 237.646 109.327 241.728 119.88L249.237 139.297L228.441 140.273C194.123 141.884 156.49 141.238 121.743 142.122C86.6945 143.013 52.6194 145.439 20.6486 152.837L20.6359 152.84L19.1388 153.19L19.1261 153.193L3.0265 157.006L0.804817 140.611C-1.98125 120.048 2.59102 91.1523 12.5851 65.9978C22.338 41.4507 39.3813 15.2233 65.4669 6.82887Z" fill="#E29D25"/>
<path d="M70.0616 21.1072C31.1865 33.6171 10.9698 103.914 15.6692 138.596C83.5292 122.523 158.969 128.518 227.737 125.289C218.259 100.783 210.528 69.3641 190.182 51.7517C153.238 19.771 116.82 6.06032 70.0616 21.1072Z" fill="#E29D25" stroke="white" stroke-linecap="round" stroke-dasharray="10 10"/>
</svg>
