<svg width="347" height="199" viewBox="0 0 347 199" fill="none" xmlns="http://www.w3.org/2000/svg">
<path d="M248.035 9.58029C256.115 7.68985 265.9 9.01868 274.271 11.0992C283.219 13.323 292.991 17.0298 301.941 21.9185C310.729 26.7182 319.761 33.2199 326.214 41.5426C332.743 49.9627 337.519 61.6221 334.312 74.8974L334.153 75.5306C331.156 87.0651 324.852 99.492 311.235 102.366C299.842 104.771 289.621 98.5717 284.214 94.9562C280.961 92.7806 277.793 90.3395 275.021 88.1671C272.808 86.4324 270.9 84.9114 269.074 83.5166C260.886 97.7285 250.228 111.62 236.623 119.9C227.162 125.658 216.064 128.817 203.782 127.156C192.36 125.611 181.301 120.085 170.654 111.16C168.115 120.213 163.076 131.615 152.118 140.007C141.892 147.838 131.528 151.025 121.149 150.535C111.475 150.078 103.107 146.431 97.0739 143.614C90.4828 140.536 86.522 138.522 82.8036 137.496C81.7912 137.216 80.8927 137.043 80.0594 136.971C80.0625 137.099 80.0658 137.231 80.0705 137.366C80.1412 139.427 80.3704 141.766 80.6984 144.644C81.0017 147.306 81.424 150.691 81.6933 153.88C82.1899 159.764 82.6514 169.053 78.8382 177.467C74.3123 187.454 65.5358 192.923 54.9142 194.426L54.8533 194.435L54.7913 194.442L54.0232 194.541L53.968 194.549L53.9127 194.555C41.3253 196.036 30.9894 190.863 24.1133 182.051C17.9792 174.191 15.1619 164.265 13.8396 155.707C12.4697 146.84 12.4245 137.584 13.122 129.475C13.8022 121.569 15.2906 113.571 17.6543 107.499L17.9487 106.759C24.2281 91.236 36.9967 78.1105 51.5084 70.6342C66.3038 63.0118 85.5352 60.0733 102.956 70.1484C105.024 71.3444 106.949 72.7137 108.586 73.9524C109.577 70.5388 110.783 67.0428 112.307 63.6778C121.472 43.4522 138.366 32.6291 156.665 31.0953C174.408 29.6083 192.532 36.8599 205.864 50.3492C207.045 51.5446 208.042 52.4547 208.861 53.1461C209.262 52.4584 209.713 51.6478 210.216 50.6918C212.588 46.1808 216.884 36.577 221.702 29.3769C226.967 21.5083 235.135 12.5987 248.035 9.58029Z" fill="#004ABA"/>
<path d="M250.314 19.3174C256.03 17.98 263.921 18.8306 271.86 20.8037C279.998 22.8264 288.967 26.2268 297.148 30.695C305.258 35.1248 313.007 40.828 318.312 47.6702C323.699 54.6191 326.978 63.3804 324.474 73.0157C321.697 83.7054 316.892 90.9521 309.169 92.5821C302.246 94.0434 295.235 90.2958 289.773 86.6431C286.858 84.6936 283.944 82.4547 281.191 80.2963C278.375 78.0897 275.773 76.0045 273.231 74.1322C270.692 72.2624 268.458 70.7914 266.5 69.8164C266.094 69.6142 265.718 69.4432 265.371 69.2984C256.878 86.1836 245.655 102.697 231.424 111.358C223.591 116.125 214.776 118.552 205.122 117.247C195.516 115.947 185.592 111.023 175.385 102.044C171.382 98.5229 168.406 96.2187 166.193 94.8136C165.297 94.2442 164.616 93.8824 164.119 93.6524C163.977 94.1388 163.83 94.7367 163.672 95.4736C162.071 102.918 160.856 120.72 146.038 132.067C137.489 138.614 129.407 140.914 121.62 140.546C114.059 140.189 107.231 137.321 101.305 134.553C89.2662 128.931 81.0943 124.275 71.3284 128.679C70.3806 130.568 69.9289 133.407 70.0765 137.709C70.1618 140.194 70.431 142.869 70.7624 145.777C71.0836 148.595 71.4758 151.725 71.7288 154.722C72.2181 160.519 72.3827 167.486 69.7301 173.339C66.8608 179.671 61.3779 183.412 53.5129 184.525L52.744 184.624C43.9069 185.663 36.9027 182.185 31.997 175.899C27.3733 169.974 24.9284 161.989 23.7219 154.18C22.4977 146.257 22.4414 137.819 23.0854 130.332C23.7226 122.925 25.0877 115.97 26.973 111.127C32.1747 97.7651 43.3054 86.1096 56.0882 79.524C68.8851 72.9312 84.354 70.9422 97.9495 78.8048C100.249 80.1347 102.442 81.8148 104.374 83.3383C106.415 84.9479 108.151 86.3706 109.962 87.6423C111.904 89.0056 113.527 89.8928 114.963 90.3582C116.479 83.2786 118.1 75.1219 121.415 67.8054C129.097 50.8531 142.844 42.2887 157.501 41.0603C171.989 39.846 187.281 45.7722 198.751 57.3782C206.512 65.2305 210.071 65.2778 211.44 64.8693C212.286 64.6166 213.361 63.9322 214.727 62.2859C216.109 60.6196 217.505 58.3137 219.066 55.3475C221.958 49.8487 225.572 41.5755 230.013 34.9382C234.648 28.0112 240.97 21.5035 250.314 19.3174Z" fill="#004ABA" stroke="white" stroke-linecap="round" stroke-dasharray="10 10"/>
</svg>
